<svg width="75" height="68" viewBox="0 0 75 68" fill="none" xmlns="http://www.w3.org/2000/svg">
<path d="M28.3085 58.4097C30.3182 59.0987 38.0124 67.3671 38.0124 67.3671C38.0124 67.3671 45.6683 59.1179 47.6588 58.4289C59.5063 54.4095 68.0234 43.2128 68.0234 30.0064C68.0426 12.9529 53.8218 -0.770265 36.596 0.0336031C21.112 0.741772 8.59465 13.3931 8.02046 28.8963C7.52283 42.562 16.1548 54.2564 28.3085 58.4097Z" fill="#628CA5"/>
<rect width="75" height="57" rx="6" fill="#628CA5"/>
<path d="M17 44.8323C17.4771 45.518 18.1087 46.0736 18.8405 46.451C19.5722 46.8285 20.3821 47.0165 21.2 46.9989C22.0179 47.0165 22.8278 46.8285 23.5595 46.451C24.2913 46.0736 24.9229 45.518 25.4 44.8323C25.8771 44.1465 26.5087 43.591 27.2405 43.2135C27.9722 42.836 28.7821 42.648 29.6 42.6657C30.4179 42.648 31.2278 42.836 31.9595 43.2135C32.6913 43.591 33.3229 44.1465 33.8 44.8323C34.2771 45.518 34.9087 46.0736 35.6405 46.451C36.3722 46.8285 37.1821 47.0165 38 46.9989C38.8179 47.0165 39.6278 46.8285 40.3595 46.451C41.0913 46.0736 41.7229 45.518 42.2 44.8323C42.6771 44.1465 43.3087 43.591 44.0405 43.2135C44.7722 42.836 45.5821 42.648 46.4 42.6657C47.2179 42.648 48.0278 42.836 48.7595 43.2135C49.4913 43.591 50.1229 44.1465 50.6 44.8323C51.0771 45.518 51.7087 46.0736 52.4405 46.451C53.1722 46.8285 53.9821 47.0165 54.8 46.9989C55.6179 47.0165 56.4278 46.8285 57.1595 46.451C57.8913 46.0736 58.5229 45.518 59 44.8323M21.2 40.499L19.1 29.666H56.9L52.7 38.3324M23.3 29.666V16.6664H40.1L48.5 29.666M27.5 16.6664V8H25.4" stroke="white" stroke-width="4" stroke-linecap="round" stroke-linejoin="round"/>
</svg>
