<svg width="75" height="68" viewBox="0 0 75 68" fill="none" xmlns="http://www.w3.org/2000/svg">
<path d="M28.3085 58.4097C30.3182 59.0987 38.0124 67.3671 38.0124 67.3671C38.0124 67.3671 45.6683 59.1179 47.6588 58.4289C59.5063 54.4095 68.0234 43.2128 68.0234 30.0064C68.0426 12.9529 53.8218 -0.770265 36.596 0.0336031C21.112 0.741772 8.59465 13.3931 8.02046 28.8963C7.52283 42.562 16.1548 54.2564 28.3085 58.4097Z" fill="#628CA5"/>
<rect width="75" height="57" rx="6" fill="#628CA5"/>
<path d="M55 9H21C20.2044 9 19.4413 9.31607 18.8787 9.87868C18.3161 10.4413 18 11.2044 18 12V46C18 46.7956 18.3161 47.5587 18.8787 48.1213C19.4413 48.6839 20.2044 49 21 49H55C55.7956 49 56.5587 48.6839 57.1213 48.1213C57.6839 47.5587 58 46.7956 58 46V12C58 11.2044 57.6839 10.4413 57.1213 9.87868C56.5587 9.31607 55.7956 9 55 9V9Z" stroke="white" stroke-width="4" stroke-linejoin="round"/>
<path d="M26 24.0547C29.325 20.0547 33.325 18.0547 38 18.0547C42.675 18.0547 46.675 20.0547 50 24.0547" stroke="white" stroke-width="4" stroke-linecap="round"/>
<path d="M38 36C38.7956 36 39.5587 35.6839 40.1213 35.1213C40.6839 34.5587 41 33.7956 41 33C41 32.2044 40.6839 31.4413 40.1213 30.8787C39.5587 30.3161 38.7956 30 38 30C37.2044 30 36.4413 30.3161 35.8787 30.8787C35.3161 31.4413 35 32.2044 35 33C35 33.7956 35.3161 34.5587 35.8787 35.1213C36.4413 35.6839 37.2044 36 38 36Z" fill="white"/>
<path d="M33 26L38.008 33" stroke="white" stroke-width="4" stroke-linecap="round"/>
</svg>
