<svg width="96" height="94" viewBox="0 0 96 94" fill="none" xmlns="http://www.w3.org/2000/svg">
<path d="M38.3088 76.4097C40.3185 77.0987 48.0126 85.3671 48.0126 85.3671C48.0126 85.3671 55.6685 77.1179 57.659 76.4289C69.5065 72.4095 78.0237 61.2128 78.0237 48.0064C78.0428 30.9529 63.822 17.2297 46.5963 18.0336C31.1123 18.7418 18.5949 31.3931 18.0207 46.8963C17.5231 60.562 26.1551 72.2564 38.3088 76.4097Z" fill="#628CA5"/>
<rect x="10.0002" y="18" width="75" height="57" rx="6" fill="#628CA5"/>
<path d="M47.7909 68.0367C38.2987 68.0367 28.8065 68.0367 19.3129 68.0367C18.438 68.0367 18.4302 68.0367 18.438 67.1501C18.4497 65.8612 18.2774 66.0414 19.531 66.027C20.1617 66.0192 20.7937 66.027 21.4245 66.0257C22.0434 66.0257 22.3534 65.7267 22.3542 65.1286C22.3542 64.4979 22.3542 63.8658 22.3542 63.2351C22.3542 54.0706 22.3595 44.9062 22.3412 35.743C22.3412 35.1593 22.4835 34.8811 23.0659 34.6631C31.1426 31.6465 39.2024 28.5948 47.2751 25.5769C47.6186 25.449 48.0939 25.4477 48.4373 25.5769C56.531 28.6026 64.6116 31.6609 72.7053 34.6879C73.2342 34.8851 73.3687 35.1462 73.3674 35.6764C73.353 45.4716 73.3556 55.2668 73.3582 65.0633C73.3582 66.1197 73.2459 66.0192 74.2867 66.0244C75.0924 66.0283 75.8981 66.0414 76.7025 66.0192C77.1086 66.0075 77.2928 66.1158 77.281 66.5637C77.234 68.3736 77.5135 68.0289 75.8746 68.0315C66.513 68.0446 57.1513 68.038 47.7896 68.038L47.7909 68.0367ZM39.5602 59.0472C39.7508 59.0055 39.8135 58.9793 39.8762 58.978C43.2949 58.9741 46.7123 58.978 50.131 58.965C50.5567 58.9637 50.6338 59.1556 50.6312 59.52C50.6207 61.2398 50.6259 62.9596 50.6273 64.6781C50.6273 66.0388 50.6273 66.0101 51.9579 66.0362C52.5286 66.0479 52.6422 65.8325 52.6344 65.3167C52.6082 63.4663 52.6226 61.6159 52.6265 59.7655C52.6265 59.516 52.6605 59.2666 52.6761 59.0329C52.8146 59.0029 52.8772 58.9767 52.9412 58.9767C56.36 58.9728 59.7774 58.9767 63.1961 58.9637C63.6231 58.9624 63.6975 59.1556 63.6949 59.52C63.6832 61.1523 63.691 62.7846 63.691 64.4182C63.691 66.0349 63.691 66.0061 65.2828 66.0388C65.8796 66.0505 66.0011 65.8521 65.9998 65.2945C65.9828 58.0888 65.988 50.8844 65.9867 43.6787C65.9867 43.4462 65.9645 43.2151 65.9501 42.9239C65.6511 42.9239 65.4147 42.9239 65.1797 42.9239C62.6973 42.9239 60.2161 42.9239 57.7337 42.9239C48.6332 42.9239 39.5327 42.9278 30.4309 42.9147C29.919 42.9147 29.7101 43.0101 29.7114 43.5846C29.731 50.8556 29.7284 58.1253 29.7153 65.3963C29.7153 65.8729 29.8381 66.0375 30.3356 66.0336C33.2098 66.0127 36.084 66.0114 38.9569 66.0336C39.4687 66.0375 39.5719 65.8442 39.5667 65.3832C39.5458 63.5329 39.5589 61.6825 39.5589 59.8321C39.5589 59.5761 39.5589 59.3522 39.5589 59.0779L39.5602 59.0472ZM68.097 66.0244C69.0045 66.0244 69.8089 65.9826 70.6068 66.0375C71.2362 66.0819 71.3564 65.8364 71.3551 65.2605C71.3394 55.8584 71.3394 46.4549 71.3551 37.0528C71.3551 36.52 71.214 36.2588 70.6878 36.0629C63.247 33.2841 55.8167 30.4752 48.376 27.695C48.0678 27.5801 47.6408 27.5814 47.3326 27.6963C39.9114 30.4674 32.5033 33.2697 25.0796 36.0368C24.4958 36.2549 24.3548 36.5409 24.3561 37.1233C24.3744 46.4823 24.3692 55.8414 24.3692 65.2004C24.3692 65.3741 24.3404 65.5582 24.3875 65.7189C24.4214 65.8338 24.5585 66.0009 24.6525 66.0022C25.6228 66.0231 26.5943 66.0153 27.6155 66.0153C27.6155 65.634 27.6155 65.3545 27.6155 65.0738C27.6155 56.2371 27.6155 47.4004 27.6155 38.5636C27.6155 37.9995 27.8976 37.717 28.4617 37.7161C41.3923 37.7161 54.3241 37.7161 67.2547 37.7161C67.8153 37.7161 68.0961 38 68.097 38.5676C68.097 47.4043 68.097 56.241 68.097 65.0777V66.0244ZM29.7898 39.9021C29.7071 40.5707 29.9639 40.9055 30.5602 40.9063C42.0935 40.9063 53.6268 40.9063 65.1601 40.9063C66.0729 40.9063 66.1173 40.845 65.8822 39.9021H29.7898ZM48.611 65.9265C48.611 64.3451 48.6189 62.8486 48.5967 61.3521C48.5954 61.2293 48.3864 61.0113 48.265 61.0047C47.5768 60.9708 46.886 60.9877 46.1208 60.9877C46.1208 61.4082 46.1208 61.7517 46.1208 62.0938C46.1208 63.5942 46.1208 63.5825 44.5942 63.512C44.2338 63.495 44.0889 63.384 44.0993 63.0144C44.1189 62.3667 44.1045 61.719 44.1045 61.0269H41.6312V65.9252H48.6097L48.611 65.9265ZM61.6748 65.9278C61.6748 64.3542 61.6826 62.8577 61.6604 61.3612C61.6591 61.2359 61.4567 61.0099 61.3392 61.0047C60.651 60.9708 59.9589 60.9877 59.1845 60.9877C59.1845 61.4017 59.1845 61.7425 59.1845 62.0834C59.1845 63.5498 59.1845 63.5289 57.7337 63.5159C57.2519 63.512 57.1422 63.3252 57.1617 62.8943C57.1892 62.2766 57.1683 61.6563 57.1683 60.9825C56.4279 60.9825 55.7984 61.006 55.1729 60.9747C54.7185 60.9512 54.6219 61.1536 54.6349 61.5558C54.6584 62.2949 54.6415 63.034 54.6415 63.7744C54.6415 64.4835 54.6415 65.1926 54.6415 65.9278H61.6748Z" fill="white" stroke="white" stroke-width="0.5"/>
<path d="M63.6563 56.8724H62.9342C59.7362 56.8724 56.5394 56.8581 53.3414 56.8855C52.7655 56.8907 52.6023 56.7301 52.6101 56.1542C52.6402 53.6313 52.6219 51.1084 52.6245 48.5868C52.6245 48.374 52.6454 48.1611 52.6598 47.9104C52.9 47.896 53.0907 47.8738 53.2813 47.8725C56.5225 47.8699 59.7636 47.883 63.0047 47.8594C63.5466 47.8555 63.7073 48.0135 63.702 48.5555C63.6759 51.0993 63.6916 53.6444 63.689 56.1882C63.689 56.3814 63.6707 56.5734 63.6563 56.8711V56.8724ZM54.6682 54.8079H61.6714C61.6714 53.2422 61.6767 51.7248 61.661 50.2074C61.661 50.1016 61.5056 49.9096 61.4168 49.907C60.6894 49.8822 59.9608 49.8927 59.1851 49.8927C59.1851 50.321 59.1851 50.6448 59.1851 50.97C59.1851 52.4756 59.1851 52.4626 57.6821 52.413C57.2786 52.3999 57.1506 52.2589 57.1636 51.8723C57.1858 51.2312 57.1702 50.5887 57.1702 49.9384H54.6682V54.8092V54.8079Z" fill="white" stroke="white" stroke-width="0.5"/>
</svg>
