<svg width="75" height="68" viewBox="0 0 75 68" fill="none" xmlns="http://www.w3.org/2000/svg">
<path d="M28.309 58.4097C30.3187 59.0987 38.0129 67.3671 38.0129 67.3671C38.0129 67.3671 45.6687 59.1179 47.6593 58.4289C59.5067 54.4095 68.0239 43.2128 68.0239 30.0064C68.0431 12.9529 53.8223 -0.770265 36.5965 0.0336031C21.1125 0.741772 8.59514 13.3931 8.02095 28.8963C7.52331 42.562 16.1553 54.2564 28.309 58.4097Z" fill="#628CA5"/>
<rect x="0.000488281" width="75" height="57" rx="6" fill="#628CA5"/>
<path d="M66.56 32.581C66.8383 31.8579 66.8903 31.0673 66.709 30.314C66.5277 29.5607 66.1217 28.8803 65.5449 28.363L58.5645 21.9903C57.8151 21.3083 56.928 20.7952 55.9632 20.4857C54.9984 20.1762 53.9784 20.0774 52.9721 20.1961L19.4026 23.7685L12.9407 19.6746C12.4196 19.3483 11.8089 19.1945 11.1954 19.2351C10.582 19.2756 9.99687 19.5085 9.52325 19.9005C9.04964 20.2925 8.71158 20.8238 8.55709 21.4189C8.40261 22.014 8.43956 22.6426 8.66269 23.2155L12.3822 32.4997C12.6254 33.9658 13.2803 34.0896 31.0587 34.5297L24.9181 48.0907C24.7371 48.4529 24.6626 48.859 24.7033 49.2618C24.744 49.6646 24.8982 50.0476 25.1479 50.3662C25.3286 50.5939 25.5516 50.7843 25.8047 50.9271C26.3202 51.204 26.9185 51.285 27.4891 51.155L32.4584 50.0652C32.9559 49.9521 33.4042 49.6827 33.7376 49.2965L46.0777 34.8111C52.5126 34.8944 58.5944 34.9917 62.954 35.0208C63.732 35.0296 64.4941 34.8006 65.1384 34.3646C65.7828 33.9287 66.2787 33.3064 66.56 32.581ZM62.9739 31.8725C58.4524 31.8407 52.1206 31.7989 45.3798 31.6479L44.6405 31.6388L31.5043 47.0628L28.4485 47.7319L35.8359 31.4767L33.4898 31.357C20.5791 31.1668 16.4118 30.8674 15.0119 30.7129L11.8368 22.6873L18.5827 26.9816L53.3677 23.3482C53.9194 23.2826 54.4787 23.3342 55.009 23.4996C55.5394 23.665 56.0289 23.9405 56.4455 24.308L63.4222 30.6242C63.5322 30.7173 63.6095 30.8431 63.6429 30.9833C63.6763 31.1234 63.6641 31.2706 63.608 31.4033C63.5668 31.5393 63.4829 31.6584 63.3687 31.743C63.2545 31.8275 63.116 31.8729 62.9739 31.8725Z" fill="white"/>
<path d="M23.9334 15.925L27.9956 20.0863L31.165 19.7552L26.6293 15.03L29.9458 14.9472L37.5216 19.0305L41.9673 18.5646L31.1961 12.7817C30.8729 12.571 30.4948 12.4601 30.109 12.4628L25.3239 12.4785C24.9265 12.483 24.5393 12.605 24.2111 12.8291C23.8829 13.0533 23.6284 13.3696 23.4797 13.7382C23.331 14.1068 23.2947 14.5111 23.3754 14.9003C23.4562 15.2895 23.6503 15.646 23.9334 15.925Z" fill="white"/>
</svg>
