<svg width="165" height="60" viewBox="0 0 165 60" fill="none" xmlns="http://www.w3.org/2000/svg">
<g clip-path="url(#clip0_795_11474)">
<path d="M134.003 28.9953L121.859 22.1014L122.526 12.4873L132.259 16.6961L134.339 21.898L134.003 28.9953Z" fill="#8E4C46"/>
<path d="M136.186 29.2087L150.044 21.2016L147.763 12.1533L141.051 15.4265L136.186 18.3667L136.481 23.3116" fill="#8E4C46"/>
<path d="M162.194 33.6671L148.368 41.2175L139.898 35.3721L153.543 27.5518L162.194 33.6671Z" fill="#4F7284"/>
<path d="M148.558 56.4492L138.998 51.0161V36.9639L145.604 40.0132L150.101 42.8925L148.558 56.4492Z" fill="#4F7284"/>
<path d="M130.707 35.584L117.597 28.0762L109.34 33.5998L120.581 41.2168L130.707 35.584Z" fill="#569182"/>
<path d="M131.388 51.9742L131.44 36.7402L122.525 41.5501L122.995 55.6615L128.163 53.7772L131.388 51.9742Z" fill="#569182"/>
<path d="M147.039 54.0603C147.039 50.6059 147.017 47.3901 147.056 44.1762C147.065 43.4217 146.864 43.0075 146.16 42.6228C143.951 41.4153 141.798 40.1023 139.636 38.8116C139.051 38.4621 138.646 36.598 138.99 36.034C139.461 35.2611 141.23 34.8764 141.99 35.3184C144.163 36.587 146.357 37.8241 148.546 39.0686C148.811 39.2203 149.001 39.4274 149.421 39.1759C152.374 37.4136 155.363 35.7086 158.538 33.8704C156.22 32.5649 154.041 31.3592 151.888 30.1091C151.507 29.8891 150.819 29.8521 150.86 29.2751C150.89 28.8609 151.536 28.8775 151.826 28.6242C153.846 26.8489 155.711 26.9673 157.886 28.5687C159.822 29.9945 162.086 30.9746 164.197 32.1692C164.715 32.4632 165.007 32.87 165.003 33.5487C164.975 39.0668 164.977 44.5849 164.999 50.1029C165.003 50.7816 164.68 51.1478 164.158 51.451C159.352 54.2341 154.546 57.0135 149.746 59.804C149.251 60.0906 148.813 60.0555 148.334 59.7726C145.482 58.0861 142.646 56.3718 139.751 54.763C139.079 54.3895 138.891 54.0048 138.926 53.3225C138.967 52.5569 138.915 51.7857 138.945 51.0202C138.962 50.6078 138.718 50.0419 139.105 49.8163C139.621 49.5149 140.058 50.0271 140.494 50.2786C142.627 51.5084 144.758 52.7418 147.043 54.0621L147.039 54.0603Z" fill="#2A4049"/>
<path d="M123.593 53.9507C126.3 52.4159 128.752 51.0253 131.408 49.52C131.408 51.1825 131.358 52.5657 131.432 53.9396C131.464 54.5406 131.063 54.659 130.732 54.8476C127.89 56.4583 125.003 57.9913 122.211 59.6833C121.646 60.0255 121.31 60.0347 120.858 59.7758C117.375 57.7768 113.9 55.7667 110.424 53.7584C109.09 52.9873 107.773 52.1847 106.42 51.4469C105.874 51.1492 105.625 50.8403 105.631 50.1672C105.666 44.5992 105.664 39.0293 105.633 33.4595C105.629 32.8067 105.843 32.4775 106.398 32.1613C109.2 30.5691 111.966 28.9159 114.765 27.3237C115.166 27.0944 115.588 26.7375 116.19 27.1776C117.052 27.8045 118.005 28.3205 118.956 28.8124C119.814 29.2562 119.61 29.4725 118.904 29.8701C116.911 30.9926 114.953 32.1798 112.987 33.3485C112.395 33.7017 111.93 33.9421 112.958 34.495C115.466 35.845 117.892 37.3428 120.361 38.7667C121.039 39.1588 121.6 39.3918 122.469 38.8204C124.492 37.4926 126.658 36.3738 128.785 35.207C129.792 34.6559 131.193 35.6434 131.445 36.7381C131.956 38.9461 130.158 39.2217 128.928 39.965C127.45 40.8582 125.926 41.6774 124.421 42.5299C123.898 42.8276 123.574 43.1993 123.58 43.8799C123.612 47.1419 123.593 50.4021 123.593 53.9507Z" fill="#2A4049"/>
<path d="M147.141 22.7526V13.7321C143.94 15.5647 140.896 17.3529 137.797 19.0431C137.208 19.3648 137.268 19.7328 137.266 20.1822C137.26 22.5825 137.264 24.9809 137.262 27.3812C137.262 28.3706 136.292 29.5023 135.41 29.5541C134.392 29.6133 133.216 28.4094 133.214 27.2869C133.209 24.9347 133.203 22.5844 133.22 20.2321C133.223 19.694 133.173 19.302 132.612 18.9839C129.697 17.3344 126.814 15.6313 123.66 13.7931C123.66 16.5041 123.671 18.9654 123.647 21.4267C123.643 21.8169 123.896 22.3347 123.426 22.588C122.986 22.8266 122.633 22.3828 122.25 22.2367C119.783 21.2843 118.932 19.5516 119.261 16.9054C119.536 14.6845 119.387 12.3988 119.283 10.1483C119.242 9.24958 119.571 8.73365 120.251 8.34161C122.921 6.81045 125.601 5.29778 128.278 3.77772C130.305 2.62565 132.347 1.49392 134.351 0.304872C135.142 -0.164832 135.742 -0.0557275 136.523 0.408428C140.493 2.76989 144.507 5.05553 148.507 7.36707C149.153 7.74061 149.772 8.18443 150.457 8.45811C151.083 8.70961 151.165 9.11274 151.161 9.68045C151.148 13.0405 151.15 16.3987 151.159 19.7587C151.159 20.2007 151.176 20.6371 150.723 20.8775C149.584 21.4859 148.434 22.0777 147.139 22.7545L147.141 22.7526Z" fill="#2A4049"/>
<path d="M154.275 24.3538C154.615 25.2655 153.867 25.6871 153.179 26.0828C148.119 28.9861 143.058 31.8876 137.97 34.7428C137.329 35.1015 137.179 35.488 137.183 36.1685C137.21 41.9289 137.199 47.6892 137.197 53.4496C137.197 54.3168 135.936 55.7149 135.217 55.6575C134.281 55.5836 133.148 54.3816 133.148 53.4458C133.146 47.7817 133.124 42.1156 133.168 36.4515C133.176 35.4381 132.904 34.9332 131.942 34.4025C126.872 31.6083 121.859 28.7106 116.878 25.7629C115.773 25.1083 116.423 23.836 116.438 22.8596C116.445 22.3308 118.53 21.7815 119.1 22.1089C122.583 24.1042 126.057 26.118 129.536 28.1225C131.154 29.0546 132.772 29.9847 134.392 30.9149C134.998 31.2625 135.436 31.2496 136.157 30.8354C141.217 27.9302 146.315 25.0917 151.312 22.0811C152.451 21.3951 154.277 22.7487 154.275 24.3538Z" fill="#2A4049"/>
<path d="M160.933 36.9638C160.933 40.812 160.927 44.3977 160.938 47.9852C160.94 48.5492 160.819 48.8987 160.245 49.2167C157.383 50.8052 154.561 52.4658 151.737 54.1227C151.065 54.5166 150.795 54.3927 150.799 53.605C150.808 50.2542 150.805 46.9015 150.799 43.5507C150.799 43.2104 150.779 42.8554 151.115 42.6594C154.336 40.7843 157.563 38.9165 160.931 36.9619L160.933 36.9638Z" fill="#72A0B7"/>
<path d="M119.541 54.5246C116.897 53.0138 114.634 51.4124 112.134 50.3749C109.541 49.2987 109.216 47.5327 109.37 45.1342C109.541 42.4806 109.409 39.8066 109.409 36.9033C111.822 38.2847 114.018 39.5403 116.212 40.7978C116.293 40.844 116.349 40.955 116.433 40.979C119.318 41.7723 119.821 43.7898 119.589 46.4694C119.368 49.0342 119.541 51.6324 119.541 54.5246Z" fill="#9CCEC2"/>
<path d="M145.395 10.0727C143.725 11.3783 141.907 12.1642 140.229 13.172C138.776 14.0467 137.287 14.8603 135.821 15.7147C135.375 15.9754 134.966 15.9736 134.522 15.7128C131.678 14.0467 128.853 12.3491 125.969 10.7551C124.944 10.1874 125.479 9.80271 126.003 9.49389C128.071 8.2734 130.173 7.11209 132.265 5.93413C132.47 5.81948 132.73 5.77325 132.899 5.62346C134.383 4.30311 135.769 4.27907 137.487 5.43299C139.976 7.10654 142.665 8.48976 145.397 10.0727H145.395Z" fill="#C76E61"/>
<path d="M80.4806 22.5766C78.4316 22.793 77.7108 21.5152 77.499 19.9563C77.2854 18.3844 78.7734 17.1233 80.5066 17.1806C81.8534 17.225 83.5922 18.954 83.2913 20.2152C82.9588 21.6132 82.2547 22.8984 80.4806 22.5766Z" fill="#2A4049"/>
<path d="M90.5521 34.6411C90.0858 29.9145 87.1358 26.0255 82.1981 24.8032C79.1403 24.0469 76.0807 24.6756 73.0453 24.3668C71.4254 24.2022 70.8569 24.7681 71.1077 26.3307C71.1894 26.8429 71.1839 27.3884 71.1077 27.9025C70.9256 29.1452 71.5071 29.4078 72.6347 29.3689C74.8194 29.2931 77.0077 29.3375 79.1942 29.3486C82.8836 29.3671 85.62 32.2131 85.6404 35.8616C85.6478 37.1209 85.3283 37.5111 84.0298 37.4907C79.1292 37.4149 74.2268 37.4686 69.3243 37.4575C66.6901 37.4519 66.1439 36.8787 66.1402 34.151C66.1328 28.596 66.1384 23.0409 66.1384 17.4858C66.1384 14.4438 66.1328 14.5566 63.0342 14.4309C61.3455 14.3625 61.104 14.9783 61.1245 16.4632C61.2081 22.5434 61.1393 28.6237 61.1709 34.7058C61.182 36.8361 60.0414 37.4094 58.102 37.5055C55.9991 37.6091 55.2987 36.6105 55.2746 34.7613C55.2672 34.2361 55.2857 33.7091 55.2709 33.1857C55.0907 26.449 48.6891 23.2924 44.0356 24.707C41.5686 25.456 39.7313 26.9354 37.6154 28.3944C37.6154 27.6288 37.5522 27.0944 37.6265 26.5803C37.8736 24.9049 37.3479 24.0376 35.4958 24.3834C35.1317 24.4518 34.736 24.4426 34.3682 24.3834C33.0139 24.1708 32.5458 24.6275 32.5978 26.0699C32.7167 29.3689 32.6517 32.6754 32.6182 35.9781C32.6126 36.4903 33.0028 37.3484 32.0665 37.4168C30.7178 37.5148 29.2075 37.7903 28.0446 37.3132C27.1027 36.9267 27.8198 35.4048 27.6619 34.4025C27.6155 34.1085 27.6545 33.8034 27.6545 33.502C27.6508 29.245 25.3584 26.0995 21.2584 24.8217C18.2564 23.886 15.1522 24.6775 12.1167 24.3686C10.625 24.217 10.3872 24.8291 10.4225 26.1402C10.5117 29.3652 10.4671 32.5958 10.4355 35.8227C10.43 36.3627 10.7551 37.0451 10.0417 37.426C7.75861 38.6465 5.02966 37.021 5.02223 34.4081C5.00551 28.7772 5.01666 23.1481 5.01666 17.5172C5.01666 14.4494 5.01294 14.5585 1.94218 14.4327C0.299984 14.3643 -0.0195384 14.8987 0.000896154 16.4318C0.091923 22.6618 0.0306192 28.8937 0.0510538 35.1237C0.0529115 35.771 0.0510538 36.3979 0.281407 37.0802C1.49262 40.6326 3.89647 42.5965 7.71588 42.345C9.92653 42.1989 10.6139 43.0218 10.9334 44.9653C11.4164 47.8926 13.3094 50.023 15.9863 50.905C21.5873 52.7506 26.1962 50.2393 27.5542 43.9908C27.8644 42.5687 28.2266 42.3875 29.4397 42.3967C35.3212 42.443 41.2045 42.3967 47.0859 42.4282C48.9937 42.4374 50.7604 42.099 52.1704 40.7417C52.6385 40.2905 52.8485 40.2942 53.3779 40.7139C56.7496 43.3861 60.4148 43.1882 63.7327 40.1814C64.76 41.5295 66.0343 42.4282 67.8344 42.4226C74.9995 42.406 82.1628 42.3986 89.3279 42.4356C90.3143 42.4411 90.6376 42.1582 90.606 41.167C90.5391 38.9923 90.762 36.7954 90.5484 34.6392L90.5521 34.6411ZM21.0931 46.1248C19.88 47.0956 18.8026 47.1308 17.4316 46.5446C15.9436 45.9084 15.834 44.5344 15.4736 43.3398C15.1541 42.2821 16.0922 42.3783 16.7387 42.4282C18.8694 42.5928 20.7922 42.0472 22.6257 40.6566C22.7093 42.7758 22.9266 44.662 21.095 46.1266L21.0931 46.1248ZM17.9035 37.5092C15.795 37.6609 15.1374 36.9508 15.4086 34.9555C15.5479 33.9273 15.5293 32.8529 15.4123 31.8192C15.1912 29.8608 15.6687 28.7365 17.6285 29.3468C20.7903 29.356 22.6833 30.9815 22.6759 33.4187C22.6684 35.856 20.7699 37.3021 17.9035 37.5092ZM50.1158 35.9004C49.8724 36.74 48.977 37.5906 47.6655 37.487C46.1663 37.3687 44.6505 37.4593 43.142 37.4593C42.085 37.4593 41.0168 37.5592 39.9784 37.426C39.1944 37.3262 37.9089 38.0806 37.7083 36.8509C37.5225 35.7099 37.1603 34.3766 38.3622 33.3059C40.1846 31.6805 42.085 30.2122 44.4628 29.5317C46.3057 29.0046 48.0426 29.2395 49.3021 30.8557C50.478 32.3665 50.6118 34.1991 50.1195 35.8986L50.1158 35.9004Z" fill="#2A4049"/>
</g>
<defs>
<clipPath id="clip0_795_11474">
<rect width="165" height="60" fill="white"/>
</clipPath>
</defs>
</svg>
