<svg width="64" height="52" viewBox="0 0 64 52" fill="none" xmlns="http://www.w3.org/2000/svg">
<path d="M11.4151 18.8286C11.4151 18.8286 3.7918 21.7932 2.52148 32.1691M52.9189 18.8286C52.9189 18.8286 60.5422 21.7932 61.8126 32.1691M23.2734 18.8286C23.2734 18.8286 30.3883 20.5584 32.167 29.2046M41.0607 18.8286C41.0607 18.8286 33.9458 20.5584 32.167 29.2046M26.2379 41.0628C26.2379 41.0628 20.0123 42.1745 17.3443 49.9564M38.0961 41.0628C38.0961 41.0628 44.3217 42.1745 46.9898 49.9564" stroke="#FAFAFA" stroke-width="3.73487" stroke-linecap="round"/>
<path d="M32.1672 44.0274C36.2604 44.0274 39.5786 40.7092 39.5786 36.616C39.5786 32.5228 36.2604 29.2046 32.1672 29.2046C28.074 29.2046 24.7559 32.5228 24.7559 36.616C24.7559 40.7092 28.074 44.0274 32.1672 44.0274Z" stroke="#FAFAFA" stroke-width="3.73487" stroke-linecap="round" stroke-linejoin="round"/>
<path d="M46.9894 20.3108C51.9012 20.3108 55.883 16.3289 55.883 11.4171C55.883 6.50526 51.9012 2.52344 46.9894 2.52344C42.0775 2.52344 38.0957 6.50526 38.0957 11.4171C38.0957 16.3289 42.0775 20.3108 46.9894 20.3108Z" stroke="#FAFAFA" stroke-width="3.73487" stroke-linecap="round" stroke-linejoin="round"/>
<path d="M17.3448 20.3108C22.2567 20.3108 26.2385 16.3289 26.2385 11.4171C26.2385 6.50526 22.2567 2.52344 17.3448 2.52344C12.433 2.52344 8.45117 6.50526 8.45117 11.4171C8.45117 16.3289 12.433 20.3108 17.3448 20.3108Z" stroke="#FAFAFA" stroke-width="3.73487" stroke-linecap="round" stroke-linejoin="round"/>
</svg>
