<svg width="74" height="73" viewBox="0 0 74 73" fill="none" xmlns="http://www.w3.org/2000/svg">
<path d="M53.7402 21.4014C53.5595 22.0139 53.1201 22.2688 52.5113 22.2707C51.4441 22.2764 50.3769 22.2859 49.3096 22.2669C48.4669 22.2517 48.0369 21.8294 48.0312 20.9885C48.016 18.7362 48.0179 16.4819 48.0312 14.2277C48.0369 13.3298 48.4536 12.9303 49.3439 12.9246C50.7668 12.917 52.1898 12.9074 53.6128 12.9322C54.0142 12.9398 54.1283 12.8276 54.1226 12.4243C54.1017 10.5276 54.1131 8.63102 54.1131 6.63738C53.0725 7.04828 52.0776 7.43445 51.0883 7.83394C46.5169 9.6773 41.9494 11.5302 37.3742 13.3602C36.9195 13.5428 36.7388 13.7559 36.7407 14.2771C36.7635 20.4673 36.7616 26.6594 36.7426 32.8496C36.7426 33.3955 36.8605 33.5648 37.4331 33.5553C39.638 33.5192 41.8447 33.5173 44.0515 33.5553C44.6336 33.5648 44.7458 33.3803 44.7363 32.8439C44.704 31.1375 44.7211 29.4292 44.7249 27.7209C44.7268 26.7431 45.1111 26.3455 46.106 26.3436C53.9818 26.3379 61.8557 26.3379 69.7316 26.3436C70.7265 26.3436 71.0898 26.7241 71.0898 27.738C71.0956 31.7938 71.1051 35.8495 71.0784 39.9053C71.0746 40.495 71.1621 40.8032 71.8318 40.6853C72.4424 40.5787 72.8628 40.9021 73.1862 41.3834V42.2376C73.0074 42.6066 72.724 42.8901 72.4348 43.1716C70.2718 45.268 68.2306 47.4709 66.5146 49.9591C64.8196 52.4169 63.488 55.0402 62.7784 57.9603C62.6566 58.4606 62.6871 58.7498 63.2597 58.8944C64.6408 59.2425 65.8165 60.0034 66.9332 60.8537C68.398 61.9704 69.9674 62.7713 71.8793 62.7199C72.471 62.7047 72.9941 62.9349 73.1862 63.5893V64.4434C72.918 64.7668 72.6117 65.0332 72.1932 65.1435C72.1361 65.1987 72.0677 65.2272 71.9897 65.2329C69.2693 65.4079 67.1082 64.1124 65.0327 62.5906C62.6053 60.81 59.98 60.6026 57.2159 61.6508C56.571 61.8943 56.0174 62.3166 55.4524 62.7123C54.3642 63.4733 53.3065 64.2989 52.0167 64.6983C48.5658 65.7713 45.3242 65.3927 42.3622 63.2317C41.9018 62.8969 41.4433 62.5582 40.9563 62.2634C38.1598 60.5703 35.3481 60.5893 32.5536 62.2577C31.4159 62.9368 30.3982 63.7986 29.194 64.3883C27.7387 65.1017 26.2054 65.2215 24.6302 65.2481C22.0373 65.2919 19.9333 64.1296 17.9377 62.6438C15.4817 60.8176 12.8165 60.5722 10.001 61.687C9.20009 62.0047 8.53616 62.5601 7.82848 63.0338C6.42263 63.9755 4.99205 64.8467 3.27611 65.1188C2.68448 65.212 2.09284 65.1739 1.5031 65.2348C1.4232 65.2291 1.35662 65.1987 1.29955 65.1435C0.643234 64.94 0.182861 64.5576 0.327441 63.8081C0.472021 63.0547 1.07697 62.9007 1.7371 62.9045C3.23236 62.9121 4.56402 62.4289 5.79295 61.6052C6.08401 61.4092 6.20195 61.2513 6.05928 60.8633C5.77773 60.1061 5.70353 59.3034 5.71114 58.4892C5.73017 56.5221 5.70544 54.5532 5.72446 52.5862C5.73017 51.9585 5.62173 51.3668 5.39535 50.7866C3.77643 46.6357 2.15942 42.4849 0.540506 38.334C0.0192568 36.9966 0.418754 36.4107 1.85694 36.4107C2.66355 36.4107 3.47015 36.3955 4.27486 36.4164C4.61157 36.4259 4.72762 36.3289 4.71811 35.9808C4.69338 35.1761 4.72952 34.3676 4.70479 33.5629C4.68196 32.8305 4.99776 32.3968 5.71495 32.2541C6.44165 32.1267 6.93246 32.509 7.03139 33.3232C7.10938 33.9586 7.05612 34.6016 7.06563 35.2408C7.07895 36.1482 7.11129 36.1843 8.04345 36.1881C8.87288 36.192 9.70231 36.1939 10.5317 36.1881C11.4316 36.1824 11.4753 36.1368 11.481 35.2066C11.4867 34.3771 11.4658 33.5477 11.4886 32.7183C11.521 31.4856 12.242 30.7152 13.4709 30.6581C14.7017 30.6029 15.9364 30.6048 17.1672 30.6581C18.4342 30.7133 19.1209 31.438 19.1552 32.6974C19.1799 33.6219 19.1666 34.5464 19.1609 35.471C19.159 35.9104 19.3207 36.1691 19.7601 36.2985C20.4868 36.5154 21.1717 36.854 21.8851 37.1089C22.2637 37.2497 22.6327 37.4094 23.0075 37.5578C23.3651 37.7005 23.5535 37.6035 23.563 37.2059C23.5668 37.0632 23.5687 36.9206 23.5687 36.7798C23.5687 32.8667 23.5687 28.9536 23.5687 25.0386C23.5687 23.9942 23.5325 23.9638 22.4919 23.9524C17.6542 23.9029 12.8146 23.9429 7.97686 23.9333C7.69912 23.9333 7.39854 23.8668 7.18738 24.1331C7.00856 24.4679 7.07514 24.8313 7.07134 25.1832C7.05802 26.4159 7.10177 27.6486 7.05041 28.8794C7.01046 29.8477 6.51394 30.2966 5.71114 30.1616C5.02058 30.0436 4.69718 29.6403 4.70289 28.9346C4.7162 27.251 4.69528 25.5655 4.7124 23.882C4.72572 22.5675 5.68831 21.6334 7.01997 21.6049C7.63444 21.5916 8.45626 21.8104 8.8063 21.4984C9.2134 21.135 8.93185 20.2942 8.93566 19.6607C8.94897 16.8377 9.00985 14.0127 8.91854 11.1935C8.85576 9.25498 9.74226 8.01085 11.9604 8.19918C12.5483 8.24864 13.1475 8.18587 13.7391 8.2144C14.1253 8.23343 14.287 8.13831 14.2642 7.716C14.228 7.07681 14.2261 6.43383 14.2642 5.79655C14.2889 5.36472 14.1158 5.2658 13.7353 5.30765C13.5489 5.32858 13.3549 5.31145 13.1684 5.28672C12.5387 5.20111 12.1868 4.82256 12.1526 4.2024C12.1221 3.66785 12.5977 3.21509 13.1855 3.11807C13.5394 3.0591 14.0302 3.3159 14.2166 2.95636C14.3726 2.6558 14.2528 2.21446 14.2547 1.834C14.2604 0.92088 14.6789 0.441487 15.4246 0.508069C15.9649 0.555627 16.2807 0.87142 16.3796 1.39456C16.4101 1.55626 16.3891 1.72556 16.3929 1.89107C16.4025 2.26773 16.2902 2.71668 16.4576 3.00203C16.6307 3.29499 17.1101 3.06481 17.4507 3.11997C18.0632 3.2208 18.4456 3.56322 18.497 4.18908C18.5426 4.72554 18.0994 5.19541 17.4925 5.28292C17.1463 5.33238 16.5623 5.23156 16.49 5.38755C16.3245 5.74328 16.3948 6.21316 16.3948 6.63738C16.391 7.68493 16.9142 8.2087 17.9643 8.2087C18.438 8.2087 18.9136 8.20299 19.3873 8.2125C20.7437 8.23723 21.6568 9.1009 21.7044 10.4687C21.7443 11.5815 21.7158 12.6982 21.7158 13.813C21.7158 16.1852 21.7367 18.5574 21.7006 20.9296C21.691 21.5098 21.8718 21.6791 22.4139 21.6125C22.7183 21.5745 23.0303 21.6049 23.3385 21.6068C25.0773 21.6087 25.9409 22.4762 25.9428 24.2339C25.9466 28.906 25.958 33.5801 25.9276 38.2522C25.9238 38.859 26.1217 39.1215 26.6676 39.3061C27.4438 39.5686 28.1895 39.9205 28.998 40.2553V16.8263C28.2504 16.9803 27.577 17.3589 26.8674 17.6214C26.4983 17.7584 26.1426 17.8421 25.7716 17.6728C25.3626 17.4864 25.1705 17.1382 25.1667 16.7064C25.161 16.2004 25.4444 15.858 25.8972 15.6715C26.7704 15.312 27.6416 14.9487 28.5301 14.631C28.9372 14.4845 29.0437 14.2581 29.0399 13.8472C29.0209 11.2848 29.0475 8.72423 29.0228 6.1618C29.0133 5.16878 29.3005 4.37932 30.2555 3.97602C31.22 3.56892 31.9924 3.94178 32.6715 4.65325C33.6056 5.63105 34.5434 6.60503 35.5136 7.54669C36.3811 8.38751 36.8719 9.36342 36.7483 10.5866C36.6836 11.2296 36.8815 11.2657 37.4331 11.0413C44.2284 8.27718 51.0332 5.53403 57.836 2.78516C57.9673 2.7319 58.0967 2.67292 58.2298 2.62727C58.8519 2.41801 59.4188 2.63869 59.6547 3.18085C59.9058 3.75535 59.6642 4.35077 59.025 4.63232C58.2469 4.97283 57.4632 5.30004 56.6642 5.58729C56.3313 5.70714 56.2419 5.87264 56.2438 6.20364C56.2571 8.2905 56.2609 10.3793 56.2419 12.4661C56.238 12.8485 56.3579 12.9379 56.7213 12.9341C58.1442 12.9151 59.5672 12.9227 60.9902 12.9284C61.9185 12.9322 62.3313 13.3336 62.3351 14.2714C62.3447 16.4781 62.3447 18.6829 62.3351 20.8896C62.3313 21.8636 61.9242 22.265 60.9426 22.2726C59.7327 22.2821 58.5228 22.2783 57.3129 22.2726C56.3769 22.2688 56.1334 22.0862 55.8233 21.1826C55.8043 20.4844 56.1163 20.0849 56.843 19.9118C57.3757 19.7844 57.9197 19.8433 58.46 19.8357C59.7726 19.7558 59.8963 20.1382 59.8754 18.3785C59.8659 17.5758 59.8697 16.7711 59.8754 15.9683C59.8773 15.4965 59.6756 15.2854 59.1981 15.2778C56.5044 15.2359 53.8087 15.2682 51.115 15.2587C50.919 15.2587 50.7364 15.2816 50.607 15.4471C50.3426 16.3507 50.5081 17.2733 50.4967 18.1845C50.4739 20.0317 50.3293 19.8091 52.1042 19.8319C52.3401 19.8357 52.5741 19.851 52.8043 19.908C53.6337 20.1173 53.9096 20.5567 53.744 21.4033L53.7402 21.4014Z" fill="#010101"/>
<path d="M1.30166 65.1471L1.43673 65.1434C1.74301 65.4591 1.62316 65.8586 1.63457 66.2258C1.6593 67.0381 1.64789 67.0304 2.42215 66.9753C3.70435 66.8821 4.87431 66.4674 5.95295 65.773C6.75004 65.2594 7.49006 64.6544 8.30808 64.177C11.6448 62.2271 14.9664 62.2784 18.2518 64.3215C18.7958 64.6602 19.3076 65.0444 19.8269 65.4192C22.9354 67.6658 27.2423 67.5917 30.2614 65.3089C31.0185 64.7363 31.7681 64.1389 32.6356 63.747C35.8829 62.2765 39.0275 62.4268 42.0237 64.4376C42.3966 64.6887 42.7695 64.9436 43.1252 65.2213C46.2603 67.6582 50.7042 67.6849 53.9059 65.2575C54.7772 64.5974 55.6656 63.9525 56.6796 63.5359C59.3752 62.4268 62.0424 62.5048 64.6429 63.846C65.6569 64.3691 66.5281 65.1186 67.4869 65.7312C68.5846 66.4331 69.7679 66.8821 71.0767 66.9772C71.851 67.0323 71.8396 67.04 71.8643 66.2277C71.8757 65.8605 71.7558 65.461 72.0621 65.1452C72.1078 65.1452 72.1515 65.149 72.1972 65.149C72.1953 67.2359 72.1553 69.3228 72.2124 71.4077C72.2333 72.1667 71.9784 72.2923 71.2879 72.2923C50.9896 72.2752 30.6932 72.2771 10.395 72.2771C7.66888 72.2771 4.94089 72.2543 2.2148 72.2923C1.52424 72.3018 1.26932 72.1648 1.29024 71.4058C1.34732 69.3209 1.30737 67.234 1.30546 65.1471H1.30166Z" fill="#D4EBF6"/>
<path d="M21.7995 37.2671C20.9054 37.0636 20.1368 36.491 19.199 36.4034C18.9212 36.3768 19.0316 36.1029 19.0297 35.9355C19.0201 34.9177 19.0373 33.9 19.022 32.8822C18.9992 31.5164 18.3239 30.8639 16.9466 30.8601C15.8337 30.8563 14.7208 30.8525 13.6098 30.8601C12.3714 30.8715 11.6789 31.5411 11.6523 32.7776C11.6295 33.8182 11.6314 34.8607 11.6542 35.9012C11.6637 36.2988 11.5515 36.432 11.1405 36.4225C9.86216 36.3977 8.58376 36.3958 7.30728 36.4225C6.90778 36.4301 6.8412 36.2779 6.85071 35.9336C6.87163 35.1764 6.86022 34.4193 6.85642 33.6622C6.85261 32.7434 6.61862 32.458 5.7207 32.2564C5.7207 31.5601 5.7207 30.862 5.7207 30.1657C6.57867 30.0059 6.84881 29.6958 6.85832 28.8436C6.87544 27.1905 6.88876 25.5354 6.90398 23.8823C7.12465 23.7511 7.36625 23.8138 7.59834 23.8138C12.0974 23.81 16.5946 23.81 21.0937 23.81C21.946 23.81 22.0126 23.8652 22.0259 24.7308C22.0335 25.2235 22.1096 25.7276 21.8946 26.1994C21.6797 26.4638 21.4685 26.2526 21.2592 26.1879C20.4488 25.9349 20.0417 26.2241 20.0037 27.0839C19.9942 27.297 19.9923 27.5101 20.0056 27.7231C20.055 28.465 20.3937 28.7256 21.1318 28.5963C21.3791 28.5525 21.6302 28.3908 21.868 28.6267C22.0544 28.9273 22.0297 29.264 22.0316 29.5931C22.0373 31.815 22.0373 34.0369 22.0316 36.2589C22.0316 36.607 22.0868 36.9761 21.8052 37.2652L21.7995 37.2671Z" fill="#E6EBF4"/>
<path d="M53.7406 21.4017C53.674 20.4182 53.3582 20.1062 52.3804 20.0853C51.8611 20.0739 51.3379 20.0606 50.8186 20.0891C50.3848 20.1138 50.1851 20.0168 50.2022 19.5184C50.2497 18.0783 50.2459 16.6364 50.2631 15.1963C50.986 15.0517 51.7184 15.1411 52.4451 15.1354C54.2618 15.1202 56.0805 15.1411 57.8973 15.1221C58.3386 15.1183 58.5764 15.2667 58.5897 15.708C58.6297 16.9826 58.6278 18.2553 58.5897 19.5298C58.584 19.722 58.5098 19.897 58.3824 20.0453C58.059 20.0587 57.7337 20.0777 57.4103 20.0815C56.383 20.0929 56.1585 20.2451 55.8218 21.1829C55.331 21.1829 54.8402 21.1829 54.3494 21.1753C54.1116 21.1715 53.8814 21.162 53.7387 21.4017H53.7406Z" fill="#B6DA9E"/>
<path d="M61.9385 48.8006C61.6779 48.812 61.4192 48.831 61.1586 48.831C43.3657 48.831 25.5729 48.8272 7.78192 48.85C7.11609 48.85 6.84595 48.6389 6.62147 48.0435C5.50098 45.0796 4.34053 42.1291 3.17248 39.1843C2.97654 38.6897 3.03361 38.5509 3.59861 38.5528C8.62847 38.5718 13.6564 38.568 18.6863 38.5566C19.16 38.5566 19.5633 38.7221 19.978 38.8914C22.8449 40.0689 25.7098 41.2445 28.5748 42.4278C29.058 42.6275 29.5469 42.7949 30.072 42.8463C30.3516 42.9224 30.637 42.8824 30.9204 42.8824C42.6714 42.8843 54.4204 42.8825 66.1713 42.8901C66.4167 42.8901 66.7649 42.7455 66.8923 42.9985C67.0388 43.2876 66.7325 43.5102 66.5423 43.7043C65.1516 45.1291 63.8238 46.6091 62.6462 48.2166C62.4579 48.4734 62.2049 48.6389 61.9423 48.7987L61.9385 48.8006Z" fill="#C76F62"/>
<path d="M46.8361 55.5061C47.0682 56.3698 47.3516 56.6018 48.2229 56.6037C51.4665 56.6152 54.7119 56.6228 57.9554 56.6323C58.0506 57.4959 57.8451 58.2892 57.3885 59.0216C55.8666 59.5409 54.5711 60.456 53.2756 61.3729C50.2889 63.4845 46.8837 63.4997 43.8646 61.4185C42.5215 60.4921 41.2355 59.4496 39.6128 59.0444C36.4967 58.2664 33.5576 58.6069 30.8923 60.5359C29.6463 61.4376 28.4212 62.402 26.8688 62.7235C24.489 63.2162 22.2613 62.8681 20.2524 61.409C19.1814 60.631 18.1313 59.792 16.87 59.3374C14.0697 58.3253 11.3056 58.4014 8.60991 59.735C8.46153 59.8092 8.31314 59.8834 8.16476 59.9537C8.14573 59.9633 8.1191 59.9537 8.05252 59.9537C7.7196 58.9531 7.89081 57.9125 7.85277 56.8891C7.84516 56.6722 7.96311 56.5999 8.16095 56.6056C8.35119 56.6114 8.53952 56.6056 8.72976 56.6056C20.2315 56.6056 31.7313 56.6056 43.233 56.6056C44.2565 56.6056 44.5552 56.385 44.7473 55.5042C45.4436 55.1294 46.1379 55.1275 46.8342 55.5061H46.8361Z" fill="#C76F62"/>
<path d="M46.8364 55.5066C46.1401 55.5066 45.4457 55.5047 44.7495 55.5047C44.5326 54.6411 44.2834 54.4604 43.2732 54.4604C31.7525 54.4604 20.2298 54.4604 8.70909 54.4604C8.54358 54.4604 8.37618 54.447 8.21067 54.4622C7.92531 54.4889 7.85302 54.3576 7.84732 54.0913C7.82449 53.1458 7.93292 52.1966 7.78073 51.253C7.74459 51.0323 7.89868 51.0305 8.03565 51.0209C8.20116 51.0095 8.36666 51.0171 8.53407 51.0171C25.5793 51.0171 42.6245 51.0171 59.6697 51.0171C59.9056 51.0171 60.1415 51.0419 60.3755 51.0552C60.5676 51.3538 60.3888 51.6012 60.2519 51.8427C59.9037 52.461 59.567 53.0888 59.295 53.7413C59.08 54.2568 58.7509 54.4223 58.2011 54.4185C54.9614 54.3976 51.7216 54.4071 48.4819 54.4109C48.2232 54.4109 47.9626 54.3671 47.7076 54.4546C47.194 54.6201 46.922 54.9873 46.8345 55.5066H46.8364Z" fill="#E6EBF4"/>
<path d="M72.0591 65.1415C72.0553 65.7103 72.0439 66.2791 72.0496 66.8498C72.0534 67.1903 71.9221 67.293 71.574 67.2664C69.5004 67.1066 67.7255 66.2771 66.1009 65.0026C63.468 62.9367 60.5117 62.4782 57.3386 63.4541C56.22 63.7984 55.2441 64.4585 54.3309 65.1738C52.6759 66.4712 50.8192 67.2511 48.7266 67.2702C46.6263 67.2892 44.6897 66.6843 42.9928 65.3697C41.606 64.2949 40.1545 63.3247 38.3377 63.1003C35.8589 62.7959 33.54 63.1326 31.4721 64.6583C30.2203 65.5809 28.9838 66.5264 27.42 66.9201C24.3991 67.683 21.6635 67.1332 19.2246 65.2081C16.3559 62.9443 13.2113 62.366 9.76797 63.6025C8.48387 64.0628 7.45659 64.9779 6.35702 65.7483C4.99112 66.7052 3.46352 67.0933 1.85031 67.2721C1.51359 67.3101 1.44511 67.1275 1.44701 66.8498C1.44891 66.281 1.4413 65.7122 1.4375 65.1415C4.14076 65.1072 6.34941 63.8878 8.49338 62.3679C11.5524 60.1973 14.9139 60.2791 18.0033 62.4497C19.2988 63.3609 20.5601 64.3425 22.1334 64.7249C25.1905 65.4687 28.0897 65.1662 30.7226 63.2943C31.6452 62.638 32.526 61.8942 33.5875 61.4719C36.3003 60.3971 38.9027 60.6063 41.3378 62.2804C42.776 63.2696 44.1476 64.3805 45.9053 64.7705C48.7931 65.4116 51.5364 65.1605 54.0513 63.456C55.0672 62.7674 56.005 61.936 57.1541 61.4776C59.922 60.3704 62.5606 60.6272 65.0261 62.3488C66.0324 63.0508 67.014 63.7889 68.1364 64.314C69.3863 64.8999 70.7255 64.9988 72.061 65.1415H72.0591Z" fill="#B4E0F3"/>
<path d="M33.3263 40.662C32.6453 40.6639 31.7873 40.9512 31.3326 40.5555C30.8951 40.175 31.1976 39.3037 31.1976 38.6493C31.188 28.9589 31.1899 19.2703 31.1919 9.57985C31.1919 9.27167 31.2014 8.9635 31.2071 8.65723C32.1811 8.88551 33.4176 10.3655 33.5318 11.4441C33.5641 11.7504 33.5546 12.0586 33.5546 12.3668C33.5546 21.3667 33.5546 30.3666 33.5508 39.3665C33.5508 39.806 33.6535 40.2758 33.3263 40.662Z" fill="#385F7E"/>
<path d="M17.9578 21.586C15.8043 21.5955 13.6508 21.5974 11.4973 21.6183C11.1758 21.6221 11.1054 21.5042 11.1054 21.2074C11.113 17.7281 11.1149 14.2487 11.1035 10.7693C11.1035 10.4003 11.2557 10.3489 11.5677 10.3527C13.6983 10.3698 15.8271 10.3737 17.9578 10.3813C18.2184 10.6495 18.1841 10.9957 18.1841 11.3229C18.1898 14.4313 18.1898 17.5378 18.1841 20.6462C18.1841 20.9753 18.2146 21.3178 17.9578 21.5879V21.586Z" fill="#C5D6EB"/>
<path d="M33.3263 40.662C33.3282 30.9982 33.3301 21.3343 33.332 11.6705C33.332 11.0256 33.1284 10.4701 32.6452 10.0231C32.1601 9.57414 31.6864 9.11378 31.207 8.65722C31.207 7.93243 31.207 7.20764 31.207 6.57227C32.2686 7.56528 33.3567 8.56781 34.422 9.59507C34.6275 9.79291 34.6161 10.1144 34.6161 10.4055C34.6123 20.2919 34.6104 30.1802 34.6237 40.0666C34.6237 40.5878 34.4392 40.74 33.9655 40.6829C33.7543 40.6582 33.5393 40.6677 33.3263 40.662Z" fill="#2B4E67"/>
<path d="M67.2078 40.6582C64.6054 40.6677 62.0048 40.6715 59.4024 40.6906C59.0619 40.6925 58.9572 40.584 58.961 40.2454C58.9763 38.8738 58.9763 37.5003 58.961 36.1288C58.9572 35.7901 59.0638 35.6817 59.4024 35.6836C62.0048 35.7026 64.6054 35.7064 67.2078 35.7141C67.3942 35.8948 67.4209 36.1326 67.4247 36.3723C67.4418 37.5821 67.4418 38.7901 67.4247 40C67.4209 40.2378 67.3923 40.4756 67.2078 40.6582Z" fill="#B6DA9E"/>
<path d="M55.1081 40.6583C52.5076 40.6678 49.9071 40.6716 47.3046 40.6906C46.966 40.6925 46.8557 40.5841 46.8595 40.2454C46.8747 38.8739 46.8747 37.5023 46.8595 36.1307C46.8557 35.7902 46.9679 35.6837 47.3046 35.6856C49.9052 35.7046 52.5057 35.7084 55.1081 35.716C55.2946 35.8967 55.3231 36.1345 55.3269 36.3723C55.344 37.5822 55.344 38.7902 55.3269 40.0001C55.3231 40.2378 55.2946 40.4756 55.1081 40.6583Z" fill="#EAB24D"/>
<path d="M46.992 28.588C49.6972 28.5081 52.4024 28.531 55.1095 28.5766C55.2046 28.6851 55.2864 28.8106 55.294 28.9533C55.3758 30.2982 55.3625 31.6451 55.3016 32.99C55.2864 33.3134 55.1152 33.4903 54.7518 33.4903C52.2939 33.4827 49.8342 33.4846 47.3763 33.4903C47.1062 33.4903 46.914 33.4523 46.9236 33.1156C46.9673 31.607 46.8436 30.0966 46.9901 28.5899L46.992 28.588Z" fill="#DF6C58"/>
<path d="M59.0956 28.5791C61.7989 28.5791 64.5041 28.5791 67.2073 28.5791C67.3044 28.6875 67.3843 28.8112 67.3938 28.9558C67.4737 30.3026 67.4623 31.6495 67.4014 32.9963C67.3862 33.3216 67.2092 33.4928 66.8478 33.4928C64.388 33.4852 61.9283 33.4871 59.4685 33.4928C59.1908 33.4928 59.0138 33.4396 59.0252 33.1085C59.0728 31.6 58.9396 30.0896 59.0975 28.5829L59.0956 28.5791Z" fill="#385F7E"/>
<path d="M43.0068 40.6582C41.0645 40.6677 39.1222 40.6677 37.1799 40.6906C36.8337 40.6944 36.7404 40.5821 36.7443 40.2454C36.7614 38.8719 36.7614 37.4966 36.7443 36.1231C36.7404 35.7845 36.8394 35.6779 37.1818 35.6817C39.1241 35.7046 41.0664 35.7046 43.0088 35.7141C43.1933 35.8929 43.2237 36.1269 43.2275 36.3609C43.2465 37.5784 43.2465 38.7939 43.2275 40.0114C43.2237 40.2473 43.1895 40.4794 43.0068 40.6582Z" fill="#89B2DE"/>
<path d="M21.7997 37.2671C21.7997 34.6096 21.8054 31.9539 21.7997 29.2963C21.7997 29.049 21.8968 28.7656 21.6399 28.5697C21.7389 27.8144 21.7179 27.0554 21.7084 26.2983C21.9101 25.6248 21.7674 24.9381 21.7959 24.2571C21.815 23.8043 21.4573 23.8861 21.1872 23.8861C18.8891 23.8823 16.5911 23.8842 14.293 23.8842C11.8294 23.8842 9.36396 23.8842 6.90039 23.8842C7.07541 23.6312 7.33603 23.7587 7.551 23.7587C12.7388 23.7511 17.9265 23.753 23.1124 23.7568C23.4491 23.7568 23.8124 23.6369 23.8105 24.24C23.7896 28.8341 23.7991 33.4282 23.7991 38.1041C23.0857 37.8568 22.4237 37.6152 21.7997 37.2671Z" fill="#D9E1EE"/>
<path d="M61.9388 48.8006C63.3998 46.7422 65.0567 44.8513 66.8906 43.0555C66.5596 42.8881 66.299 42.9566 66.0498 42.9566C54.3312 42.9528 42.6145 42.9528 30.8959 42.949C30.6201 42.949 30.3252 43.0403 30.0703 42.8463C33.6277 42.8406 37.1852 42.833 40.7445 42.8311C49.9957 42.8311 59.2469 42.8311 68.4981 42.833C68.7511 42.833 69.0042 42.833 69.4151 42.833C68.6256 43.7042 67.9293 44.4613 67.2483 45.2299C66.3504 46.2419 65.5076 47.2977 64.7505 48.4182C64.564 48.694 64.3624 48.8576 64.0009 48.8386C63.3142 48.8044 62.6274 48.8101 61.9407 48.8006H61.9388Z" fill="#AF594F"/>
<path d="M17.959 21.586C17.959 17.8517 17.959 14.1155 17.959 10.3813C19.0167 10.3255 19.5455 10.8112 19.5455 11.8384C19.5455 14.8175 19.5246 17.7985 19.5627 20.7775C19.5703 21.4376 19.4466 21.7477 18.737 21.6183C18.484 21.5727 18.2196 21.5955 17.959 21.586Z" fill="#B8C8E7"/>
<path d="M47.7089 54.4561C47.9334 54.2563 48.2074 54.3419 48.4585 54.34C51.6126 54.3343 54.7648 54.321 57.919 54.3495C58.5372 54.3552 58.893 54.2316 59.1346 53.5943C59.4656 52.7173 59.9526 51.8974 60.373 51.0547H63.004C62.4999 52.1314 62.0033 53.1682 61.5316 54.2183C61.3775 54.5645 61.0997 54.4522 60.8638 54.4522C56.4789 54.458 52.0939 54.4561 47.707 54.4542L47.7089 54.4561Z" fill="#D8E1ED"/>
<path d="M46.9927 28.5885C46.9927 30.0058 47.006 31.4249 46.9889 32.8421C46.9832 33.2606 47.1049 33.4299 47.5501 33.4261C49.89 33.409 52.2299 33.409 54.5698 33.4261C55.0283 33.4299 55.1215 33.234 55.1177 32.8307C55.1025 31.4135 55.112 29.9943 55.112 28.5771C56.2547 28.4985 56.826 29.0165 56.826 30.1313C56.826 31.0787 56.7994 32.026 56.8374 32.9715C56.8565 33.4528 56.6833 33.5593 56.2325 33.5574C53.2971 33.5403 50.3637 33.5498 47.4283 33.5498C47.1449 33.5498 46.8557 33.6069 46.8614 33.1484C46.8804 31.6817 46.8728 30.215 46.8804 28.7464C46.8804 28.6931 46.9546 28.6418 46.9927 28.5904V28.5885Z" fill="#DD554F"/>
<path d="M59.0959 28.5789C59.0959 29.9733 59.1111 31.3696 59.0864 32.764C59.0787 33.2339 59.1891 33.4355 59.7122 33.4298C62.0065 33.4051 64.2988 33.4051 66.5931 33.4298C67.1144 33.4355 67.2266 33.2339 67.2171 32.764C67.1942 31.3696 67.2076 29.9733 67.2076 28.5789C68.3503 28.5421 68.9216 29.0982 68.9216 30.2472C68.9216 31.1717 68.9064 32.0963 68.9273 33.0189C68.9368 33.4146 68.8075 33.5592 68.4004 33.5573C65.4155 33.5478 62.4307 33.5573 59.4459 33.5611C59.2005 33.5611 58.9532 33.5687 58.9551 33.2148C58.9684 31.7006 58.9798 30.1863 58.995 28.6721C58.995 28.6397 59.0597 28.6093 59.094 28.5789H59.0959Z" fill="#2B4E67"/>
<path d="M16.8715 34.7426C16.8715 35.8574 16.3116 36.4148 15.1917 36.4148C14.2595 36.4148 13.7935 35.9532 13.7935 35.0299C13.7935 34.4858 13.8049 33.9418 13.7897 33.3996C13.7801 33.099 13.8829 32.983 14.1949 32.9906C14.9501 33.0077 15.7072 33.0077 16.4625 32.9906C16.7669 32.9849 16.8867 33.0895 16.8753 33.3958C16.8601 33.8447 16.8715 34.2937 16.8715 34.7426Z" fill="#89B2DE"/>
<path d="M58.383 20.0451C58.383 18.6507 58.3601 17.2563 58.3944 15.8638C58.4077 15.3254 58.227 15.1827 57.7057 15.1884C55.225 15.2113 52.7444 15.1979 50.2637 15.1979C50.4063 14.9468 50.646 15.0705 50.8344 15.0705C53.7165 15.0629 56.6005 15.08 59.4825 15.0553C60.0038 15.0515 60.1788 15.1713 60.1598 15.7173C60.1179 16.969 60.1217 18.2226 60.1598 19.4744C60.175 19.9918 59.9943 20.1402 59.513 20.0869C59.1401 20.047 58.7596 20.0584 58.383 20.047V20.0451Z" fill="#98D1A3"/>
<path d="M55.1074 40.6582C55.1074 39.0108 55.1074 37.3634 55.1074 35.7159C56.2514 35.6525 56.8233 36.1922 56.8233 37.3348C56.8233 38.2822 56.8043 39.2295 56.8329 40.175C56.8443 40.5802 56.7168 40.7248 56.3135 40.6886C55.914 40.6525 55.5107 40.6658 55.1093 40.6563L55.1074 40.6582Z" fill="#E49542"/>
<path d="M67.207 40.6585C67.207 39.011 67.207 37.3636 67.207 35.7162C68.3535 35.6515 68.9268 36.181 68.9268 37.3047C68.9268 38.2463 68.9097 39.188 68.9344 40.1296C68.9458 40.5367 68.8716 40.7479 68.4036 40.6927C68.0079 40.6471 67.6046 40.668 67.207 40.6585Z" fill="#98D1A4"/>
<path d="M43.0078 40.6586C43.0078 39.0112 43.0078 37.3619 43.0078 35.7145C44.1517 35.6485 44.7237 36.1786 44.7237 37.3048C44.7237 38.2465 44.7066 39.1881 44.7313 40.1298C44.7427 40.535 44.6743 40.7499 44.2025 40.6948C43.8068 40.6472 43.4054 40.6681 43.0059 40.6605L43.0078 40.6586Z" fill="#709DD3"/>
<path d="M57.3887 59.0236C57.577 58.2265 57.7672 57.4294 57.9556 56.6343C58.7355 56.6267 59.5155 56.6191 60.2955 56.6076C60.5504 56.6038 60.7102 56.6476 60.6227 56.9653C60.5028 57.3971 60.3982 57.8327 60.3145 58.2722C60.2536 58.5994 60.052 58.6488 59.7647 58.6831C58.9714 58.7763 58.1801 58.9076 57.3887 59.0236Z" fill="#AF594F"/>
<path d="M36.7278 66.5816C37.6504 66.515 38.4285 66.827 39.1324 67.3425C39.6004 67.6849 40.0988 67.9113 40.6809 67.9855C41.3525 68.0711 41.7272 68.5429 41.6568 69.1383C41.5883 69.7147 41.0918 70.1313 40.4507 70.099C39.6841 70.0609 38.9422 69.8764 38.3372 69.3818C37.2548 68.4972 36.2161 68.5067 35.1393 69.3913C34.5971 69.8365 33.9275 70.0115 33.2351 70.0876C32.5026 70.1675 31.9529 69.8117 31.8501 69.1878C31.7417 68.5429 32.1241 68.0806 32.9021 67.9722C33.4595 67.8942 33.9313 67.6564 34.3765 67.3311C35.0823 66.8175 35.8603 66.5036 36.7259 66.5797L36.7278 66.5816Z" fill="#020202"/>
<path d="M62.3106 70.0956C61.483 70.0538 60.7601 69.7456 60.081 69.2795C58.9072 68.4748 58.4202 68.4748 57.2522 69.2795C56.5939 69.7342 55.892 70.0252 55.0968 70.0956C54.3815 70.1584 53.826 69.757 53.7575 69.1292C53.6909 68.5148 54.0695 68.0791 54.8133 67.9745C55.3707 67.8965 55.8349 67.6511 56.2915 67.341C57.8685 66.2681 59.4589 66.2662 61.0436 67.3372C61.5211 67.6606 62.01 67.9079 62.5921 67.984C63.2693 68.0715 63.6403 68.5338 63.5756 69.1292C63.509 69.7323 62.984 70.1356 62.3106 70.0956Z" fill="#020202"/>
<path d="M13.8661 66.5796C14.7507 66.5207 15.5098 66.8079 16.2022 67.3044C16.6892 67.6545 17.1991 67.9151 17.8116 67.9855C18.4622 68.0616 18.8732 68.5771 18.799 69.1402C18.7229 69.7109 18.2168 70.1256 17.5814 70.099C16.7863 70.0647 16.031 69.8517 15.407 69.3456C14.3645 68.5048 13.362 68.5162 12.3271 69.3532C11.7621 69.8117 11.0829 70.0115 10.3638 70.0876C9.61621 70.1656 9.06453 69.8098 8.98273 69.1915C8.89331 68.501 9.23194 68.0863 10.0271 67.974C10.5845 67.8961 11.0544 67.6564 11.5034 67.3349C12.211 66.825 12.9891 66.5093 13.8661 66.5816V66.5796Z" fill="#020202"/>
<path d="M10.9239 27.3615C10.9258 28.463 10.534 28.9538 9.71784 28.8739C9.02158 28.8054 8.75144 28.3393 8.77047 27.2455C8.78568 26.3495 9.10148 25.9119 9.7616 25.8682C10.5435 25.8149 10.922 26.3038 10.9239 27.3615Z" fill="#020303"/>
<path d="M21.7075 26.2979C21.9966 27.0645 22.0081 27.8235 21.639 28.5692C21.2148 28.8793 20.7715 29.0163 20.2712 28.7424C19.7785 28.4703 19.7499 28.0043 19.748 27.523C19.748 27.3346 19.748 27.1463 19.7538 26.9599C19.7671 26.5014 19.9421 26.1286 20.3834 25.9497C20.9009 25.7386 21.3441 25.8889 21.7094 26.2979H21.7075Z" fill="#050506"/>
<path d="M16.3957 27.4301C16.3957 28.4535 16.04 28.912 15.2753 28.8796C14.5048 28.8492 14.2366 28.3831 14.2613 27.1067C14.2746 26.3343 14.6646 25.874 15.3133 25.8663C16.0571 25.8568 16.3976 26.3476 16.3957 27.4301Z" fill="#030303"/>
<path d="M57.6773 47.0755C57.3234 47.0755 56.9658 47.1003 56.6138 47.0698C56.0279 47.0185 55.6246 46.5429 55.6626 45.9589C55.7026 45.3558 56.0393 44.9868 56.6424 44.9544C57.3253 44.9183 58.014 44.9259 58.6988 44.9506C59.3076 44.9735 59.7394 45.4262 59.7489 45.9855C59.7584 46.5733 59.3057 47.0394 58.6722 47.0755C58.3431 47.0946 58.0102 47.0793 57.6792 47.0793V47.0755H57.6773Z" fill="#030201"/>
<path d="M16.3877 17.7828C16.3953 18.9984 15.7219 19.6052 14.8544 19.1696C14.3674 18.9261 14.2418 18.5 14.2571 17.9902C14.2742 17.3833 14.1486 16.7308 14.8259 16.3656C15.4803 16.0117 16.2717 16.4074 16.3839 17.1474C16.4163 17.3548 16.3896 17.5716 16.3896 17.7847L16.3877 17.7828Z" fill="#040506"/>
<path d="M16.409 13.5922C16.3938 13.8262 16.4242 14.0754 16.3519 14.2922C16.2092 14.7222 15.8972 15.0075 15.4274 15.0494C14.9613 15.0893 14.5523 14.9048 14.4001 14.4673C14.1661 13.7957 14.0995 13.0824 14.4914 12.4375C14.7387 12.0304 15.1705 11.9372 15.6138 12.0627C16.4052 12.2872 16.4356 12.9283 16.409 13.5922Z" fill="#020303"/>
</svg>
