<svg width="94" height="64" viewBox="0 0 94 64" fill="none" xmlns="http://www.w3.org/2000/svg">
<path d="M39.4551 60.7036C39.5593 61.9636 39.4018 62.2253 38.2581 62.7002C36.2881 63.5192 34.2575 63.9724 32.1058 63.9409C29.1156 63.8997 26.1255 63.9191 23.1354 63.9384C22.3891 63.9433 21.7178 63.8294 21.4053 63.0758C21.0757 62.2811 21.4828 61.7141 22.0765 61.1931C24.9164 58.7046 27.7369 56.1991 30.5598 53.6937C30.7755 53.5023 31.0687 53.3714 31.168 52.9716C29.1205 52.6106 27.1093 52.1671 25.1345 51.5711C17.4023 49.2401 10.6514 45.2396 4.84322 39.6399C3.95152 38.7797 3.06222 37.9171 2.17051 37.0617C1.29819 36.2257 0.859605 35.2226 0.869298 33.999C0.891106 31.6728 0.869307 29.3466 0.879 27.0229C0.888692 24.7695 2.53641 23.083 4.79476 23.0152C5.76159 22.9861 6.73084 22.974 7.69282 23.0224C8.37372 23.0563 8.56514 22.9497 8.34464 22.201C7.07977 17.9049 5.87063 13.5918 4.64453 9.28119C4.19867 7.71588 4.70511 7.03741 6.31649 7.03499C8.885 7.03257 11.4511 7.02772 14.0196 7.03499C17.0582 7.04468 19.3432 8.37011 20.8431 11.0113C22.9682 14.7549 25.0908 18.5034 27.1747 22.2713C27.4994 22.8601 27.8605 23.0394 28.5099 23.0273C30.8046 22.9861 33.1017 23.0055 35.3964 23.0127C36.4989 23.0176 36.8696 23.3229 37.1628 24.4181C37.2089 25.2298 36.843 25.7363 36.0821 25.8986C35.6653 25.9859 35.2389 25.9543 34.8173 25.9543C25.2992 25.9543 15.7812 25.9543 6.26317 25.9543C5.81005 25.9543 5.35451 25.9301 4.90865 26.0295C4.43372 26.1361 4.07024 26.3808 3.94424 26.8775C3.8352 27.3088 3.90547 27.5633 4.46279 27.5293C8.17502 27.3113 11.8921 27.4421 15.6067 27.447C17.5792 27.4494 19.0985 28.3556 19.9756 30.1632C20.8116 31.8836 20.5232 33.5216 19.4207 35.0263C18.4927 36.2888 17.1793 36.8194 15.6431 36.8267C12.9534 36.8388 10.2638 36.8267 7.57409 36.8339C7.24939 36.8339 6.91741 36.7928 6.50063 36.9139C7.36326 38.0867 8.47306 38.9178 9.51742 39.7901C16.244 45.4068 23.9495 48.85 32.6267 50.1463C33.6445 50.299 34.369 50.0227 35.0838 49.3806C37.3325 47.3646 39.6175 45.3898 41.8443 43.3496C43.1576 42.1453 44.5727 41.5105 46.4046 41.542C50.9649 41.6244 55.5301 41.5662 60.0928 41.5711C61.7236 41.5711 62.7292 42.1962 63.1629 43.4538C63.6137 44.7647 63.2065 45.9738 61.9271 46.943C60.3158 48.1642 58.6414 49.2958 57.0058 50.551C64.9754 50.6334 72.9305 50.6333 80.8856 50.6309C82.182 50.5849 83.4808 50.706 84.7699 50.4322C87.9684 49.7514 90.2849 47.2338 90.6508 43.9893C90.7453 43.1557 90.6072 43.0079 89.5968 43.0055C85.005 42.9934 80.4107 42.974 75.8189 42.9837C72.6761 42.991 69.5333 42.9764 66.393 42.991C62.9061 42.8286 60.3764 40.1632 60.4539 36.7346C60.529 33.4659 63.2162 30.8877 66.6038 30.8732C70.5292 30.8586 74.4571 30.8562 78.3826 30.8756C79.9479 30.8877 81.5157 30.8902 83.316 30.8756C79.3155 27.9073 75.1113 26.1361 70.2603 26.107C69.5382 25.9955 68.8161 25.9737 68.0891 25.9762C61.2923 25.9786 54.493 25.9786 47.6961 25.9762C47.243 25.9762 46.7875 26.0077 46.3416 25.9035C45.5686 25.7242 45.2221 25.2299 45.2754 24.4109C45.5832 23.2623 45.9055 23.0006 47.2236 23.0176C47.7907 23.0249 47.9748 22.8892 48.0257 22.2834C48.3092 18.7675 50.1217 16.2596 53.2645 14.7282C53.8048 14.4641 53.9938 14.1952 54.0181 13.6039C54.2725 7.56564 59.458 1.92473 65.5182 1.05485C71.6657 0.172851 77.2171 2.9933 80.1224 8.50095C80.3502 8.93225 80.6652 9.08976 81.0868 9.18911C82.4219 9.49684 83.6456 10.059 84.7772 10.8271C85.8264 11.5419 85.9476 12.0411 85.3466 13.1751C84.7505 13.8778 84.1908 13.965 83.3185 13.4174C82.136 12.6759 80.9147 12.0653 79.4948 11.949C78.2178 11.6219 76.9869 11.9344 75.7559 12.2252C75.4336 12.3003 75.1235 12.453 74.7891 12.4288C74.113 12.3779 73.5703 12.0798 73.3037 11.4304C73.0444 10.8005 73.2552 10.2553 73.6963 9.77791C73.9265 9.52834 74.2148 9.37083 74.5298 9.25937C75.0435 9.09702 75.5596 8.92983 76.0927 8.8523C76.73 8.7578 76.6791 8.46218 76.3496 8.08176C75.2204 6.78542 74.0088 5.58115 72.3902 4.90026C71.5615 4.55134 70.7328 4.19515 69.8193 4.11034C63.9093 2.84307 58.2222 7.09558 57.1948 12.5257C57.0034 13.5385 57.0082 13.5967 58.038 13.7469C59.3393 13.9335 60.5726 14.2897 61.7067 14.9657C62.3633 15.3558 62.9594 15.8138 63.4198 16.4244C63.9238 17.0907 63.8923 17.8225 63.3641 18.4089C62.8746 18.9541 62.0483 19.0825 61.3771 18.7118C61.033 18.5204 60.7519 18.2393 60.4272 18.0188C56.9331 15.6393 52.2492 17.3597 51.1588 21.4281C50.8656 22.5233 51.0061 22.7244 52.1256 22.7244C57.7715 22.7292 63.4174 22.6856 69.0632 22.7414C72.5574 22.7753 75.9716 23.3617 79.2137 24.7452C80.2145 25.1717 81.1861 25.6587 82.1263 26.2039C83.757 27.241 83.8516 27.2313 85.0219 25.6927C86.6721 23.5289 87.1906 21.1082 86.6163 18.4525C86.5218 18.0115 86.374 17.5754 86.4297 17.1198C86.4976 16.5407 86.7326 16.0827 87.3748 15.9664C88.6736 15.792 89.0734 16.0246 89.4029 17.2773C90.5248 21.525 89.5459 25.2638 86.5388 28.4404C86.0154 28.9953 85.9306 29.2085 86.5437 29.778C89.8076 32.8068 92.1386 36.4414 93.4059 40.7375C93.5125 41.101 93.4059 41.525 93.7064 41.8303V44.9125C93.3308 45.5013 93.326 46.2064 93.0861 46.8437C91.5547 50.9023 87.7382 53.6065 83.4105 53.6113C73.2916 53.6234 63.175 53.621 53.0561 53.6016C52.414 53.6016 51.9051 53.7591 51.4011 54.1395C50.4149 54.8834 49.3875 55.5764 48.3867 56.3033C47.6525 56.8364 46.9547 56.8849 46.2738 56.2234C45.6074 55.5595 45.6244 54.8277 46.3756 54.1492C47.18 53.4199 48.1081 52.8456 48.9877 52.2156C52.2662 49.8628 55.5592 47.5294 58.8546 45.2008C58.9952 45.1015 59.143 45.007 59.3271 44.7816C57.3668 44.7841 55.5107 44.7816 53.6522 44.7889C51.2993 44.7695 48.944 44.8301 46.5912 44.7622C45.542 44.7307 44.7278 45.0772 43.9791 45.7557C39.5108 49.8047 34.9433 53.7373 30.4726 57.7838C29.3386 58.8112 28.0761 59.7005 27.1117 60.8951C30.4266 61.038 33.7414 61.2876 36.9157 59.9985C37.3373 59.8265 37.7735 59.7029 38.2339 59.7368C38.8566 59.7829 39.3509 59.9985 39.4503 60.7085L39.4551 60.7036Z" fill="#242020"/>
<path d="M78.469 31.0989C74.5726 31.1085 70.6762 31.1207 66.7798 31.1304C63.4432 31.1376 60.8359 33.4807 60.7123 36.5823C60.579 39.9358 62.9028 42.4897 66.3364 42.766C66.6587 42.8871 66.9931 42.8265 67.3226 42.8265C72.9321 42.8314 78.5441 42.8265 84.1536 42.8314C85.1955 42.8314 85.2271 42.8895 85.1544 43.9024C84.9702 46.4418 83.8798 48.5159 82.0019 50.2096C81.653 50.5246 81.258 50.7112 80.8315 50.8614C76.7534 50.8736 72.6753 50.8881 68.5972 50.8929C64.4924 50.8978 60.3876 50.8929 56.2707 50.8929C56.2441 50.544 56.5324 50.4931 56.7021 50.3696C58.3667 49.1701 60.0435 47.9901 61.7106 46.7931C62.9489 45.9063 63.3729 44.8159 62.978 43.6043C62.5781 42.3855 61.6283 41.7652 60.0896 41.7628C55.4372 41.7555 50.7824 41.7725 46.13 41.7531C44.6591 41.7458 43.4476 42.2716 42.3669 43.2457C39.7838 45.567 37.1644 47.8496 34.5789 50.1684C34.2252 50.4859 33.8835 50.5779 33.4401 50.5198C22.6572 49.0805 13.4736 44.4476 5.80922 36.7276C6.04184 36.449 6.3302 36.5847 6.57493 36.5847C9.56507 36.5726 12.5576 36.5847 15.5477 36.575C18.2083 36.5677 20.1759 34.7068 20.205 32.1796C20.2365 29.6571 18.2108 27.709 15.5235 27.7017C12.199 27.692 8.87689 27.7066 5.55237 27.692C4.90782 27.6896 4.29961 27.8471 3.68413 27.9852C3.42728 26.1631 3.77622 25.7632 5.61537 25.7632C15.4654 25.7632 25.3154 25.7632 35.1654 25.7632C36.5441 25.7632 36.7792 25.5985 37.1644 24.416C39.8686 24.416 42.5753 24.416 45.2795 24.416C45.6696 25.6033 45.8949 25.7632 47.2713 25.7632C54.5019 25.7657 61.7325 25.7632 68.9631 25.7681C69.4719 25.7681 69.9832 25.8311 70.4921 25.8674C73.4313 26.6622 75.8278 28.385 78.0837 30.3429C78.2994 30.5294 78.5538 30.7402 78.4738 31.0989H78.469Z" fill="#C76F62"/>
<path d="M53.6285 44.5469H59.8826C59.9456 44.8716 59.633 44.9079 59.4682 45.0266C55.2956 48.007 51.1181 50.9777 46.9407 53.9532C45.8915 54.6996 45.763 55.1527 46.2767 56.2261C45.1597 56.8173 44.1953 57.629 43.1703 58.3535C41.9708 59.2016 40.7229 59.9697 39.4556 60.7088C39.0001 60.0449 38.358 59.6644 37.6044 60.0206C35.1546 61.1764 32.557 61.2515 29.9303 61.2176C28.9078 61.2031 27.8852 61.22 26.8603 61.2104C26.6785 61.2104 26.2811 61.2976 26.6325 60.8905C27.3231 60.7936 28.0258 60.7718 28.7115 60.8445C30.0539 60.985 31.1904 60.5077 32.2977 59.8413C34.9438 58.2518 37.3693 56.3473 39.8918 54.5808C43.9239 51.758 47.9051 48.8648 51.9371 46.0419C52.5623 45.6033 53.059 45.0436 53.6285 44.5542V44.5469Z" fill="#AF594F"/>
<path d="M87.3791 15.9642C86.6546 16.4949 86.5407 17.1418 86.7661 18.019C87.5996 21.2659 86.846 24.1324 84.5538 26.6015C83.9577 27.2436 83.4246 27.532 82.7049 26.8172C82.5401 26.6524 82.3124 26.5482 82.1137 26.4149C82.1258 26.0975 82.3002 25.8455 82.4577 25.5935C84.9027 21.6875 84.3502 16.003 80.2091 12.647C79.9208 12.4144 79.504 12.2497 79.5621 11.7529C80.9263 11.799 82.1161 12.3538 83.2041 13.1098C83.9359 13.6163 84.6119 13.7083 85.3437 13.1801C86.3202 13.8901 86.926 14.8714 87.3743 15.9666L87.3791 15.9642Z" fill="#D1D4D4"/>
<path d="M79.5652 11.7531C80.5321 12.6909 81.5982 13.5244 82.393 14.639C84.8816 18.1307 84.6514 23.5196 82.1144 26.4176C79.1291 24.799 75.9911 23.631 72.5987 23.2482C71.4914 23.1246 70.3719 23.0543 69.2597 23.0495C63.403 23.0301 57.5487 23.0398 51.692 23.0398C50.638 23.0398 50.5871 22.9744 50.7785 21.9082C51.6484 17.0718 57.2531 15.034 61.0623 18.1743C61.3967 18.4505 61.731 18.717 62.172 18.7243C62.7584 18.7316 63.2067 18.4699 63.466 17.9126C63.7519 17.2971 63.5678 16.7883 63.1171 16.3618C61.5251 14.8474 59.6011 14.0623 57.4252 13.9484C56.8024 13.9145 56.6982 13.7619 56.8 13.1682C57.7329 7.68479 61.9128 3.92661 67.4666 3.63099C68.3122 3.58495 69.1482 3.65765 69.9575 3.93388C72.0414 5.02183 73.4904 6.73252 74.6487 8.72671C74.7674 8.93267 74.8716 9.16287 74.6754 9.39064C74.4403 9.51664 74.181 9.60871 73.9775 9.77348C73.4662 10.1902 73.2312 10.7136 73.5292 11.363C73.8491 12.0584 74.3991 12.3419 75.1406 12.136C76.2116 11.8404 77.2851 11.5447 78.4094 11.5835C78.7947 11.5981 79.1775 11.695 79.5628 11.7531H79.5652Z" fill="white"/>
<path d="M53.6283 44.5471C53.277 45.7126 52.1769 46.1246 51.3215 46.7352C45.397 50.9683 39.4143 55.119 33.5116 59.3788C31.498 60.8302 29.339 61.2809 26.9522 61.0289C26.8432 61.0168 26.7414 60.9344 26.6348 60.8859C32.5278 55.6545 38.4233 50.4207 44.3139 45.1893C44.7282 44.821 45.1644 44.5132 45.7483 44.5156C48.375 44.5278 51.0017 44.5374 53.6259 44.5471H53.6283Z" fill="#C76F62"/>
<path d="M84.2826 39.9913C78.3048 40.001 72.3293 40.0252 66.3515 40.0082C64.7232 40.0034 63.4292 38.5835 63.4316 36.9358C63.4316 35.3002 64.7401 33.8706 66.3588 33.8633C71.2486 33.844 76.1385 33.8706 81.0284 33.8803C81.6899 34.1735 81.9249 34.835 82.2884 35.3729C83.0614 36.5263 83.6066 37.8057 84.2002 39.056C84.3359 39.3395 84.5225 39.6545 84.2802 39.9889L84.2826 39.9913Z" fill="#6EACDD"/>
<path d="M19.7264 22.9786C17.1312 22.9932 14.5385 23.0053 11.9433 23.032C11.5871 23.0368 11.3981 22.9278 11.2988 22.574C10.1236 18.4039 8.93626 14.2386 7.75377 10.0709C7.73923 10.0201 7.77073 9.95462 7.78042 9.89404C9.10345 9.75593 10.4313 9.87223 11.7568 9.83347C12.2365 9.81893 12.5322 10.1 12.8036 10.4441C13.6323 11.4957 14.2138 12.6951 14.8632 13.8509C16.3995 16.589 17.9527 19.3174 19.472 22.0651C19.6271 22.3462 19.8863 22.6055 19.7264 22.9762V22.9786Z" fill="#C76F62"/>
<path d="M19.7253 22.9792C17.5445 19.1023 15.3685 15.2229 13.1829 11.3485C12.6158 10.3405 11.8865 9.69592 10.5756 9.88735C9.66206 10.0206 8.7122 9.90188 7.7793 9.89461C8.28573 9.61111 8.83336 9.77589 9.35675 9.76862C10.9269 9.74681 12.4971 9.74923 14.0649 9.7783C15.9161 9.81223 17.4015 10.5464 18.3393 12.1917C20.3093 15.647 22.2575 19.1168 24.2129 22.5794C24.2687 22.6787 24.2929 22.795 24.3583 22.9768H19.7253V22.9792Z" fill="#AF594F"/>
<path d="M80.833 50.8589C82.757 49.3566 84.2617 47.5684 84.7342 45.0896C84.8408 44.5322 84.9038 43.9653 84.979 43.4007C85.0177 43.1148 84.9087 42.9282 84.5961 42.9185C84.3538 42.9112 84.1139 42.9112 83.8716 42.9112C78.376 42.9112 72.8827 42.9112 67.3871 42.9064C67.0382 42.9064 66.6602 43.0251 66.3379 42.7683C72.5314 42.7586 78.7249 42.7489 84.9208 42.744C86.6727 42.744 88.4271 42.7901 90.179 42.7319C90.9181 42.7077 91.015 42.9887 90.9835 43.6212C90.792 47.4811 87.6493 50.6529 83.7287 50.8662C82.7667 50.9195 81.7974 50.8662 80.8306 50.8613L80.833 50.8589Z" fill="#AF594F"/>
<path d="M10.4916 33.8538C8.86085 33.8538 7.23009 33.8611 5.59933 33.8514C4.40957 33.8441 3.64629 33.1923 3.61236 32.194C3.57844 31.1763 4.38049 30.4397 5.59448 30.4349C8.88508 30.4228 12.1781 30.4228 15.4687 30.4349C16.7118 30.4397 17.4533 31.1254 17.4314 32.1892C17.4096 33.2069 16.6754 33.8417 15.4736 33.849C13.8137 33.8587 12.1515 33.8514 10.4916 33.8514V33.8538Z" fill="#AF594F"/>
<path d="M84.2831 39.9913C83.5367 37.7742 82.3761 35.78 81.0312 33.8827C82.7468 33.873 84.4624 33.8706 86.178 33.8488C86.5075 33.844 86.7377 33.9385 86.9461 34.205C88.3079 35.9399 89.4007 37.8251 90.2585 39.9913H84.2855H84.2831Z" fill="#4C97D2"/>
<path d="M78.4696 31.0986C76.6983 29.1092 74.4423 27.8081 72.1089 26.6208C71.5782 26.3518 71.0306 26.1168 70.4902 25.8672C75.5352 25.969 79.8895 27.8517 83.9773 31.0986H78.4696Z" fill="#AF594F"/>
<path d="M74.6768 9.3879C73.8965 7.36464 72.3748 5.95441 70.7683 4.60476C70.4993 4.37941 70.1068 4.29702 69.959 3.92871C72.954 4.40606 75.1735 6.07556 76.9303 8.45986C77.1629 8.77486 77.0975 8.92509 76.7049 8.99052C76.0265 9.1044 75.3528 9.25221 74.6792 9.38548L74.6768 9.3879Z" fill="#D1D3D4"/>
<path d="M44.9467 36.9846C44.937 40.1927 42.3467 42.7515 39.1167 42.7442C35.8673 42.7369 33.306 40.1297 33.3302 36.8465C33.3521 33.6577 35.969 31.1135 39.2087 31.128C42.4097 31.145 44.9564 33.7425 44.9467 36.9821V36.9846Z" fill="#242020"/>
<path d="M26.3041 42.7439C23.1225 42.7318 20.5031 40.0761 20.5394 36.9019C20.5758 33.6525 23.1928 31.1034 26.4688 31.1301C29.5898 31.1543 32.1947 33.793 32.202 36.9309C32.2092 40.1415 29.5535 42.7584 26.3041 42.7439Z" fill="#242020"/>
<path d="M42.2198 36.9843C42.2052 38.7023 40.8313 40.0349 39.0939 40.0204C37.3832 40.0059 36.0359 38.6223 36.0529 36.8946C36.0699 35.1888 37.4607 33.8367 39.1836 33.8537C40.8943 33.8706 42.2367 35.2542 42.2198 36.9843Z" fill="#6EACDD"/>
<path d="M26.3057 40.0203C24.6265 40.0009 23.2744 38.6343 23.2695 36.9478C23.2647 35.2274 24.6507 33.8487 26.3808 33.8535C28.0819 33.8584 29.5139 35.3001 29.4824 36.9769C29.4509 38.6779 28.0286 40.0396 26.3081 40.0203H26.3057Z" fill="#6EACDD"/>
</svg>
