<svg width="87" height="82" viewBox="0 0 87 82" fill="none" xmlns="http://www.w3.org/2000/svg">
<path d="M0.1633 45.2898C0.478403 44.7497 0.930802 44.3648 1.45522 44.0227C5.86667 41.1553 10.2714 38.2744 14.6693 35.389C15.4188 34.8984 16.1661 34.7633 16.9336 35.281C17.4242 35.6141 17.6808 36.1003 17.6763 36.7102C17.6718 37.6352 17.6966 38.5625 17.6673 39.4876C17.6515 39.9377 17.7483 40.1155 18.2525 40.1087C20.4402 40.0795 22.6302 40.0817 24.8179 40.1087C25.3086 40.1132 25.4346 39.9534 25.4166 39.4876C25.3828 38.648 25.3941 37.804 25.4121 36.9623C25.4504 35.2405 26.677 34.0184 28.4078 34.0139C32.4479 34.0026 36.488 33.9914 40.5281 34.0274C41.1763 34.0319 41.3113 33.8541 41.2956 33.2396C41.2505 31.5156 41.2798 29.7871 41.2798 27.9235C39.2631 29.4765 37.1587 30.4915 34.8089 31.034C26.3236 32.9943 17.5435 26.994 16.3169 18.3783C15.8149 14.8515 16.3821 11.5384 18.0994 8.40773C18.5361 7.61099 19.0875 7.22612 19.9923 7.41518C20.9714 7.90808 21.1695 8.4685 20.627 9.53983C19.8775 11.023 19.2248 12.531 19.0222 14.1965C18.4573 18.8374 19.9698 22.6884 23.5147 25.7088C25.5516 27.4441 27.9487 28.3939 30.6361 28.5604C34.1044 28.7765 37.1767 27.7885 39.8123 25.5085C42.2026 23.4401 43.6183 20.8181 44.0392 17.6963C44.5389 13.9985 43.5666 10.6832 41.1628 7.83156C38.7747 4.99793 35.7002 3.51923 31.982 3.41345C31.5341 3.39994 31.084 3.40669 30.6338 3.4202C28.7117 3.4382 26.9786 4.09315 25.3131 4.98668C24.9439 5.18474 24.6086 5.44132 24.2215 5.60562C23.4112 5.94773 22.826 5.76092 22.3916 5.0362C22.0787 4.05039 22.2025 3.68803 23.0443 3.12761C29.6772 -1.2905 38.6644 0.149941 43.5958 6.44738C43.9852 6.94478 44.3723 7.11584 44.989 7.11584C52.7811 7.09558 60.5731 7.10233 68.3652 7.10233C69.5446 7.10233 69.8304 7.3094 70.2018 8.40323C70.3616 9.16622 69.9227 9.55559 69.2993 9.80541C68.7141 10.0395 68.0884 10.017 67.4717 10.017C60.769 10.017 54.064 10.017 47.3613 10.017C47.1362 10.017 46.9112 10.026 46.6883 10.017C46.1594 9.99222 46.0626 10.224 46.2337 10.6899C46.6996 11.9593 46.9832 13.2647 47.116 14.6174C47.4311 17.8561 46.7581 20.8923 45.1106 23.6539C44.3431 24.9413 43.9334 26.1927 44.0145 27.6849C44.1022 29.3077 44.0302 30.9372 44.0347 32.5644C44.037 33.7078 44.0775 33.7528 45.2118 33.755C50.204 33.7595 55.1961 33.755 60.1905 33.755C60.5551 33.755 60.9198 33.7438 61.2844 33.7753C63.1367 33.9418 64.3566 35.2405 64.4084 37.1018C64.4129 37.2414 64.4107 37.3832 64.4129 37.5227C64.4242 39.4493 64.2554 39.3097 66.1707 39.312C69.5086 39.3165 72.8464 39.312 76.1843 39.3142C76.7154 39.3142 77.2556 39.2782 77.7463 39.5528C78.7726 40.4464 78.7614 41.2656 77.7125 42.1276C77.2196 42.3954 76.6817 42.3572 76.1505 42.3572C72.6461 42.3617 69.144 42.3572 65.6396 42.3617C64.4489 42.3617 64.4242 42.3909 64.4219 43.5928C64.4197 45.3866 64.4152 47.1804 64.4219 48.9742C64.4264 50.0118 64.4849 50.0771 65.5113 50.0793C68.9864 50.0861 72.4615 50.0793 75.9367 50.0838C76.5241 50.0838 77.1183 50.0591 77.672 50.3179C78.8469 51.1934 78.8086 52.1792 77.5685 53.0165C77.1318 53.1605 76.6817 53.1223 76.2338 53.1223C72.6731 53.1268 69.1102 53.1223 65.5495 53.1268C64.4669 53.1268 64.4084 53.1898 64.4062 54.2701C64.4016 57.5224 64.3994 60.7769 64.4062 64.0291C64.4062 65.0149 64.4759 65.0779 65.4573 65.0847C66.2698 65.0914 67.0845 65.0914 67.897 65.0802C68.381 65.0734 68.6105 64.8439 68.615 64.3577C68.624 63.6015 68.597 62.843 68.6285 62.0868C68.7028 60.2254 70.2716 59.3454 71.8719 60.311C73.938 61.5556 75.9209 62.9285 77.9579 64.2204C79.2318 65.339 80.7038 65.7666 82.3918 65.5866C82.977 65.5236 83.2786 65.3345 83.2538 64.7268C83.2426 64.4747 83.2538 64.2227 83.2538 63.9683C83.2538 46.5142 83.2538 29.0623 83.2538 11.6082C83.2538 10.0282 83.2538 10.0327 81.6918 10.026C80.4292 10.0192 79.1665 10.0552 77.9061 10.0057C76.8212 9.97422 75.7251 10.1205 74.6515 9.89094C73.7242 9.69288 73.4181 9.28776 73.4316 8.40323C73.8007 7.31165 74.0888 7.10458 75.2705 7.10233C77.7688 7.10008 80.2649 7.09783 82.7632 7.10233C84.9374 7.10683 86.137 8.30195 86.1415 10.4941C86.1506 16.472 86.1438 22.4498 86.1438 28.4276C86.1438 40.3833 86.1303 52.339 86.1573 64.2947C86.1618 66.0953 85.9142 67.6662 83.8638 68.3842C84.4715 68.7826 84.9667 69.0887 85.4438 69.4218C86.729 70.313 86.7537 71.7355 85.4596 72.5885C80.8996 75.5887 76.3261 78.5663 71.7571 81.553C71.1246 81.9671 70.4719 82.0797 69.7854 81.697C69.0967 81.3144 68.8424 80.7158 68.8626 79.9483C68.8851 79.0795 68.8536 78.2085 68.8739 77.3397C68.8829 76.9728 68.7591 76.8378 68.3922 76.8603C68.0298 76.8851 67.663 76.8648 67.2984 76.8648C59.441 76.8648 51.5814 76.8648 43.7241 76.8648C43.1659 76.8648 42.5965 76.9031 42.0901 76.597C41.3451 76.1468 41.219 75.4379 41.228 74.6344C41.2483 72.8023 41.228 72.8023 39.4207 72.8023C35.9118 72.8023 32.4029 72.7393 28.8962 72.8248C26.6387 72.8811 25.3356 71.4204 25.3671 69.3317C25.4549 63.7208 25.3828 58.1075 25.4143 52.4943C25.4188 51.8191 25.2253 51.6661 24.5816 51.6796C22.4771 51.7201 20.3727 51.7088 18.2682 51.6841C17.8068 51.6796 17.6313 51.7831 17.656 52.276C17.6966 53.1155 17.6448 53.9595 17.6741 54.8013C17.7011 55.5778 17.4107 56.1764 16.7377 56.5456C16.0265 56.9372 15.3445 56.7751 14.6873 56.343C11.7389 54.4051 8.78588 52.4786 5.83291 50.5475C4.40369 49.6134 2.98123 48.6659 1.5385 47.7543C0.989321 47.4077 0.525669 46.9981 0.154297 46.4737V45.2943L0.1633 45.2898Z" fill="#010101"/>
<path d="M77.791 39.7374C77.4242 39.5776 77.0393 39.5596 76.6432 39.5596C72.7426 39.5663 68.8399 39.5506 64.9393 39.5776C64.3339 39.5821 64.075 39.4718 64.1516 38.8101C64.2146 38.2564 64.1673 37.6893 64.1651 37.1266C64.1516 35.254 62.9317 34.0116 61.059 34.0094C55.6145 34.0004 50.1677 33.9869 44.7232 34.0274C43.9422 34.0341 43.8116 33.7978 43.8251 33.0911C43.8679 30.7054 43.8499 28.3196 43.8364 25.9339C43.8341 25.468 43.9399 25.0831 44.2055 24.6825C47.163 20.2216 47.7392 15.4592 45.88 10.4424C45.592 9.66362 45.8418 9.66588 46.463 9.66588C53.7329 9.67938 61.0028 9.67488 68.2727 9.67488C69.5803 9.67488 69.8077 9.51958 70.2083 8.39648C71.2864 8.39648 72.3623 8.39648 73.4404 8.39648C73.832 9.49707 74.0706 9.65912 75.2815 9.67713C76.1165 9.68838 76.9538 9.71314 77.7888 9.7334C78.0319 10.0012 78.0679 10.3321 78.0701 10.6697C78.0792 12.8394 78.0814 15.0068 78.0701 17.1764C78.0701 17.4555 78.0476 17.7346 77.8833 17.9777C77.6785 18.1802 77.4197 18.1375 77.1699 18.133C72.288 18.0587 67.4084 18.1195 62.5265 18.1037C62.1349 18.1037 61.7365 18.0925 61.3651 18.2523C60.9465 18.4323 60.6427 18.7317 60.6697 19.2066C60.6967 19.6905 61.05 19.9313 61.4934 20.0393C61.795 20.1136 62.1056 20.1046 62.414 20.1046C67.2666 20.1046 72.1214 20.1136 76.974 20.1001C77.2756 20.1001 77.5952 20.0213 77.8698 20.2284C78.0431 20.4692 78.0656 20.7483 78.0656 21.0296C78.0791 23.3186 78.0814 25.6075 78.0656 27.8965C78.0634 28.2566 78.0634 28.6325 77.728 28.8845C77.2801 29.1096 76.7962 29.0466 76.3236 29.0466C71.7568 29.0511 67.1878 29.0488 62.6211 29.0511C62.2564 29.0511 61.8918 29.0398 61.5294 29.0939C61.0568 29.1636 60.7417 29.436 60.6764 29.8951C60.6156 30.3317 60.906 30.6243 61.2616 30.8359C61.6397 31.061 62.0674 31.0542 62.4883 31.052C67.4196 31.0227 72.351 31.124 77.2824 30.9979C77.4242 30.9934 77.5615 31.0069 77.6965 31.0542C78.0949 31.3063 78.0656 31.7227 78.0679 32.1053C78.0836 34.3402 78.0836 36.5729 78.0679 38.8078C78.0679 39.1387 78.0724 39.4853 77.7933 39.7419L77.791 39.7374Z" fill="#C76F62"/>
<path d="M22.3961 5.03196C23.2132 5.73868 23.616 5.76794 24.5434 5.18726C26.4115 4.01915 28.4079 3.23816 30.6451 3.20215C32.0833 3.49249 33.1434 4.43553 34.1765 5.35831C36.5961 7.51898 38.0388 10.2581 38.6803 13.4225C38.7748 13.8952 38.9526 14.4286 38.4012 14.791C36.7536 14.998 35.1016 14.8697 33.4518 14.8675C32.7383 14.8675 32.592 14.3678 32.5875 13.7782C32.5717 11.9573 32.5875 10.1343 32.5807 8.31347C32.5807 7.97812 32.601 7.63826 32.529 7.30741C32.4029 6.72448 32.0946 6.32386 31.4396 6.36887C30.8049 6.41164 30.5911 6.85277 30.5798 7.41319C30.5416 9.42982 30.5708 11.4487 30.5641 13.4653C30.5641 14.1945 30.5573 14.9215 30.5708 15.6507C30.5798 16.1526 30.7149 16.5915 31.1538 16.8864C31.4621 17.1407 31.8335 17.1069 32.1959 17.1069C34.0145 17.1069 35.8308 17.0979 37.6494 17.1114C38.6645 17.1182 38.9233 17.404 38.7253 18.3921C37.8812 22.6031 35.7205 25.9296 32.0496 28.2299C31.6129 28.5044 31.1245 28.6125 30.6474 28.761C27.7327 28.6485 25.2118 27.5344 23.0579 25.6303C18.4236 21.5318 17.3455 15.0791 20.3322 9.67064C20.9377 8.57455 20.8927 8.27521 19.9946 7.41545C20.573 7.39519 20.6766 6.83702 20.9917 6.52192C21.4733 6.03802 21.9302 5.52937 22.3984 5.03196H22.3961Z" fill="#EBF4FB"/>
<path d="M53.2213 65.2986C52.5236 65.4111 52.2377 65.913 52.0599 66.5207C50.9751 66.9258 49.8902 66.9258 48.8076 66.5207C48.5915 65.6092 48.0199 65.2693 47.0903 65.3053C45.7736 65.3594 44.4547 65.3076 43.1357 65.3211C41.9406 65.3324 41.2721 66.0053 41.2541 67.2004C41.2406 68.0129 41.2361 68.8277 41.2586 69.6402C41.2699 70.0386 41.2114 70.2434 40.7252 70.2411C36.6851 70.2231 32.6473 70.2209 28.6072 70.2411C27.9118 70.2434 27.9433 69.827 27.9433 69.3543C27.9478 63.9977 27.9455 58.6388 27.9455 53.2821C27.9455 48.0358 27.959 42.7917 27.9298 37.5475C27.9253 36.7846 28.1233 36.5145 28.9178 36.5257C32.0036 36.5662 35.0894 36.564 38.1729 36.5257C38.8323 36.5167 38.9516 36.7238 38.9426 37.3292C38.9089 39.769 38.9246 42.2087 38.9291 44.6507C38.9336 46.2172 39.5638 46.8677 41.1078 46.8744C43.5769 46.8857 46.0437 46.8879 48.5128 46.8744C49.9577 46.8654 50.6195 46.206 50.6285 44.761C50.6442 42.265 50.651 39.769 50.6195 37.273C50.6127 36.681 50.7793 36.5122 51.3667 36.5325C52.8229 36.582 54.2814 36.564 55.7399 36.5752C56.2621 36.8723 56.163 37.3922 56.1653 37.8514C56.181 40.5702 56.172 43.2868 56.172 46.0056C56.172 51.8057 56.172 57.608 56.172 63.408C56.172 63.6893 56.1788 63.9684 56.1653 64.2475C56.1248 65.168 56.0437 65.2378 55.1412 65.2536C54.4997 65.2648 53.8538 65.1906 53.2146 65.3053L53.2213 65.2986Z" fill="#6EACDD"/>
<path d="M77.783 18.0432C77.783 15.2748 77.7875 12.5042 77.7898 9.73585C79.4981 9.7201 81.2087 9.70659 82.917 9.68183C83.3694 9.67508 83.6057 9.84388 83.5674 10.3233C83.5539 10.4898 83.5674 10.6586 83.5674 10.8274C83.5674 28.7812 83.5674 46.7372 83.5674 64.691C83.5674 65.4713 83.166 65.8614 82.3633 65.8614C82.28 65.8614 82.1922 65.8479 82.1112 65.8614C80.3894 66.163 79.0232 65.445 77.7853 64.3602C77.5805 64.0721 77.5422 63.7412 77.5422 63.4014C77.531 60.1019 77.5445 56.8001 77.5332 53.5006C77.5332 53.2733 77.5737 53.0572 77.6277 52.8389C78.5415 51.9971 78.5753 51.5087 77.7808 50.5769C77.5512 50.2348 77.5377 49.8454 77.5377 49.4538C77.5355 47.3112 77.5332 45.1663 77.5377 43.0236C77.5377 42.6342 77.531 42.2381 77.7965 41.9095C78.5213 41.0025 78.5213 40.6446 77.7965 39.7398C77.801 37.111 77.8055 34.48 77.8055 31.8512C77.8055 31.6058 77.8686 31.3425 77.666 31.1332C77.756 30.5548 78.4155 30.0596 77.9023 29.3911C77.774 29.2246 77.5872 29.0648 77.639 28.8105C77.8888 28.5877 77.8033 28.2906 77.8033 28.0205C77.8055 25.4164 77.8033 22.8124 77.7988 20.2083C78.0756 19.4859 78.1319 18.7634 77.7853 18.0432H77.783Z" fill="#AF594F"/>
<path d="M53.2227 65.2989C53.8371 65.0063 54.4898 65.1683 55.12 65.1818C55.757 65.1953 55.9258 64.9815 55.9235 64.3603C55.8988 60.3248 55.91 56.2893 55.91 52.2538C55.91 47.3788 55.91 42.5016 55.91 37.6266C55.91 37.2665 55.9753 36.8929 55.7502 36.5665C57.4608 36.5575 59.1713 36.5598 60.8819 36.5305C61.4806 36.5215 61.6494 36.7871 61.6472 37.3475C61.6359 46.4651 61.6359 55.5826 61.6472 64.7002C61.6472 65.1571 61.5459 65.3326 61.0507 65.3259C58.4421 65.2966 55.8335 65.3034 53.2249 65.2966L53.2227 65.2989Z" fill="#4C97D2"/>
<path d="M48.8087 66.5179C49.8936 66.5179 50.9762 66.5179 52.0611 66.5179C52.4212 67.623 52.7205 67.848 53.8684 67.8503C59.1396 67.8503 64.4109 67.8525 69.6798 67.8503C70.9718 67.8503 71.3994 67.4227 71.4039 66.1555C71.4062 65.2597 71.4039 64.3617 71.4039 63.2656C74.5594 65.3475 77.6114 67.3596 80.6634 69.374C80.7512 69.7386 80.4519 69.8624 80.2358 70.0087C77.6272 71.78 74.9713 73.477 72.3267 75.1921C72.0724 75.3564 71.8113 75.6669 71.4287 75.4329C71.2666 74.6969 70.7489 74.3705 70.058 74.2423C69.7429 73.8934 69.8036 73.459 69.7901 73.0449C69.7429 71.5549 69.3332 71.1566 67.7667 71.1543C60.292 71.1476 52.8173 71.1543 45.3404 71.1453C44.8227 71.1453 44.2667 71.2736 43.8076 70.8842C43.7986 70.0515 43.8121 69.2165 43.7693 68.3837C43.7468 67.9178 43.9404 67.8278 44.3523 67.839C45.2143 67.8638 46.0763 67.848 46.9384 67.8458C48.147 67.8435 48.4464 67.6297 48.8065 66.5134L48.8087 66.5179Z" fill="#59BF90"/>
<path d="M77.6228 52.8382C77.8321 53.0002 77.8028 53.2321 77.8028 53.4526C77.7961 57.0875 77.7893 60.7246 77.7826 64.3595C75.8064 63.0901 73.8258 61.832 71.8609 60.5491C71.2014 60.1169 70.5352 59.9256 69.8172 60.3307C69.1172 60.7269 68.8359 61.3593 68.8741 62.1628C68.9057 62.8358 68.8809 63.5087 68.8809 64.1817C68.8809 64.9379 68.4953 65.316 67.724 65.316C66.7134 65.316 65.7028 65.3003 64.6945 65.3228C64.3074 65.3318 64.1566 65.2328 64.1588 64.8141C64.1723 61.0262 64.1813 57.2383 64.1543 53.4504C64.1498 52.7864 64.5437 52.9102 64.9196 52.9102C68.7346 52.9102 72.5519 52.9102 76.3669 52.9057C76.7855 52.9057 77.2064 52.8607 77.625 52.8359L77.6228 52.8382Z" fill="#C76F62"/>
<path d="M30.6465 28.7632C32.1185 27.9597 33.5184 27.0617 34.6911 25.8396C36.7415 23.7036 37.9501 21.1446 38.5421 18.2705C38.6726 17.6358 38.5151 17.3027 37.7386 17.3252C35.8389 17.3792 33.9348 17.3477 32.0352 17.3387C31.7381 17.3387 31.4162 17.4332 31.1484 17.2014C31.4432 16.8435 31.8596 16.9291 32.2378 16.9268C34.0789 16.9133 35.92 16.9223 37.7611 16.9201C38.0672 16.9201 38.3755 16.9336 38.6771 16.8638C39.0642 16.7738 39.3253 16.5419 39.4109 16.1481C39.4874 15.7925 39.3703 15.4954 39.1003 15.2455C38.9044 15.0655 38.5803 15.0025 38.5511 14.6626C38.4881 11.9663 37.3852 9.64357 35.8659 7.50991C34.5223 5.62158 32.6969 4.26441 30.6465 3.20208C36.8473 2.56739 42.9603 7.17005 44.1194 13.3482C45.5306 20.8633 40.7253 27.6266 33.1628 28.7407C32.3345 28.8622 31.486 28.8645 30.6465 28.761V28.7632Z" fill="#DAEAF8"/>
<path d="M16.3304 49.1339C15.4661 49.2915 15.1172 49.8249 15.1442 50.6824C15.1712 51.5962 15.151 52.5122 15.151 53.48C15.0024 53.4237 14.9214 53.4102 14.8584 53.3675C11.0389 50.8804 7.21936 48.3889 3.33008 45.8546C7.25537 43.2911 11.1334 40.7568 15.1487 38.1348C15.1487 39.2083 15.1465 40.1424 15.1487 41.0764C15.1532 42.222 15.5628 42.6542 16.704 42.6609C19.2541 42.6722 21.8064 42.6609 24.3565 42.6677C24.6603 42.6677 24.9732 42.5979 25.268 42.7374C25.4166 43.739 25.3041 44.7473 25.3333 45.7511C25.3513 46.3903 24.8517 46.3588 24.4465 46.3701C22.9903 46.4083 21.5341 46.3813 20.0756 46.3858C19.4881 46.3881 18.8984 46.3656 18.311 46.3971C17.3252 46.4511 16.8435 46.89 16.6455 47.8533C16.5554 48.2831 16.668 48.7648 16.3281 49.1317L16.3304 49.1339Z" fill="#F37F87"/>
<path d="M77.7897 41.9092C77.7852 44.7991 77.7807 47.689 77.7739 50.5788C77.3238 50.3943 76.8556 50.365 76.374 50.365C72.5635 50.374 68.753 50.356 64.9425 50.383C64.346 50.3875 64.1277 50.2885 64.1412 49.6223C64.1907 47.3536 64.1817 45.0849 64.1457 42.8162C64.1367 42.2333 64.2763 42.0712 64.875 42.0757C68.7687 42.105 72.6625 42.087 76.5585 42.096C76.9817 42.096 77.3935 42.0712 77.7874 41.9092H77.7897Z" fill="#C76F62"/>
<path d="M43.8105 70.887C51.9154 70.887 60.0226 70.887 68.1275 70.887C69.5252 70.887 70.0541 71.4182 70.0564 72.8136C70.0564 73.2908 70.0564 73.7679 70.0586 74.245C69.2191 74.2563 68.3818 74.2788 67.5423 74.2788C60.0676 74.2811 52.5929 74.2788 45.1182 74.2788C44.2269 74.2788 43.7812 73.8189 43.7812 72.8991C43.7812 72.2284 43.7993 71.5577 43.8083 70.8848L43.8105 70.887Z" fill="#4BBC8A"/>
<path d="M71.4277 75.4351C72.1255 75.1516 72.7287 74.7082 73.3521 74.2963C75.6456 72.7771 77.9436 71.2669 80.2439 69.7589C80.4082 69.6509 80.586 69.5721 80.6625 69.374C81.4863 69.8939 82.3101 70.4138 83.2441 71.0058C79.2963 73.5851 75.4183 76.1216 71.4277 78.7302V75.4351Z" fill="#4BBC8A"/>
<path d="M45.2983 44.2746C44.2067 44.2881 43.1129 44.2903 42.0213 44.3173C41.6274 44.3264 41.4743 44.1913 41.4766 43.7862C41.4901 41.5422 41.4901 39.3006 41.4766 37.0566C41.4743 36.6515 41.6184 36.5187 42.0168 36.5299C43.1084 36.5592 44.2022 36.557 45.2961 36.566C45.5864 36.8518 45.5594 37.2254 45.5617 37.5833C45.5729 39.4739 45.5707 41.3622 45.5617 43.2528C45.5617 43.6129 45.5639 43.982 45.2961 44.2746H45.2983Z" fill="#6EACDD"/>
<path d="M16.331 49.1345C16.331 48.8261 16.3265 48.5178 16.3377 48.2094C16.3917 46.7622 17.0422 46.132 18.4804 46.132C20.4993 46.132 22.5182 46.1163 24.5372 46.141C25.0706 46.1478 25.2957 46.0015 25.2732 45.4321C25.2371 44.5363 25.2687 43.6383 25.2732 42.7402C25.4735 42.8348 25.4217 43.0216 25.4217 43.1791C25.4217 44.9707 25.4059 46.7622 25.4285 48.5538C25.4352 49.0309 25.2912 49.1727 24.814 49.1682C21.9871 49.1412 19.1601 49.1412 16.3332 49.1345H16.331Z" fill="#F16570"/>
<path d="M45.2969 44.2749C45.2969 41.7046 45.2969 39.1366 45.2969 36.5663C46.0531 36.5573 46.8071 36.5596 47.5634 36.5348C47.9235 36.5236 48.0563 36.6631 48.0563 37.021C48.0473 39.2874 48.0473 41.5561 48.0563 43.8225C48.0563 44.1827 47.9258 44.3245 47.5656 44.3132C46.8116 44.2884 46.0554 44.2862 45.3014 44.2749H45.2969Z" fill="#4C97D2"/>
<path d="M77.7827 18.0428C78.5164 18.9364 78.5187 19.3055 77.7962 20.208C77.4856 20.3543 77.1592 20.3903 76.8194 20.3903C71.8272 20.3858 66.8351 20.3835 61.843 20.3926C61.1587 20.3926 60.6343 20.2102 60.398 19.5103C60.1211 18.6888 60.6928 17.91 61.6584 17.8605C62.3584 17.8245 63.0606 17.8515 63.7606 17.8515C67.9942 17.8515 72.2301 17.856 76.4638 17.847C76.9184 17.847 77.355 17.8875 77.7804 18.0451L77.7827 18.0428Z" fill="#020201"/>
<path d="M77.6344 28.8077C78.5685 29.663 78.5752 30.2819 77.6614 31.1304C77.2518 31.2272 76.8399 31.2767 76.4145 31.2745C71.6744 31.2677 66.9344 31.27 62.1921 31.27C62.0525 31.27 61.9107 31.2767 61.7712 31.2677C60.9047 31.216 60.2992 30.6691 60.3127 29.9556C60.3285 29.2309 60.9114 28.7267 61.8185 28.7245C66.3627 28.7154 70.9069 28.7177 75.4512 28.7222C76.1782 28.7222 76.9097 28.6682 77.6344 28.8077Z" fill="#030302"/>
<path d="M50.3881 27.9506C51.0206 27.9844 51.3874 28.4255 51.7836 28.8194C52.4078 29.4421 52.9847 29.3956 53.5144 28.6798C54.1986 27.7593 54.8828 26.8388 55.5738 25.9227C56.1275 25.1913 56.832 25.0225 57.4532 25.4546C58.0879 25.898 58.1622 26.6857 57.5995 27.4487C56.4021 29.0692 55.1957 30.683 53.9758 32.2832C53.3658 33.0844 52.6479 33.206 51.9659 32.5803C51.0994 31.7858 50.2868 30.9305 49.4676 30.0865C49.0714 29.6791 49.0354 29.166 49.256 28.6821C49.4653 28.223 49.8772 27.9776 50.3881 27.9484V27.9506Z" fill="#020202"/>
<path d="M52.7769 22.0804C52.4573 22.0939 52.167 21.9521 51.9172 21.7022C51.1272 20.9077 50.3214 20.1268 49.5449 19.321C49.0137 18.7696 49.0047 18.0089 49.4819 17.5182C49.9658 17.0186 50.713 17.014 51.2892 17.5047C51.3095 17.5227 51.332 17.5407 51.3545 17.5587C51.8429 17.9503 52.2053 18.8439 52.7499 18.7111C53.2338 18.594 53.5489 17.7703 53.9338 17.2571C54.4898 16.5189 55.0322 15.7717 55.5994 15.0447C56.1485 14.3425 56.9048 14.1939 57.499 14.6396C58.0842 15.0785 58.1427 15.8549 57.6115 16.5729C56.3961 18.2137 55.1627 19.8409 53.9451 21.4817C53.657 21.8688 53.3059 22.0961 52.7769 22.0781V22.0804Z" fill="#010201"/>
<path d="M38.5529 14.6621C39.1133 14.8264 39.5904 15.0875 39.7277 15.7177C39.9033 16.5257 39.3249 17.2166 38.3751 17.2234C35.9668 17.2414 33.5607 17.2121 31.1524 17.2009C30.4997 16.9285 30.2746 16.4289 30.2814 15.7357C30.2994 12.9921 30.2859 10.2462 30.2904 7.50265C30.2927 6.51684 30.6888 6.0397 31.4833 6.01269C32.2981 5.98568 32.809 6.5236 32.8157 7.48464C32.8315 9.6138 32.8562 11.743 32.8 13.8699C32.7797 14.6013 33.0093 14.7431 33.6845 14.7161C35.305 14.6531 36.9301 14.6734 38.5529 14.6599V14.6621Z" fill="#020202"/>
<path d="M38.7783 62.0059C38.7783 63.156 38.7918 64.3061 38.7738 65.454C38.7491 66.9439 37.9771 67.7587 36.5096 67.797C35.2199 67.8307 33.9302 67.8352 32.6406 67.797C31.2541 67.7542 30.4371 66.962 30.4146 65.5868C30.3763 63.1763 30.3786 60.7635 30.4146 58.353C30.4348 57.0274 31.1551 56.2351 32.4695 56.1586C33.8672 56.0776 35.2739 56.0776 36.6716 56.1496C38.0311 56.2194 38.7243 57.0274 38.7761 58.3891C38.7761 58.4453 38.7761 58.5016 38.7761 58.5579C38.7761 59.708 38.7761 60.8581 38.7761 62.0059H38.7783Z" fill="#020201"/>
<path d="M33.0495 65.1585C32.8897 63.0271 32.8897 60.8956 33.0495 58.7642C33.5379 58.5932 34.0421 58.7102 34.5373 58.6832C34.9514 58.663 35.0707 58.9645 35.0842 59.2841C35.1562 61.0689 35.1562 62.8537 35.0842 64.6385C35.0662 65.0729 34.8276 65.2957 34.3685 65.244C33.9296 65.1945 33.4794 65.334 33.0473 65.1585H33.0495Z" fill="#FDFDFD"/>
<path d="M33.0488 65.1589C34.2537 65.1409 34.8562 64.5377 34.8562 63.3494C34.8562 62.116 34.8157 60.8781 34.8719 59.647C34.9035 58.938 34.6694 58.6747 33.9739 58.7647C33.67 58.803 33.3572 58.7647 33.0488 58.7647C33.9829 58.5261 34.9327 58.7354 35.8735 58.6769C36.2652 58.6522 36.2336 58.9312 36.2336 59.1878C36.2336 61.0379 36.2336 62.888 36.2336 64.738C36.2336 64.9946 36.2629 65.2737 35.8735 65.2489C34.9327 65.1882 33.9851 65.3997 33.0488 65.1612V65.1589Z" fill="#F1EEF0"/>
</svg>
