<svg width="87" height="58" viewBox="0 0 87 58" fill="none" xmlns="http://www.w3.org/2000/svg">
<path d="M86.6969 48.4179C85.8897 50.5859 84.2901 51.484 82.0397 51.2621C81.2959 51.1881 81.0276 51.467 80.7529 52.1601C79.4745 55.3994 77.0931 57.2927 73.5939 57.709C69.391 58.2098 65.6805 55.4375 64.5902 51.9277C64.4381 51.4353 64.2098 51.2557 63.6562 51.2579C50.8702 51.279 38.0842 51.2769 25.2981 51.2621C24.7825 51.2621 24.5923 51.429 24.4318 51.9023C23.2167 55.5178 20.0366 57.802 16.2754 57.7893C12.4529 57.7745 9.39109 55.4839 8.16552 51.9552C7.9669 51.3867 7.71967 51.241 7.16183 51.2621C5.98275 51.3043 4.80155 51.2896 3.62247 51.2705C1.67002 51.2409 0.345144 49.9161 0.345144 47.9784C0.340917 36.3736 0.34514 24.7687 0.334574 13.1639C0.334574 12.3144 0.62406 11.7608 1.48196 11.5748C2.32084 11.4481 2.89559 11.8284 3.07097 12.644C3.15972 13.0582 3.13014 13.4829 3.13014 13.9034C3.13014 23.3678 3.13014 32.8321 3.13014 42.2964C3.13014 43.2811 3.6267 43.7741 4.61983 43.7756C5.85596 43.7756 7.0921 43.7629 8.32612 43.7798C8.95792 43.7882 9.45237 43.5812 9.89399 43.1184C13.4143 39.4163 19.1766 39.317 22.8449 43.2473C23.1766 43.6044 23.5591 43.7671 24.0345 43.7713C24.7086 43.7777 25.3826 43.7756 26.0567 43.7756C34.6504 43.784 43.2442 43.7587 51.838 43.7861C54.0292 43.7354 56.2183 43.7798 58.4095 43.7629C59.5421 43.7544 59.6055 43.7016 59.6055 42.5753C59.6097 30.0492 59.6097 17.5252 59.6055 4.99904C59.6055 3.88547 59.5421 3.83687 58.3926 3.82842C56.2014 3.81151 54.0123 3.858 51.8211 3.80729C48.1972 3.84321 44.5733 3.81362 40.9494 3.82419C40.0296 3.82701 39.5682 4.30033 39.5654 5.24416C39.5654 8.75604 39.5717 12.2679 39.5633 15.7777C39.5569 18.1845 38.5828 19.1628 36.1887 19.1691C32.7043 19.1776 29.222 19.1691 25.7376 19.1712C24.903 19.1712 24.1106 19.0529 23.4555 18.4782C22.7498 17.859 22.5025 17.0624 22.5047 16.1411C22.511 12.4898 22.511 8.83634 22.5047 5.18499C22.5047 3.84743 22.4814 3.82419 21.1354 3.82419C15.5739 3.82419 10.0102 3.82419 4.44868 3.82419C3.1576 3.82419 3.14492 3.84743 3.13225 5.14484C3.12591 5.76185 3.18508 6.38309 3.07097 6.99587C2.90827 7.86222 2.38001 8.25314 1.56015 8.14326C0.685344 8.01436 0.317668 7.49244 0.332459 6.6282C0.351477 5.64564 0.332466 4.66096 0.338805 3.67628C0.34937 2.14432 1.22839 1.13851 2.73922 0.93143C3.0435 0.889169 3.35623 0.897621 3.66474 0.897621C22.1116 0.895508 40.5522 0.895508 58.9906 0.895508C61.4735 0.895508 62.3947 1.81891 62.3947 4.30385C62.3947 7.78826 62.4138 11.2748 62.3778 14.7592C62.3715 15.465 62.4941 15.7058 63.2738 15.6953C67.0117 15.6446 70.7518 15.7037 74.4898 15.6572C75.9964 15.6382 77.1903 16.1411 78.232 17.2209C80.3387 19.4079 82.4814 21.5569 84.6388 23.6932C85.5157 24.5616 86.3208 25.4576 86.6969 26.662V48.4179Z" fill="#010101"/>
<path d="M51.7796 44.0086C49.1383 44.0191 46.497 44.036 43.8557 44.0382C37.2228 44.0424 30.59 44.0339 23.9592 44.0508C23.4035 44.0508 23.0358 43.8924 22.6745 43.4697C19.3971 39.6472 13.3073 39.6155 9.97507 43.4064C9.57148 43.8649 9.17212 44.0762 8.54454 44.0572C6.97244 44.0065 5.3961 44.0043 3.824 44.0572C3.09077 44.0825 2.84565 43.9262 2.84988 43.1211C2.88158 33.1729 2.87101 23.2247 2.8689 13.2764C2.8689 12.0952 2.5942 11.7677 1.47852 11.5754C1.66658 10.4344 1.51866 9.28488 1.56304 8.14173C2.54349 7.93465 2.8541 7.57754 2.86678 6.60765C2.87735 5.8216 2.9175 5.03132 2.8541 4.24949C2.79917 3.58177 3.06119 3.46767 3.6634 3.47189C8.07545 3.49514 12.4854 3.48457 16.8974 3.48457C18.6111 3.48457 20.3269 3.50993 22.0385 3.47189C22.6217 3.45921 22.7928 3.61769 22.7886 4.21146C22.7632 8.20089 22.7717 12.1903 22.7759 16.1798C22.7759 17.9801 23.6676 18.8908 25.4468 18.8929C29.1848 18.8992 32.9207 18.9014 36.6586 18.8929C38.3829 18.8887 39.2894 17.9653 39.2915 16.2241C39.2957 12.2072 39.2978 8.18821 39.2851 4.17131C39.2851 3.71489 39.3189 3.46555 39.9 3.46978C43.75 3.49725 47.6 3.48457 51.4478 3.48668C51.5577 3.48668 51.6676 3.52049 51.7796 3.5374C52.0564 3.86492 52.0501 4.26217 52.0501 4.6552C52.0543 12.6975 52.0543 20.7418 52.0501 28.7841C52.0501 29.0926 52.0501 29.4011 51.9444 29.6969C51.7268 30.1364 51.3063 30.0794 50.9259 30.0963C50.2878 30.1259 49.6412 30.0498 49.0136 30.2294C48.5234 30.3689 48.1261 30.6309 48.1092 31.1887C48.0923 31.7931 48.5128 32.0656 49.0347 32.2114C49.6348 32.3784 50.254 32.3086 50.8646 32.3361C51.2429 32.353 51.6634 32.2791 51.919 32.6869C52.1684 33.997 52.0458 35.3134 52.0036 36.6277C51.9846 37.2046 51.5641 37.3483 51.0611 37.3525C49.9095 37.363 48.76 37.3567 47.6084 37.3567C45.7849 37.3567 43.9592 37.3567 42.1356 37.3567C41.7997 37.3567 41.4595 37.3313 41.1446 37.4856C40.6333 37.7244 40.1705 38.0413 40.3269 38.6837C40.5065 39.4169 41.1467 39.55 41.7849 39.5564C44.722 39.586 47.657 39.5606 50.5942 39.5733C51.0316 39.5754 51.5007 39.4888 51.8683 39.8459C52.0965 41.2384 52.255 42.6309 51.7754 44.0086H51.7796Z" fill="#C76F62"/>
<path d="M51.7814 44.0083C51.7814 42.6158 51.7814 41.2233 51.7814 39.8308C52.2061 39.4378 52.7344 39.5941 53.2246 39.5667C53.755 39.5371 54.2938 39.6068 54.7946 39.3659C55.1897 39.1758 55.3884 38.8651 55.344 38.4193C55.2996 37.9734 55.0461 37.7093 54.615 37.61C54.2558 37.5276 53.8902 37.5466 53.5268 37.5466C49.7698 37.5466 46.0149 37.5508 42.2579 37.5403C41.8226 37.5403 41.3493 37.6438 40.9922 37.2592C41.2542 37.0162 41.5796 37.1155 41.8775 37.1155C44.8527 37.1092 47.8279 37.0881 50.8031 37.1261C51.5447 37.1346 51.8532 36.9803 51.8046 36.1647C51.7328 34.9623 51.7856 33.7516 51.7856 32.545C52.2315 32.2048 52.7534 32.357 53.2436 32.3358C53.774 32.3126 54.3065 32.3337 54.8031 32.097C55.158 31.928 55.382 31.6618 55.3947 31.2539C55.4095 30.8123 55.1855 30.5165 54.7967 30.3327C54.3001 30.096 53.7677 30.1192 53.2373 30.096C52.7492 30.0749 52.2251 30.2333 51.7856 29.8741C51.7856 21.0944 51.7856 12.3168 51.7877 3.53711C54.2875 3.52232 56.7872 3.51387 59.2869 3.4864C59.7412 3.48217 59.8934 3.67023 59.849 4.09073C59.8363 4.20272 59.849 4.31471 59.849 4.42882C59.849 17.329 59.8427 30.2291 59.8659 43.1293C59.8659 43.8646 59.7053 44.078 58.9489 44.059C56.5611 43.9956 54.1734 44.0189 51.7835 44.0083H51.7814Z" fill="#AF594F"/>
<path d="M36.7664 9.95197C36.7664 11.8347 36.7473 13.7153 36.779 15.598C36.7875 16.1622 36.6649 16.3756 36.0458 16.3714C32.703 16.3418 29.3601 16.3461 26.0194 16.3672C25.4827 16.3714 25.2967 16.2404 25.2988 15.6699C25.3242 11.8495 25.32 8.03121 25.3031 4.21083C25.301 3.69313 25.4024 3.47337 25.9877 3.4776C29.358 3.50507 32.7283 3.50507 36.0986 3.4776C36.6966 3.47337 36.7811 3.71637 36.7748 4.2235C36.7537 6.1337 36.7664 8.04389 36.7664 9.95409V9.95197Z" fill="#F05050"/>
<path d="M76.049 41.1822C73.5937 40.3454 71.1594 40.282 68.8139 41.516C66.2804 42.8494 64.7294 44.935 64.2434 47.7791C64.0849 48.7046 63.5081 49.0385 62.6206 48.7363C62.4009 48.6624 62.3966 48.5208 62.3924 48.3539C62.3861 48.1574 62.3903 47.9608 62.3903 47.7643C62.3903 38.2197 62.4008 28.6772 62.3692 19.1325C62.367 18.3296 62.6122 18.169 63.3433 18.1986C64.9407 18.2599 66.5403 18.2366 68.1399 18.2472C68.9957 18.6867 69.5514 19.458 70.1959 20.1257C70.3966 20.3328 70.5213 20.6096 70.0966 20.7596C69.2873 20.9138 68.4695 20.8124 67.656 20.842C65.5451 20.9202 64.6935 21.7739 64.685 23.8637C64.6766 26.7311 64.6787 29.5963 64.685 32.4638C64.6893 34.5641 65.5303 35.4558 67.6327 35.4981C70.0501 35.5467 72.4674 35.5023 74.8847 35.5171C75.3242 35.5192 75.7954 35.4347 76.161 35.7981C76.5244 36.9941 76.2899 38.2176 76.3258 39.4284C76.3427 40.0158 76.5075 40.656 76.0469 41.178L76.049 41.1822Z" fill="#6EACDD"/>
<path d="M76.0498 41.1824C76.0519 39.3758 76.054 37.5691 76.0561 35.7624C76.3857 35.4603 76.7957 35.5575 77.1781 35.5448C78.1565 35.511 79.1411 35.6188 80.111 35.3863C81.1126 35.1454 81.7191 34.4502 81.736 33.4233C81.7613 31.9653 81.7317 30.5052 81.7486 29.0472C81.7571 28.314 81.4317 27.7434 80.952 27.2532C79.1116 25.3663 77.2415 23.5068 75.363 21.6558C74.7481 21.0493 73.9578 20.8612 73.1274 20.8274C72.5104 20.8021 71.8934 20.8296 71.2764 20.8169C70.9467 20.8105 70.596 20.8655 70.3213 20.5992C69.7106 19.7075 68.7914 19.1053 68.1406 18.2495C70.4164 18.239 72.69 18.2347 74.9658 18.2178C75.4877 18.2136 75.8786 18.4608 76.2209 18.8074C78.689 21.3071 81.1506 23.8111 83.6166 26.3108C84.0138 26.7144 84.1765 27.1835 84.1744 27.7519C84.1639 34.2411 84.1702 40.7323 84.166 47.2215C84.166 48.3224 83.7539 48.7197 82.6298 48.7429C82.4607 48.7471 82.2896 48.726 82.1248 48.7471C81.5775 48.8147 81.3345 48.6985 81.2394 48.0371C80.7724 44.8232 78.915 42.6108 76.0498 41.1866V41.1824Z" fill="#4C97D2"/>
<path d="M24.5452 46.5673H25.4201C36.5685 46.5673 47.7148 46.5652 58.8632 46.5779C59.1865 46.5779 59.7148 46.337 59.812 46.7955C59.9367 47.383 59.981 48.038 59.7655 48.617C59.6662 48.8832 59.252 48.7374 58.9837 48.7395C52.6382 48.7459 46.2906 48.7438 39.9451 48.7438C35.2267 48.7438 30.5104 48.729 25.7919 48.7585C25.0967 48.7628 24.7439 48.6381 24.7756 47.8605C24.7925 47.4548 24.634 47.0428 24.541 46.5673H24.5452Z" fill="#4B96D1"/>
<path d="M72.7184 55.1941C69.477 55.2744 66.7237 52.6542 66.6518 49.267C66.5779 45.8756 69.3354 43.1603 72.7078 43.1582C76.1141 43.1582 78.7723 45.8291 78.7723 49.2565C78.7723 52.5232 76.0528 55.192 72.7184 55.1941Z" fill="#3F6788"/>
<path d="M16.2646 55.1966C12.8563 55.1839 10.2403 52.5109 10.2678 49.0645C10.2931 45.7491 12.9577 43.1459 16.3174 43.1543C19.7068 43.1628 22.346 45.821 22.3143 49.1997C22.2826 52.6144 19.6666 55.2092 16.2646 55.1966Z" fill="#3F6788"/>
<path d="M8.06823 46.5667C7.97526 46.9534 7.80621 47.2873 7.8358 47.6021C7.94145 48.7728 7.24837 48.8066 6.38413 48.7537C5.54525 48.703 4.69792 48.7368 3.85482 48.7453C3.47236 48.7495 3.04975 48.7242 2.93776 48.3163C2.79196 47.7817 2.82154 47.2091 2.94409 46.6618C2.95677 46.6048 3.18921 46.571 3.32022 46.571C4.89021 46.5646 6.46232 46.5667 8.06823 46.5667Z" fill="#4B96D1"/>
<path d="M40.9894 37.2591C45.3274 37.2528 49.6655 37.2422 54.0057 37.2422C55.1045 37.2422 55.599 37.5866 55.6729 38.3558C55.7532 39.1777 55.2461 39.7335 54.2952 39.7863C53.4584 39.8328 52.6175 39.818 51.7786 39.8307C48.59 39.818 45.3993 39.8053 42.2107 39.7926C41.9592 39.7926 41.7057 39.8032 41.4542 39.7884C40.7611 39.7504 40.1547 39.5243 40.0047 38.7699C39.8483 37.9902 40.2413 37.4894 40.9872 37.2591H40.9894Z" fill="#020201"/>
<path d="M51.7827 29.874C52.5624 29.8888 53.34 29.8909 54.1197 29.9205C55.172 29.9585 55.7067 30.4255 55.6834 31.2517C55.6623 32.0357 55.1446 32.4583 54.1197 32.4963C53.3421 32.5259 52.5624 32.5301 51.7848 32.5449C50.9755 32.5259 50.1662 32.5196 49.3569 32.4857C48.3786 32.4456 47.7912 31.9596 47.7891 31.2116C47.787 30.4762 48.3892 29.967 49.3548 29.9268C50.1641 29.893 50.9734 29.8909 51.7827 29.874Z" fill="#060402"/>
<path d="M42.1328 32.5174C41.7567 32.4814 41.3299 32.4793 40.9221 32.3948C40.3346 32.2723 40.0071 31.8687 39.9839 31.2664C39.9585 30.6262 40.2691 30.1782 40.8925 30.0303C41.7187 29.8359 42.5639 29.8718 43.3985 30.0028C44.0916 30.1106 44.4276 30.5649 44.417 31.2348C44.4043 31.9067 44.0451 32.3399 43.3521 32.4265C42.9633 32.4751 42.5702 32.4857 42.1328 32.5174Z" fill="#060402"/>
<path d="M70.3218 20.5996C71.3319 20.6123 72.3398 20.6313 73.3498 20.6376C74.2627 20.644 75.0212 20.9377 75.6742 21.6139C77.4301 23.429 79.2156 25.2208 81.0096 26.9979C81.7069 27.6889 82.083 28.4601 82.0471 29.4617C82.0049 30.6683 82.0577 31.8769 82.0323 33.0835C81.9964 34.7739 81.1195 35.6572 79.4206 35.7163C78.3007 35.7565 77.1766 35.7502 76.0545 35.7628C73.2484 35.748 70.4444 35.7311 67.6383 35.7206C65.2928 35.7121 64.456 34.8775 64.456 32.5214C64.456 29.5462 64.4539 26.5711 64.456 23.5959C64.4581 21.5885 65.3794 20.6609 67.3762 20.6398C68.3567 20.6292 69.3393 20.6123 70.3197 20.5996H70.3218Z" fill="#010101"/>
<path d="M68.6367 49.1595C68.6431 46.8986 70.5216 45.0264 72.7572 45.056C74.9611 45.0856 76.8016 46.943 76.8206 49.1574C76.8396 51.3909 74.9547 53.2948 72.7191 53.299C70.4793 53.3032 68.6304 51.4311 68.6367 49.1595Z" fill="#010101"/>
<path d="M20.4069 49.1488C20.4217 51.4013 18.5517 53.2925 16.3055 53.3009C14.0762 53.3094 12.1576 51.3928 12.166 49.1699C12.1745 46.9787 14.0509 45.0833 16.2421 45.0579C18.4777 45.0304 20.3942 46.9132 20.4069 49.1509V49.1488Z" fill="#010101"/>
<path d="M73.2502 33.1809C71.3971 33.1809 69.5418 33.164 67.6887 33.1915C67.1372 33.1999 66.9724 33.0309 66.9787 32.4709C67.0062 29.6056 67.0083 26.7404 66.9787 23.8772C66.9724 23.3045 67.1604 23.1609 67.6992 23.1672C69.4974 23.1925 71.2935 23.1862 73.0917 23.1693C73.4848 23.1651 73.7785 23.2665 74.0574 23.5539C75.7394 25.2866 77.4319 27.0108 79.1372 28.7224C79.4203 29.0077 79.526 29.3035 79.5175 29.6944C79.4985 30.6199 79.4816 31.5496 79.5217 32.4752C79.545 33.0267 79.3696 33.202 78.8096 33.1915C76.9565 33.1598 75.1012 33.1788 73.2481 33.1788L73.2502 33.1809Z" fill="#57C5D0"/>
<path d="M74.2425 49.1359C74.2594 50.0001 73.6001 50.7143 72.757 50.7439C71.9392 50.7714 71.1954 50.055 71.1743 49.2183C71.1532 48.3815 71.8399 47.6441 72.6725 47.6124C73.4987 47.5807 74.2255 48.2864 74.2425 49.1359Z" fill="#CBCAC8"/>
<path d="M17.8588 49.14C17.8842 49.9345 17.1425 50.7142 16.3311 50.7417C15.5324 50.7692 14.7548 50.0296 14.7273 49.214C14.6998 48.4195 15.4478 47.6334 16.255 47.608C17.0453 47.5827 17.8314 48.3349 17.8588 49.14Z" fill="#CBCAC9"/>
</svg>
