<svg width="70" height="73" viewBox="0 0 70 73" fill="none" xmlns="http://www.w3.org/2000/svg">
<path d="M69.0753 72.1547H1.26064C0.661266 71.6972 0.517492 71.096 0.519359 70.3529C0.538031 55.2625 0.539899 40.1703 0.515625 25.0781C0.515625 24.2061 0.814376 23.6777 1.52764 23.196C12.4134 15.8562 23.2861 8.49398 34.1606 1.13551C35.055 0.530551 35.2604 0.524949 36.1623 1.13551C47.0107 8.48277 57.8535 15.8356 68.7131 23.1661C69.4077 23.6348 69.6822 24.1576 69.6803 24.9978C69.6579 40.1367 69.6616 55.2756 69.6728 70.4145C69.6728 71.0829 69.5907 71.6823 69.0753 72.1547ZM31.7314 64.3518C31.6082 64.068 31.597 63.7693 31.5988 63.4668C31.6044 62.2345 31.6007 61.0022 31.6007 59.768C31.6007 57.7682 31.6007 57.7776 29.5711 57.8915C29.22 57.912 29.0762 58.0072 29.0762 58.3751C29.0856 62.0739 29.0856 65.7709 29.0762 69.4697C29.0762 69.8618 29.2555 69.9346 29.5897 69.9253C30.2657 69.9066 30.9416 69.9104 31.6156 69.9048C34.5714 69.9104 37.5272 69.9029 40.4829 69.9346C41.0132 69.9402 41.1365 69.7909 41.1327 69.2755C41.1085 66.092 41.1271 62.9104 41.1141 59.7269C41.1122 59.1313 41.3792 58.3527 40.9871 57.9886C40.6043 57.6319 39.8294 57.9363 39.2338 57.8691C38.6792 57.8075 38.5821 58.0483 38.5915 58.5431C38.6195 60.2628 38.6083 61.9824 38.5989 63.7002C38.5933 64.6151 38.1863 65.0165 37.2788 65.0221C35.8822 65.0296 34.4855 65.0128 33.0889 65.0296C32.5044 65.0371 32.0451 64.8522 31.7314 64.35V64.3518ZM17.3185 64.223C17.1169 62.7442 17.2476 61.258 17.2289 59.7754C17.2046 57.8243 17.2233 57.8355 15.2702 57.8896C14.8576 57.9008 14.697 58.0091 14.6988 58.4442C14.7119 62.0907 14.71 65.7373 14.7007 69.3838C14.7007 69.7498 14.7791 69.9477 15.2011 69.9272C15.8752 69.8954 16.5492 69.9029 17.2233 69.8936C20.2743 69.9029 23.3253 69.9029 26.3763 69.9309C26.929 69.9365 26.8188 69.5892 26.8188 69.283C26.8207 66.0752 26.8188 62.8656 26.8188 59.6578C26.8188 57.8616 26.8188 57.8859 24.9852 57.8635C24.4195 57.856 24.285 58.0334 24.2962 58.5711C24.328 60.2441 24.3168 61.9189 24.3037 63.5919C24.2962 64.5274 23.8724 65.0128 23.0564 65.0221C21.5664 65.0371 20.0745 65.0371 18.5845 65.0221C18.0168 65.0165 17.5669 64.7682 17.3204 64.2267L17.3185 64.223ZM17.214 55.5351C20.194 55.5501 23.174 55.5482 26.1522 55.593C26.7404 55.6023 26.8337 55.3895 26.83 54.8723C26.8095 51.6888 26.8263 48.5034 26.8132 45.3199C26.8113 44.7486 27.0765 44.0017 26.6881 43.6488C26.3128 43.3071 25.5734 43.6003 24.9983 43.5386C24.4643 43.4826 24.2794 43.6432 24.2925 44.2127C24.3336 45.8857 24.3168 47.5586 24.3037 49.2316C24.2962 50.294 23.9097 50.6861 22.894 50.6898C21.544 50.6973 20.1921 50.6637 18.8421 50.7029C18.0803 50.7253 17.5538 50.4397 17.2084 49.7787C17.2121 48.341 17.2196 46.9051 17.2214 45.4674C17.2233 43.4173 17.2214 43.4266 15.188 43.5368C14.8333 43.5554 14.6988 43.6581 14.6988 44.0222C14.7082 47.7099 14.7082 51.3975 14.6988 55.0851C14.6988 55.4492 14.837 55.5799 15.1918 55.5687C15.864 55.5445 16.538 55.5463 17.2121 55.537L17.214 55.5351ZM18.4482 31.6841C17.3783 31.6785 16.3065 31.6841 15.2366 31.6598C14.8538 31.6523 14.697 31.77 14.6988 32.1733C14.71 35.0543 14.7119 37.9353 14.6988 40.8182C14.697 41.2364 14.8762 41.3242 15.2459 41.3167C16.3158 41.2943 17.3876 41.2962 18.4575 41.2906C21.5085 41.2981 24.5576 41.3055 27.6086 41.3111C28.7924 41.313 29.0819 41.5987 29.0819 42.7918C29.0819 46.8136 29.0949 50.8336 29.0688 54.8536C29.065 55.4436 29.2368 55.5855 29.8101 55.5818C33.8395 55.5575 37.867 55.5669 41.8964 55.5706C43.0727 55.5706 43.379 55.8768 43.3808 57.0531C43.3827 61.075 43.3939 65.095 43.3678 69.115C43.364 69.7292 43.4929 69.9421 44.1613 69.9346C47.6548 69.8992 51.1484 69.8936 54.64 69.9384C55.3776 69.9477 55.5064 69.7218 55.5045 69.044C55.4803 61.4447 55.4877 53.8435 55.4915 46.2442C55.4915 45.2041 55.7585 44.9035 56.7481 44.7822C57.5398 44.9969 57.7545 45.5589 57.7545 46.3188C57.7433 53.948 57.7545 61.5754 57.734 69.2046C57.734 69.7815 57.874 69.9421 58.4584 69.9346C61.2312 69.9029 64.004 69.9104 66.7768 69.9309C67.238 69.9346 67.4172 69.8487 67.4172 69.3334C67.4023 54.7509 67.4042 40.1684 67.4116 25.5878C67.4116 25.2312 67.322 25.0034 67.0065 24.7905C56.4979 17.6935 45.9949 10.5852 35.4975 3.47132C35.195 3.26594 34.9934 3.28461 34.704 3.48813C33.522 4.31341 32.3177 5.11069 31.1246 5.91917C21.8558 12.1909 12.5908 18.4665 3.32015 24.7345C2.98966 24.9586 2.80481 25.1752 2.80481 25.6158C2.81788 40.174 2.81788 54.7341 2.80481 69.2923C2.80481 69.7815 2.93551 69.916 3.42472 69.9122C6.17323 69.8954 8.92361 69.8917 11.6721 69.9384C12.3238 69.9496 12.4657 69.7591 12.4657 69.1336C12.447 56.9 12.447 44.6664 12.4675 32.4347C12.4675 31.7774 12.2771 31.6206 11.6553 31.6411C10.5369 31.6785 10.0757 31.1911 10.0719 30.0951C10.0682 28.8385 10.0719 27.5838 10.0719 26.3272C10.0719 24.9082 10.3968 24.5889 11.8476 24.5889C27.3902 24.5889 42.9327 24.5889 58.4752 24.5889C58.6153 24.5889 58.7553 24.5851 58.8954 24.5889C59.7487 24.6187 60.1165 24.9847 60.1202 25.8473C60.1296 27.2197 60.124 28.5921 60.1221 29.9644C60.1221 31.3125 59.7879 31.6803 58.4379 31.6393C57.8199 31.6206 57.7246 31.8446 57.7284 32.3936C57.7545 35.2074 57.7302 38.0212 57.747 40.835C57.7508 41.5819 57.48 42.0897 56.7406 42.3063C55.7697 42.1812 55.4859 41.8806 55.484 40.9116C55.4784 38.1463 55.4821 35.3792 55.4821 32.6139C55.4821 31.9791 55.1759 31.6617 54.5635 31.6617C42.7796 31.6617 30.9957 31.6617 19.21 31.6617C18.9542 31.6617 18.6984 31.6766 18.4426 31.6859L18.4482 31.6841ZM35.0924 26.8705C28.081 26.8705 21.0697 26.8687 14.0584 26.8761C13.5057 26.8761 12.7887 26.6315 12.4414 26.9844C12.0978 27.3317 12.4059 28.0487 12.3256 28.5921C12.2267 29.268 12.5273 29.3669 13.1285 29.3669C27.4537 29.352 41.7806 29.3557 56.1058 29.3482C56.6809 29.3482 57.4464 29.6041 57.7788 29.225C58.0589 28.9039 57.8087 28.1533 57.8777 27.6043C57.9599 26.9527 57.6929 26.8537 57.1047 26.8556C49.7666 26.8761 42.4304 26.8687 35.0924 26.8687V26.8705ZM36.3583 60.3561V59.7288C36.3583 57.8467 36.3583 57.8616 34.4351 57.8877C33.9851 57.8933 33.8152 58.0128 33.832 58.4778C33.8637 59.29 33.8413 60.1041 33.8413 60.9163C33.8413 62.8506 33.8413 62.8376 35.8 62.7909C36.2145 62.7816 36.3882 62.6733 36.3658 62.2382C36.3359 61.6127 36.3583 60.9835 36.3583 60.3561ZM19.5536 45.9417V46.6363C19.5536 48.5706 19.5536 48.5594 21.5048 48.4418C21.8689 48.4194 21.9902 48.2962 21.9846 47.9451C21.9697 47.0881 21.9809 46.2311 21.9809 45.3741C21.9809 44.087 21.3423 43.477 20.0652 43.5442C20.0428 43.5442 20.0185 43.5461 19.9961 43.5442C19.6637 43.5144 19.5461 43.6731 19.5517 43.9942C19.5648 44.6421 19.5554 45.2919 19.5554 45.9398L19.5536 45.9417ZM19.5536 60.3692V60.9966C19.5536 62.8861 19.5536 62.8768 21.46 62.7909C21.8502 62.7741 21.994 62.6527 21.9846 62.2606C21.9641 61.4017 21.979 60.5428 21.979 59.6839C21.979 57.7925 21.979 57.8037 20.0726 57.8896C19.6824 57.9064 19.5349 58.0296 19.5479 58.4199C19.5685 59.0696 19.5536 59.7194 19.5536 60.3692Z" fill="#080707"/>
<path d="M56.7425 42.3082C57.4819 42.0935 57.7526 41.5837 57.7489 40.8369C57.7339 38.0231 57.7564 35.2092 57.7302 32.3954C57.7246 31.8465 57.8217 31.6206 58.4397 31.6411C59.7879 31.6822 60.124 31.3125 60.124 29.9663C60.124 28.5939 60.1296 27.2215 60.1221 25.8492C60.1165 24.9866 59.7505 24.6206 58.8972 24.5907C58.7572 24.5851 58.6171 24.5907 58.4771 24.5907C42.9346 24.5907 27.392 24.5907 11.8495 24.5907C10.4005 24.5907 10.0757 24.91 10.0738 26.329C10.0738 27.5856 10.0719 28.8404 10.0738 30.097C10.0775 31.193 10.5387 31.6822 11.6572 31.643C12.2808 31.6224 12.4713 31.7793 12.4694 32.4365C12.447 44.6701 12.4489 56.9037 12.4675 69.1355C12.4675 69.761 12.3256 69.9514 11.674 69.9402C8.92546 69.8954 6.17508 69.8973 3.42657 69.9141C2.9355 69.9178 2.80479 69.7834 2.80666 69.2942C2.81973 54.736 2.81973 40.1759 2.80666 25.6177C2.80666 25.177 2.99151 24.9604 3.32201 24.7364C12.5908 18.4664 21.8558 12.1909 31.1208 5.91729C32.3158 5.10881 33.5183 4.31153 34.7002 3.48625C34.9915 3.28273 35.1913 3.26406 35.4938 3.46944C45.9911 10.5852 56.4923 17.6916 67.0027 24.7886C67.3183 25.0015 67.4079 25.2293 67.4079 25.5859C67.4004 40.1684 67.3985 54.7509 67.4135 69.3315C67.4135 69.8487 67.2342 69.9328 66.773 69.929C64.0002 69.9104 61.2275 69.901 58.4547 69.9328C57.8702 69.9402 57.7283 69.7778 57.7302 69.2027C57.7507 61.5754 57.7395 53.9462 57.7507 46.317C57.7507 45.557 57.5379 44.995 56.7443 44.7803C56.7443 43.955 56.7443 43.1297 56.7443 42.3026L56.7425 42.3082ZM35.1539 17.3181C36.6907 17.3181 38.2274 17.3237 39.7659 17.3163C40.5726 17.3125 41.0898 16.8682 41.0935 16.2016C41.0954 15.5425 40.5632 15.0813 39.7697 15.0794C36.7187 15.0757 33.6677 15.0757 30.6167 15.0794C29.8082 15.0794 29.2798 15.507 29.2536 16.1642C29.2256 16.8476 29.7671 17.3144 30.6129 17.3163C32.1272 17.3219 33.6397 17.3163 35.1539 17.3163V17.3181ZM35.1427 22.0794C36.657 22.0794 38.1695 22.0831 39.6838 22.0794C40.5726 22.0757 41.0823 21.6724 41.0916 20.9815C41.1028 20.3168 40.5333 19.8332 39.708 19.8313C36.6813 19.8257 33.6527 19.8257 30.626 19.8313C29.8026 19.8313 29.2331 20.328 29.2517 20.9908C29.2704 21.6649 29.7671 22.0738 30.6017 22.0775C32.116 22.085 33.6285 22.0794 35.1427 22.0794ZM35.2025 10.3182C33.6882 10.3182 32.1758 10.3144 30.6615 10.3182C29.7839 10.3219 29.2629 10.7346 29.2517 11.4198C29.2424 12.0864 29.8063 12.5588 30.6372 12.5606C33.6639 12.5644 36.6907 12.5644 39.7174 12.5606C40.5427 12.5606 41.1103 12.0733 41.0898 11.4067C41.0711 10.7364 40.5707 10.3219 39.7398 10.3182C38.2255 10.3107 36.7131 10.3163 35.1988 10.3163L35.2025 10.3182Z" fill="#C76F62"/>
<path d="M56.7433 42.3077C56.7433 43.133 56.7433 43.9602 56.7433 44.7855C55.7537 44.9068 55.4867 45.2074 55.4867 46.2475C55.4849 53.8486 55.4774 61.448 55.4998 69.0473C55.5017 69.7251 55.3747 69.951 54.6353 69.9417C51.1436 69.8969 47.6482 69.9025 44.1566 69.9379C43.49 69.9454 43.3593 69.7326 43.363 69.1183C43.3892 65.0983 43.378 61.0764 43.3761 57.0564C43.3761 55.8801 43.0699 55.5739 41.8917 55.5739C37.8623 55.572 33.8347 55.5608 29.8053 55.5851C29.2321 55.5888 29.0603 55.4451 29.064 54.8569C29.0902 50.8369 29.079 46.8151 29.0771 42.7951C29.0771 41.6038 28.7896 41.3163 27.6039 41.3144C24.5529 41.3088 21.5038 41.3014 18.4528 41.2939C18.4509 38.0917 18.4472 34.8895 18.4453 31.6874C18.7011 31.6799 18.9569 31.6631 19.2127 31.6631C30.9966 31.6631 42.7805 31.6631 54.5662 31.6631C55.1786 31.6631 55.4849 31.9805 55.4849 32.6153C55.4849 35.3806 55.4811 38.1477 55.4867 40.913C55.4886 41.882 55.7724 42.1845 56.7433 42.3077Z" fill="#75757C"/>
<path d="M35.0928 26.872C42.4309 26.872 49.7671 26.8794 57.1052 26.8589C57.6933 26.8589 57.9603 26.956 57.8782 27.6076C57.8091 28.1566 58.0593 28.9072 57.7792 29.2283C57.4469 29.6073 56.6813 29.3515 56.1062 29.3515C41.7811 29.359 27.4541 29.3534 13.129 29.3702C12.5277 29.3702 12.2252 29.2713 12.3261 28.5953C12.4064 28.052 12.0983 27.335 12.4418 26.9877C12.7891 26.6348 13.5061 26.8794 14.0588 26.8794C21.0701 26.872 28.0815 26.8738 35.0928 26.8738V26.872Z" fill="#FDFDFD"/>
<path d="M17.209 49.7821C17.5525 50.4431 18.0791 50.7288 18.8428 50.7063C20.1928 50.669 21.5446 50.7007 22.8946 50.6933C23.9104 50.6877 24.2969 50.2956 24.3043 49.235C24.3174 47.5621 24.3342 45.8872 24.2931 44.2161C24.2801 43.6466 24.4649 43.4842 24.9989 43.5421C25.574 43.6037 26.3116 43.3105 26.6888 43.6522C27.0753 44.0051 26.8101 44.752 26.8139 45.3233C26.8288 48.5068 26.8101 51.6922 26.8307 54.8757C26.8344 55.3929 26.741 55.6058 26.1529 55.5964C23.1747 55.5516 20.1946 55.5535 17.2146 55.5386C17.2146 53.621 17.2127 51.7015 17.2109 49.784L17.209 49.7821ZM20.8911 52.0488C20.1013 52.0488 19.3133 52.0376 18.5235 52.0526C17.7822 52.0656 17.3304 52.4802 17.3285 53.1112C17.3248 53.7965 17.7766 54.2745 18.5123 54.282C20.0677 54.3006 21.623 54.3006 23.1784 54.282C23.8898 54.2726 24.3342 53.8133 24.338 53.1654C24.3417 52.4839 23.8936 52.0638 23.1205 52.0507C22.3774 52.0395 21.6342 52.0488 20.893 52.0488H20.8911Z" fill="#618AA2"/>
<path d="M17.3171 64.2247C17.5636 64.7662 18.0136 65.0145 18.5812 65.0201C20.0712 65.0351 21.5631 65.0369 23.0531 65.0201C23.871 65.0108 24.293 64.5272 24.3004 63.5899C24.3135 61.9169 24.3247 60.2421 24.293 58.5691C24.2818 58.0314 24.4181 57.8559 24.982 57.8615C26.8155 57.8839 26.8155 57.8596 26.8155 59.6558C26.8155 62.8636 26.8155 66.0732 26.8155 69.281C26.8155 69.5872 26.9257 69.9345 26.373 69.9289C23.322 69.9009 20.271 69.9009 17.22 69.8916C17.2182 68.3866 17.2051 66.8798 17.22 65.3749C17.2238 64.9921 17.108 64.5907 17.3171 64.2229V64.2247ZM20.8293 68.6069C21.5501 68.6088 22.2708 68.6275 22.9897 68.6051C23.8784 68.5789 24.3452 68.157 24.3359 67.4418C24.3266 66.7361 23.8318 66.3197 22.9561 66.3141C21.5389 66.3047 20.1217 66.3047 18.7063 66.3141C17.8474 66.3197 17.3377 66.751 17.3265 67.4418C17.3153 68.1439 17.7821 68.5677 18.6708 68.6013C19.3897 68.6294 20.1105 68.6069 20.8312 68.6069H20.8293Z" fill="#618AA2"/>
<path d="M31.7311 64.3531C32.0448 64.8554 32.5041 65.0402 33.0886 65.0328C34.4852 65.016 35.8819 65.0328 37.2785 65.0253C38.186 65.0197 38.593 64.6183 38.5986 63.7033C38.6098 61.9837 38.6192 60.264 38.5912 58.5463C38.5837 58.0515 38.6808 57.8106 39.2335 57.8722C39.8291 57.9376 40.604 57.6332 40.9868 57.9917C41.3789 58.3558 41.11 59.1344 41.1138 59.73C41.1268 62.9135 41.1082 66.0952 41.1324 69.2787C41.1362 69.794 41.0129 69.9434 40.4826 69.9378C37.5269 69.9042 34.5711 69.9135 31.6153 69.9079C31.6601 69.2189 31.4436 68.515 31.7311 67.8391C31.944 68.4441 32.4406 68.6046 33.0064 68.6084C34.4497 68.6196 35.8931 68.627 37.3364 68.6065C38.1879 68.5953 38.7256 68.108 38.7032 67.4377C38.6827 66.7711 38.1262 66.3211 37.2823 66.3174C35.908 66.3099 34.5338 66.336 33.1614 66.3062C32.4201 66.2912 31.9048 66.5582 31.6303 67.2528C31.6452 66.2875 31.4454 65.3128 31.7311 64.3569V64.3531Z" fill="#618AA2"/>
<path d="M18.4465 31.6857C18.4484 34.8879 18.4521 38.0901 18.454 41.2923C17.3841 41.2997 16.3123 41.296 15.2424 41.3184C14.8727 41.3259 14.6935 41.24 14.6953 40.8199C14.7084 37.9388 14.7084 35.0578 14.6953 32.1749C14.6953 31.7716 14.8503 31.654 15.2331 31.6615C16.303 31.6839 17.3747 31.6801 18.4446 31.6857H18.4465Z" fill="#3C5C6E"/>
<path d="M31.7294 67.8355C31.4418 68.5114 31.6584 69.2153 31.6136 69.9043C30.9377 69.9099 30.2618 69.9043 29.5877 69.9248C29.2553 69.9342 29.0742 69.8595 29.0742 69.4692C29.0854 65.7704 29.0836 62.0734 29.0742 58.3746C29.0742 58.0068 29.218 57.9097 29.569 57.891C31.5987 57.7771 31.5987 57.7696 31.5987 59.7675C31.5987 60.9998 31.6024 62.2321 31.5968 63.4663C31.5968 63.7707 31.608 64.0694 31.7294 64.3514C31.4437 65.3073 31.6435 66.282 31.6285 67.2473C31.6622 67.4434 31.6958 67.6394 31.7294 67.8336V67.8355Z" fill="#3C5C6E"/>
<path d="M17.3168 64.2246C17.1077 64.5924 17.2235 64.9938 17.2197 65.3766C17.2067 66.8815 17.2197 68.3883 17.2197 69.8933C16.5457 69.9026 15.8698 69.8933 15.1976 69.9269C14.7775 69.9474 14.6972 69.7495 14.6972 69.3835C14.7065 65.737 14.7084 62.0904 14.6953 58.4438C14.6953 58.0107 14.8559 57.9005 15.2667 57.8893C17.2197 57.837 17.2011 57.8258 17.2253 59.7751C17.244 61.2577 17.1133 62.7439 17.315 64.2227L17.3168 64.2246Z" fill="#3C5C6E"/>
<path d="M17.2087 49.7821C17.2087 51.6997 17.2106 53.6191 17.2125 55.5367C16.5384 55.546 15.8662 55.546 15.1922 55.5684C14.8374 55.5815 14.6974 55.449 14.6992 55.0849C14.7067 51.3972 14.7067 47.7096 14.6992 44.0219C14.6992 43.6579 14.8337 43.5552 15.1884 43.5365C17.2237 43.4263 17.2237 43.417 17.2218 45.4671C17.2218 46.9048 17.2143 48.3407 17.2087 49.7784V49.7821Z" fill="#3C5C6E"/>
<path d="M36.3556 60.3579C36.3556 60.9852 36.3332 61.6145 36.363 62.24C36.3836 62.6769 36.2118 62.7833 35.7973 62.7927C33.8386 62.8393 33.8386 62.8524 33.8386 60.918C33.8386 60.104 33.861 59.2899 33.8293 58.4795C33.8124 58.0146 33.9824 57.8951 34.4324 57.8895C36.3574 57.8634 36.3556 57.8484 36.3556 59.7305C36.3556 59.9396 36.3556 60.1488 36.3556 60.3579Z" fill="#3C5C6E"/>
<path d="M19.5529 45.9455C19.5529 45.2976 19.5622 44.6478 19.5492 43.9999C19.5417 43.6769 19.6612 43.5201 19.9935 43.5499C20.016 43.5518 20.0402 43.5499 20.0626 43.5499C21.3398 43.4827 21.9784 44.0926 21.9784 45.3797C21.9784 46.2368 21.9672 47.0938 21.9821 47.9508C21.9877 48.3018 21.8663 48.4251 21.5022 48.4475C19.551 48.567 19.551 48.5763 19.551 46.6419C19.551 46.4104 19.551 46.1789 19.551 45.9474L19.5529 45.9455Z" fill="#3C5C6E"/>
<path d="M19.5533 60.3713C19.5533 59.7216 19.5682 59.0699 19.5477 58.422C19.5346 58.0318 19.684 57.9104 20.0723 57.8917C21.9787 57.8059 21.9787 57.7946 21.9787 59.6861C21.9787 60.545 21.9638 61.4039 21.9844 62.2628C21.9937 62.6549 21.848 62.7762 21.4597 62.793C19.5533 62.8789 19.5533 62.8901 19.5533 60.9987C19.5533 60.7896 19.5533 60.5805 19.5533 60.3713Z" fill="#3C5C6E"/>
<path d="M35.1533 17.3178C33.639 17.3178 32.1266 17.3215 30.6123 17.3178C29.7665 17.314 29.225 16.8491 29.253 16.1657C29.2791 15.5085 29.8075 15.0828 30.616 15.0809C33.667 15.0772 36.718 15.0772 39.769 15.0809C40.5626 15.0809 41.0947 15.544 41.0929 16.2031C41.091 16.8678 40.5719 17.314 39.7653 17.3178C38.2286 17.3252 36.6919 17.3196 35.1533 17.3196V17.3178Z" fill="#080707"/>
<path d="M35.1434 22.0794C33.6291 22.0794 32.1167 22.085 30.6024 22.0775C29.7677 22.0738 29.2711 21.663 29.2524 20.9909C29.2337 20.328 29.8032 19.8332 30.6267 19.8313C33.6534 19.8257 36.682 19.8257 39.7087 19.8313C40.5358 19.8313 41.1035 20.3168 41.0923 20.9815C41.0811 21.6724 40.5713 22.0757 39.6844 22.0794C38.1701 22.085 36.6577 22.0794 35.1434 22.0794Z" fill="#080707"/>
<path d="M35.2011 10.3184C36.7154 10.3184 38.2278 10.3128 39.7421 10.3203C40.573 10.324 41.0715 10.7367 41.0921 11.4088C41.1108 12.0754 40.545 12.5609 39.7197 12.5627C36.693 12.5665 33.6662 12.5665 30.6395 12.5627C29.8068 12.5627 29.2429 12.0885 29.2541 11.4219C29.2653 10.7367 29.7844 10.324 30.6638 10.3203C32.1781 10.3147 33.6905 10.3203 35.2048 10.3203L35.2011 10.3184Z" fill="#080707"/>
<path d="M20.8907 52.049C21.6338 52.049 22.377 52.0396 23.1182 52.0508C23.8912 52.0639 24.3394 52.4859 24.3356 53.1655C24.3319 53.8134 23.8875 54.2727 23.1761 54.2821C21.6207 54.3007 20.0654 54.3007 18.51 54.2821C17.7743 54.2727 17.3225 53.7947 17.3262 53.1114C17.3299 52.4803 17.7818 52.0676 18.5212 52.0527C19.3092 52.0378 20.099 52.049 20.8888 52.049H20.8907Z" fill="#080707"/>
<path d="M20.8311 68.6072C20.1104 68.6072 19.3896 68.6296 18.6707 68.6016C17.782 68.568 17.3152 68.1442 17.3264 67.4421C17.3376 66.7513 17.8473 66.32 18.7062 66.3144C20.1234 66.3032 21.5406 66.305 22.9559 66.3144C23.8317 66.32 24.3246 66.7363 24.3358 67.4421C24.347 68.1572 23.8783 68.5774 22.9896 68.6054C22.2707 68.6278 21.55 68.6091 20.8292 68.6091L20.8311 68.6072Z" fill="#080707"/>
<path d="M31.7297 67.8363C31.6961 67.6402 31.6625 67.4442 31.6289 67.25C31.9034 66.5554 32.4187 66.2884 33.16 66.3033C34.5324 66.3313 35.9067 66.3052 37.2809 66.3145C38.1249 66.3201 38.6813 66.7682 38.7019 67.4348C38.7224 68.107 38.1865 68.5925 37.3351 68.6037C35.8917 68.6242 34.4484 68.6167 33.005 68.6055C32.4393 68.6018 31.9426 68.4412 31.7297 67.8363Z" fill="#080707"/>
</svg>
