<svg width="70" height="70" viewBox="0 0 70 70" fill="none" xmlns="http://www.w3.org/2000/svg">
<path d="M64.3138 48.978C65.1749 49.2938 65.3274 49.509 65.3292 50.4527C65.3328 51.7192 65.3436 52.9875 65.322 54.2541C65.3149 54.6398 65.4404 54.7474 65.8154 54.7349C66.5922 54.7098 67.3726 54.7582 68.1494 54.7169C68.7558 54.6864 69.2671 54.8084 69.6689 55.282V68.4337C69.2509 68.875 68.7486 69.0185 68.1368 68.9826C67.2685 68.9342 66.3949 68.9826 65.5248 68.9665C64.4771 68.9449 63.3522 69.2356 62.405 68.8588C61.4308 68.4713 60.8424 67.4308 60.0871 66.6774C59.775 66.367 59.4718 66.2486 59.0394 66.2486C50.8874 66.2594 42.7355 66.2576 34.5835 66.2576C33.7116 66.2576 32.8415 66.2665 31.9696 66.254C31.1928 66.2414 30.8986 65.9849 30.7371 65.2278C30.895 64.4116 31.1892 64.1622 32.0772 64.1622C41.2913 64.1586 50.5053 64.1622 59.7193 64.155C60.2486 64.155 60.672 64.3326 61.029 64.713C61.612 65.3319 62.2112 65.9329 62.7871 66.5572C63.0275 66.8173 63.2697 66.9734 63.65 66.9644C64.8125 66.9357 65.9751 66.9339 67.1376 66.9482C67.5053 66.9518 67.6524 66.855 67.6471 66.4621C67.6255 65.2332 67.6219 64.0025 67.6471 62.7719C67.656 62.3288 67.4659 62.2552 67.0891 62.2642C66.3733 62.2821 65.6575 62.257 64.9417 62.257C49.0181 62.257 33.0944 62.257 17.1708 62.257C16.9914 62.257 16.812 62.2731 16.6344 62.2534C16.2505 62.2139 16.1285 62.379 16.1357 62.7539C16.1554 63.7604 16.1428 64.7668 16.141 65.7732C16.141 66.9554 16.141 66.959 17.3556 66.9554C18.4284 66.9518 19.6268 67.2353 20.5382 66.8478C21.4728 66.4513 22.1366 65.4018 22.9027 64.6197C23.1861 64.3291 23.5037 64.1622 23.9037 64.1604C25.1559 64.1568 26.4082 64.1461 27.6604 64.164C28.4067 64.1748 28.7206 64.4708 28.8803 65.226C28.6919 65.9921 28.4067 66.2432 27.6371 66.254C26.6306 66.2665 25.626 66.2719 24.6195 66.2504C24.2769 66.2432 24.0329 66.3455 23.8033 66.5948C23.2238 67.2156 22.6102 67.804 22.0362 68.4283C21.6792 68.8158 21.2863 68.9916 20.7445 68.9826C18.9792 68.9539 17.2139 68.9736 15.4468 68.9719C14.4547 68.9719 14.1192 68.64 14.1174 67.6551C14.1138 65.9795 14.1174 64.3021 14.1156 62.6266C14.1156 62.3969 14.182 62.1745 13.8357 62.0561C11.3367 61.1986 10.3697 59.358 10.3751 56.7998C10.3984 44.3496 10.3805 31.8994 10.402 19.451C10.402 18.7837 10.219 18.6509 9.58932 18.6617C7.44368 18.7029 5.29805 18.694 3.15241 18.6689C1.81587 18.6527 0.961927 17.7485 0.958339 16.4085C0.952957 14.5535 0.976279 12.6985 0.947575 10.8435C0.936811 10.1277 1.20591 9.6954 1.90019 9.53035C2.82232 9.79766 2.96404 9.98244 2.96404 10.944C2.96404 12.6644 2.973 14.3866 2.95686 16.1071C2.95327 16.4856 3.01785 16.6632 3.46097 16.6614C10.0091 16.6453 16.5573 16.6435 23.1072 16.647C23.475 16.647 23.6221 16.5466 23.6203 16.1573C23.6095 11.71 23.6095 7.26098 23.6203 2.81372C23.6203 2.41008 23.4929 2.27194 23.0803 2.27194C16.5537 2.27911 10.0271 2.27733 3.50224 2.25939C3.03401 2.25939 2.94968 2.43519 2.95686 2.8496C2.98018 4.03362 2.96763 5.21944 2.96404 6.40346C2.96225 7.26816 2.73799 7.53366 1.87328 7.70409C1.2382 7.56954 0.943981 7.19102 0.952951 6.52904C0.972686 5.15306 0.961927 3.77529 0.958339 2.39931C0.956545 1.70325 1.25972 1.16147 1.77819 0.729124C1.9845 0.556902 2.21594 0.416977 2.4366 0.262695C9.63776 0.262695 16.8407 0.262695 24.0419 0.262695C25.2743 0.817033 25.678 1.7786 25.6618 3.10434C25.6116 7.4637 25.6439 11.8248 25.6421 16.186C25.6421 17.8077 24.7918 18.6706 23.1736 18.676C21.071 18.6832 18.9702 18.6958 16.8676 18.6653C16.333 18.6581 16.15 18.7675 16.15 19.347C16.168 30.9307 16.168 42.5125 16.15 54.0962C16.15 54.6595 16.3402 54.7528 16.8353 54.7385C17.9978 54.7062 19.1622 54.6954 20.3229 54.7421C20.8736 54.7654 20.9687 54.5752 20.9669 54.0729C20.9508 48.0129 20.9562 41.9528 20.9562 35.8928C20.9562 34.4325 21.1661 34.2172 22.5995 34.2172C23.2256 34.2172 23.8571 34.1634 24.476 34.2316C25.1111 34.3015 25.1846 34.0396 25.1811 33.4907C25.1577 29.7125 25.1685 25.9326 25.1685 22.1527C25.1685 20.8091 25.4412 20.5346 26.7652 20.5346C32.0647 20.5346 37.3642 20.5346 42.6637 20.5346C43.8513 20.5346 44.1599 20.8467 44.1599 22.0433C44.1599 25.8896 44.1725 29.7359 44.1455 33.5821C44.142 34.1185 44.2909 34.2567 44.8057 34.228C45.5628 34.1831 46.3253 34.2136 47.0859 34.2172C48.0224 34.2208 48.3668 34.5581 48.3722 35.5125C48.3812 37.1665 48.392 38.8224 48.3633 40.4764C48.3543 40.9464 48.4853 41.0684 48.9535 41.0666C53.9624 41.0487 58.9712 41.0558 63.9801 41.0558C64.974 41.0558 65.3167 41.3823 65.3238 42.3654C65.3328 43.5064 65.331 44.6456 65.3238 45.7866C65.3202 46.6782 65.1516 46.906 64.312 47.211C63.4329 46.9293 63.2553 46.6907 63.25 45.7668C63.2464 45.0062 63.2356 44.2455 63.2553 43.4849C63.2643 43.1637 63.1621 43.0633 62.8391 43.0669C61.5654 43.0812 60.2898 43.0866 59.0143 43.0597C58.6304 43.0525 58.5694 43.2104 58.5802 43.5315C58.5963 44.0446 58.6017 44.5613 58.5766 45.0743C58.5227 46.1687 57.8733 46.7948 56.7808 46.8163C56.1331 46.8288 55.4837 46.8306 54.8343 46.8163C53.7579 46.7912 53.0851 46.1328 53.042 45.0582C53.0223 44.5451 53.0169 44.0285 53.0438 43.5154C53.0618 43.1656 52.9541 43.0561 52.5971 43.0615C51.3449 43.083 50.0927 43.083 48.8405 43.0615C48.4691 43.0561 48.3417 43.153 48.3435 43.5441C48.3579 47.0997 48.3579 50.6572 48.3435 54.2128C48.3435 54.6219 48.4512 54.7438 48.8692 54.7421C53.4995 54.7259 58.1281 54.7223 62.7584 54.7385C63.2141 54.7385 63.2607 54.5573 63.2553 54.1841C63.2374 52.9319 63.2464 51.6798 63.25 50.4276C63.2535 49.5001 63.424 49.2704 64.3084 48.9762L64.3138 48.978ZM40.9594 34.1975C41.0706 34.2065 41.1818 34.2226 41.2913 34.2208C42.3085 34.2082 42.1362 34.3231 42.138 33.3722C42.1452 30.4481 42.1506 27.5239 42.1345 24.5997C42.1309 23.9396 42.4269 23.0892 41.9999 22.6712C41.607 22.2873 40.7656 22.5492 40.1252 22.5618C39.2479 22.5815 38.3616 22.4326 37.4898 22.6515C37.4754 23.2973 37.4718 23.9431 37.4431 24.589C37.3947 25.6402 36.7327 26.2843 35.694 26.2968C34.9566 26.3058 34.2193 26.3148 33.4819 26.2914C32.637 26.2645 32.0037 25.6689 31.9427 24.8276C31.8996 24.2499 31.8978 23.6651 31.9229 23.0874C31.9409 22.6766 31.8027 22.5474 31.3901 22.5564C30.1845 22.5815 28.9772 22.5869 27.7716 22.5528C27.3052 22.5403 27.2226 22.7125 27.2244 23.1305C27.2388 26.6592 27.237 30.1897 27.2244 33.7185C27.2244 34.0719 27.2801 34.2262 27.6891 34.2244C32.1113 34.2029 36.5353 34.2011 40.9576 34.1957L40.9594 34.1975ZM34.5727 54.7349V54.7313C38.2845 54.7313 41.9945 54.7205 45.7063 54.7438C46.2033 54.7474 46.3593 54.6308 46.3396 54.1195C46.2983 53.0252 46.3271 51.9291 46.3271 50.833C46.3271 46.183 46.3271 41.533 46.3271 36.8831C46.3271 36.5673 46.4401 36.2247 45.8696 36.2301C43.3221 36.2552 40.7728 36.2444 38.2235 36.2301C37.8683 36.2283 37.7589 36.3484 37.766 36.6947C37.7822 37.4984 37.7894 38.3057 37.7553 39.1094C37.7158 40.0638 37.1345 40.7042 36.1945 40.8136C35.1952 40.932 34.1852 40.9285 33.1841 40.819C32.1562 40.706 31.5695 40.0046 31.557 38.9569C31.548 38.2411 31.5247 37.5235 31.5659 36.8113C31.5946 36.3287 31.4296 36.2211 30.9667 36.2247C28.5072 36.248 26.0476 36.2516 23.5898 36.2229C23.0803 36.2175 22.9619 36.3592 22.9637 36.8562C22.9816 42.6022 22.9834 48.3483 22.9619 54.0926C22.9601 54.647 23.1377 54.7438 23.64 54.7421C27.2836 54.7223 30.9273 54.7313 34.5727 54.7313V54.7349ZM41.9586 56.7692V56.7567C36.6161 56.7567 31.2735 56.7567 25.931 56.7567C22.8686 56.7567 19.8062 56.7657 16.7438 56.7477C16.2882 56.7441 16.1105 56.85 16.1393 57.3344C16.1805 58.025 16.2038 58.7247 16.1339 59.4118C16.0639 60.115 16.3222 60.2442 16.9824 60.2442C33.0316 60.2244 49.0827 60.2298 65.1319 60.228C65.7795 60.228 66.4289 60.1939 67.0766 60.2191C67.4946 60.2352 67.6776 60.1383 67.6507 59.6737C67.6094 58.9615 67.6022 58.2403 67.6507 57.5299C67.6919 56.9379 67.5359 56.7531 66.9026 56.7549C58.5873 56.7782 50.2721 56.771 41.9568 56.771L41.9586 56.7692ZM14.1138 59.9841C14.1138 59.6647 14.1138 59.4638 14.1138 59.2647C14.1138 46.5006 14.1138 33.7346 14.1138 20.9705C14.1138 20.3893 14.0761 19.8062 14.1084 19.2268C14.1335 18.7711 13.9559 18.6222 13.529 18.6724C13.3531 18.694 13.1702 18.6904 12.9926 18.6724C12.6086 18.633 12.4849 18.798 12.4956 19.1748C12.5136 19.8672 12.4831 20.5597 12.4831 21.254C12.4831 33.1462 12.4831 45.0403 12.4831 56.9325C12.4831 57.2016 12.4741 57.4707 12.4938 57.7362C12.5692 58.7588 13.093 59.4692 14.1156 59.9841H14.1138ZM35.7352 37.563C35.7352 37.3405 35.7119 37.1145 35.7406 36.8974C35.807 36.3933 35.6491 36.2121 35.1019 36.2247C33.5716 36.2588 33.5698 36.2318 33.5698 37.7962C33.5698 38.4779 33.8802 38.8187 34.5009 38.8187C35.3238 38.8187 35.7352 38.4002 35.7352 37.563ZM35.389 23.4283C35.4912 22.9026 35.5002 22.5169 34.718 22.5367C34.0578 22.5528 33.8659 22.7376 33.9394 23.3619C33.995 23.8301 33.7708 24.3432 34.6427 24.3181C35.3621 24.2965 35.5486 24.0759 35.389 23.4283ZM55.1051 43.9388C54.9975 44.468 54.9975 44.8429 55.7779 44.8268C56.4489 44.8124 56.6229 44.6115 56.5529 43.9944C56.4991 43.5244 56.7198 43.0131 55.8479 43.0364C55.1159 43.0561 54.9491 43.2929 55.1069 43.937L55.1051 43.9388Z" fill="#0B0908"/>
<path d="M64.3145 48.9773C63.4319 49.2715 63.2597 49.5012 63.2561 50.4286C63.2525 51.6808 63.2435 52.933 63.2614 54.1852C63.2668 54.5566 63.2202 54.7413 62.7645 54.7395C58.1342 54.7234 53.5056 54.727 48.8753 54.7431C48.4573 54.7431 48.3478 54.6229 48.3496 54.2139C48.364 50.6583 48.364 47.1008 48.3496 43.5452C48.3496 43.1559 48.4734 43.0572 48.8466 43.0626C50.0988 43.0823 51.351 43.0823 52.6032 43.0626C52.9602 43.0572 53.0697 43.1666 53.0499 43.5165C53.023 44.0295 53.0266 44.5462 53.0481 45.0593C53.0912 46.1339 53.764 46.7923 54.8404 46.8174C55.488 46.8317 56.1374 46.8299 56.7869 46.8174C57.8776 46.7958 58.527 46.1697 58.5827 45.0754C58.6078 44.5623 58.6024 44.0457 58.5863 43.5326C58.5755 43.2115 58.6365 43.0536 59.0204 43.0608C60.2941 43.0877 61.5697 43.0823 62.8452 43.068C63.1682 43.0644 63.2704 43.1648 63.2614 43.486C63.2417 44.2466 63.2525 45.0073 63.2561 45.7679C63.2614 46.6918 63.4391 46.9304 64.3181 47.212C64.3181 47.8005 64.3145 48.3889 64.3127 48.9773H64.3145Z" fill="#C76F62"/>
<path d="M34.5737 54.7352C30.9301 54.7352 27.2847 54.7263 23.641 54.746C23.1369 54.7496 22.9611 54.6509 22.9629 54.0966C22.9862 48.3505 22.9826 42.6044 22.9647 36.8601C22.9647 36.3632 23.0813 36.2196 23.5908 36.2268C26.0504 36.2555 28.51 36.2519 30.9678 36.2286C31.4306 36.225 31.5957 36.3327 31.567 36.8152C31.5257 37.5275 31.549 38.245 31.558 38.9608C31.5706 40.0085 32.1572 40.71 33.1852 40.823C34.1844 40.9324 35.1945 40.9342 36.1955 40.8176C37.1356 40.7064 37.7169 40.0659 37.7563 39.1133C37.7904 38.3096 37.7832 37.5041 37.7671 36.6986C37.7599 36.3524 37.8693 36.2322 38.2246 36.234C40.7739 36.2484 43.3213 36.2573 45.8706 36.234C46.4411 36.2286 46.3281 36.5695 46.3281 36.887C46.3281 41.537 46.3281 46.187 46.3281 50.8369C46.3281 51.9331 46.2994 53.0292 46.3407 54.1235C46.3604 54.6348 46.2025 54.7514 45.7074 54.7478C41.9956 54.7263 38.2856 54.7352 34.5737 54.7352V54.7388V54.7352ZM26.6173 51.9671C26.6155 51.1473 26.3428 50.7096 25.7723 50.6199C25.3615 50.5553 25.0045 50.706 24.7964 51.0558C24.4645 51.6101 24.4932 52.2129 24.7497 52.7816C24.9184 53.1547 25.2664 53.3072 25.688 53.2839C26.0289 53.2642 26.2693 53.1027 26.4612 52.8336C26.6586 52.5555 26.5994 52.238 26.6173 51.9671ZM31.2674 51.9492C31.2674 52.9789 31.9025 53.5602 32.6685 53.2104C33.3538 52.8982 33.3179 52.2667 33.2892 51.6586C33.2641 51.1347 32.9932 50.7759 32.4873 50.6342C31.7877 50.4387 31.2692 51.0056 31.2674 51.9474V51.9492ZM29.947 51.8846C29.9883 51.4146 29.8842 50.9679 29.3586 50.7113C28.9406 50.5068 28.5638 50.5965 28.2552 50.8961C27.7529 51.3823 27.8857 52.0192 27.9951 52.5932C28.0722 53.0005 28.4113 53.2606 28.8742 53.2821C29.59 53.3162 29.9506 52.8695 29.9488 51.8846H29.947Z" fill="#AF594F"/>
<path d="M41.961 56.7685C50.2763 56.7685 58.5915 56.7775 66.9067 56.7524C67.54 56.7506 67.6961 56.9354 67.6548 57.5274C67.6046 58.2396 67.6136 58.959 67.6548 59.6712C67.6817 60.1358 67.5006 60.2345 67.0808 60.2165C66.4331 60.1896 65.7855 60.2255 65.136 60.2255C49.0868 60.2255 33.0358 60.2219 16.9866 60.2417C16.3264 60.2417 16.0681 60.1125 16.138 59.4093C16.2062 58.724 16.1829 58.0225 16.1434 57.3318C16.1147 56.8475 16.2905 56.7416 16.748 56.7452C19.8104 56.7649 22.8728 56.7542 25.9351 56.7542C31.2777 56.7542 36.6203 56.7542 41.9628 56.7542V56.7667L41.961 56.7685Z" fill="#C76F62"/>
<path d="M1.9019 9.52797C1.94317 8.91982 1.98085 8.30987 1.875 7.7035C2.73971 7.53128 2.96397 7.26757 2.96576 6.40287C2.96755 5.21885 2.9819 4.03304 2.95858 2.84902C2.9514 2.43461 3.03573 2.25701 3.50396 2.2588C10.0306 2.27674 16.5572 2.27853 23.082 2.27135C23.4946 2.27135 23.622 2.40949 23.622 2.81313C23.613 7.26039 23.613 11.7094 23.622 16.1567C23.622 16.546 23.4767 16.6465 23.1089 16.6465C16.5608 16.6411 10.0126 16.6429 3.46269 16.6608C3.01957 16.6608 2.95499 16.485 2.95858 16.1065C2.97472 14.386 2.96576 12.6638 2.96576 10.9434C2.96576 9.98364 2.82402 9.79707 1.9019 9.52977V9.52797ZM13.2849 10.1846C15.4287 10.1846 17.5744 10.1882 19.7182 10.1846C20.6959 10.1828 21.2126 9.67688 21.218 8.71351C21.227 7.43979 21.2252 6.16607 21.218 4.89235C21.2126 3.94514 20.6942 3.3872 19.729 3.38362C15.4395 3.36926 11.15 3.36926 6.86055 3.38362C5.88102 3.3872 5.3769 3.91464 5.36614 4.87979C5.35178 6.15351 5.35178 7.42723 5.36614 8.70095C5.3769 9.72531 5.86666 10.1846 6.91437 10.1864C9.03668 10.1899 11.159 10.1864 13.2813 10.1864L13.2849 10.1846ZM18.7835 14.0524C19.1836 14.0326 19.589 14.0488 19.9801 13.9842C20.5094 13.8981 20.809 13.5375 20.8 13.0047C20.791 12.4755 20.4878 12.1167 19.9532 12.0503C19.1997 11.957 18.4409 11.9606 17.6874 12.0485C17.1456 12.1113 16.846 12.4844 16.8317 13.0011C16.8191 13.5231 17.1223 13.8945 17.6515 13.9842C18.0211 14.0488 18.405 14.0326 18.7835 14.0524ZM7.75576 14.0129C7.75576 14.0129 7.75576 14.0075 7.75576 14.0057C8.13429 14.0057 8.51821 14.0488 8.88778 13.9968C9.4511 13.9178 9.76505 13.5303 9.74352 12.9778C9.72379 12.4629 9.4224 12.1005 8.87164 12.0431C8.13968 11.9678 7.40234 11.9642 6.67218 12.0431C6.10707 12.1041 5.7967 12.4468 5.7967 13.028C5.7967 13.6164 6.13936 13.934 6.68833 14.0057C7.03816 14.0524 7.39875 14.0147 7.75576 14.0147V14.0129ZM13.3979 14.0506C13.6724 14.0326 14.0994 14.0398 14.512 13.9663C15.0179 13.8748 15.2834 13.4927 15.278 13.0101C15.2727 12.5311 15.0107 12.1436 14.4959 12.0664C13.7011 11.948 12.8956 11.948 12.0991 12.0647C11.5949 12.1382 11.3222 12.4952 11.3097 12.9957C11.2971 13.4962 11.5591 13.8299 12.0524 13.9716C12.4489 14.0865 12.8507 14.0057 13.3961 14.0506H13.3979Z" fill="#C76F62"/>
<path d="M40.9617 34.1972C36.5394 34.2044 32.1154 34.2044 27.6932 34.2259C27.2841 34.2277 27.2285 34.0735 27.2285 33.72C27.2393 30.1913 27.2411 26.6608 27.2285 23.132C27.2285 22.714 27.3092 22.5418 27.7757 22.5543C28.9813 22.5884 30.1886 22.5813 31.3942 22.5579C31.8068 22.549 31.945 22.6781 31.927 23.089C31.9019 23.6684 31.9037 24.2514 31.9468 24.8291C32.0096 25.6705 32.6428 26.2679 33.486 26.293C34.2234 26.3163 34.9607 26.3073 35.698 26.2984C36.7368 26.2858 37.3988 25.6418 37.4472 24.5905C37.4759 23.9447 37.4795 23.2989 37.4938 22.653C38.4303 22.6584 39.3704 22.6961 40.305 22.6548C40.8558 22.6315 40.976 22.8342 40.9724 23.3455C40.9527 26.9621 40.9617 30.5788 40.9617 34.1954V34.1972Z" fill="#C76F62"/>
<path d="M30.737 65.2283C30.1199 65.2283 29.5027 65.2283 28.8856 65.2283C28.7241 64.4731 28.412 64.1771 27.6657 64.1663C26.4134 64.1484 25.1612 64.1591 23.909 64.1627C23.5089 64.1627 23.1914 64.3313 22.9079 64.622C22.1437 65.4023 21.4799 66.4518 20.5434 66.8501C19.6321 67.2376 18.4337 66.9541 17.3609 66.9577C16.1463 66.9613 16.1463 66.9577 16.1463 65.7755C16.1463 64.7691 16.1589 63.7627 16.1409 62.7562C16.1337 62.3813 16.2557 62.2162 16.6397 62.2557C16.8173 62.2736 16.9967 62.2593 17.1761 62.2593C33.0997 62.2593 49.0233 62.2593 64.947 62.2593C65.6628 62.2593 66.3786 62.2844 67.0944 62.2665C67.4729 62.2575 67.6631 62.3293 67.6523 62.7742C67.6254 64.003 67.629 65.2337 67.6523 66.4644C67.6595 66.8573 67.5106 66.9559 67.1428 66.9505C65.9803 66.9362 64.816 66.938 63.6553 66.9667C63.2749 66.9757 63.0328 66.8196 62.7924 66.5594C62.2165 65.9351 61.6173 65.3324 61.0342 64.7153C60.6754 64.3349 60.2538 64.1573 59.7246 64.1573C50.5106 64.1627 41.2965 64.1609 32.0825 64.1645C31.1963 64.1645 30.9002 64.4157 30.7424 65.2301L30.737 65.2283Z" fill="#AF594F"/>
<path d="M14.1151 59.9841C13.0925 59.4692 12.5686 58.7606 12.4933 57.7362C12.4735 57.4689 12.4825 57.1998 12.4825 56.9325C12.4825 45.0403 12.4825 33.1462 12.4825 21.254C12.4825 20.5615 12.513 19.8672 12.4951 19.1748C12.4861 18.798 12.6099 18.633 12.992 18.6725C13.1696 18.6904 13.3508 18.6922 13.5284 18.6725C13.9554 18.6222 14.133 18.7693 14.1079 19.2268C14.0756 19.8062 14.1133 20.3893 14.1133 20.9705C14.1133 33.7346 14.1133 46.5006 14.1133 59.2647C14.1133 59.4656 14.1133 59.6647 14.1133 59.9841H14.1151Z" fill="#6D5F6A"/>
<path d="M40.962 34.1973C40.962 30.5807 40.953 26.964 40.9727 23.3474C40.9763 22.8361 40.8561 22.6316 40.3053 22.6567C39.3707 22.698 38.4306 22.6603 37.4941 22.6549C38.366 22.436 39.2505 22.5831 40.1295 22.5652C40.77 22.5509 41.6114 22.2907 42.0043 22.6747C42.4312 23.0909 42.1352 23.943 42.1388 24.6032C42.155 27.5273 42.1514 30.4515 42.1424 33.3757C42.1406 34.3265 42.3128 34.2117 41.2956 34.2242C41.1844 34.2242 41.0732 34.2081 40.9637 34.2009L40.962 34.1973Z" fill="#AF594F"/>
<path d="M35.7396 37.5616C35.7396 38.3988 35.3281 38.8174 34.5053 38.8174C33.8846 38.8174 33.5742 38.4765 33.5742 37.7948C33.5742 36.2304 33.5742 36.2573 35.1063 36.2233C35.6552 36.2107 35.8113 36.3919 35.7449 36.896C35.7162 37.1149 35.7396 37.3409 35.7396 37.5616Z" fill="#6EACDD"/>
<path d="M35.3921 23.4265C35.55 24.0741 35.3652 24.2966 34.6458 24.3163C33.7757 24.3414 33.9981 23.8284 33.9425 23.3601C33.869 22.7358 34.0609 22.5511 34.7211 22.5349C35.5033 22.5152 35.4943 22.8991 35.3921 23.4265Z" fill="#6EACDD"/>
<path d="M55.107 43.9375C54.9492 43.2934 55.1178 43.0566 55.848 43.0369C56.7199 43.0136 56.4992 43.5249 56.553 43.9949C56.623 44.612 56.449 44.813 55.778 44.8273C54.9994 44.8435 54.9994 44.4667 55.1052 43.9393L55.107 43.9375Z" fill="#6EACDD"/>
<path d="M26.617 51.9654C26.5991 52.2363 26.6583 52.5538 26.461 52.8319C26.269 53.101 26.0286 53.2624 25.6877 53.2821C25.2661 53.3055 24.9181 53.153 24.7495 52.7798C24.4929 52.2112 24.466 51.6084 24.7961 51.054C25.0042 50.7042 25.363 50.5535 25.7721 50.6181C26.3426 50.7078 26.6134 51.1455 26.617 51.9654Z" fill="#0B0908"/>
<path d="M31.2676 51.9474C31.2676 51.0055 31.7879 50.4386 32.4875 50.6342C32.9934 50.7759 33.2661 51.1329 33.2894 51.6585C33.3181 52.2667 33.3522 52.8982 32.6687 53.2103C31.9027 53.5601 31.2658 52.9789 31.2676 51.9492V51.9474Z" fill="#0B0908"/>
<path d="M29.9482 51.8819C29.9482 52.8668 29.5894 53.3117 28.8736 53.2794C28.4107 53.2579 28.0717 52.9977 27.9945 52.5905C27.8851 52.0164 27.7523 51.3796 28.2546 50.8934C28.5632 50.5956 28.94 50.5041 29.358 50.7086C29.8854 50.9652 29.9877 51.4137 29.9464 51.8819H29.9482Z" fill="#0B0908"/>
<path d="M13.2834 10.1856C11.161 10.1856 9.03873 10.1874 6.91642 10.1856C5.86872 10.1856 5.37895 9.72453 5.36819 8.70017C5.35383 7.42645 5.35383 6.15273 5.36819 4.87901C5.37895 3.91206 5.88307 3.38642 6.8626 3.38283C11.1521 3.36848 15.4415 3.36848 19.731 3.38283C20.6962 3.38642 21.2147 3.94256 21.2201 4.89157C21.2272 6.16529 21.229 7.43901 21.2201 8.71273C21.2129 9.67609 20.698 10.182 19.7203 10.1838C17.5764 10.1892 15.4308 10.1838 13.2869 10.1838L13.2834 10.1856ZM13.3085 8.17813C14.5374 8.17813 15.7663 8.19606 16.9952 8.17095C17.7235 8.1566 18.7497 8.49745 19.0995 8.0364C19.4673 7.55023 19.1892 6.58328 19.2143 5.82622C19.2233 5.52663 19.1623 5.39029 18.8143 5.39209C15.1491 5.40285 11.484 5.40105 7.81881 5.38849C7.45283 5.38849 7.36133 5.51767 7.37389 5.85493C7.39542 6.43439 7.41157 7.01923 7.37031 7.59689C7.33801 8.05614 7.4636 8.19966 7.94439 8.19069C9.73123 8.16019 11.5198 8.17813 13.3067 8.17813H13.3085Z" fill="#0B0908"/>
<path d="M18.7804 14.0514C18.4018 14.0317 18.0197 14.046 17.6484 13.9832C17.1191 13.8917 16.8159 13.5222 16.8285 13.0001C16.8411 12.4835 17.1407 12.1121 17.6842 12.0475C18.4377 11.9596 19.1984 11.956 19.9501 12.0493C20.4865 12.1157 20.7879 12.4745 20.7968 13.0037C20.8058 13.5347 20.5062 13.8953 19.977 13.9832C19.5841 14.0478 19.1786 14.0317 18.7786 14.0514H18.7804Z" fill="#0B0908"/>
<path d="M7.75397 14.0138C7.39876 14.0138 7.03638 14.0515 6.68655 14.0048C6.13758 13.9313 5.79492 13.6156 5.79492 13.0271C5.79492 12.4459 6.10529 12.1032 6.6704 12.0422C7.40056 11.9633 8.13789 11.9669 8.86985 12.0422C9.4206 12.0996 9.72199 12.462 9.74173 12.9769C9.76326 13.5294 9.44931 13.9169 8.886 13.9959C8.51464 14.0479 8.1325 14.0048 7.75397 14.0048C7.75397 14.0066 7.75397 14.0102 7.75397 14.012V14.0138Z" fill="#0B0908"/>
<path d="M13.3953 14.051C12.85 14.0062 12.4463 14.0869 12.0516 13.9721C11.5583 13.8286 11.2982 13.4967 11.3089 12.9961C11.3215 12.4956 11.5924 12.1368 12.0983 12.0651C12.893 11.9503 13.6985 11.9485 14.4951 12.0669C15.01 12.144 15.2701 12.5315 15.2773 13.0105C15.2826 13.4931 15.0171 13.877 14.5112 13.9667C14.0986 14.0402 13.6716 14.0331 13.3971 14.051H13.3953Z" fill="#0B0908"/>
<path d="M13.3088 8.17733C11.5202 8.17733 9.73333 8.15939 7.9465 8.18989C7.46391 8.19886 7.33834 8.05534 7.37243 7.59609C7.41369 7.01843 7.39754 6.43359 7.37601 5.85413C7.36345 5.51687 7.45495 5.3877 7.82093 5.3877C11.4861 5.40205 15.1512 5.40205 18.8164 5.39129C19.1626 5.39129 19.2254 5.52763 19.2165 5.82543C19.1931 6.58248 19.4694 7.54943 19.1016 8.0356C18.7518 8.49665 17.7256 8.1558 16.9973 8.17015C15.7684 8.19526 14.5395 8.17733 13.3106 8.17733H13.3088Z" fill="#FEFEFE"/>
</svg>
