<svg width="112" height="110" viewBox="0 0 112 110" fill="none" xmlns="http://www.w3.org/2000/svg">
<path fill-rule="evenodd" clip-rule="evenodd" d="M72.87 1.66529L105.847 20.9285C107.717 22.0069 109.269 23.5529 110.349 25.4123C111.429 27.2717 111.998 29.3795 112 31.5253V66.3157C112 68.4665 111.431 70.5797 110.35 72.4441C109.269 74.3085 107.714 75.8589 105.84 76.9404L51.569 108.335L51.555 108.342C49.6689 109.428 47.5268 110 45.346 110C43.1652 110 41.0231 109.428 39.137 108.342H39.13L6.11101 89.2316C4.24944 88.1524 2.70556 86.608 1.63331 84.7523C0.561067 82.8966 -0.00208619 80.7945 5.80731e-06 78.6556V43.6916C5.80731e-06 41.5805 0.546006 39.5389 1.54001 37.7543L1.56801 37.7196L1.63801 37.5876C2.68801 35.7682 4.22101 34.2127 6.11801 33.1225L60.487 1.65835C62.3617 0.572313 64.4936 0 66.6645 0C68.8354 0 70.9673 0.572313 72.842 1.65835L72.856 1.66529H72.87ZM65.779 10.6511C66.0467 10.4961 66.3511 10.4145 66.661 10.4145C66.9709 10.4145 67.2753 10.4961 67.543 10.6511L96.348 27.4699L46.284 56.2744C45.9982 56.4398 45.6733 56.5269 45.3425 56.5269C45.0117 56.5269 44.6868 56.4398 44.401 56.2744L15.589 39.6917L65.779 10.6511ZM51.555 65.288L61.11 59.7882V90.7593L50.61 96.8355V65.781C50.9344 65.6304 51.252 65.4659 51.562 65.288H51.555ZM71.603 84.6901V53.7537L82.25 47.6289V78.5306L71.603 84.6901ZM92.75 72.4544L100.555 67.9407H100.569C100.853 67.7765 101.088 67.5413 101.252 67.2586C101.415 66.9759 101.501 66.6555 101.5 66.3296V36.5529L92.75 41.5875V72.4544ZM11.403 80.2319L40.103 96.8494V65.788C39.7738 65.6355 39.4515 65.4686 39.137 65.288L10.5 48.8094V78.6556C10.5 79.3153 10.85 79.9125 11.403 80.2319Z" fill="white"/>
</svg>
