<svg width="107" height="75" viewBox="0 0 107 75" fill="none" xmlns="http://www.w3.org/2000/svg">
<path d="M106.998 28.5161V28.4269C107.005 28.3208 106.99 28.2143 106.954 28.1145V27.9806C106.954 27.8914 106.909 27.8021 106.909 27.7129V27.6236C106.865 27.4897 106.865 27.4005 106.82 27.2666H106.775L100.534 11.6474C100.011 10.3122 99.0968 9.16686 97.9109 8.36226C96.7251 7.55765 95.3235 7.13158 93.891 7.14019H78.4654V3.5701C78.4654 2.62325 78.0896 1.71518 77.4208 1.04566C76.7519 0.376135 75.8447 0 74.8988 0H7.13322C5.24137 0 3.42701 0.752268 2.08927 2.09131C0.751533 3.43036 0 5.24649 0 7.14019V57.1215C0 59.0152 0.751533 60.8314 2.08927 62.1704C3.42701 63.5094 5.24137 64.2617 7.13322 64.2617H12.929C13.7147 67.3335 15.4994 70.0561 18.0018 72.0004C20.5041 73.9447 23.5818 75 26.7496 75C29.9173 75 32.995 73.9447 35.4974 72.0004C37.9997 70.0561 39.7845 67.3335 40.5702 64.2617H66.4281C67.2138 67.3335 68.9986 70.0561 71.5009 72.0004C74.0033 73.9447 77.0809 75 80.2487 75C83.4165 75 86.4941 73.9447 88.9965 72.0004C91.4988 70.0561 93.2836 67.3335 94.0693 64.2617H99.8651C101.757 64.2617 103.571 63.5094 104.909 62.1704C106.247 60.8314 106.998 59.0152 106.998 57.1215V28.5608V28.5161ZM78.4654 14.2804H93.891L98.1709 24.9907H78.4654V14.2804ZM7.13322 7.14019H71.3322V35.701H7.13322V7.14019ZM26.7496 67.8318C25.3387 67.8318 23.9596 67.413 22.7866 66.6285C21.6135 65.8439 20.6992 64.7288 20.1593 63.4241C19.6194 62.1194 19.4782 60.6837 19.7534 59.2986C20.0286 57.9136 20.708 56.6413 21.7056 55.6427C22.7032 54.6442 23.9742 53.9641 25.3579 53.6886C26.7417 53.4131 28.1759 53.5545 29.4793 54.0949C30.7828 54.6354 31.8968 55.5505 32.6806 56.7247C33.4644 57.8989 33.8828 59.2794 33.8828 60.6916C33.8828 62.5853 33.1313 64.4015 31.7935 65.7405C30.4558 67.0795 28.6414 67.8318 26.7496 67.8318ZM80.2487 67.8318C78.8379 67.8318 77.4587 67.413 76.2857 66.6285C75.1126 65.8439 74.1984 64.7288 73.6585 63.4241C73.1186 62.1194 72.9773 60.6837 73.2525 59.2986C73.5278 57.9136 74.2072 56.6413 75.2048 55.6427C76.2023 54.6442 77.4734 53.9641 78.8571 53.6886C80.2408 53.4131 81.675 53.5545 82.9785 54.0949C84.2819 54.6354 85.3959 55.5505 86.1798 56.7247C86.9636 57.8989 87.3819 59.2794 87.3819 60.6916C87.3819 62.5853 86.6304 64.4015 85.2926 65.7405C83.9549 67.0795 82.1405 67.8318 80.2487 67.8318Z" fill="white"/>
</svg>
