<svg width="90" height="81" viewBox="0 0 90 81" fill="none" xmlns="http://www.w3.org/2000/svg">
<path d="M57.6002 7.25792L87.7547 57.4828C92.0883 64.6964 89.9598 74.1869 82.9982 78.678C80.6618 80.1909 77.9382 80.9971 75.1547 81H14.841C6.64652 81 0 74.1149 0 65.6144C0 62.7389 0.778502 59.9263 2.24101 57.4828L32.4001 7.25792C36.7291 0.044363 45.8821 -2.16515 52.8437 2.32588C54.7697 3.56789 56.3987 5.2554 57.6002 7.25792ZM45.0001 62.9999C46.1936 62.9999 47.3382 62.5257 48.1821 61.6818C49.026 60.8379 49.5001 59.6933 49.5001 58.4998C49.5001 57.3063 49.026 56.1617 48.1821 55.3178C47.3382 54.4739 46.1936 53.9998 45.0001 53.9998C43.8067 53.9998 42.6621 54.4739 41.8181 55.3178C40.9742 56.1617 40.5001 57.3063 40.5001 58.4998C40.5001 59.6933 40.9742 60.8379 41.8181 61.6818C42.6621 62.5257 43.8067 62.9999 45.0001 62.9999ZM45.0001 22.4995C43.8067 22.4995 42.6621 22.9736 41.8181 23.8176C40.9742 24.6615 40.5001 25.8061 40.5001 26.9996V44.9997C40.5001 46.1932 40.9742 47.3378 41.8181 48.1817C42.6621 49.0256 43.8067 49.4997 45.0001 49.4997C46.1936 49.4997 47.3382 49.0256 48.1821 48.1817C49.026 47.3378 49.5001 46.1932 49.5001 44.9997V26.9996C49.5001 25.8061 49.026 24.6615 48.1821 23.8176C47.3382 22.9736 46.1936 22.4995 45.0001 22.4995Z" fill="white"/>
</svg>
