<svg width="103" height="90" viewBox="0 0 103 90" fill="none" xmlns="http://www.w3.org/2000/svg">
<path fill-rule="evenodd" clip-rule="evenodd" d="M53.9461 0.664635C53.2045 0.229456 52.3601 0 51.5 0C50.6399 0 49.7955 0.229456 49.054 0.664635L2.38599 27.9845C1.65965 28.4098 1.0573 29.0174 0.638754 29.747C0.220204 30.4765 0 31.3027 0 32.1436C0 32.9844 0.220204 33.8106 0.638754 34.5402C1.0573 35.2698 1.65965 35.8774 2.38599 36.3026L49.054 63.6225C49.7955 64.0577 50.6399 64.2872 51.5 64.2872C52.3601 64.2872 53.2045 64.0577 53.9461 63.6225L100.614 36.3026C101.34 35.8774 101.943 35.2698 102.361 34.5402C102.78 33.8106 103 32.9844 103 32.1436C103 31.3027 102.78 30.4765 102.361 29.747C101.943 29.0174 101.34 28.4098 100.614 27.9845L53.9461 0.664635ZM51.5 53.8774L14.378 32.1436L51.5 10.4162L88.622 32.1436L51.5 53.8709V53.8774ZM7.27808 53.6974C6.17353 53.0495 4.85651 52.8664 3.61675 53.1883C2.377 53.5101 1.31605 54.3106 0.667322 55.4137C0.0185904 56.5168 -0.16479 57.832 0.157523 59.0701C0.479836 60.3081 1.28144 61.3676 2.38599 62.0155L49.054 89.3354C49.7955 89.7705 50.6399 90 51.5 90C52.3601 90 53.2045 89.7705 53.9461 89.3354L100.614 62.0155C101.161 61.6947 101.639 61.2695 102.022 60.7641C102.404 60.2587 102.683 59.6831 102.842 59.0701C103.002 58.457 103.039 57.8186 102.952 57.1912C102.864 56.5639 102.654 55.9599 102.333 55.4137C102.011 54.8675 101.586 54.3899 101.08 54.008C100.574 53.6262 99.9971 53.3476 99.3833 53.1883C98.7694 53.0289 98.1301 52.9918 97.5019 53.0792C96.8737 53.1665 96.2688 53.3766 95.7219 53.6974L51.5 79.5902L7.27808 53.6974Z" fill="white"/>
</svg>
