<svg width="93" height="93" viewBox="0 0 93 93" fill="none" xmlns="http://www.w3.org/2000/svg">
<path d="M83.25 19.0833H0.75V0.75H83.25V19.0833ZM46.5833 74.0833C46.5833 77.2917 47.1792 80.3625 48.1875 83.25H5.33333V23.6667H78.6667V46.9958C77.1542 46.7667 75.6417 46.5833 74.0833 46.5833C58.9125 46.5833 46.5833 58.9125 46.5833 74.0833ZM55.75 46.5833V39.7083C55.75 38.425 54.7417 37.4167 53.4583 37.4167H30.5417C29.2583 37.4167 28.25 38.425 28.25 39.7083V46.5833H55.75ZM78.6667 69.5V55.75H69.5V69.5H55.75V78.6667H69.5V92.4167H78.6667V78.6667H92.4167V69.5H78.6667Z" fill="white"/>
</svg>
