<svg width="90" height="16" viewBox="0 0 90 16" fill="none" xmlns="http://www.w3.org/2000/svg">
<path d="M10.6197 9.76717H4.52909L3.32851 12.5881H0.996094L6.47792 0.400391H8.70572L14.2045 12.5881H11.8382L10.6197 9.76717ZM9.87143 7.9909L7.57388 2.66309L5.29428 7.9909H9.87143Z" fill="white"/>
<path d="M23.124 3.77764C23.8374 4.17236 24.3973 4.72956 24.8038 5.44924C25.2094 6.16892 25.4126 6.99924 25.4126 7.93921C25.4126 8.87918 25.2094 9.71249 24.8038 10.4372C24.3973 11.1628 23.8384 11.723 23.124 12.1177C22.4107 12.5125 21.6016 12.7098 20.696 12.7098C19.4426 12.7098 18.4512 12.2922 17.7199 11.4559V15.9653H15.5449V3.29021H17.6163V4.50927C17.976 4.06869 18.4193 3.73776 18.9474 3.51647C19.4755 3.29618 20.0583 3.18555 20.696 3.18555C21.6006 3.18555 22.4097 3.38291 23.124 3.77764ZM22.4276 10.0454C22.9437 9.51213 23.2017 8.8094 23.2017 7.93921C23.2017 7.06902 22.9437 6.36628 22.4276 5.83201C21.9115 5.29873 21.2529 5.03159 20.4529 5.03159C19.9308 5.03159 19.4605 5.1512 19.043 5.38844C18.6256 5.62667 18.2948 5.96557 18.0507 6.40715C17.8066 6.84872 17.685 7.35908 17.685 7.93921C17.685 8.51934 17.8066 9.03069 18.0507 9.47127C18.2948 9.91284 18.6246 10.2517 19.043 10.49C19.4605 10.7282 19.9308 10.8468 20.4529 10.8468C21.2529 10.8468 21.9115 10.5797 22.4276 10.0464V10.0454Z" fill="white"/>
<path d="M35.0615 3.77764C35.7749 4.17236 36.3348 4.72956 36.7413 5.44924C37.1469 6.16892 37.3501 6.99924 37.3501 7.93921C37.3501 8.87918 37.1469 9.71249 36.7413 10.4372C36.3348 11.1628 35.7759 11.723 35.0615 12.1177C34.3482 12.5125 33.5391 12.7098 32.6335 12.7098C31.3801 12.7098 30.3887 12.2922 29.6574 11.4559V15.9653H27.4824V3.29021H29.5538V4.50927C29.9135 4.06869 30.3568 3.73776 30.8849 3.51647C31.413 3.29618 31.9958 3.18555 32.6335 3.18555C33.5381 3.18555 34.3472 3.38291 35.0615 3.77764ZM34.3651 10.0454C34.8812 9.51213 35.1392 8.8094 35.1392 7.93921C35.1392 7.06902 34.8812 6.36628 34.3651 5.83201C33.849 5.29873 33.1904 5.03159 32.3904 5.03159C31.8683 5.03159 31.398 5.1512 30.9805 5.38844C30.5631 5.62667 30.2323 5.96557 29.9882 6.40715C29.7441 6.84872 29.6225 7.35908 29.6225 7.93921C29.6225 8.51934 29.7441 9.03069 29.9882 9.47127C30.2323 9.91284 30.5621 10.2517 30.9805 10.49C31.398 10.7282 31.8683 10.8468 32.3904 10.8468C33.1904 10.8468 33.849 10.5797 34.3651 10.0464V10.0454Z" fill="white"/>
<path d="M45.4856 12.3615C44.6098 12.0943 43.9164 11.7405 43.4062 11.2999L44.1894 9.54155C44.6885 9.93627 45.3003 10.2582 46.0256 10.5074C46.7509 10.7576 47.4783 10.8822 48.2096 10.8822C49.1142 10.8822 49.7898 10.7377 50.2371 10.4466C50.6835 10.1566 50.9067 9.7738 50.9067 9.29734C50.9067 8.94946 50.7821 8.66139 50.532 8.43512C50.2819 8.20885 49.9661 8.03242 49.5835 7.90383C49.2009 7.77624 48.6788 7.63171 48.0173 7.46824C47.0887 7.24795 46.3375 7.02766 45.7636 6.80637C45.1897 6.58608 44.6965 6.2402 44.284 5.77072C43.8725 5.30024 43.6663 4.66528 43.6663 3.86387C43.6663 3.19104 43.8486 2.57802 44.2143 2.0268C44.5799 1.47558 45.1309 1.03699 45.8672 0.712038C46.6035 0.387087 47.5062 0.224609 48.5732 0.224609C49.3155 0.224609 50.0468 0.317308 50.7662 0.50271C51.4855 0.688112 52.1062 0.955253 52.6283 1.30313L51.9149 3.06146C51.3809 2.74847 50.824 2.51023 50.2441 2.34776C49.6642 2.18528 49.1013 2.10454 48.5563 2.10454C47.6626 2.10454 46.999 2.25506 46.5636 2.55709C46.1282 2.85911 45.911 3.25982 45.911 3.75821C45.911 4.10609 46.0356 4.39117 46.2857 4.61146C46.5347 4.83175 46.8516 5.00618 47.2342 5.13377C47.6168 5.26136 48.1388 5.40689 48.8004 5.56937C49.7051 5.77869 50.4473 5.99599 51.0282 6.22226C51.6081 6.44853 52.1042 6.79441 52.5157 7.25792C52.9272 7.72242 53.1335 8.3494 53.1335 9.13785C53.1335 9.81068 52.9511 10.4207 52.5855 10.966C52.2198 11.5112 51.6659 11.9468 50.9236 12.2717C50.1813 12.5967 49.2757 12.7592 48.2086 12.7592C47.269 12.7592 46.3614 12.6256 45.4846 12.3585L45.4856 12.3615Z" fill="white"/>
<path d="M60.7564 12.0833C60.5014 12.2927 60.1905 12.4492 59.8259 12.5538C59.4602 12.6585 59.0746 12.7103 58.6681 12.7103C57.6469 12.7103 56.8588 12.4432 56.3018 11.9099C55.7449 11.3766 55.4669 10.5981 55.4669 9.57642V5.10185H53.9355V3.36048H55.4669V1.23633H57.6419V3.36048H60.1307V5.10185H57.6419V9.52459C57.6419 9.97713 57.7515 10.323 57.9727 10.5602C58.1929 10.7985 58.5117 10.9171 58.9302 10.9171C59.4174 10.9171 59.8239 10.7895 60.1487 10.5343L60.7574 12.0843L60.7564 12.0833Z" fill="white"/>
<path d="M63.8709 12.0998C63.1167 11.6941 62.5279 11.1279 62.1044 10.4023C61.681 9.6766 61.4688 8.85525 61.4688 7.93821C61.4688 7.02117 61.68 6.20281 62.1044 5.48313C62.5279 4.76345 63.1167 4.20027 63.8709 3.79458C64.6251 3.38889 65.472 3.18555 66.4116 3.18555C67.3511 3.18555 68.2159 3.38889 68.9701 3.79458C69.7244 4.20127 70.3132 4.76345 70.7366 5.48313C71.1601 6.20281 71.3713 7.02117 71.3713 7.93821C71.3713 8.85525 71.1591 9.6766 70.7366 10.4023C70.3132 11.1279 69.7244 11.6941 68.9701 12.0998C68.2159 12.5065 67.3631 12.7088 66.4116 12.7088C65.4601 12.7088 64.6251 12.5055 63.8709 12.0998ZM68.3953 10.0454C68.9173 9.51213 69.1784 8.8094 69.1784 7.93921C69.1784 7.06902 68.9173 6.36628 68.3953 5.83201C67.8732 5.29873 67.2116 5.03159 66.4116 5.03159C65.6115 5.03159 64.9529 5.29873 64.4368 5.83201C63.9207 6.36628 63.6627 7.06802 63.6627 7.93921C63.6627 8.8104 63.9207 9.51213 64.4368 10.0454C64.9529 10.5797 65.6115 10.8458 66.4116 10.8458C67.2116 10.8458 67.8732 10.5787 68.3953 10.0454Z" fill="white"/>
<path d="M78.8362 3.18555V5.25786C78.6509 5.22297 78.4825 5.20602 78.3311 5.20602C77.4842 5.20602 76.8226 5.45323 76.3474 5.94564C75.8711 6.43905 75.634 7.14975 75.634 8.07876V12.5882H73.459V3.29121H75.5304V4.64883C76.1571 3.67397 77.259 3.18654 78.8372 3.18654L78.8362 3.18555Z" fill="white"/>
<path d="M89.2953 8.63496H82.0031C82.1306 9.31975 82.4644 9.86201 83.0034 10.2627C83.5435 10.6634 84.213 10.8638 85.013 10.8638C86.0343 10.8638 86.8752 10.5269 87.5368 9.85403L88.7025 11.1947C88.285 11.6941 87.7569 12.0709 87.1193 12.3261C86.4806 12.5812 85.7623 12.7088 84.9612 12.7088C83.94 12.7088 83.0413 12.5055 82.2642 12.0998C81.487 11.6941 80.8862 11.1279 80.4628 10.4023C80.0393 9.6766 79.8281 8.85525 79.8281 7.93821C79.8281 7.02117 80.0344 6.21776 80.4458 5.4921C80.8573 4.76644 81.4292 4.20127 82.1595 3.79458C82.8908 3.38889 83.7138 3.18555 84.6304 3.18555C85.5471 3.18555 86.3441 3.3859 87.0585 3.7866C87.7719 4.18731 88.3288 4.7505 88.7294 5.47516C89.1299 6.20082 89.3302 7.03911 89.3302 7.99104C89.3302 8.14155 89.3182 8.35686 89.2953 8.63496ZM82.8649 5.54493C82.3837 5.9566 82.0908 6.50583 81.9862 7.19062H87.2588C87.1661 6.5178 86.8812 5.97155 86.4059 5.5539C85.9297 5.13625 85.3388 4.92693 84.6304 4.92693C83.9221 4.92693 83.3452 5.13326 82.864 5.54493H82.8649Z" fill="white"/>
</svg>
