<svg width="25" height="30" viewBox="0 0 25 30" fill="none" xmlns="http://www.w3.org/2000/svg">
<path d="M1.7939 11.5479C-0.639144 15.7723 0.907166 22.1836 3.59826 26.0701C4.94132 28.0138 6.30131 29.7582 8.16346 29.7582C8.19833 29.7582 8.23321 29.7582 8.27007 29.7562C9.14485 29.7213 9.77752 29.4522 10.3893 29.191C11.0757 28.898 11.7861 28.5959 12.9 28.5959C14.0139 28.5959 14.6356 28.889 15.2892 29.1711C15.9339 29.4502 16.5974 29.7392 17.5778 29.7203C19.6761 29.6814 20.9644 27.7985 22.1002 26.1379C23.2858 24.4045 23.8816 22.7209 24.0819 22.077L24.0899 22.051C24.1277 21.9364 24.0739 21.8118 23.9643 21.762C23.9643 21.762 23.9504 21.756 23.9474 21.755C23.5777 21.6035 20.3367 20.1651 20.3028 16.2448C20.2709 13.0591 22.7338 11.3735 23.228 11.0675L23.2509 11.0525C23.3047 11.0186 23.3416 10.9638 23.3546 10.901C23.3675 10.8382 23.3546 10.7734 23.3177 10.7206C21.6179 8.23163 19.0125 7.85684 17.9634 7.81199C17.812 7.79703 17.6545 7.78906 17.4971 7.78906C16.2647 7.78906 15.085 8.25456 14.1365 8.62835C13.4819 8.88652 12.916 9.1098 12.5274 9.1098C12.089 9.1098 11.5201 8.88353 10.8625 8.62337C9.98177 8.2735 8.98345 7.87777 7.92733 7.87777C7.90242 7.87777 7.87751 7.87777 7.85261 7.87877C5.39565 7.91465 3.07419 9.32111 1.7949 11.5469L1.7939 11.5479Z" fill="white"/>
<path d="M17.9644 0.961131C16.4768 1.02194 14.6924 1.93798 13.6263 3.18795C12.7197 4.23756 11.8339 5.98991 12.0671 7.75522C12.082 7.86586 12.1717 7.95058 12.2833 7.95956C12.3839 7.96753 12.4855 7.97152 12.5882 7.97152C14.0428 7.97152 15.612 7.16611 16.6831 5.87029C17.8109 4.50171 18.3808 2.74538 18.2085 1.17146C18.1945 1.04786 18.0859 0.956147 17.9644 0.961131Z" fill="white"/>
</svg>
