<svg width="100" height="80" viewBox="0 0 100 80" fill="none" xmlns="http://www.w3.org/2000/svg">
<path d="M22.7085 57.7561L11.8944 47.0661C9.28415 44.4856 10.3587 40.0774 13.877 38.9595L20.3322 36.9085L20.3323 15.5165C20.3323 12.818 22.5452 10.6305 25.275 10.6305L35.1605 10.6305L35.1605 4.52292C35.1605 2.49903 36.8201 0.858393 38.8675 0.858393L61.1098 0.858395C63.1572 0.858395 64.8169 2.49903 64.8169 4.52292L64.8169 10.6305L74.7023 10.6305C77.4321 10.6305 79.6451 12.818 79.6451 15.5165L79.6451 36.9085L86.1003 38.9595C89.6147 40.0762 90.6961 44.4827 88.0829 47.0661L77.2688 57.7561C79.9806 64.4207 86.1962 69.2629 95.709 69.2629C97.7563 69.2629 99.416 70.9035 99.416 72.9274L99.416 75.3704C99.416 77.3943 97.7563 79.0349 95.709 79.0349C86.2833 79.0349 79.1046 75.888 73.5813 69.9658C71.3541 75.2837 66.0493 79.0349 59.8741 79.0349L40.1032 79.0349C33.928 79.0349 28.6232 75.2837 26.3961 69.9658C20.8736 75.8871 13.6954 79.0349 4.26836 79.0349C2.22099 79.0349 0.561303 77.3943 0.561303 75.3704L0.561303 72.9274C0.561304 70.9035 2.22099 69.2629 4.26836 69.2629C13.6622 69.2629 19.9526 64.5294 22.7085 57.7561ZM69.7596 20.4025L30.2177 20.4025L30.2177 33.7675L48.4762 27.9661C49.4597 27.6536 50.5176 27.6536 51.5011 27.9661L69.7596 33.7675L69.7596 20.4025Z" fill="#628CA5"/>
</svg>
