<svg width="104" height="76" viewBox="0 0 104 76" fill="none" xmlns="http://www.w3.org/2000/svg">
<path d="M23.9203 75.065C20.029 75.065 16.7213 73.7103 13.9974 71.0008C11.2734 68.2914 9.91148 65.0014 9.91148 61.1307H0.572266V10.0385C0.572266 7.48391 1.48751 5.29778 3.31799 3.48013C5.14537 1.65939 7.3432 0.749023 9.91148 0.749023H75.286V19.328H89.2948L103.304 37.907V61.1307H93.9644C93.9644 65.0014 92.6024 68.2914 89.8785 71.0008C87.1546 73.7103 83.8469 75.065 79.9556 75.065C76.0642 75.065 72.7566 73.7103 70.0327 71.0008C67.3087 68.2914 65.9468 65.0014 65.9468 61.1307H37.9291C37.9291 65.0014 36.5672 68.2914 33.8432 71.0008C31.1193 73.7103 27.8116 75.065 23.9203 75.065ZM23.9203 65.7755C25.2434 65.7755 26.3532 65.3296 27.2497 64.4378C28.1432 63.5491 28.5899 62.4468 28.5899 61.1307C28.5899 59.8147 28.1432 58.7124 27.2497 57.8237C26.3532 56.9319 25.2434 56.486 23.9203 56.486C22.5972 56.486 21.4874 56.9319 20.5909 57.8237C19.6974 58.7124 19.2507 59.8147 19.2507 61.1307C19.2507 62.4468 19.6974 63.5491 20.5909 64.4378C21.4874 65.3296 22.5972 65.7755 23.9203 65.7755ZM79.9556 65.7755C81.2786 65.7755 82.3869 65.3296 83.2803 64.4378C84.1769 63.5491 84.6252 62.4468 84.6252 61.1307C84.6252 59.8147 84.1769 58.7124 83.2803 57.8237C82.3869 56.9319 81.2786 56.486 79.9556 56.486C78.6325 56.486 77.5243 56.9319 76.6308 57.8237C75.7343 58.7124 75.286 59.8147 75.286 61.1307C75.286 62.4468 75.7343 63.5491 76.6308 64.4378C77.5243 65.3296 78.6325 65.7755 79.9556 65.7755ZM75.286 42.5518H95.1318L84.6252 28.6175H75.286V42.5518Z" fill="#628CA5"/>
</svg>
