<svg width="148" height="113" viewBox="0 0 148 113" fill="none" xmlns="http://www.w3.org/2000/svg">
<g clip-path="url(#clip0_583_17671)">
<path d="M68.7022 32.1284C68.7839 30.5061 69.6649 29.695 71.3451 29.695C84.1795 29.695 97.0139 29.7234 109.848 29.6705C112.516 29.6583 114.648 30.5129 116.527 32.397C126.183 42.078 135.881 51.7224 145.59 61.3505C146.558 62.3068 147.028 63.3078 147.02 64.6955C146.971 73.119 147 81.5426 146.991 89.9621C146.987 94.9023 143.965 97.8892 138.989 97.9014C137.613 97.9014 136.036 97.4985 134.925 98.0438C133.867 98.5606 134.092 100.343 133.622 101.535C130.979 108.242 124.786 112.498 117.377 112.51C103.627 112.535 89.8737 112.519 76.1243 112.519C51.3704 112.519 26.6207 112.502 1.8668 112.555C0.469798 112.555 0.21654 112.164 0.253303 110.891C0.347254 107.647 0.281897 107.643 3.59875 107.643H35.3825C35.8768 107.643 36.3711 107.643 37.1594 107.643C34.6023 104.844 32.9194 101.861 32.3557 98.3287C32.2577 97.7142 31.743 97.9177 31.3794 97.9095C30.1581 97.8851 28.9367 97.9055 27.7113 97.9014C22.8749 97.8851 19.8521 94.8453 19.8481 89.9784C19.8399 83.4348 19.8889 76.8872 19.8113 70.3437C19.795 68.9642 20.1503 68.423 21.531 68.6631C21.7761 68.7038 22.0375 68.6387 22.2908 68.6224C22.5931 68.6387 22.9076 68.7119 23.2017 68.6631C24.4802 68.4433 24.8928 68.9479 24.7702 70.2176C24.66 71.3163 24.7784 72.4394 24.7948 73.5544C24.7784 79.1824 24.7417 84.8143 24.758 90.4423C24.7621 92.0578 25.7138 92.9693 27.3314 93.0222C28.6018 93.0629 29.8803 92.9734 31.1507 93.0548C32.0494 93.1118 32.2985 92.7943 32.4987 91.9235C34.3246 83.9313 41.1135 78.4539 49.1156 78.4295C57.1627 78.401 63.9925 83.797 65.8388 91.777C66.0961 92.8961 66.5373 93.0629 67.5381 93.0589C77.9257 93.0263 88.3133 92.9978 98.701 93.0833C100.241 93.0955 100.805 92.7211 101.176 91.1951C102.929 84.0697 109.264 78.8894 116.515 78.458C124.035 78.0104 130.848 82.3809 133.614 89.2947C134.112 90.5399 133.732 92.4159 135.125 92.9368C136.375 93.4048 137.939 93.0385 139.365 93.0385C139.414 93.0385 139.467 93.0385 139.516 93.0385C141.13 92.949 142.086 92.0619 142.094 90.4504C142.11 84.8225 142.073 79.1905 142.061 73.5626C142.145 71.9348 141.39 71.121 139.794 71.121C128.54 71.121 117.287 71.121 106.033 71.121C102.508 71.121 100.547 69.1717 100.547 65.668C100.539 58.8193 100.547 51.9706 100.547 45.1219C100.547 41.2885 102.402 39.4573 106.274 39.4533C109.611 39.4533 112.945 39.4533 116.711 39.4533C115.236 38.0086 114.031 36.8774 112.879 35.6891C112.124 34.9078 111.266 34.566 110.167 34.57C102.528 34.5985 94.8898 34.6148 87.2513 34.5538C86.0708 34.5456 85.8461 34.8915 85.8502 35.9943C85.891 46.595 85.8747 57.1997 85.8747 67.8004C85.8747 71.1291 85.8747 71.0518 82.6028 71.1617C81.2385 71.2064 80.9444 70.8239 80.9525 69.4973C81.0097 58.4368 80.9525 47.3804 81.026 36.3199C81.0383 34.7898 80.5931 34.4846 79.1716 34.5497C76.5818 34.6677 73.9798 34.5822 71.3819 34.5822C68.7839 34.5822 68.8329 34.5822 68.7104 32.1406L68.7022 32.1284ZM123.782 66.2215C129.378 66.2215 134.974 66.2296 140.57 66.2052C141.068 66.2052 141.791 66.5267 142.041 65.9203C142.335 65.2163 141.918 64.6222 141.363 64.0728C134.978 57.7491 128.614 51.405 122.262 45.0486C121.764 44.5522 121.278 44.3039 120.546 44.3121C115.918 44.3487 111.286 44.3609 106.658 44.3039C105.641 44.2917 105.416 44.5888 105.42 45.5614C105.465 52.0479 105.469 58.5345 105.42 65.021C105.412 66.0506 105.731 66.25 106.691 66.2418C112.389 66.1971 118.083 66.2215 123.782 66.2215ZM61.415 95.5005C61.4231 88.7738 55.9413 83.3005 49.1851 83.2924C42.5105 83.2843 36.9879 88.7372 36.9674 95.358C36.947 102.17 42.4492 107.664 49.2749 107.647C55.9291 107.631 61.4027 102.154 61.4109 95.5005H61.415ZM129.88 95.5778C129.941 88.9244 124.509 83.3657 117.883 83.2965C111.082 83.2232 105.498 88.5989 105.437 95.2848C105.371 102.052 110.796 107.607 117.503 107.652C124.268 107.696 129.823 102.28 129.884 95.5819L129.88 95.5778ZM105.666 107.623C103.047 104.905 101.458 101.963 100.87 98.5403C100.731 97.7305 100.216 97.9136 99.7548 97.9136C88.8689 97.9055 77.9788 97.9136 67.0928 97.8973C66.378 97.8973 66.0716 98.0397 65.9246 98.8414C65.512 101.1 64.6297 103.2 63.2817 105.08C62.6853 105.91 62.044 106.707 61.3455 107.623H105.67H105.666Z" fill="#010101"/>
<path d="M24.7911 73.5504C24.7748 72.4394 24.6604 71.3163 24.7666 70.2135C24.8932 68.9439 24.4806 68.4393 23.198 68.659C22.9039 68.7078 22.5935 68.6346 22.2871 68.6183C22.2912 66.5185 22.2994 64.4187 22.3034 62.3189C22.6956 62.4125 23.0918 62.498 23.4799 62.5997C33.4263 65.2245 42.6621 63.6252 50.9256 57.5537C59.4547 51.2869 63.5681 42.6273 63.8989 32.1284C65.4961 32.1284 67.0973 32.1284 68.6945 32.1284C68.7762 33.7562 69.6667 34.57 71.3659 34.57C73.9639 34.57 76.5659 34.6555 79.1556 34.5375C80.5771 34.4724 81.0183 34.7816 81.0101 36.3076C80.9325 47.3641 80.9938 58.4246 80.9366 69.4851C80.9284 70.8076 81.2225 71.1942 82.5869 71.1494C85.8588 71.0396 85.8588 71.1169 85.8588 67.7882C85.8588 57.1875 85.8751 46.5828 85.8343 35.9821C85.8302 34.8793 86.0549 34.5334 87.2354 34.5415C94.8739 34.6026 102.512 34.5863 110.151 34.5578C111.25 34.5578 112.108 34.8956 112.863 35.6769C114.011 36.8651 115.22 38.0005 116.695 39.441C112.929 39.441 109.591 39.441 106.258 39.441C102.386 39.441 100.535 41.2763 100.531 45.1097C100.531 51.9584 100.527 58.8071 100.531 65.6558C100.531 69.1595 102.492 71.1087 106.017 71.1087C117.271 71.1128 128.524 71.1087 139.778 71.1087C141.374 71.1087 142.13 71.9226 142.045 73.5504C102.958 73.5504 63.8662 73.5504 24.7788 73.5504H24.7911Z" fill="#3D99E1"/>
<path d="M63.9068 32.1287C63.576 42.6276 59.4626 51.2872 50.9335 57.554C42.67 63.6255 33.4343 65.2248 23.4878 62.6C23.0956 62.4983 22.7035 62.4128 22.3114 62.3192C15.8574 60.0485 10.4695 56.3169 6.41334 50.7826C-7.56891 31.7136 3.68061 4.57105 27.0947 0.839457C44.9493 -2.00502 61.6439 10.6995 63.625 28.6453C63.7516 29.801 63.8129 30.9689 63.9028 32.1287H63.9068ZM32.0087 58.9173C46.959 58.9091 58.9438 46.9574 58.9642 32.0392C58.9806 17.3285 46.8773 5.3483 31.9882 5.33609C17.2952 5.32388 5.15522 17.4302 5.17973 32.0677C5.20424 46.9005 17.2217 58.9254 32.0087 58.9173Z" fill="#010101"/>
<path d="M6.34846 90.5969C4.66961 90.5969 2.98668 90.5644 1.30783 90.6132C0.552138 90.6335 0.282542 90.4708 0.262118 89.6325C0.172252 85.7259 0.139573 85.7259 4.00787 85.7259C6.50368 85.7259 8.99949 85.7503 11.4953 85.7096C12.251 85.6974 12.5206 85.8521 12.541 86.6903C12.6309 90.5969 12.6636 90.5969 8.79526 90.5969C7.98238 90.5969 7.16542 90.5969 6.35255 90.5969H6.34846Z" fill="#010101"/>
<path d="M8.91687 75.98C12.536 75.98 12.4911 75.98 12.5401 79.5529C12.5564 80.619 12.295 80.9405 11.2125 80.8795C9.48874 80.7818 7.7527 80.8225 6.02075 80.8673C5.35493 80.8835 5.06491 80.6882 5.1752 80.0168C5.18337 79.9679 5.1752 79.915 5.1752 79.8662C5.08806 77.2754 6.33528 75.98 8.91687 75.98Z" fill="#010101"/>
<path d="M12.5166 68.5533C12.5166 70.257 11.6398 71.1088 9.88602 71.1088C8.37737 71.1088 7.62305 70.337 7.62305 68.7933C7.62305 67.0896 8.49992 66.2378 10.2537 66.2378C11.7623 66.2378 12.5166 67.0096 12.5166 68.5533Z" fill="#010101"/>
<path d="M24.7909 73.5506C63.8783 73.5506 102.97 73.5506 142.057 73.5506C142.074 79.1785 142.11 84.8105 142.09 90.4384C142.086 92.0499 141.13 92.9411 139.512 93.0265C139.463 93.0265 139.41 93.0265 139.361 93.0265C137.936 93.0265 136.371 93.3928 135.121 92.9248C133.724 92.4039 134.104 90.5239 133.61 89.2827C130.844 82.373 124.031 77.9984 116.511 78.4461C109.264 78.8774 102.925 84.0577 101.172 91.1831C100.797 92.7051 100.233 93.0835 98.6971 93.0713C88.3094 92.9859 77.9218 93.0143 67.5342 93.0469C66.5334 93.0469 66.0922 92.8841 65.8349 91.765C63.9886 83.7891 57.1588 78.3931 49.1117 78.4176C41.1055 78.446 34.3166 83.9193 32.4948 91.9115C32.2946 92.7824 32.0455 93.0957 31.1468 93.0428C29.8805 92.9655 28.602 93.055 27.3275 93.0103C25.7099 92.9574 24.7582 92.0458 24.7541 90.4303C24.7378 84.8024 24.7745 79.1704 24.7909 73.5425V73.5506ZM98.2396 75.98H96.8712C92.7741 75.98 92.7905 75.98 93.1908 80.0982C93.2479 80.6923 93.4236 80.8673 93.9995 80.8632C96.7404 80.8429 99.4813 80.851 102.222 80.8592C102.672 80.8592 103.015 80.8144 102.994 80.2284C102.945 78.8733 103.346 77.2904 102.761 76.2364C102.341 75.4714 100.605 76.0695 99.4568 75.9882C99.0524 75.9597 98.644 75.9841 98.2396 75.9841V75.98Z" fill="#77B8E9"/>
<path d="M123.783 66.2216C118.085 66.2216 112.387 66.2013 106.692 66.242C105.733 66.2501 105.414 66.0466 105.422 65.0211C105.475 58.5346 105.471 52.048 105.422 45.5615C105.414 44.5889 105.639 44.2919 106.66 44.3041C111.288 44.361 115.916 44.3488 120.548 44.3122C121.279 44.3081 121.765 44.5523 122.264 45.0488C128.616 51.4051 134.98 57.7492 141.364 64.073C141.92 64.6223 142.336 65.2124 142.042 65.9205C141.789 66.5268 141.07 66.2013 140.572 66.2053C134.976 66.2297 129.379 66.2216 123.783 66.2216Z" fill="#F5F5F5"/>
<path d="M61.4162 95.4966C61.408 102.15 55.9344 107.627 49.2802 107.644C42.4545 107.66 36.9482 102.166 36.9727 95.3542C36.9932 88.7334 42.5158 83.2804 49.1904 83.2886C55.9466 83.2967 61.4284 88.77 61.4202 95.4966H61.4162ZM51.6412 95.6025C51.6412 93.8879 50.7576 93.0306 48.9902 93.0306C48.6879 93.0306 48.3775 93.0672 48.0793 93.0225C47.0213 92.8638 46.5802 93.2748 46.7395 94.345C46.7926 94.6909 46.7477 95.049 46.7477 95.4031C46.7477 97.0688 47.6055 97.9016 49.3211 97.9016C50.8651 97.9016 51.6372 97.1352 51.6372 95.6025H51.6412Z" fill="#77757F"/>
<path d="M129.88 95.5736C129.818 102.276 124.267 107.688 117.499 107.643C110.787 107.599 105.367 102.04 105.432 95.2766C105.498 88.5947 111.077 83.2191 117.879 83.2883C124.508 83.3574 129.937 88.9162 129.876 95.5696L129.88 95.5736ZM120.101 95.5126C120.101 93.8604 119.489 93.0344 118.267 93.0344C116.23 93.0344 115.21 93.6556 115.207 94.8981C115.207 96.903 115.893 97.9054 117.266 97.9054C119.153 97.9054 120.097 97.1078 120.097 95.5126H120.101Z" fill="#77757F"/>
<path d="M32.0087 58.9171C17.2217 58.9253 5.20423 46.9003 5.17972 32.0675C5.15522 17.4301 17.2952 5.32374 31.9882 5.33595C46.8773 5.34815 58.9847 17.3283 58.9642 32.039C58.9479 46.9573 46.9631 58.909 32.0087 58.9171ZM32.0699 10.211C19.9177 10.211 11.744 22.3214 16.3353 33.5976C19.4357 41.2114 24.6438 47.3724 30.2563 53.2282C31.3919 54.4123 32.7072 54.3676 33.904 53.2282C34.8231 52.3533 35.6727 51.4051 36.5183 50.4529C41.0483 45.3418 45.2393 39.9987 47.8209 33.5935C52.3714 22.3011 44.2222 10.211 32.0699 10.2151V10.211Z" fill="#FCD770"/>
<path d="M98.2367 75.98C98.6411 75.98 99.0496 75.9556 99.454 75.9841C100.602 76.0655 102.334 75.4673 102.759 76.2323C103.339 77.2863 102.942 78.8693 102.991 80.2244C103.012 80.8103 102.669 80.8551 102.219 80.8551C99.4785 80.847 96.7376 80.8388 93.9967 80.8592C93.4248 80.8632 93.2451 80.6883 93.1879 80.0941C92.7876 75.976 92.7712 75.976 96.8683 75.976H98.2367V75.98Z" fill="#010101"/>
<path d="M51.6364 95.6065C51.6364 97.1393 50.8643 97.9057 49.3203 97.9057C47.6047 97.9057 46.7469 97.0729 46.7469 95.4071C46.7469 95.0531 46.7918 94.695 46.7387 94.3491C46.5794 93.2789 47.0205 92.8679 48.0785 93.0266C48.3767 93.0713 48.6831 93.0347 48.9894 93.0347C50.7568 93.0347 51.6404 93.892 51.6404 95.6065H51.6364Z" fill="#010101"/>
<path d="M120.1 95.5129C120.1 97.1081 119.157 97.9057 117.27 97.9057C115.894 97.9057 115.208 96.9033 115.211 94.8984C115.211 93.6532 116.231 93.032 118.27 93.0347C119.493 93.0347 120.105 93.8608 120.105 95.5129H120.1Z" fill="#010101"/>
<path d="M32.0707 10.2111C44.2189 10.2111 52.3722 22.2971 47.8217 33.5895C45.2401 39.9947 41.045 45.3378 36.5191 50.4489C35.6776 51.4011 34.8239 52.3493 33.9048 53.2242C32.708 54.3636 31.3927 54.4083 30.2571 53.2242C24.6405 47.3724 19.4324 41.2074 16.3361 33.5936C11.7448 22.3174 19.9185 10.2111 32.0707 10.207V10.2111ZM31.7603 15.1187C30.106 15.1594 28.2106 15.6315 26.4092 16.5389C21.8996 18.8137 17.7413 25.1171 21.2256 32.5844C23.8072 38.1187 27.5407 42.8392 31.5152 47.405C31.9972 47.9625 32.2668 47.8567 32.6753 47.3602C33.6066 46.2208 34.6115 45.1384 35.5306 43.9908C38.7004 40.015 41.7558 35.9579 43.4714 31.1032C46.2409 23.2737 40.4446 15.1472 31.7644 15.1187H31.7603Z" fill="#010101"/>
<path d="M31.7606 15.1226C40.4407 15.1551 46.2371 23.2775 43.4676 31.107C41.752 35.9576 38.6925 40.0189 35.5267 43.9946C34.6077 45.1462 33.6028 46.2246 32.6715 47.364C32.263 47.8646 31.9975 47.9663 31.5114 47.4088C27.5369 42.843 23.8034 38.1225 21.2218 32.5882C17.7375 25.121 21.8958 18.8175 26.4054 16.5428C28.2068 15.6353 30.1021 15.1633 31.7565 15.1226H31.7606ZM39.4441 27.3347C39.4563 23.2572 36.1966 19.9447 32.1445 19.9244C28.0638 19.9 24.7306 23.1555 24.7061 27.1923C24.6816 31.2575 27.9413 34.5659 32.0056 34.6066C36.07 34.6473 39.4318 31.3633 39.4441 27.3347Z" fill="#FF826E"/>
<path d="M39.4471 27.3347C39.4349 31.3593 36.0731 34.6474 32.0087 34.6067C27.9402 34.566 24.6806 31.2576 24.7092 27.1923C24.7337 23.1555 28.0669 19.9 32.1476 19.9245C36.1997 19.9489 39.4594 23.2573 39.4471 27.3347ZM34.5004 27.2452C34.4923 25.9349 33.373 24.8321 32.0618 24.8402C30.7424 24.8484 29.6436 25.9593 29.6518 27.2696C29.664 28.584 30.7751 29.6787 32.0904 29.6746C33.4057 29.6706 34.5086 28.5556 34.5004 27.2452Z" fill="#010101"/>
<path d="M34.4972 27.2454C34.5054 28.5557 33.4025 29.6707 32.0872 29.6748C30.7719 29.6788 29.6608 28.5842 29.6485 27.2698C29.6363 25.9594 30.7392 24.8485 32.0586 24.8404C33.3657 24.8322 34.4849 25.935 34.4972 27.2454Z" fill="#FCD770"/>
</g>
<defs>
<clipPath id="clip0_583_17671">
<rect width="146.787" height="112.119" fill="white" transform="translate(0.238281 0.44043)"/>
</clipPath>
</defs>
</svg>
