<svg width="61" height="62" viewBox="0 0 61 62" fill="none" xmlns="http://www.w3.org/2000/svg">
<path d="M35.7535 0.697846C35.3856 0.630129 35.0072 0.644148 34.6453 0.738908C34.2834 0.833669 33.9467 1.00685 33.6592 1.2462C33.3716 1.48554 33.1402 1.78518 32.9814 2.1239C32.8225 2.46262 32.7401 2.83213 32.7399 3.20625V10.5528C29.6502 10.1429 26.5077 10.4501 23.5559 11.4504C20.604 12.4508 17.9223 14.1175 15.7184 16.3214C13.5145 18.5252 11.8478 21.207 10.8475 24.1588C9.84711 27.1106 9.53998 30.2532 9.94988 33.3428H2.60329C2.22917 33.343 1.85966 33.4255 1.52094 33.5843C1.18222 33.7432 0.882578 33.9746 0.643237 34.2621C0.403895 34.5497 0.230711 34.8864 0.13595 35.2483C0.0411893 35.6102 0.0271708 35.9885 0.0948875 36.3565C1.10542 41.8467 3.59755 46.9562 7.30182 51.1325C11.0061 55.3088 15.7815 58.3931 21.1118 60.0518C26.4421 61.7105 32.1244 61.8806 37.5444 60.5436C42.9643 59.2066 47.9157 56.4134 51.863 52.466C55.8104 48.5186 58.6036 43.5673 59.9406 38.1473C61.2776 32.7274 61.1076 27.0451 59.4489 21.7148C57.7902 16.3845 54.7059 11.609 50.5295 7.90478C46.3532 4.20051 41.2437 1.70838 35.7535 0.697846ZM30.1881 35.8946C29.2958 35.8921 28.4199 35.655 27.6482 35.2071C26.8765 34.7593 26.2361 34.1163 25.7914 33.3428H19.9809C19.3042 33.3428 18.6551 33.074 18.1766 32.5954C17.698 32.1169 17.4292 31.4678 17.4292 30.791C17.4292 30.1143 17.698 29.4652 18.1766 28.9867C18.6551 28.5081 19.3042 28.2393 19.9809 28.2393H25.7914C26.2361 27.4748 26.8719 26.8391 27.6363 26.3943V18.0321C27.6363 17.3553 27.9051 16.7063 28.3837 16.2277C28.8623 15.7492 29.5113 15.4803 30.1881 15.4803C30.8649 15.4803 31.5139 15.7492 31.9925 16.2277C32.471 16.7063 32.7399 17.3553 32.7399 18.0321V26.3943C33.7132 26.9535 34.4743 27.8188 34.9047 28.8555C35.3351 29.8923 35.4106 31.0422 35.1194 32.1263C34.8282 33.2104 34.1867 34.1678 33.2948 34.8493C32.4029 35.5309 31.3106 35.8984 30.1881 35.8946ZM25.0131 0.424805C25.5178 0.424805 26.0111 0.574464 26.4308 0.854858C26.8504 1.13525 27.1775 1.53379 27.3706 2.00006C27.5637 2.46634 27.6143 2.97942 27.5158 3.47442C27.4174 3.96942 27.1743 4.4241 26.8174 4.78097C26.4606 5.13785 26.0059 5.38088 25.5109 5.47934C25.0159 5.5778 24.5028 5.52727 24.0365 5.33413C23.5703 5.14099 23.1717 4.81392 22.8913 4.39429C22.6109 3.97465 22.4613 3.48129 22.4613 2.97659C22.4613 2.29981 22.7301 1.65076 23.2087 1.17221C23.6872 0.693653 24.3363 0.424805 25.0131 0.424805ZM14.5507 4.90574C15.0554 4.90574 15.5488 5.0554 15.9684 5.33579C16.3881 5.61619 16.7152 6.01472 16.9083 6.481C17.1014 6.94728 17.152 7.46035 17.0535 7.95535C16.955 8.45035 16.712 8.90504 16.3551 9.26191C15.9983 9.61878 15.5436 9.86182 15.0486 9.96028C14.5536 10.0587 14.0405 10.0082 13.5742 9.81507C13.1079 9.62193 12.7094 9.29486 12.429 8.87522C12.1486 8.45558 11.999 7.96222 11.999 7.45752C11.9976 6.78119 12.2648 6.13198 12.7419 5.65254C13.2189 5.17311 13.8668 4.90266 14.5431 4.90064L14.5507 4.90574ZM6.65808 12.5228C7.16277 12.5228 7.65613 12.6725 8.07577 12.9529C8.49541 13.2333 8.82248 13.6318 9.01562 14.0981C9.20876 14.5644 9.25929 15.0774 9.16083 15.5724C9.06237 16.0674 8.81934 16.5221 8.46246 16.879C8.10559 17.2359 7.6509 17.4789 7.15591 17.5774C6.66091 17.6758 6.14783 17.6253 5.68155 17.4321C5.21527 17.239 4.81674 16.9119 4.53635 16.4923C4.25595 16.0727 4.10629 15.5793 4.10629 15.0746C4.10629 14.3978 4.37514 13.7488 4.85369 13.2702C5.33225 12.7917 5.9813 12.5228 6.65808 12.5228ZM2.57522 23.1561C3.07992 23.1561 3.57328 23.3058 3.99292 23.5862C4.41256 23.8666 4.73963 24.2651 4.93276 24.7314C5.1259 25.1976 5.17644 25.7107 5.07798 26.2057C4.97951 26.7007 4.73648 27.1554 4.37961 27.5123C4.02273 27.8691 3.56805 28.1122 3.07305 28.2106C2.57805 28.3091 2.06497 28.2586 1.5987 28.0654C1.13242 27.8723 0.733884 27.5452 0.453491 27.1256C0.173097 26.7059 0.0234375 26.2126 0.0234375 25.7079C0.0234361 25.032 0.291584 24.3837 0.769033 23.9053C1.24648 23.4269 1.89423 23.1575 2.57012 23.1561H2.57522Z" fill="white"/>
</svg>
