<svg width="76" height="75" viewBox="0 0 76 75" fill="none" xmlns="http://www.w3.org/2000/svg">
<g clip-path="url(#clip0_581_12287)">
<path d="M8.85754 39.4457C9.35874 40.1153 9.80682 40.7405 10.2868 41.3407C10.478 41.5796 10.4847 41.7434 10.3186 42.0054C8.70689 44.5487 7.22261 47.1633 5.98555 49.9118C4.88755 52.352 3.96241 54.8519 3.50177 57.4964C3.15315 59.4973 3.02761 61.502 3.71712 63.4712C4.50899 65.7293 6.15454 66.9663 8.46546 67.3786C11.1057 67.8497 13.6349 67.2717 16.1196 66.4692C20.1118 65.1802 23.7631 63.1879 27.2754 60.9337C33.34 57.0416 38.7884 52.4011 43.8603 47.3049C47.5213 43.6258 50.9562 39.7473 54.004 35.5489C55.7326 33.1675 57.2903 30.6617 58.9233 28.2119C59.0382 28.0404 59.1415 27.8603 59.1888 27.7832C60.2724 28.4219 61.3105 29.1127 62.4181 29.6647C63.5258 30.2167 64.7455 30.4469 66.0762 30.4671C65.8454 30.9055 65.6552 31.2793 65.4524 31.6473C62.5688 36.8678 59.1232 41.6991 55.2778 46.2539C51.4613 50.7749 47.303 54.9579 42.7874 58.7825C37.5079 63.2534 31.874 67.2023 25.6173 70.2099C22.0558 71.9218 18.3726 73.2908 14.4412 73.8823C12.026 74.2455 9.60982 74.2927 7.23709 73.5885C3.6022 72.5095 1.42841 70.0577 0.554452 66.4152C0.0542196 64.3324 0.0735336 62.2313 0.336204 60.1186C0.967771 55.0321 2.83061 50.3559 5.1618 45.8502C6.21152 43.8204 7.42637 41.8763 8.56783 39.8947C8.64605 39.7588 8.73779 39.6297 8.85561 39.4477L8.85754 39.4457Z" fill="#628CA5"/>
<path d="M15.0178 3.05031C14.6876 3.84798 14.3776 4.59459 14.0734 5.32771C13.1444 5.4173 12.1632 5.44813 11.2062 5.61672C8.55439 6.08492 6.63941 8.23997 6.32556 10.9114C5.98563 13.8082 6.65583 16.5365 7.62829 19.2108C9.32985 23.8928 11.8754 28.1248 14.7349 32.1768C17.8106 36.535 21.262 40.5831 24.9896 44.399C27.9852 47.4664 31.1315 50.37 34.4593 53.0751C34.5201 53.1252 34.5781 53.1782 34.7229 53.3044C32.6563 54.9142 30.6177 56.5028 28.5222 58.1347C26.9133 56.7137 25.3296 55.3602 23.796 53.9527C20.1602 50.6176 16.7754 47.0415 13.6813 43.1987C9.0498 37.4474 5.03442 31.3242 2.3517 24.4034C1.37248 21.8784 0.616341 19.2879 0.30442 16.5924C-0.00363827 13.9306 0.0388526 11.2871 1.11947 8.76212C2.41544 5.73136 4.77271 3.97514 7.91703 3.20734C10.2569 2.63606 12.621 2.71216 15.0188 3.05031H15.0178Z" fill="#628CA5"/>
<path d="M46.6824 35.5394C46.6582 41.4275 41.8974 46.1364 36.0076 46.1249C30.3302 46.1133 25.3945 41.5778 25.3926 35.5105C25.3906 29.5704 30.2095 24.8267 36.0838 24.8576C41.9659 24.8884 46.7065 29.6667 46.6824 35.5394Z" fill="#628CA5"/>
<path d="M37.7793 64.7744C38.6513 64.1116 39.4731 63.5057 40.2737 62.8737C41.3688 62.0086 42.4678 61.1473 43.5223 60.2341C43.8555 59.946 44.0621 59.9826 44.3847 60.183C47.0548 61.84 49.8167 63.3226 52.7245 64.5307C55.2024 65.5596 57.7403 66.3881 60.4182 66.6771C62.2675 66.8774 64.113 66.8196 65.8309 65.9738C67.7652 65.021 68.7387 63.3795 69.0429 61.3121C69.4002 58.8825 68.9241 56.5395 68.2017 54.2323C67.096 50.7015 65.4186 47.4386 63.4978 44.2923C62.8382 43.2123 62.1458 42.1526 61.4486 41.0515C61.9488 40.3434 62.4626 39.617 63.0246 38.8213C63.7624 39.9976 64.4867 41.1064 65.1646 42.2432C67.546 46.2392 69.5634 50.399 70.8149 54.897C71.461 57.2187 71.882 59.577 71.825 61.9922C71.77 64.2754 71.3287 66.4719 70.0462 68.4237C68.616 70.5989 66.5513 71.8629 64.0618 72.4602C61.7219 73.0208 59.3579 72.9698 56.988 72.6133C51.3754 71.7694 46.2803 69.5383 41.3572 66.8437C40.1655 66.1915 39.0057 65.4844 37.7803 64.7725L37.7793 64.7744Z" fill="#628CA5"/>
<path d="M66.4354 29.1864C61.7952 29.2924 57.4119 25.5372 57.3888 20.177C57.3675 15.258 61.4746 11.2013 66.4132 11.21C71.4049 11.2186 75.4048 15.2311 75.4213 20.2252C75.4377 25.2809 71.2253 29.2645 66.4354 29.1874V29.1864Z" fill="#628CA5"/>
<path d="M36.8467 10.7658C37.739 10.1907 38.5733 9.63577 39.4251 9.10688C43.3265 6.68786 47.3844 4.59157 51.7609 3.1523C54.9333 2.10897 58.1664 1.42498 61.5309 1.6639C64.3228 1.86235 66.8316 2.74383 68.7572 4.88829C70.1266 6.41234 70.8364 8.23985 71.1647 10.234C71.2101 10.5086 71.2372 10.787 71.2826 11.1434C69.1397 10.077 66.9688 9.69357 64.6337 10.0828C64.5478 9.76197 64.4724 9.44117 64.3759 9.12615C63.611 6.64933 61.6304 5.09541 59.0317 4.82471C56.3094 4.54051 53.7425 5.16478 51.2153 6.03952C47.0232 7.49131 43.2145 9.68586 39.5352 12.1213C39.2252 12.3265 39.0301 12.3313 38.7433 12.1135C38.1475 11.6617 37.5256 11.2446 36.8457 10.7648L36.8467 10.7658Z" fill="#628CA5"/>
<path d="M27.4085 6.99797C27.4085 10.4247 24.6311 13.1722 21.1807 13.1587C17.735 13.1462 15.0147 10.4044 15.0156 6.94402C15.0166 3.51155 17.7727 0.784252 21.2357 0.789069C24.6842 0.793886 27.4085 3.53467 27.4085 6.99797Z" fill="#628CA5"/>
<path d="M56.0491 29.7852C55.7545 30.2139 55.4851 30.6108 55.2099 31.0038C54.9627 31.3564 54.7087 31.7052 54.4402 32.079C46.6634 23.398 38.0146 15.8057 27.8555 10.091C28.0766 9.28953 28.2881 8.52365 28.5189 7.68359C39.1445 13.2384 48.1149 20.8528 56.0481 29.7852H56.0491Z" fill="#628CA5"/>
<path d="M31.6817 14.5547C32.432 15.0797 33.1795 15.6028 33.9714 16.1577C27.873 20.9804 22.3926 26.3926 17.3836 32.3683C16.8196 31.6092 16.272 30.8732 15.7129 30.1217C20.5172 24.3868 25.7996 19.1885 31.6817 14.5557V14.5547Z" fill="#628CA5"/>
</g>
<defs>
<clipPath id="clip0_581_12287">
<rect width="75.2811" height="73.3508" fill="white" transform="translate(0.140625 0.789062)"/>
</clipPath>
</defs>
</svg>
