<svg width="144" height="78" viewBox="0 0 144 78" fill="none" xmlns="http://www.w3.org/2000/svg">
<g clip-path="url(#clip0_583_17566)">
<path d="M49.959 77.6072C49.959 53.1262 49.959 28.6531 49.959 4.17217C49.959 0.552083 50.4958 0.00788691 54.1195 0.00788691C82.3902 0 110.645 0 138.908 0C139.508 0 140.108 0.0315476 140.7 0.110417C142.453 0.339137 142.982 0.891221 143.14 2.65789C143.203 3.34405 143.203 4.04598 143.203 4.74003C143.203 28.6216 143.203 52.5031 143.203 76.3768C143.203 76.7869 143.179 77.1971 143.171 77.6072H138.055C138 77.2049 137.905 76.8106 137.905 76.4084C137.897 66.1633 137.905 55.9103 137.905 45.6652V44.5847H128.59C128.59 48.118 128.59 51.5883 128.59 55.0506C128.59 57.8032 127.5 58.8915 124.753 58.8994C120.679 58.9152 116.613 58.9468 112.54 58.9546C109.966 58.9546 108.853 57.8426 108.853 55.2557C108.853 54.1515 108.9 53.0473 108.908 51.9432C108.916 49.5219 108.908 47.1006 108.908 44.6399H99.2216V77.6072H93.9164C93.8611 77.2049 93.7664 76.8106 93.7664 76.4084C93.7585 66.1948 93.7664 55.9734 93.7664 45.7598C93.7664 45.3892 93.7664 45.0264 93.7664 44.5768C90.7348 44.5768 87.8375 44.5768 84.9402 44.5768C84.7586 44.5768 84.577 44.632 84.2928 44.6714C84.2928 45.0342 84.2928 45.3734 84.2928 45.7125C84.2928 48.9304 84.2928 52.1482 84.2928 55.3582C84.2928 57.8426 83.2586 58.8837 80.7955 58.8915C77.7323 58.8915 74.6692 58.8679 71.614 58.8679C70.3193 58.8679 69.0246 58.9231 67.7298 58.8837C65.9062 58.8363 64.9509 57.9688 64.6746 56.1706C64.6114 55.7368 64.5878 55.2951 64.5878 54.8534C64.6036 51.7618 64.6272 48.678 64.643 45.5863C64.643 45.2472 64.643 44.9081 64.643 44.5374H55.0747V77.5993H49.959V77.6072ZM99.0005 5.31578V6.46726C99.0005 15.3874 99.0005 24.3153 99.0005 33.2354C99.0005 34.6235 98.969 36.0037 99.0321 37.3918C99.0795 38.4802 99.6716 39.0717 100.753 39.1743C101.566 39.2531 102.387 39.2058 103.208 39.2058C114.348 39.2058 125.495 39.2058 136.634 39.2058C137.005 39.2058 137.376 39.2058 137.779 39.2058V5.38676H128.566C128.566 5.7811 128.566 6.12024 128.566 6.45938C128.574 9.61414 128.598 12.761 128.59 15.9158C128.59 18.5421 127.445 19.6778 124.848 19.6778C120.742 19.6778 116.645 19.6778 112.54 19.6778C109.84 19.6778 108.845 18.6525 108.861 15.9394C108.877 12.7216 108.885 9.51161 108.893 6.29375C108.893 5.9625 108.893 5.63125 108.893 5.31578H99.0084H99.0005ZM93.8216 38.9377V5.41042H84.2849C84.2849 5.82842 84.2849 6.16756 84.2849 6.51459C84.3086 9.57471 84.3165 12.6269 84.3481 15.6871C84.3796 18.5263 83.2507 19.6936 80.4481 19.6936C76.4692 19.6936 72.4982 19.6936 68.5193 19.6936C65.6772 19.6936 64.572 18.5894 64.5799 15.7265C64.5878 12.6664 64.6193 9.60625 64.6351 6.54613C64.6351 6.15179 64.5799 5.74956 64.5562 5.34732H55.1537V38.9456H93.8216V38.9377Z" fill="#628CA5"/>
<path d="M35.0856 43.2518C36.6961 43.2518 38.1724 43.1887 39.6408 43.2755C40.6987 43.3307 41.7803 43.4726 42.7987 43.7566C44.2908 44.1667 45.0644 45.2708 45.2223 46.8088C45.5302 49.7822 44.9223 52.582 43.4855 55.1847C43.1855 55.7289 42.7671 56.2337 42.3013 56.6438C36.8461 61.4706 31.3672 66.2816 25.8883 71.0926C23.6463 73.0564 21.9094 73.0485 19.7226 71.0216C14.4569 66.1238 9.12801 61.2892 3.42807 56.8883C0.759682 54.8061 0.191268 51.8801 0.546527 48.7017C0.672841 47.5738 0.878102 46.4539 1.11494 45.3497C1.43862 43.8512 2.32282 43.1729 3.87017 43.1572C5.82015 43.1493 7.76223 43.1572 9.71221 43.1572C9.95695 43.1572 10.2017 43.1177 10.549 43.0783V41.9268C10.549 30.7589 10.549 19.5911 10.549 8.42321C10.549 7.57143 10.5964 6.71964 10.7069 5.88363C10.8648 4.66904 11.3859 4.16428 12.5938 4.00654C13.3122 3.91979 14.0385 3.88824 14.7648 3.88824C20.1331 3.88035 25.5015 3.88035 30.8699 3.88824C31.533 3.88824 32.1962 3.91979 32.8514 3.98288C34.2725 4.11696 34.8567 4.70848 34.9751 6.15178C35.0303 6.84583 35.0698 7.53988 35.0698 8.22604C35.0698 19.4885 35.0698 30.7511 35.0698 42.0136C35.0698 42.4158 35.0698 42.8101 35.0698 43.2518H35.0856Z" fill="#628CA5"/>
</g>
<defs>
<clipPath id="clip0_583_17566">
<rect width="142.759" height="77.6072" fill="white" transform="translate(0.451172)"/>
</clipPath>
</defs>
</svg>
