<svg width="141" height="77" viewBox="0 0 141 77" fill="none" xmlns="http://www.w3.org/2000/svg">
<g clip-path="url(#clip0_583_17573)">
<path d="M87.2675 76.607C87.2675 65.8764 87.2675 55.1535 87.2675 44.3614H77.8919C77.8919 44.7229 77.8919 45.0537 77.8919 45.3845C77.9151 48.3998 77.9383 51.4074 77.946 54.4228C77.946 54.8535 77.9228 55.2843 77.8609 55.7074C77.5979 57.4612 76.6619 58.3073 74.8672 58.3535C73.5986 58.3842 72.3299 58.3304 71.0613 58.3381C68.0598 58.3381 65.0584 58.3688 62.0646 58.3611C59.6511 58.3611 58.6455 57.3381 58.6377 54.9151C58.6377 51.7766 58.6377 48.6382 58.6377 45.5075C58.6377 45.1768 58.6377 44.846 58.6377 44.4922C58.3592 44.446 58.1813 44.3999 58.0034 44.3999C55.1644 44.3999 52.3254 44.3999 49.3549 44.3999C49.3549 44.8383 49.3549 45.1922 49.3549 45.5537C49.3549 55.515 49.3549 65.4841 49.3549 75.4455C49.3549 75.8378 49.2621 76.2224 49.2079 76.6147H44.0095C44.0095 65.9226 44.0095 55.2227 44.0095 44.4614H34.5178C34.5178 46.869 34.5178 49.2229 34.5178 51.5843C34.5178 52.6613 34.572 53.7382 34.572 54.8151C34.572 57.3304 33.4813 58.4227 30.9594 58.4227C26.9678 58.4227 22.9839 58.3842 18.9923 58.3688C16.3003 58.3611 15.2328 57.2996 15.2328 54.6151C15.2328 51.2382 15.2328 47.8536 15.2328 44.4076H6.10464V45.4614C6.10464 55.4535 6.10464 65.4533 6.10464 75.4455C6.10464 75.8378 6.01181 76.2224 5.95766 76.6147H0.937193C0.929457 76.2147 0.90625 75.8147 0.90625 75.4147C0.90625 52.1228 0.90625 28.8309 0.90625 5.53901C0.90625 4.8621 0.90625 4.18519 0.968136 3.50828C1.13059 1.78523 1.64888 1.25447 3.3662 1.02371C3.94638 0.946784 4.53429 0.916016 5.1222 0.916016C32.816 0.916016 60.5098 0.916016 88.2036 0.916016C91.762 0.916016 92.2803 1.45447 92.2803 4.97748C92.2803 28.854 92.2803 52.7228 92.2803 76.5993H87.2675V76.607ZM34.541 6.10054C34.541 6.40823 34.541 6.7313 34.541 7.05437C34.5488 10.1928 34.5565 13.3235 34.572 16.4619C34.5797 19.108 33.605 20.108 30.9672 20.108C26.9446 20.108 22.9298 20.108 18.9072 20.108C16.3544 20.108 15.2405 19.0003 15.2405 16.4388C15.2405 13.3619 15.256 10.2928 15.2637 7.2159C15.2637 6.88514 15.2637 6.55438 15.2637 6.16977H6.23614C6.23614 17.1465 6.23614 28.1001 6.23614 39.1615C6.63066 39.1615 6.99424 39.1615 7.35782 39.1615C18.2729 39.1615 29.1957 39.1615 40.1107 39.1615C40.9153 39.1615 41.7198 39.2076 42.5165 39.1307C43.5686 39.0307 44.1488 38.4461 44.2029 37.3923C44.2648 36.0462 44.2339 34.6923 44.2339 33.3385C44.2339 24.6387 44.2339 15.9311 44.2339 7.23129V6.10823H34.5488L34.541 6.10054ZM87.1824 38.9C87.1824 27.9694 87.1824 17.0927 87.1824 6.139H77.9692C77.9383 6.52361 77.8919 6.91591 77.8919 7.30821C77.9073 10.2928 77.9383 13.2773 77.946 16.2619C77.9538 19.0542 76.8785 20.1311 74.0859 20.1311C70.1871 20.1311 66.2961 20.1311 62.3973 20.1311C59.6434 20.1311 58.5449 19.0003 58.5758 16.2234C58.6068 13.2389 58.6223 10.262 58.6377 7.27744C58.6377 6.94668 58.6377 6.60822 58.6377 6.20054H49.293V38.9C61.9641 38.9 74.5423 38.9 87.1824 38.9Z" fill="#628CA5"/>
<path d="M130.787 33.2694C132.366 33.2694 133.812 33.3309 135.251 33.2463C136.288 33.1925 137.347 33.054 138.345 32.7771C139.807 32.3771 140.565 31.3002 140.72 29.8002C141.022 26.9003 140.426 24.1696 139.018 21.6311C138.724 21.1004 138.314 20.6081 137.858 20.2081C132.513 15.5005 127.144 10.8083 121.775 6.11603C119.578 4.20068 117.877 4.20838 115.734 6.18526C110.574 10.9621 105.353 15.6774 99.7674 19.9696C97.1527 21.985 96.588 24.8388 96.9438 27.9387C97.0676 29.0387 97.2687 30.131 97.5008 31.2079C97.818 32.6694 98.6844 33.3309 100.201 33.3463C102.111 33.354 104.014 33.3463 105.925 33.3463C106.165 33.3463 106.405 33.3848 106.745 33.4232V34.5463C106.745 45.4384 106.745 56.3305 106.745 67.2226C106.745 68.0534 106.791 68.8841 106.9 69.6995C107.054 70.8841 107.565 71.3764 108.749 71.5302C109.452 71.6149 110.164 71.6456 110.876 71.6456C116.136 71.6533 121.396 71.6533 126.657 71.6456C127.306 71.6456 127.956 71.6149 128.598 71.5533C129.991 71.4226 130.563 70.8456 130.679 69.438C130.733 68.7611 130.772 68.0841 130.772 67.4149C130.772 56.4305 130.772 45.4461 130.772 34.4617C130.772 34.0694 130.772 33.6848 130.772 33.254L130.787 33.2694Z" fill="#628CA5"/>
</g>
<defs>
<clipPath id="clip0_583_17573">
<rect width="139.885" height="75.691" fill="white" transform="translate(0.90625 0.916016)"/>
</clipPath>
</defs>
</svg>
