<svg width="137" height="96" viewBox="0 0 137 96" fill="none" xmlns="http://www.w3.org/2000/svg">
<g clip-path="url(#clip0_583_17580)">
<path d="M105.695 19.7749C105.695 19.1691 105.695 18.6776 105.695 18.1747C105.695 13.3281 105.695 8.49294 105.695 3.64636C105.695 0.720128 104.99 0 102.092 0C79.8482 0 57.5934 0 35.3386 0C32.5539 0 31.8265 0.742989 31.8265 3.60064C31.8265 8.49294 31.781 13.3738 31.8492 18.2661C31.872 19.5235 31.5082 19.9235 30.258 19.9121C26.0753 19.855 21.9039 19.8778 17.7212 19.8893C15.1411 19.8893 14.3795 20.6551 14.3795 23.227C14.3795 28.165 14.3795 33.0916 14.3795 38.0296C14.3795 38.5554 14.3227 39.0812 14.3 39.5499C14.0727 39.6413 13.9931 39.6985 13.9022 39.7099C10.5833 39.7328 7.27574 39.7442 3.95684 39.7556C1.56996 39.7556 0.740234 40.5558 0.740234 42.9219C0.740234 59.4963 0.740234 76.0821 0.740234 92.6565C0.740234 94.954 1.59269 95.8113 3.85454 95.8113C9.34437 95.8113 14.8456 95.8113 20.3354 95.8113C58.1617 95.8113 95.9994 95.8113 133.826 95.8113C135.86 95.8113 136.781 94.9312 136.781 92.9194C136.781 76.1621 136.781 59.3934 136.781 42.6362C136.781 40.7044 135.849 39.7671 133.939 39.7556C130.939 39.7442 127.95 39.7556 124.949 39.7556C124.381 39.7556 123.812 39.7556 123.198 39.7556C123.176 39.1841 123.142 38.8183 123.142 38.464C123.142 33.3545 123.142 28.2336 123.142 23.1241C123.142 20.7123 122.335 19.8893 119.971 19.8893C115.833 19.8778 111.707 19.8893 107.57 19.8893C106.99 19.8893 106.422 19.8207 105.706 19.7864L105.695 19.7749Z" fill="#628CA5"/>
<path d="M105.692 19.7749C106.408 19.8207 106.988 19.8778 107.556 19.8778C111.694 19.8778 115.82 19.8778 119.957 19.8778C122.332 19.8778 123.128 20.7123 123.128 23.1127C123.128 28.2222 123.128 33.3431 123.128 38.4526C123.128 38.8069 123.162 39.1727 123.185 39.7442C123.799 39.7442 124.367 39.7442 124.935 39.7442C127.936 39.7442 130.925 39.7214 133.926 39.7442C135.824 39.7442 136.767 40.6815 136.767 42.6247C136.767 59.382 136.767 76.1507 136.767 92.908C136.767 94.9197 135.847 95.7999 133.812 95.7999C95.9858 95.7999 58.148 95.7999 20.3217 95.7999C14.8319 95.7999 9.33069 95.7999 3.84087 95.7999C1.57902 95.7999 0.726562 94.9426 0.726562 92.6451C0.726562 76.0707 0.726562 59.4849 0.726562 42.9105C0.726562 40.5444 1.55629 39.7442 3.95453 39.7328C7.27343 39.7214 10.581 39.7099 13.8999 39.6871C13.9794 39.6871 14.059 39.6299 14.2977 39.527C14.3204 39.0698 14.3772 38.5326 14.3772 38.0068C14.3772 33.0687 14.3772 28.1422 14.3772 23.2041C14.3772 20.6322 15.1388 19.8664 17.7189 19.8664C21.9016 19.8664 26.0729 19.8207 30.2557 19.8893C31.5059 19.9121 31.8583 19.5006 31.8469 18.2432C31.7787 13.3624 31.8128 8.47008 31.8242 3.57778C31.8356 0.74299 32.5516 0 35.3363 0C57.5911 0 79.8459 0 102.089 0C104.988 0 105.692 0.720128 105.692 3.64636C105.692 8.49294 105.692 13.3281 105.692 18.1747C105.692 18.6662 105.692 19.1577 105.692 19.7749ZM68.8208 24.8616C52.931 24.8616 37.0412 24.873 21.1514 24.8387C19.833 24.8387 19.3556 25.113 19.367 26.5533C19.4124 47.4142 19.4124 68.2864 19.367 89.1473C19.367 90.3475 19.6284 90.7933 20.9355 90.7819C30.7444 90.7247 40.5533 90.7361 50.3509 90.7819C51.5671 90.7819 51.8853 90.4161 51.874 89.2273C51.8171 83.6149 51.8512 77.991 51.8512 72.3786C51.8512 69.6467 52.5105 68.9723 55.2042 68.9723C64.1039 68.9723 73.0035 68.9723 81.9032 68.9723C85.1312 68.9723 85.654 69.4981 85.654 72.813C85.654 78.3339 85.654 83.8664 85.6313 89.3873C85.6313 90.3132 85.7904 90.7933 86.8815 90.7819C96.8269 90.7476 106.772 90.7476 116.706 90.7819C117.718 90.7819 118.138 90.5647 118.138 89.4216C118.104 68.5151 118.104 47.597 118.093 26.6905C118.093 25.4788 117.46 24.873 116.195 24.873C100.396 24.873 84.5969 24.873 68.7981 24.873L68.8208 24.8616ZM100.498 19.7864C100.578 19.5235 100.646 19.3977 100.646 19.272C100.657 14.8369 100.646 10.4133 100.68 5.97821C100.68 4.98374 100.066 5.05233 99.407 5.05233C78.9707 5.05233 58.5345 5.05233 38.0983 5.02947C37.0412 5.02947 36.7912 5.40668 36.8139 6.38971C36.8707 8.90444 36.8366 11.4192 36.8366 13.9225C36.8366 15.8314 36.8366 17.7403 36.8366 19.7864H100.498ZM80.5279 90.679C80.5961 90.3818 80.6984 90.1189 80.6984 89.856C80.7097 84.9294 80.6984 80.0028 80.7211 75.0762C80.7211 74.0017 80.1301 73.9332 79.3231 73.9332C72.2875 73.9446 65.2632 73.9675 58.2276 73.9217C57.0683 73.9217 56.7614 74.3447 56.7728 75.442C56.8182 80.0485 56.7841 84.6551 56.7955 89.2616C56.7955 89.7074 56.8637 90.1532 56.8978 90.679H80.5165H80.5279ZM123.219 44.8766V90.6561H131.653V44.8766H123.219ZM14.2863 90.759V44.7851C11.9676 44.7851 9.7967 44.7851 7.62578 44.7851C6.38309 44.7851 5.76174 45.3909 5.76174 46.6026C5.76174 60.6965 5.76174 74.7905 5.76174 88.8958C5.76174 89.2616 5.67081 89.6617 5.79584 89.9817C5.9095 90.2789 6.23912 90.7133 6.48917 90.7247C9.05791 90.7819 11.638 90.759 14.2977 90.759H14.2863Z" fill="#F5F5F5"/>
<path d="M80.5309 90.6791H56.9121C56.8667 90.1533 56.8098 89.7075 56.8098 89.2617C56.8098 84.6552 56.8326 80.0487 56.7871 75.4421C56.7871 74.3448 57.0826 73.9219 58.242 73.9219C65.2776 73.9676 72.3018 73.9447 79.3374 73.9333C80.1444 73.9333 80.7468 74.0019 80.7355 75.0764C80.7014 80.003 80.7241 84.9296 80.7127 89.8561C80.7127 90.119 80.6104 90.382 80.5422 90.6791H80.5309Z" fill="#628CA5"/>
<path d="M123.232 44.8765H131.666V90.656H123.232V44.8765Z" fill="#628CA5"/>
<path d="M14.2886 90.7591C11.6289 90.7591 9.06017 90.7819 6.48006 90.7248C6.24138 90.7248 5.90039 90.2904 5.78673 89.9818C5.66171 89.6617 5.75263 89.2616 5.75263 88.8959C5.75263 74.8019 5.75263 60.708 5.75263 46.6026C5.75263 45.391 6.37398 44.7852 7.61667 44.7852C9.7876 44.7852 11.9585 44.7852 14.2772 44.7852V90.7591H14.2886Z" fill="#628CA5"/>
<path d="M40.125 47.5057V36.2122C41.5003 36.2122 42.7733 36.1665 44.0236 36.2465C44.3077 36.2694 44.7965 36.7609 44.8078 37.0352C44.8647 40.4873 44.8419 43.9507 44.8419 47.4942H40.125V47.5057Z" fill="#F5F5F5"/>
<path d="M92.7008 47.5056C92.7008 43.9393 92.6781 40.4415 92.7349 36.9438C92.7349 36.6923 93.2805 36.2694 93.5987 36.2465C94.633 36.1551 95.6901 36.1665 96.7244 36.2465C96.9972 36.2694 97.4746 36.6809 97.4746 36.9209C97.52 40.4187 97.5087 43.9279 97.5087 47.5056H92.6895H92.7008Z" fill="#F5F5F5"/>
<path d="M66.4023 63.3826V52.2378H71.0738V63.3826H66.4023Z" fill="#F5F5F5"/>
<path d="M26.9395 36.201C28.3375 36.201 29.5991 36.1553 30.8608 36.2353C31.1449 36.2581 31.6336 36.7497 31.6336 37.024C31.6905 40.476 31.6677 43.9281 31.6677 47.483H26.9395V36.201Z" fill="#F5F5F5"/>
<path d="M57.9905 36.2808V47.4599H53.3418V36.2808H57.9905Z" fill="#F5F5F5"/>
<path d="M71.0717 47.5169H66.457V36.3149H71.0717V47.5169Z" fill="#F5F5F5"/>
<path d="M84.1888 47.5172H79.5742V36.3267H84.1888V47.5172Z" fill="#F5F5F5"/>
<path d="M110.547 47.5056H105.955V36.2808H110.547V47.5056Z" fill="#F5F5F5"/>
<path d="M26.9492 52.2036H31.5979V63.3942H26.9492V52.2036Z" fill="#F5F5F5"/>
<path d="M44.8506 63.4286H40.0087C40.0087 62.0455 40.0087 60.7424 40.0087 59.4279C40.0087 57.3818 40.0428 55.3243 39.9973 53.2782C39.9746 52.3981 40.2701 52.1123 41.168 52.0895C44.8506 52.0323 44.8506 52.0094 44.8506 55.6787V63.4172V63.4286Z" fill="#F5F5F5"/>
<path d="M53.3535 52.2148H57.9227V63.4168H53.3535V52.2148Z" fill="#F5F5F5"/>
<path d="M84.246 52.1236V63.3828H79.4722C79.4722 61.954 79.4722 60.5137 79.4722 59.0735C79.4722 57.1645 79.5177 55.2442 79.4495 53.3353C79.4154 52.3523 79.7678 52.0551 80.6998 52.1122C81.8591 52.1808 83.0185 52.1236 84.246 52.1236Z" fill="#F5F5F5"/>
<path d="M105.932 52.2036H110.58V63.3942H105.932V52.2036Z" fill="#F5F5F5"/>
<path d="M26.9258 79.2941V68.1836H31.62V79.2941H26.9258Z" fill="#F5F5F5"/>
<path d="M110.592 68.1377V79.3168H105.932V68.1377H110.592Z" fill="#F5F5F5"/>
<path d="M97.5216 63.497C96.0327 63.497 94.8165 63.5541 93.6003 63.4627C93.2707 63.4398 92.7252 62.9369 92.7252 62.6397C92.657 59.4505 92.6911 56.2614 92.6797 53.0722C92.6797 52.375 92.9752 52.1578 93.6685 52.1121C97.5216 51.872 97.5216 51.8492 97.5216 55.6556C97.5216 58.2046 97.5216 60.7536 97.5216 63.5084V63.497Z" fill="#F5F5F5"/>
<path d="M44.8166 68.0348V79.3053H40.0087C40.0087 78.0823 40.0087 76.8706 40.0087 75.659C40.0087 73.51 40.0428 71.3725 39.9973 69.2235C39.9746 68.3434 40.2588 67.9776 41.168 68.0233C42.3388 68.0805 43.5095 68.0348 44.8166 68.0348Z" fill="#F5F5F5"/>
<path d="M97.4319 79.3742H92.7832V68.1836H97.4319V79.3742Z" fill="#F5F5F5"/>
</g>
<defs>
<clipPath id="clip0_583_17580">
<rect width="136.052" height="95.8113" fill="white" transform="translate(0.740234)"/>
</clipPath>
</defs>
</svg>
