<svg width="94" height="95" viewBox="0 0 94 95" fill="none" xmlns="http://www.w3.org/2000/svg">
<g clip-path="url(#clip0_583_17609)">
<path d="M64.9923 53.9303L64.4207 53.1003C64.1705 53.1942 63.9399 53.2881 63.724 53.3795C62.0313 54.1106 61.364 54.8344 61.2561 55.9311C61.1629 56.8821 61.2021 57.843 61.7467 58.8409C63.8393 58.6754 65.9294 58.5149 68.0219 58.3543C69.2117 58.2605 70.4015 58.1691 71.5913 58.0777C71.6747 58.0703 71.7557 58.0258 72.0427 57.9295C69.7588 56.356 67.4086 55.0246 64.9923 53.9303ZM76.2499 23.2512C75.1092 23.2586 75.9898 24.4122 75.3152 24.8296L73.5563 27.0256H71.9397V29.6637H78.2075V23.2512C77.5157 23.2512 76.8828 23.2463 76.2499 23.2512ZM64.9923 53.9303C64.5728 53.7376 64.1484 53.5548 63.724 53.3795C62.0313 54.1106 61.364 54.8344 61.2561 55.9311C61.1629 56.8821 61.2021 57.843 61.7467 58.8409C63.8393 58.6754 65.9294 58.5149 68.0219 58.3543C69.2117 58.2605 70.4015 58.1691 71.5913 58.0777C71.6747 58.0703 71.7557 58.0258 72.0427 57.9295C69.7588 56.356 67.4086 55.0246 64.9923 53.9303Z" fill="#628CA5"/>
<path d="M83.4173 64.9176C82.9659 64.3569 82.9021 63.9518 83.2186 63.2972C86.6874 56.1363 90.1194 48.9556 93.5587 41.7799C93.701 41.4884 93.8138 41.1821 93.9635 40.8313C88.8952 38.255 83.9202 35.7256 78.8887 33.1665C75.6898 39.8705 72.5473 46.4583 69.4391 52.9721C66.9884 51.9494 64.6702 50.9342 62.3102 50.0202L64.4199 53.1005L64.9915 53.9305C67.4079 55.0247 69.758 56.3561 72.0419 57.9296C71.7549 58.026 71.674 58.0704 71.5905 58.0778C70.4008 58.1692 69.211 58.2606 68.0212 58.3545C65.9286 58.515 63.8385 58.6756 61.746 58.8411C61.2014 57.8432 61.1621 56.8823 61.2553 55.9313C61.3633 54.8345 62.0305 54.1108 63.7232 53.3796C59.0107 51.4208 54.0504 50.3438 48.8178 50.119C36.5519 49.5954 25.0564 54.3776 17.3411 61.7312C18.4475 62.2474 19.5122 62.7439 20.5769 63.2454C21.5459 63.6999 22.9 63.9172 23.3735 64.683C23.8739 65.4907 23.528 66.827 23.5575 67.9312C23.6139 70.0456 23.1429 69.6134 25.2722 70.3001C26.6337 70.7397 27.5561 71.4882 28.2774 72.743C29.6511 75.1415 31.1746 77.4536 32.6612 79.7854C32.9678 80.2646 33.0439 80.6549 32.8182 81.2156C31.8075 83.7203 30.8557 86.2473 29.8376 88.8829C28.3387 88.4259 26.8643 87.9813 25.39 87.5293C24.5731 87.2773 23.7709 86.9587 22.9393 86.7857C22.5983 86.7166 22.0807 86.8327 21.8378 87.0673C20.6725 88.2011 19.6005 89.4337 18.4303 90.5626C18.1016 90.8788 17.5521 91.1258 17.1007 91.1282C12.6948 91.1579 8.28648 91.1505 3.88059 91.0961C3.07104 91.0863 2.77666 91.3357 2.80855 92.1237C2.84044 92.9166 2.81591 93.7145 2.81591 94.6679H0.0683594C0.343114 94.7297 0.61787 94.8433 0.895078 94.8458C31.6088 94.8532 62.3249 94.8532 93.0386 94.8532L92.8301 94.5494H91.3288C91.3042 93.7639 91.2674 92.9784 91.2159 92.1929L91.0785 91.9928C91.1202 92.0027 91.1619 92.0101 91.2037 92.0101C91.2086 92.0718 91.211 92.1336 91.2159 92.1929L92.8301 94.5494H93.831C93.8531 94.3345 93.8874 94.1838 93.8801 94.0331C93.8359 92.9265 93.8138 91.8174 93.7255 90.7133C92.9405 81.0402 89.4766 72.4466 83.4173 64.9176ZM44.5419 66.3503C43.438 66.9209 42.2972 67.4223 41.0976 67.9831C42.1942 70.3396 43.2515 72.6121 44.3579 74.9859C42.1059 75.3737 39.9545 75.7615 37.7932 76.095C37.5822 76.1271 37.2216 75.8949 37.0965 75.685C34.6605 71.5944 32.2417 67.494 29.8474 63.3763C29.71 63.1441 29.7125 62.7093 29.8351 62.4598C30.7305 60.6394 31.6529 58.8337 32.6195 57.0552C32.7495 56.8156 33.1886 56.5908 33.4683 56.6106C36.7899 56.8329 40.1115 57.0898 43.4306 57.3812C43.6538 57.401 43.9948 57.7567 44.0316 57.9914C44.407 60.5159 44.748 63.0453 45.0423 65.5796C45.0693 65.8192 44.7848 66.2243 44.5419 66.3503Z" fill="#628CA5"/>
<path d="M52.0363 0V16.4437H61.3657V17.6936C61.3657 28.0163 61.3755 38.339 61.3461 48.6642C61.3461 49.4447 61.5988 49.751 62.3102 50.0252C64.6702 50.9367 66.9909 51.9519 69.4391 52.977C72.5473 46.4608 75.6898 39.8754 78.8887 33.1715C83.9202 35.7305 88.8952 38.2599 93.9635 40.8363C93.8163 41.187 93.701 41.4909 93.5611 41.7848C90.1218 48.9606 86.6874 56.1413 83.221 63.3022C82.9046 63.9568 82.9684 64.3594 83.4197 64.9201C89.4791 72.4516 92.943 81.0452 93.728 90.7158C93.8163 91.8199 93.8384 92.929 93.8825 94.0356C93.8899 94.1863 93.8555 94.337 93.8335 94.5494H91.3288C91.1914 90.1698 90.7008 85.8249 89.2951 81.5417C87.7398 82.1049 86.2458 82.6236 84.7763 83.2065C84.5605 83.293 84.3863 83.6536 84.3152 83.9179C83.8196 85.7903 83.3412 87.6651 82.8972 89.5498C82.7868 90.0192 82.6126 90.2143 82.1171 90.2316C78.6311 90.3428 75.1452 90.4984 71.6592 90.5824C71.333 90.5898 70.8742 90.2835 70.6853 89.9895C69.027 87.4033 67.3809 84.8072 65.8133 82.1641C65.3104 81.3169 64.6849 81.0229 63.76 80.9464C61.6896 80.771 59.624 80.524 57.5658 80.2473C57.1978 80.1979 56.7709 79.9336 56.5379 79.6372C53.8762 76.258 51.2538 72.8468 48.597 69.4652C48.256 69.0304 48.2413 68.7365 48.543 68.2696C50.3068 65.5302 52.0167 62.7587 53.7928 60.0268C53.9964 59.7131 54.4772 59.4315 54.8526 59.3994C60.4286 58.935 66.0096 58.5151 71.5881 58.0828C71.6715 58.0754 71.7525 58.0309 72.0419 57.9346C64.94 53.0462 57.2297 50.4822 48.8178 50.124C36.5519 49.5979 25.0564 54.3825 17.3411 61.7361C18.4475 62.2548 19.5122 62.7513 20.5769 63.2503C21.5459 63.7048 22.9 63.9222 23.3735 64.6879C23.8739 65.4957 23.528 66.8295 23.5575 67.9362C23.6139 70.0506 23.1429 69.6208 25.2722 70.3075C26.6337 70.7472 27.5561 71.4931 28.2774 72.748C29.6511 75.1465 31.1746 77.4585 32.6636 79.7903C32.9703 80.2695 33.0463 80.6598 32.8206 81.2205C31.8099 83.7253 30.8581 86.2522 29.84 88.8878C28.3412 88.4309 26.8668 87.9862 25.3924 87.5342C24.5755 87.2823 23.7733 86.9636 22.9393 86.7932C22.5983 86.7215 22.0807 86.8401 21.8403 87.0748C20.6725 88.2086 19.603 89.4387 18.4303 90.5675C18.1016 90.8837 17.5521 91.1332 17.1007 91.1357C12.6948 91.1653 8.28648 91.1579 3.88059 91.1036C3.07104 91.0937 2.77666 91.3432 2.80855 92.1311C2.84044 92.9241 2.81591 93.7194 2.81591 94.6729H0.0683594C0.0683594 93.9343 0.0683594 93.1933 0.0683594 92.4547C0.213096 91.1456 0.330849 89.8314 0.50993 88.5272C1.71934 79.694 5.04584 71.7747 10.6759 64.8732C11.1469 64.2952 11.1322 63.8802 10.8304 63.2404C7.46222 56.0993 4.12836 48.9408 0.787138 41.7873C0.649761 41.4933 0.532009 41.1895 0.387272 40.8462C5.45552 38.2673 10.433 35.7379 15.4718 33.1739C18.5751 39.8705 21.6293 46.4583 24.6737 53.0314C26.462 52.2261 28.1007 51.3838 29.8155 50.7564C30.7992 50.3957 31.0642 49.914 31.0617 48.8963C31.0274 33.0603 31.0372 17.2243 31.0396 1.38822C31.0396 0.926301 31.0764 0.466856 31.0961 0.00494027C38.0729 0.00494027 45.0522 0.00494027 52.029 0.00494027L52.0363 0ZM88.4218 79.0197C88.3555 78.8047 88.3285 78.6911 88.2868 78.5824C85.6055 71.6092 81.4081 65.713 75.7904 60.8419C75.5107 60.5974 75.0127 60.4739 74.63 60.501C68.5339 60.9481 62.4402 61.4224 56.349 61.9263C55.9933 61.956 55.537 62.2178 55.3407 62.5142C54.1191 64.3569 52.9759 66.2515 51.7689 68.1041C51.4672 68.5685 51.4819 68.8748 51.8254 69.3095C53.7854 71.792 55.7455 74.277 57.6345 76.8138C58.1717 77.5376 58.8022 77.7871 59.6264 77.8686C61.7533 78.0835 63.8753 78.3651 66.0047 78.5602C66.5714 78.6121 66.8559 78.869 67.1307 79.3185C68.74 81.9344 70.3959 84.5231 71.9831 87.1538C72.3584 87.7763 72.7607 87.9517 73.4574 87.9121C75.5941 87.7911 77.7357 87.7219 79.8749 87.6923C80.4907 87.6849 80.7335 87.4453 80.8635 86.887C81.2315 85.3012 81.651 83.7277 82.0092 82.1394C82.1515 81.512 82.4336 81.1711 83.0788 80.9612C84.845 80.3832 86.577 79.6965 88.4218 79.0172V79.0197ZM28.2651 85.6372C28.8269 84.1847 29.3175 82.8286 29.8793 81.5046C30.1148 80.9488 30.0289 80.5363 29.7174 80.0546C28.7631 78.5874 27.7401 77.1498 26.9527 75.5936C26.0425 73.7978 24.7522 72.6492 22.7921 72.2465C22.4069 72.1675 22.0512 71.9575 21.6685 71.8563C21.1411 71.7155 20.9448 71.4141 20.9596 70.8583C20.9939 69.5961 20.9473 68.3338 20.9792 67.0716C20.9915 66.5306 20.7977 66.2318 20.3046 66.0169C18.8768 65.3944 17.4417 64.7744 16.0557 64.063C15.408 63.7295 15.0572 63.853 14.5911 64.3643C9.63818 69.7912 6.17185 76.0407 4.278 83.1596C3.82662 84.8591 3.52733 86.6005 3.15935 88.3222C3.44638 88.3938 3.53469 88.4358 3.62055 88.4358C7.81057 88.4778 12.0006 88.5272 16.1906 88.5346C16.5316 88.5346 16.9462 88.3024 17.1989 88.048C18.477 86.766 19.7354 85.4618 20.9522 84.1205C21.3717 83.6586 21.7372 83.5894 22.3064 83.7771C24.2468 84.4144 26.202 84.9974 28.2676 85.6372H28.2651ZM33.721 2.77396V49.3089C34.0987 49.2224 34.3907 49.1532 34.6851 49.089C36.206 48.758 37.7196 48.3801 39.2529 48.1183C40.0722 47.9775 40.4034 47.7379 40.3985 46.7967C40.3543 37.0891 40.3715 27.3839 40.3764 17.6763C40.3764 17.2934 40.4279 16.913 40.4598 16.461H49.2741V2.77396H33.721ZM43.0675 47.602C48.3615 47.2216 53.5131 47.5921 58.6476 48.8865V19.235H43.0675V47.602ZM71.7696 54.2244C74.9318 56.8057 77.959 59.2759 81.0426 61.7929C84.163 55.2866 87.3252 48.6938 90.5094 42.0516C86.9867 40.2607 83.5915 38.5341 80.0957 36.7581C77.2721 42.6815 74.4902 48.5184 71.7672 54.2269L71.7696 54.2244ZM13.1339 61.9634C13.443 61.6719 13.6516 61.4545 13.8822 61.2643C16.4654 59.1548 19.0314 57.0231 21.6587 54.9704C22.2352 54.5184 22.3456 54.2417 22.0365 53.5773C19.5343 48.2393 17.0713 42.8816 14.5911 37.5312C14.4807 37.2916 14.3335 37.0669 14.179 36.7952C10.7078 38.5613 7.30767 40.2904 3.82416 42.0639C6.93233 48.7111 10.0111 55.2891 13.1339 61.9634Z" fill="#F5F5F5"/>
<path d="M41.0991 67.9828C42.1981 70.3393 43.2554 72.6119 44.3618 74.9857C42.1098 75.3735 39.9584 75.7613 37.7971 76.0948C37.5861 76.1269 37.2255 75.8922 37.1004 75.6822C34.662 71.5917 32.2431 67.4913 29.8488 63.376C29.7115 63.1414 29.7164 62.7066 29.8366 62.4596C30.732 60.6416 31.6544 58.8334 32.6209 57.0549C32.7509 56.8153 33.1901 56.593 33.4673 56.6103C36.7913 56.8326 40.1129 57.0895 43.4296 57.3835C43.6528 57.4032 43.9938 57.7565 44.0306 57.9936C44.406 60.5181 44.7469 63.0475 45.0413 65.5819C45.0683 65.8239 44.7837 66.2266 44.5409 66.3525C43.437 66.9256 42.2962 67.4246 41.0966 67.9853L41.0991 67.9828ZM37.5739 66.6811C38.8986 66.0709 40.1522 65.4509 41.4425 64.9174C42.0926 64.6481 42.306 64.2974 42.1711 63.5983C41.9871 62.635 41.8669 61.6568 41.7835 60.6786C41.7295 60.0685 41.4744 59.8536 40.8709 59.8141C39.0139 59.6906 37.1593 59.5325 35.3071 59.3299C34.6203 59.2558 34.2376 59.4633 33.9726 60.1056C33.6905 60.7824 33.3348 61.4345 32.9595 62.0669C32.6406 62.6029 32.6602 63.0327 32.9914 63.5835C34.7037 66.4192 36.3694 69.2846 38.0498 72.1376C38.8078 73.4245 38.9109 73.4567 40.4269 72.8095C39.4873 70.7914 38.5478 68.7733 37.5739 66.6786V66.6811Z" fill="#F5F5F5"/>
<path d="M71.9388 27.0258H73.553C71.7695 25.2399 70.0106 23.4787 68.2051 21.6706C69.0073 20.89 69.6083 20.3046 70.2927 19.6401C71.9707 21.3766 73.6462 23.1107 75.3119 24.8324C75.9865 24.4149 75.1058 23.2614 76.2466 23.2539C76.8795 23.249 77.5124 23.2539 78.2042 23.2539V29.6664H71.9388V27.0283V27.0258Z" fill="#628CA5"/>
<path d="M28.2625 85.6371C26.1994 84.9974 24.2418 84.4144 22.3013 83.7771C21.7297 83.5894 21.3642 83.6586 20.9471 84.1205C19.7304 85.4618 18.4719 86.766 17.1938 88.048C16.9411 88.3024 16.5241 88.5346 16.1855 88.5346C11.9955 88.5297 7.80551 88.4778 3.61549 88.4358C3.52718 88.4358 3.44132 88.3938 3.1543 88.3222C3.52227 86.598 3.82156 84.859 4.27294 83.1596C6.16679 76.0407 9.63312 69.7912 14.5861 64.3643C15.0522 63.853 15.403 63.7295 16.0506 64.063C17.4367 64.7744 18.8693 65.3944 20.2995 66.0168C20.7901 66.2317 20.9864 66.5306 20.9741 67.0716C20.9447 68.3338 20.9888 69.5985 20.9545 70.8583C20.9398 71.4141 21.136 71.7154 21.6635 71.8562C22.0462 71.9575 22.4019 72.17 22.787 72.2465C24.7496 72.6467 26.0399 73.7978 26.9476 75.5936C27.7351 77.1497 28.7605 78.5874 29.7123 80.0546C30.0263 80.5363 30.1097 80.9513 29.8742 81.5046C29.3149 82.8286 28.8218 84.1847 28.26 85.6371H28.2625Z" fill="#628CA5"/>
<path d="M33.7207 2.77393H49.2738V16.4634H40.4596C40.4277 16.9155 40.3762 17.2983 40.3762 17.6787C40.3713 27.3864 40.3565 37.0915 40.3982 46.7992C40.4031 47.7403 40.072 47.9799 39.2526 48.1207C37.7194 48.3825 36.2058 48.7604 34.6848 49.0914C34.3904 49.1557 34.0985 49.2248 33.7207 49.3113V2.77393ZM39.9444 8.25763V5.6541H37.4544V8.25763H39.9444ZM37.4029 13.7413H39.9346V11.207H37.4029V13.7413ZM42.9348 8.27492C43.6511 8.27492 44.3184 8.29468 44.9808 8.2601C45.1451 8.25269 45.4297 8.07237 45.437 7.95627C45.4812 7.28439 45.4788 6.60511 45.4469 5.93076C45.442 5.81466 45.2212 5.61952 45.0936 5.61211C44.3748 5.58 43.6536 5.59729 42.9324 5.59729V8.27245L42.9348 8.27492ZM45.3438 11.1922H42.9544V13.7537C45.5524 14.0155 45.8173 13.7487 45.4223 11.3428C45.4174 11.3157 45.3953 11.2885 45.3463 11.1922H45.3438Z" fill="#628CA5"/>
<path d="M43.0684 47.5994V19.2349H58.6484V48.8864C53.5164 47.592 48.3623 47.2215 43.0684 47.6019V47.5994ZM46.7849 24.7136C47.5111 24.7136 48.1219 24.7556 48.7205 24.6914C48.9363 24.6692 49.2773 24.4073 49.3019 24.2221C49.3779 23.6515 49.3583 23.0586 49.3043 22.4831C49.2896 22.325 49.0271 22.0755 48.8627 22.0632C48.1783 22.0162 47.489 22.0434 46.7825 22.0434V24.7136H46.7849ZM52.2849 24.7136C53.0331 24.7136 53.671 24.7408 54.3014 24.6963C54.4805 24.684 54.7823 24.4691 54.7921 24.3308C54.8411 23.5897 54.8141 22.8413 54.8141 22.1002H52.2849V24.7136ZM49.1817 27.6407H46.8119V30.185C49.714 30.3085 49.4147 30.6963 49.2651 27.784C49.2651 27.7568 49.2356 27.7321 49.1817 27.6407ZM52.3217 27.6259V30.2541C53.0135 30.2541 53.6268 30.2986 54.2303 30.2319C54.4437 30.2072 54.7823 29.933 54.8019 29.7453C54.8706 29.0586 54.8289 28.3571 54.8289 27.6259H52.3217ZM46.7874 35.6069C47.5061 35.6069 48.171 35.6366 48.8333 35.5872C49.005 35.5748 49.2896 35.3303 49.2994 35.1771C49.3485 34.4583 49.3215 33.737 49.3215 33.0034H46.7874V35.6069ZM54.7209 33.0034H52.2898V35.4884C54.662 35.9676 55.0227 35.6514 54.8117 33.3393C54.8043 33.2504 54.7651 33.164 54.7185 33.0034H54.7209ZM46.7677 40.9646C47.5135 40.9646 48.1538 41.0017 48.7842 40.9424C48.978 40.9251 49.2822 40.6608 49.3019 40.4854C49.3656 39.9099 49.3558 39.3195 49.3019 38.7391C49.2871 38.5834 49.0148 38.3414 48.8505 38.329C48.166 38.2821 47.4767 38.3093 46.7702 38.3093V40.9646H46.7677ZM54.8264 38.3685H52.2947V40.9622C53.016 40.9622 53.6832 40.9992 54.3431 40.9375C54.5173 40.9202 54.7872 40.6188 54.8043 40.4286C54.8608 39.7666 54.8264 39.0948 54.8264 38.3685Z" fill="#628CA5"/>
<path d="M71.7715 54.2217C74.4921 48.5132 77.2764 42.6763 80.1 36.7529C83.5933 38.529 86.991 40.2556 90.5137 42.0464C87.327 48.6886 84.1674 55.2814 81.0469 61.7878C77.9633 59.2707 74.9361 56.8006 71.7739 54.2193L71.7715 54.2217ZM78.4441 48.2638C79.8522 48.9801 81.1892 49.6619 82.5924 50.3757C83.0119 49.5309 83.375 48.7998 83.7675 48.0093C82.3618 47.2955 81.0199 46.6137 79.6265 45.9073C79.2144 46.7298 78.8489 47.4585 78.4441 48.2638ZM85.075 45.433C85.4872 44.5931 85.8453 43.862 86.2378 43.0617C84.8346 42.3478 83.5099 41.6734 82.1165 40.9645C81.7019 41.7846 81.3315 42.5133 80.9243 43.3161C82.3177 44.0275 83.6424 44.7018 85.075 45.433ZM76.0449 53.0435C77.4849 53.7746 78.8072 54.4465 80.1957 55.153C80.6078 54.3205 80.9758 53.5696 81.3658 52.7816C79.9356 52.0554 78.6134 51.3835 77.2298 50.682C76.8299 51.4799 76.4644 52.2086 76.0449 53.0435Z" fill="#628CA5"/>
<path d="M13.1379 61.9607C10.015 55.2889 6.93875 48.7084 3.82812 42.0613C7.31163 40.2902 10.7117 38.5611 14.183 36.7925C14.3351 37.0642 14.4822 37.2865 14.5951 37.5286C17.0728 42.8789 19.5358 48.2366 22.0405 53.5746C22.352 54.2391 22.2416 54.5157 21.6627 54.9677C19.0353 57.0204 16.4693 59.1546 13.8861 61.2616C13.6531 61.4518 13.447 61.6692 13.1379 61.9607ZM9.35021 45.4923C10.7583 44.776 12.1051 44.0917 13.4936 43.3853C13.0766 42.5528 12.7086 41.8217 12.3087 41.0238C10.8859 41.7476 9.53911 42.4343 8.16288 43.1333C8.57992 43.9608 8.95035 44.6944 9.35021 45.4923ZM11.8353 50.4523C13.2949 49.6989 14.6245 49.0122 15.9811 48.3107C15.5248 47.4363 15.1618 46.7397 14.7693 45.9839C13.3587 46.7027 12.0389 47.3745 10.6504 48.081C11.065 48.911 11.4305 49.6421 11.8353 50.4523ZM13.0471 52.8632C13.474 53.7129 13.8395 54.4367 14.2345 55.2222C15.6451 54.5034 16.9649 53.8315 18.3779 53.1127C17.9633 52.2975 17.5953 51.5738 17.1832 50.7611C15.7898 51.47 14.4675 52.1419 13.0471 52.8632Z" fill="#628CA5"/>
<path d="M15.2143 29.6714C15.2143 27.6582 15.2045 25.6673 15.2364 23.6788C15.2364 23.5355 15.5406 23.291 15.7148 23.2786C16.3771 23.2317 17.0468 23.2589 17.7951 23.2589C17.8318 23.8171 17.8613 24.2939 17.9005 24.8991C19.6546 23.0193 21.3325 21.221 23.0399 19.3882C23.8912 20.2478 24.4652 20.8283 25.1448 21.5125C23.3564 23.291 21.5926 25.0423 19.8287 26.7961C19.868 26.8653 19.9048 26.9344 19.944 27.0036H21.6146V29.6714H15.2168H15.2143Z" fill="#628CA5"/>
<path d="M37.572 66.6836C38.5459 68.7758 39.4855 70.794 40.4251 72.8145C38.909 73.4617 38.806 73.4296 38.0479 72.1426C36.3675 69.2872 34.7018 66.4243 32.9895 63.5886C32.6559 63.0377 32.6387 62.6079 32.9576 62.0719C33.333 61.442 33.6887 60.7899 33.9708 60.1106C34.2357 59.4708 34.6184 59.2609 35.3053 59.335C37.155 59.5375 39.012 59.6932 40.8691 59.8191C41.4726 59.8587 41.7277 60.0711 41.7817 60.6837C41.8675 61.6619 41.9853 62.64 42.1693 63.6034C42.3042 64.3024 42.0908 64.6532 41.4407 64.9224C40.1503 65.456 38.8967 66.076 37.572 66.6861V66.6836Z" fill="#628CA5"/>
<path d="M39.947 8.25538H37.457V5.65186H39.947V8.25538Z" fill="#F5F5F5"/>
<path d="M37.4023 13.7414V11.207H39.934V13.7414H37.4023Z" fill="#F5F5F5"/>
<path d="M42.9355 8.27261V5.59746C43.6568 5.59746 44.378 5.58263 45.0968 5.61228C45.2244 5.61722 45.4451 5.81483 45.45 5.93092C45.4819 6.60527 45.4868 7.28456 45.4402 7.95643C45.4329 8.07253 45.1483 8.25038 44.9839 8.26026C44.3216 8.29484 43.6543 8.27508 42.938 8.27508L42.9355 8.27261Z" fill="#F5F5F5"/>
<path d="M45.3411 11.1899C45.3926 11.2863 45.4147 11.3134 45.4171 11.3406C45.8121 13.7441 45.5471 14.0133 42.9492 13.7515V11.1899H45.3386H45.3411Z" fill="#F5F5F5"/>
<path d="M46.7832 24.7161V22.0459C47.4897 22.0459 48.1791 22.0187 48.8635 22.0657C49.0254 22.078 49.2879 22.325 49.3051 22.4856C49.359 23.0611 49.3787 23.654 49.3026 24.2246C49.2781 24.4123 48.9395 24.6717 48.7212 24.6939C48.1226 24.7581 47.5118 24.7161 46.7857 24.7161H46.7832Z" fill="#F5F5F5"/>
<path d="M52.2852 24.7135V22.1001H54.8144C54.8144 22.8411 54.8389 23.5871 54.7923 24.3306C54.7825 24.469 54.4807 24.6839 54.3017 24.6962C53.6712 24.7407 53.0334 24.7135 52.2852 24.7135Z" fill="#F5F5F5"/>
<path d="M49.1823 27.6406C49.2362 27.732 49.2657 27.7567 49.2657 27.7839C49.4153 30.6962 49.7146 30.3084 46.8125 30.1849V27.6406H49.1823Z" fill="#F5F5F5"/>
<path d="M52.3242 27.6284H54.8314C54.8314 28.3596 54.8731 29.0586 54.8044 29.7478C54.7847 29.9355 54.4487 30.2097 54.2328 30.2344C53.6318 30.3011 53.016 30.2566 52.3242 30.2566V27.6284Z" fill="#F5F5F5"/>
<path d="M46.7891 35.6069V33.0034H49.3232C49.3232 33.7346 49.3502 34.4583 49.3011 35.1771C49.2913 35.3303 49.0067 35.5748 48.835 35.5872C48.1726 35.6366 47.5078 35.6069 46.7891 35.6069Z" fill="#F5F5F5"/>
<path d="M54.7216 33.0034C54.7682 33.164 54.805 33.2504 54.8148 33.3394C55.0233 35.6514 54.6627 35.9651 52.293 35.4884V33.0034H54.7241H54.7216Z" fill="#F5F5F5"/>
<path d="M46.77 40.9645V38.3091C47.4765 38.3091 48.1659 38.2819 48.8503 38.3289C49.0171 38.3412 49.287 38.5833 49.3017 38.7389C49.3581 39.3169 49.3679 39.9073 49.3017 40.4853C49.2821 40.6631 48.9779 40.925 48.7841 40.9423C48.1536 41.0015 47.5158 40.9645 46.7676 40.9645H46.77Z" fill="#F5F5F5"/>
<path d="M54.8305 38.3687C54.8305 39.0973 54.8648 39.7667 54.8084 40.4287C54.7912 40.6189 54.5214 40.9228 54.3472 40.9376C53.6898 40.9993 53.0225 40.9623 52.2988 40.9623V38.3687H54.8305Z" fill="#F5F5F5"/>
<path d="M78.4453 48.2637C78.8501 47.4585 79.2156 46.7298 79.6277 45.9072C81.0211 46.6162 82.3655 47.2979 83.7687 48.0093C83.3762 48.7998 83.0131 49.5309 82.5936 50.3757C81.1904 49.6618 79.8534 48.9801 78.4453 48.2637Z" fill="#F5F5F5"/>
<path d="M85.0746 45.4333C83.6419 44.7022 82.3172 44.0278 80.9238 43.3164C81.3311 42.5136 81.699 41.7849 82.1161 40.9648C83.5119 41.6738 84.8342 42.3481 86.2374 43.062C85.8449 43.8623 85.4867 44.5935 85.0746 45.4333Z" fill="#F5F5F5"/>
<path d="M76.0449 53.046C76.4644 52.2111 76.8299 51.4824 77.2298 50.6846C78.6134 51.3861 79.9357 52.058 81.3658 52.7842C80.9758 53.5722 80.6078 54.3231 80.1957 55.1555C78.8072 54.4491 77.4849 53.7772 76.0449 53.046Z" fill="#F5F5F5"/>
<path d="M9.34554 45.4924C8.94322 44.6945 8.57524 43.9609 8.1582 43.1334C9.53443 42.4319 10.8812 41.7477 12.3041 41.0239C12.7039 41.8218 13.0719 42.5529 13.4889 43.3854C12.1004 44.0918 10.7537 44.7761 9.34554 45.4924Z" fill="#F5F5F5"/>
<path d="M11.8333 50.4524C11.4285 49.6422 11.063 48.911 10.6484 48.081C12.0369 47.3746 13.3592 46.7002 14.7673 45.9839C15.1598 46.7397 15.5229 47.4363 15.9792 48.3108C14.6226 49.0123 13.293 49.699 11.8333 50.4524Z" fill="#F5F5F5"/>
<path d="M13.0449 52.8633C14.4678 52.1396 15.7876 51.4702 17.181 50.7612C17.5956 51.5739 17.9635 52.2977 18.3757 53.1128C16.9602 53.8341 15.6404 54.506 14.2323 55.2223C13.8373 54.4368 13.4718 53.713 13.0449 52.8633Z" fill="#F5F5F5"/>
</g>
<defs>
<clipPath id="clip0_583_17609">
<rect width="93.8951" height="94.8532" fill="white" transform="translate(0.0683594)"/>
</clipPath>
</defs>
</svg>
