<svg width="157" height="58" viewBox="0 0 157 58" fill="none" xmlns="http://www.w3.org/2000/svg">
<g clip-path="url(#clip0_981_7998)">
<path d="M127.504 27.5905L115.949 21.0308L116.584 11.8828L125.844 15.8876L127.824 20.8372L127.504 27.5905Z" fill="#8E4C46"/>
<path d="M129.582 27.7929L142.768 20.174L140.598 11.5645L134.211 14.6789L129.582 17.4766L129.863 22.1817" fill="#8E4C46"/>
<path d="M154.328 32.0357L141.172 39.22L133.113 33.658L146.096 26.2168L154.328 32.0357Z" fill="#4F7284"/>
<path d="M141.354 53.7134L132.258 48.5438V35.1729L138.543 38.0744L142.823 40.814L141.354 53.7134Z" fill="#4F7284"/>
<path d="M124.366 33.8606L111.892 26.7168L104.035 31.9726L114.731 39.2203L124.366 33.8606Z" fill="#569182"/>
<path d="M125.015 49.4553L125.065 34.96L116.582 39.5366L117.029 52.9639L121.947 51.1709L125.015 49.4553Z" fill="#569182"/>
<path d="M139.908 51.4401C139.908 48.1532 139.887 45.0933 139.924 42.0352C139.933 41.3173 139.742 40.9231 139.072 40.5571C136.97 39.4081 134.922 38.1589 132.864 36.9307C132.307 36.5981 131.922 34.8245 132.249 34.2878C132.698 33.5523 134.381 33.1863 135.104 33.6069C137.172 34.8139 139.259 35.9911 141.342 37.1753C141.594 37.3195 141.775 37.5166 142.174 37.2773C144.985 35.6004 147.829 33.9781 150.85 32.2291C148.644 30.9869 146.57 29.8396 144.522 28.6502C144.159 28.4408 143.505 28.4056 143.544 27.8566C143.572 27.4624 144.188 27.4783 144.463 27.2372C146.385 25.548 148.159 25.6606 150.229 27.1844C152.071 28.5411 154.226 29.4736 156.234 30.6103C156.727 30.8901 157.005 31.2772 157.001 31.9229C156.975 37.1735 156.976 42.424 156.998 47.6746C157.001 48.3204 156.693 48.6687 156.197 48.9573C151.624 51.6055 147.051 54.2501 142.484 56.9053C142.013 57.178 141.596 57.1446 141.14 56.8754C138.427 55.2706 135.728 53.6395 132.974 52.1087C132.334 51.7533 132.155 51.3873 132.189 50.738C132.228 50.0095 132.178 49.2758 132.207 48.5473C132.223 48.155 131.991 47.6165 132.359 47.4019C132.85 47.1151 133.265 47.6025 133.681 47.8418C135.71 49.0119 137.738 50.1855 139.912 51.4418L139.908 51.4401Z" fill="white"/>
<path d="M117.599 51.3359C120.174 49.8754 122.508 48.5522 125.035 47.12C125.035 48.7018 124.988 50.018 125.058 51.3253C125.088 51.8972 124.707 52.0098 124.392 52.1893C121.688 53.7219 118.941 55.1805 116.284 56.7905C115.747 57.1161 115.427 57.1249 114.997 56.8785C111.683 54.9764 108.376 53.0638 105.068 51.1529C103.799 50.4191 102.546 49.6555 101.259 48.9534C100.739 48.6701 100.503 48.3763 100.508 47.7358C100.541 42.4378 100.54 37.1379 100.51 31.8381C100.506 31.217 100.709 30.9038 101.238 30.6029C103.903 29.0879 106.535 27.5149 109.199 25.9999C109.581 25.7817 109.982 25.4421 110.555 25.8609C111.375 26.4574 112.282 26.9483 113.187 27.4163C114.004 27.8386 113.809 28.0445 113.138 28.4228C111.241 29.4909 109.378 30.6205 107.508 31.7325C106.944 32.0686 106.502 32.2974 107.479 32.8235C109.866 34.108 112.174 35.5332 114.523 36.8881C115.169 37.2611 115.702 37.4828 116.53 36.9391C118.455 35.6757 120.516 34.6112 122.54 33.5009C123.498 32.9766 124.83 33.9162 125.071 34.9578C125.557 37.0588 123.846 37.3209 122.676 38.0283C121.269 38.8781 119.819 39.6576 118.387 40.4688C117.889 40.7521 117.581 41.1058 117.587 41.7533C117.617 44.8572 117.599 47.9593 117.599 51.3359Z" fill="white"/>
<path d="M140.005 21.6505V13.0674C136.959 14.8111 134.062 16.5126 131.114 18.1209C130.553 18.427 130.61 18.7772 130.608 19.2047C130.603 21.4887 130.606 23.7708 130.605 26.0547C130.605 26.9961 129.682 28.073 128.842 28.1222C127.874 28.1785 126.755 27.0331 126.753 25.965C126.748 23.7268 126.742 21.4904 126.758 19.2523C126.762 18.7402 126.714 18.3672 126.18 18.0645C123.407 16.495 120.664 14.8745 117.662 13.1254C117.662 15.705 117.673 18.047 117.65 20.3889C117.646 20.7602 117.887 21.2529 117.439 21.4939C117.021 21.7209 116.685 21.2986 116.321 21.1596C113.973 20.2534 113.164 18.6047 113.476 16.0868C113.738 13.9736 113.597 11.7987 113.498 9.65734C113.459 8.80219 113.772 8.31127 114.419 7.93824C116.959 6.48132 119.509 5.04199 122.056 3.59563C123.985 2.49942 125.928 1.42256 127.835 0.291161C128.588 -0.155769 129.159 -0.0519543 129.901 0.389697C133.679 2.63666 137.498 4.81149 141.304 7.01095C141.919 7.36638 142.508 7.78868 143.16 8.04909C143.756 8.28839 143.834 8.67198 143.83 9.21216C143.818 12.4093 143.819 15.6047 143.828 18.8018C143.828 19.2223 143.844 19.6376 143.413 19.8663C142.329 20.4452 141.235 21.0083 140.003 21.6523L140.005 21.6505Z" fill="white"/>
<path d="M146.792 23.1742C147.116 24.0417 146.403 24.4429 145.749 24.8194C140.934 27.5819 136.119 30.3427 131.278 33.0595C130.668 33.4008 130.525 33.7686 130.528 34.4161C130.555 39.8971 130.544 45.3782 130.542 50.8593C130.542 51.6845 129.342 53.0147 128.658 52.9602C127.767 52.8898 126.689 51.7461 126.689 50.8557C126.687 45.4662 126.666 40.0749 126.708 34.6853C126.716 33.7211 126.457 33.2407 125.542 32.7357C120.718 30.077 115.947 27.3198 111.208 24.515C110.156 23.8921 110.775 22.6815 110.789 21.7525C110.796 21.2493 112.78 20.7267 113.322 21.0381C116.637 22.9367 119.942 24.8529 123.253 26.7602C124.792 27.647 126.332 28.5321 127.873 29.4172C128.45 29.748 128.867 29.7357 129.553 29.3415C134.368 26.5772 139.218 23.8763 143.973 21.0117C145.056 20.3589 146.794 21.6469 146.792 23.1742Z" fill="white"/>
<path d="M153.129 35.1727C153.129 38.8343 153.124 42.2461 153.134 45.6597C153.136 46.1963 153.021 46.5289 152.475 46.8315C149.751 48.343 147.066 49.9231 144.379 51.4997C143.739 51.8745 143.483 51.7566 143.487 51.007C143.495 47.8187 143.492 44.6286 143.487 41.4402C143.487 41.1165 143.467 40.7786 143.787 40.5921C146.852 38.8079 149.922 37.0308 153.127 35.1709L153.129 35.1727Z" fill="#72A0B7"/>
<path d="M113.743 51.8822C111.228 50.4446 109.075 48.9208 106.696 47.9337C104.228 46.9096 103.919 45.2292 104.066 42.9471C104.228 40.4221 104.103 37.8778 104.103 35.1152C106.399 36.4296 108.488 37.6244 110.576 38.8209C110.653 38.8649 110.706 38.9704 110.786 38.9933C113.531 39.7482 114.01 41.6679 113.789 44.2175C113.579 46.658 113.743 49.1302 113.743 51.8822Z" fill="#9CCEC2"/>
<path d="M138.343 9.58561C136.754 10.8279 135.024 11.5757 133.427 12.5346C132.045 13.3669 130.628 14.1411 129.233 14.9541C128.809 15.2022 128.42 15.2004 127.997 14.9523C125.291 13.3669 122.603 11.7516 119.859 10.2349C118.883 9.69471 119.393 9.32872 119.891 9.03487C121.858 7.87355 123.859 6.76855 125.85 5.6477C126.044 5.53861 126.292 5.49462 126.452 5.35209C127.865 4.09576 129.183 4.07289 130.818 5.17086C133.187 6.76327 135.745 8.07942 138.345 9.58561H138.343Z" fill="#C76E61"/>
<path d="M76.5772 21.4829C74.6275 21.6888 73.9417 20.4729 73.7402 18.9896C73.5369 17.4939 74.9528 16.2939 76.602 16.3485C77.8835 16.3907 79.538 18.0359 79.2516 19.2359C78.9352 20.5661 78.2653 21.789 76.5772 21.4829Z" fill="white"/>
<path d="M86.1617 32.9627C85.718 28.4653 82.9111 24.7649 78.2127 23.6018C75.3032 22.8821 72.392 23.4804 69.5037 23.1866C67.9623 23.03 67.4214 23.5684 67.66 25.0552C67.7378 25.5426 67.7325 26.0617 67.66 26.5508C67.4868 27.7333 68.0401 27.9831 69.113 27.9462C71.1917 27.874 73.274 27.9163 75.3545 27.9268C78.865 27.9444 81.4687 30.6524 81.4881 34.124C81.4952 35.3223 81.1912 35.6936 79.9556 35.6742C75.2926 35.6021 70.6279 35.6531 65.9631 35.6425C63.4566 35.6373 62.937 35.0918 62.9334 32.4964C62.9264 27.2107 62.9317 21.9249 62.9317 16.6392C62.9317 13.7447 62.9264 13.8521 59.978 13.7324C58.3712 13.6673 58.1414 14.2532 58.1609 15.6662C58.2404 21.4516 58.175 27.2371 58.205 33.0243C58.2156 35.0513 57.1303 35.5968 55.2849 35.6883C53.284 35.7868 52.6176 34.8366 52.5946 33.0771C52.5875 32.5774 52.6052 32.0759 52.5911 31.5779C52.4196 25.1678 46.3284 22.1642 41.9005 23.5103C39.5531 24.2229 37.8049 25.6306 35.7916 27.0189C35.7916 26.2904 35.7315 25.7819 35.8022 25.2928C36.0373 23.6986 35.5371 22.8734 33.7748 23.2024C33.4283 23.2675 33.0518 23.2587 32.7018 23.2024C31.4132 23 30.9678 23.4347 31.0173 24.8071C31.1304 27.9462 31.0685 31.0923 31.0367 34.2349C31.0314 34.7223 31.4026 35.5387 30.5117 35.6038C29.2284 35.6971 27.7914 35.9593 26.6848 35.5053C25.7887 35.1375 26.471 33.6894 26.3207 32.7357C26.2765 32.456 26.3136 32.1656 26.3136 31.8788C26.3101 27.8283 24.1289 24.8353 20.2277 23.6194C17.3713 22.7291 14.4176 23.4822 11.5293 23.1883C10.1099 23.044 9.88362 23.6264 9.9172 24.874C10.002 27.9427 9.95962 31.0166 9.92957 34.0871C9.92427 34.6009 10.2336 35.2501 9.55484 35.6126C7.38243 36.7739 4.7858 35.2273 4.77873 32.741C4.76282 27.3831 4.77343 22.027 4.77343 16.6691C4.77343 13.75 4.76989 13.8538 1.84802 13.7342C0.285439 13.6691 -0.0185911 14.1776 0.000852704 15.6363C0.0874661 21.5642 0.0291346 27.494 0.0485784 33.422C0.0503461 34.0378 0.0485784 34.6343 0.267763 35.2836C1.42025 38.6637 3.70755 40.5324 7.34178 40.2931C9.44525 40.1541 10.0993 40.9371 10.4033 42.7864C10.8629 45.5718 12.6641 47.5988 15.2112 48.4381C20.5406 50.1941 24.9261 47.8047 26.2182 41.8591C26.5134 40.506 26.8581 40.3335 28.0123 40.3423C33.6086 40.3863 39.2067 40.3423 44.803 40.3722C46.6183 40.381 48.2993 40.059 49.6409 38.7675C50.0864 38.3382 50.2861 38.3417 50.7899 38.7411C53.9981 41.2837 57.4856 41.0954 60.6426 38.2344C61.6201 39.5171 62.8327 40.3722 64.5455 40.367C71.3632 40.3511 78.1792 40.3441 84.9969 40.3793C85.9355 40.3846 86.243 40.1153 86.213 39.1722C86.1494 37.103 86.3615 35.0126 86.1582 32.961L86.1617 32.9627ZM20.0704 43.8896C18.9162 44.8134 17.8909 44.8468 16.5864 44.289C15.1706 43.6838 15.0663 42.3764 14.7234 41.2397C14.4193 40.2332 15.312 40.3247 15.9271 40.3722C17.9546 40.5288 19.7841 40.0098 21.5287 38.6866C21.6082 40.703 21.8151 42.4978 20.0722 43.8914L20.0704 43.8896ZM17.0354 35.6918C15.0292 35.8361 14.4034 35.1604 14.6615 33.2618C14.7941 32.2835 14.7764 31.2612 14.665 30.2776C14.4547 28.4142 14.909 27.3444 16.7738 27.9251C19.7823 27.9339 21.5835 29.4805 21.5764 31.7996C21.5694 34.1187 19.7628 35.4947 17.0354 35.6918ZM47.6859 34.161C47.4544 34.9598 46.6024 35.7692 45.3544 35.6707C43.928 35.5581 42.4856 35.6443 41.0503 35.6443C40.0445 35.6443 39.0281 35.7393 38.04 35.6126C37.2941 35.5176 36.0709 36.2355 35.88 35.0654C35.7032 33.9797 35.3586 32.7111 36.5022 31.6923C38.2362 30.1456 40.0445 28.7485 42.3071 28.101C44.0605 27.5995 45.7133 27.823 46.9117 29.3609C48.0306 30.7984 48.1579 32.5422 47.6895 34.1592L47.6859 34.161Z" fill="white"/>
</g>
<defs>
<clipPath id="clip0_981_7998">
<rect width="157" height="57.0909" fill="white" transform="translate(0 0.000976562)"/>
</clipPath>
</defs>
</svg>
