<svg width="135" height="132" viewBox="0 0 135 132" fill="none" xmlns="http://www.w3.org/2000/svg">
<g clip-path="url(#clip0_583_17715)">
<path d="M134.97 126.959C134.411 127.827 134.148 128.856 133.413 129.632C132.133 130.981 130.576 131.655 128.737 131.673C126.413 131.694 124.093 131.68 121.769 131.68C84.3375 131.68 46.9059 131.68 9.47439 131.68C5.92002 131.68 3.55397 129.987 2.78403 126.949C2.60825 126.253 2.63989 125.554 2.63637 124.855C2.62934 121.301 2.62231 117.75 2.6434 114.195C2.6434 113.598 2.50981 113.124 2.13011 112.636C0.860948 110.985 0.277344 109.089 0.277344 107.006C0.284375 100.996 0.280859 94.9867 0.277344 88.9736C0.277344 86.7433 0.927746 84.7308 2.37973 83.0378C2.91059 82.4197 3.06528 81.791 3.05825 81.0112C3.03013 77.4146 3.03716 73.8181 3.04771 70.2179C3.06177 65.8943 6.11339 63.5762 10.3252 64.6685C14.2628 65.6871 16.9769 69.0905 17.0788 73.1929C17.1245 74.9912 17.128 76.793 17.0718 78.5878C17.0472 79.3394 17.2124 79.6766 18.021 79.7503C19.6171 79.9014 20.9285 80.6776 21.9516 81.8998C22.3313 82.3529 22.6266 82.5531 23.2629 82.3354C26.7364 81.1552 30.231 80.0383 33.7186 78.8898C34.0666 78.7739 34.5342 78.7669 34.478 78.1838C34.1264 74.5732 35.5186 71.8652 38.6335 70.3128C38.7566 69.8386 38.528 69.807 38.4015 69.7227C34.1405 66.8777 31.349 62.9756 30.0939 58.0057C29.9216 57.3208 29.6826 57.1346 28.997 57.0819C22.9887 56.6113 19.364 52.5792 19.2691 46.5029C19.2128 42.9203 19.9336 39.7066 22.8199 37.3042C23.284 36.9178 23.1715 36.4507 23.1821 35.9836C23.2664 32.257 22.9711 28.5234 23.4211 24.8074C23.9907 20.108 25.6536 15.8265 28.4064 11.977C29.2501 10.8004 29.9005 10.6915 31.4896 11.3342C32.358 12.4266 32.2279 13.4557 31.4369 14.5655C29.4294 17.393 28.1884 20.547 27.5521 23.961C26.9438 27.2274 27.1724 30.5184 27.1513 33.8024C27.1513 34.2169 26.7575 35.0387 27.6399 35.0036C28.4029 34.972 29.3802 35.3092 29.6755 33.971C30.8181 28.8009 34.2037 26.1351 39.4913 26.1316C49.1349 26.121 58.7784 26.121 68.4219 26.107C74.1595 26.0964 77.3623 28.5972 78.6983 34.1993C78.962 35.3092 79.8866 34.8772 80.5194 34.9826C81.3421 35.1195 81.0749 34.3714 81.0784 33.9675C81.103 31.8601 81.1136 29.7562 81.0714 27.6489C80.878 17.558 74.2826 8.60166 64.741 5.33874C60.2796 3.81088 55.6811 3.95489 51.0861 4.02865C46.5684 4.10241 42.3461 5.29659 38.5386 7.7552C37.3643 8.51385 36.3167 8.70703 35.1706 7.83949C34.5307 5.93231 34.6854 5.44762 36.4151 4.38339C40.2472 2.03717 44.3711 0.516347 48.8642 0.242388C54.1975 -0.0842561 59.5483 -0.31958 64.7762 1.19071C76.9299 4.70301 85.023 15.6579 85.125 28.7131C85.1426 31.0804 85.1531 33.4512 85.1144 35.8185C85.1004 36.5736 85.2972 37.111 85.8703 37.6414C87.8953 39.5134 88.9501 41.8596 88.9782 44.6308C88.9958 46.1622 89.1293 47.7076 88.7954 49.2214C87.7864 53.7804 84.2566 56.7412 79.3592 57.0855C78.6807 57.1346 78.3608 57.3067 78.2131 57.9776C77.5276 61.0754 76.044 63.7729 73.9627 66.2385C74.4127 66.5476 74.9014 66.3895 75.3443 66.3895C93.2216 66.4001 111.095 66.4352 128.973 66.3614C131.894 66.3509 133.926 67.2957 134.967 70.0845V126.959H134.97ZM52.8228 108.86C54.4822 109.384 54.76 109.749 54.7635 111.491C54.7705 116.405 54.8057 121.322 54.7389 126.236C54.7213 127.433 55.0342 127.763 56.2506 127.76C80.1432 127.714 104.039 127.718 127.932 127.711C130.298 127.711 131.001 127.012 131.001 124.669C131.001 107.202 131.001 89.7393 131.001 72.2726C131.001 70.4146 130.959 70.376 129.054 70.376C104.939 70.369 80.8288 70.3619 56.7147 70.3549C54.8303 70.3549 54.767 70.4146 54.767 72.2586C54.767 81.8682 54.7494 91.4779 54.7846 101.088C54.7881 102.538 54.2959 103.451 52.8263 103.722C51.1775 103.202 50.8294 102.731 50.8259 100.975C50.8189 97.1573 50.8294 93.3394 50.8119 89.5215C50.8119 89.216 51.0087 88.8226 50.5658 88.5662C47.1204 91.6149 43.6609 94.653 40.2296 97.7193C39.0765 98.7484 37.8284 99.1874 36.38 98.5165C34.935 97.8492 34.4604 96.6129 34.4744 95.071C34.5096 91.3409 34.4639 87.6109 34.5026 83.8808C34.5131 83.0097 34.3303 82.8412 33.476 83.1397C30.8744 84.0424 28.2517 84.8994 25.6114 85.6861C24.2614 86.09 23.0836 86.5326 22.9324 88.1939C22.9043 88.517 22.6863 88.8612 22.4684 89.1247C22.043 89.641 22.0676 90.0449 22.4367 90.6244C23.8043 92.7845 23.8078 95.0148 22.4824 97.1959C22.1555 97.7368 22.043 98.1056 22.4262 98.7027C23.8289 100.908 23.8149 103.177 22.4192 105.383C22.0816 105.913 22.1063 106.247 22.4156 106.77C24.8379 110.89 22.5985 115.744 17.8804 116.212C14.4491 116.552 10.9545 116.594 7.51966 116.082C6.52824 115.934 6.57043 116.264 6.57746 116.956C6.59855 119.59 6.58449 122.221 6.58801 124.855C6.58801 127.05 7.2806 127.725 9.52361 127.725C13.5139 127.728 17.5042 127.725 21.491 127.725C23.427 127.725 24.402 126.747 24.4161 124.792C24.4442 120.697 26.8876 118.249 30.9693 118.245C37.1499 118.238 43.334 118.224 49.5146 118.263C50.4884 118.27 50.9103 118.101 50.847 116.998C50.7451 115.203 50.8154 113.402 50.8224 111.603C50.8294 109.84 51.174 109.373 52.8228 108.857V108.86ZM54.2045 30.104V30.0969C49.1665 30.0969 44.125 30.0794 39.087 30.104C35.7647 30.1215 33.5006 32.3237 33.4795 35.5937C33.4479 41.6454 33.374 47.7006 33.4971 53.7523C33.6694 62.0659 40.4582 69.6173 50.8716 68.8903C51.2619 68.8622 51.508 68.7217 51.7295 68.4091C52.8228 66.8813 54.3592 66.3685 56.1873 66.3895C59.7382 66.4282 63.2855 66.379 66.8364 66.4106C67.536 66.4176 68.0985 66.2315 68.6364 65.8065C72.7638 62.5576 74.831 58.3218 74.8205 53.0604C74.8064 47.3599 74.8275 41.6559 74.8135 35.9555C74.8029 32.2219 72.6759 30.1215 68.9247 30.1145C64.0168 30.1075 59.1089 30.1145 54.201 30.1145L54.2045 30.104ZM4.22546 97.9721C4.22546 100.912 4.21492 103.852 4.22546 106.792C4.23952 110.146 6.36652 112.334 9.69587 112.38C12.0197 112.411 14.3436 112.39 16.6675 112.373C18.2003 112.359 19.1496 111.74 19.4273 110.627C19.7015 109.524 19.1636 108.66 17.6941 107.933C16.9066 107.543 16.4671 106.943 16.4671 106.072C16.4671 105.26 16.8468 104.614 17.6097 104.308C18.6609 103.883 19.466 103.276 19.4625 102.036C19.4589 100.803 18.6749 100.192 17.6027 99.774C16.8503 99.4789 16.4706 98.8221 16.4636 98.0038C16.4565 97.1854 16.8292 96.5145 17.578 96.216C18.6433 95.7945 19.4414 95.2009 19.4589 93.9681C19.4765 92.7283 18.689 92.1031 17.6273 91.6816C16.8644 91.376 16.4741 90.7403 16.4601 89.929C16.446 89.0614 16.8468 88.3765 17.6695 88.071C18.9457 87.5968 19.6558 86.7679 19.4132 85.377C19.2093 84.211 18.1792 83.6068 16.555 83.5963C14.2768 83.5822 11.9951 83.5612 9.71697 83.5893C6.38761 83.6279 4.23601 85.8161 4.22195 89.1563C4.20788 92.0961 4.22195 95.0359 4.22195 97.9757L4.22546 97.9721ZM39.4913 127.707C42.9086 127.707 46.3258 127.686 49.7431 127.721C50.5306 127.728 50.847 127.514 50.7978 126.689C50.7345 125.639 50.7204 124.581 50.7978 123.535C50.8787 122.516 50.5658 122.193 49.504 122.204C43.8965 122.26 38.289 122.228 32.6814 122.228C28.5013 122.228 28.3396 122.421 28.3923 126.597C28.4029 127.451 28.6279 127.732 29.4998 127.721C32.8291 127.676 36.1585 127.704 39.4878 127.704L39.4913 127.707ZM41.3089 73.3334C38.9886 74.3133 38.289 75.9711 38.3769 78.384C38.5526 83.2029 38.4261 88.0323 38.4401 92.8582C38.4401 93.1603 38.2222 93.5572 38.6827 93.7925C41.9312 90.9194 45.1692 88.0323 48.4388 85.1803C48.9415 84.7413 48.9274 84.5165 48.4458 84.0986C47.2856 83.094 46.245 81.942 45.0285 81.0183C42.5008 79.1041 40.8062 76.8527 41.3722 73.4668C41.3793 73.4352 41.3406 73.3966 41.3054 73.3298L41.3089 73.3334ZM78.8143 45.9901C78.8143 48.0483 78.8214 50.103 78.8108 52.1612C78.8108 52.7232 78.7756 53.1763 79.6159 53.1166C82.2632 52.9269 84.7277 50.6615 84.9562 47.9991C85.0687 46.6961 85.0617 45.3684 84.9597 44.0654C84.7558 41.4276 82.4249 39.2078 79.7917 38.9479C79.0463 38.8742 78.7792 39.0287 78.7967 39.819C78.8424 41.8737 78.8108 43.9319 78.8108 45.9901H78.8143ZM29.5138 46.092C29.5138 43.9881 29.4822 41.8842 29.5314 39.7839C29.549 39.0041 29.3099 38.8355 28.554 38.9234C26.0262 39.2078 23.8746 41.1256 23.4141 43.6404C23.1469 45.1155 23.1469 46.6083 23.3719 48.0869C23.7832 50.7949 25.8223 52.7162 28.5294 53.1025C29.2712 53.2079 29.5455 53.0709 29.5279 52.2701C29.4822 50.2119 29.5138 48.1537 29.5138 46.092ZM7.0134 74.4116C7.0134 75.9465 7.02747 77.4814 7.00637 79.0163C6.99934 79.5747 7.04504 79.9646 7.77631 79.81C9.24587 79.4974 10.7435 79.5958 12.2307 79.6098C12.8881 79.6169 13.1623 79.4658 13.1412 78.7388C13.092 76.8983 13.1764 75.0509 13.1061 73.2104C13.0112 70.6008 11.0811 68.6163 8.58843 68.4021C7.53373 68.3108 7.0134 68.7428 7.0134 69.8C7.0134 71.3349 7.0134 72.8697 7.0134 74.4081V74.4116ZM50.7626 80.8602C50.7908 80.3755 50.8119 80.1753 50.8119 79.9716C50.8119 77.8256 50.8048 75.6796 50.8189 73.5371C50.8224 73.0418 50.6642 72.8487 50.1474 72.8311C48.7517 72.7889 47.3559 72.6976 45.9602 72.6063C45.7317 72.5923 45.5454 72.5536 45.4118 72.796C45.1305 73.3017 45.4821 76.0097 45.9145 76.4101C47.4544 77.8326 49.0048 79.2481 50.7662 80.8602H50.7626Z" fill="#020202"/>
<path d="M92.1309 28.864C90.6543 28.0843 90.3695 27.4485 90.8019 25.9137C93.5723 16.0862 103.061 9.18458 113.271 9.56742C123.593 9.95377 132.424 17.4209 134.491 27.4731C134.597 27.9859 134.463 28.6076 134.966 29.0115V35.3301C134.361 36.1696 134.442 37.2092 134.154 38.14C131.749 45.9513 126.68 51.1566 118.924 53.6924C118.136 53.9488 117.651 54.3036 117.342 55.0622C116.649 56.7622 115.883 58.4305 115.162 60.12C114.656 61.3141 113.805 62.0974 112.49 62.1149C111.112 62.1325 110.24 61.3352 109.713 60.0813C109.038 58.4692 108.271 56.8922 107.635 55.266C107.283 54.3668 106.735 53.9313 105.814 53.6187C97.6751 50.865 92.5211 45.3191 90.4785 36.9388C90.1129 35.4355 90.4469 34.856 91.8918 34.1535C93.2489 34.0517 93.9872 34.6909 94.3141 36.008C96.0931 43.2082 100.558 47.8796 107.642 50.0256C109.27 50.5173 110.367 51.5324 111.021 53.0743C111.464 54.1174 111.928 55.1501 112.448 56.3267C112.93 55.2379 113.383 54.3106 113.756 53.3518C114.459 51.5464 115.718 50.4963 117.591 49.9202C126.711 47.1174 131.96 38.8776 130.768 29.3838C129.482 19.1384 119.047 11.6888 108.95 13.9051C101.778 15.4786 96.9966 19.8093 94.7149 26.8163C94.2895 28.1229 93.6672 29.0256 92.1344 28.864H92.1309Z" fill="#020202"/>
<path d="M35.1805 7.84626C36.3266 8.71379 37.3743 8.52062 38.5485 7.76196C42.356 5.30335 46.5784 4.10566 51.096 4.03541C55.691 3.96165 60.2896 3.81765 64.751 5.3455C74.2925 8.61194 80.888 17.5648 81.0813 27.6556C81.1235 29.7595 81.1095 31.8669 81.0884 33.9743C81.0849 34.3782 81.3485 35.1263 80.5294 34.9893C79.8966 34.8839 78.9719 35.316 78.7082 34.2061C77.3723 28.604 74.173 26.1032 68.4319 26.1137C58.7884 26.1313 49.1448 26.1278 39.5013 26.1383C34.2102 26.1453 30.8246 28.8077 29.6855 33.9778C29.3902 35.316 28.4093 34.9788 27.6499 35.0104C26.7675 35.0455 27.1577 34.2271 27.1612 33.8092C27.1823 30.5252 26.9538 27.2342 27.562 23.9677C28.1983 20.5538 29.4394 17.3997 31.4468 14.5723C32.2344 13.4589 32.3644 12.4333 31.4996 11.341C32.5226 9.95715 33.6969 8.73487 35.1875 7.84274L35.1805 7.84626Z" fill="#FF826E"/>
<path d="M92.1313 28.8642C93.6641 29.0258 94.2864 28.1196 94.7118 26.8166C96.9935 19.806 101.775 15.4789 108.947 13.9053C119.04 11.6926 129.475 19.1387 130.765 29.3841C131.957 38.8778 126.708 47.1177 117.588 49.9205C115.715 50.4965 114.456 51.5467 113.753 53.352C113.38 54.3108 112.927 55.2381 112.445 56.3269C111.928 55.1503 111.464 54.1142 111.018 53.0745C110.36 51.5291 109.267 50.5176 107.639 50.0258C100.555 47.8798 96.09 43.2085 94.311 36.0082C93.9876 34.6946 93.2458 34.0519 91.8887 34.1538C91.6391 32.3765 91.9344 30.6204 92.1278 28.8642H92.1313ZM112.382 43.226C116.59 43.2541 120.025 40.2019 120.612 35.9099C120.837 34.2661 120.211 33.1738 118.938 32.9912C117.736 32.8191 116.92 33.6445 116.671 35.2847C116.305 37.6906 114.579 39.2782 112.371 39.2361C110.153 39.1904 108.483 37.5607 108.187 35.1442C108.012 33.7042 107.224 32.8964 106.078 32.9806C104.869 33.0685 104.123 34.0835 104.215 35.5236C104.485 39.7699 108.117 43.1979 112.382 43.226Z" fill="#FCD770"/>
<path d="M52.8238 103.718C54.2934 103.448 54.7856 102.534 54.7821 101.084C54.7504 91.4742 54.7645 81.8645 54.7645 72.2549C54.7645 70.4109 54.8278 70.3477 56.7122 70.3512C80.8263 70.3582 104.937 70.3652 129.051 70.3723C130.96 70.3723 130.999 70.4109 130.999 72.2689C130.999 89.7356 130.999 107.199 130.999 124.665C130.999 127.008 130.296 127.707 127.929 127.707C104.037 127.714 80.1407 127.714 56.2481 127.756C55.0317 127.756 54.7188 127.43 54.7364 126.232C54.8032 121.318 54.768 116.401 54.761 111.487C54.761 109.745 54.4797 109.383 52.8203 108.857C52.8203 107.143 52.8203 105.429 52.8203 103.715L52.8238 103.718ZM93.0609 92.2679C90.6526 92.2679 88.2444 92.2258 85.8397 92.2785C82.0462 92.3593 79.1352 95.1129 78.9489 98.6709C78.7556 102.394 81.7685 105.594 85.2666 105.71C90.2976 105.875 95.325 105.801 100.356 105.745C100.915 105.738 101.488 105.622 102.029 105.464C105.215 104.55 107.222 101.421 106.797 98.0738C106.396 94.9057 103.531 92.3698 100.149 92.282C97.786 92.2223 95.4234 92.2715 93.0574 92.2715L93.0609 92.2679Z" fill="#596B75"/>
<path d="M54.2008 30.1037C59.1087 30.1037 64.0166 30.0967 68.9245 30.1037C72.6758 30.1107 74.8027 32.2111 74.8133 35.9447C74.8274 41.6451 74.8063 47.3491 74.8203 53.0496C74.8344 58.3145 72.7636 62.5468 68.6362 65.7957C68.0948 66.2207 67.5358 66.4069 66.8362 66.3998C63.2854 66.3717 59.738 66.4174 56.1872 66.3788C54.359 66.3577 52.8227 66.8705 51.7293 68.3983C51.5078 68.7109 51.2582 68.8514 50.8715 68.8795C40.458 69.6101 33.6692 62.0551 33.4969 53.7415C33.3704 47.6898 33.4442 41.6346 33.4793 35.5829C33.4969 32.313 35.7645 30.1107 39.0869 30.0932C44.1248 30.0686 49.1663 30.0862 54.2043 30.0862V30.0932L54.2008 30.1037ZM54.1797 63.7515C55.8743 63.8253 57.5442 63.8078 59.1087 63.1193C62.5119 61.6231 64.3401 58.9924 64.6178 55.2939C64.7127 54.0084 63.9287 53.0742 62.7932 52.9899C61.7138 52.9091 60.8982 53.6537 60.7154 54.897C60.6767 55.157 60.6486 55.4204 60.6064 55.6803C60.1915 58.0967 58.3282 59.744 55.8919 59.8107C54.7528 59.8424 53.6137 59.8388 52.4746 59.8107C49.8906 59.7475 47.8023 57.9141 47.7003 55.3291C47.6405 53.8293 46.5085 52.8564 45.4503 52.9934C44.2092 53.1549 43.5342 54.1805 43.7311 55.7716C44.1284 58.9467 45.7139 61.3246 48.5722 62.8243C50.3511 63.7586 52.2602 63.8429 54.1797 63.7551V63.7515ZM48.9449 44.1143C48.9308 46.9311 51.2054 49.316 53.9301 49.3476C55.15 49.3617 55.9657 48.7505 56.0747 47.6933C56.1977 46.5097 55.6598 45.7335 54.4961 45.4946C53.677 45.326 52.8895 45.1645 52.907 44.1178C52.9211 43.1554 53.6488 42.9833 54.4293 42.8182C55.6669 42.5513 56.2856 41.6767 56.0676 40.5458C55.8391 39.3516 55.02 38.9196 53.8668 38.9512C51.1879 39.0285 48.9554 41.3642 48.9449 44.1178V44.1143Z" fill="#FCDDCD"/>
<path d="M52.8218 103.718C52.8218 105.432 52.8218 107.146 52.8218 108.86C51.1765 109.377 50.8284 109.847 50.8214 111.607C50.8143 113.405 50.744 115.211 50.846 117.002C50.9093 118.105 50.4874 118.273 49.5135 118.266C43.333 118.228 37.1489 118.242 30.9683 118.249C26.8866 118.249 24.4432 120.697 24.415 124.796C24.401 126.751 23.4259 127.728 21.49 127.728C17.4997 127.728 13.5094 127.728 9.52257 127.728C7.27604 127.728 6.59049 127.051 6.58697 124.859C6.58345 122.225 6.59752 119.594 6.57642 116.96C6.56939 116.268 6.5272 115.938 7.51863 116.085C10.9535 116.601 14.4445 116.559 17.8794 116.215C22.5974 115.744 24.8369 110.89 22.4146 106.774C22.1052 106.247 22.0841 105.917 22.4181 105.387C23.8138 103.181 23.8244 100.909 22.4251 98.7063C22.0455 98.1057 22.1544 97.7404 22.4814 97.1995C23.8068 95.0149 23.8033 92.7846 22.4357 90.628C22.0665 90.045 22.0419 89.6411 22.4673 89.1283C22.6853 88.8648 22.9033 88.5206 22.9314 88.1975C23.0826 86.5362 24.2603 86.0936 25.6104 85.6897C28.2506 84.8995 30.8698 84.046 33.475 83.1433C34.3293 82.8483 34.5086 83.0169 34.5015 83.8844C34.4629 87.6145 34.5086 91.3445 34.4734 95.0746C34.4593 96.6165 34.934 97.8528 36.3789 98.5202C37.8274 99.191 39.0754 98.752 40.2286 97.7229C43.6599 94.6531 47.1158 91.6185 50.5647 88.5698C51.0112 88.8262 50.8108 89.2196 50.8108 89.5252C50.8284 93.343 50.8178 97.1609 50.8249 100.979C50.8249 102.738 51.1765 103.206 52.8253 103.725L52.8218 103.718Z" fill="#26A5FC"/>
<path d="M4.22539 97.972C4.22539 95.0322 4.21484 92.0924 4.22539 89.1526C4.23945 85.8159 6.39106 83.6278 9.72041 83.5856C11.9986 83.5575 14.2803 83.5786 16.5584 83.5927C18.1827 83.6032 19.2128 84.2108 19.4167 85.3734C19.6593 86.7643 18.9526 87.5932 17.6729 88.0673C16.8537 88.3729 16.453 89.0578 16.4635 89.9253C16.4776 90.7367 16.8643 91.3724 17.6307 91.678C18.6889 92.0994 19.48 92.7246 19.4624 93.9645C19.4448 95.1973 18.6432 95.7909 17.5815 96.2123C16.8327 96.5109 16.46 97.1782 16.467 98.0001C16.474 98.8185 16.8537 99.4788 17.6061 99.7703C18.6784 100.188 19.4589 100.799 19.4659 102.032C19.4694 103.272 18.6643 103.883 17.6131 104.305C16.8467 104.614 16.4705 105.26 16.4705 106.068C16.4705 106.935 16.91 107.54 17.6975 107.929C19.1671 108.66 19.705 109.52 19.4307 110.623C19.153 111.737 18.2038 112.358 16.6709 112.369C14.3471 112.386 12.0232 112.408 9.69932 112.376C6.36996 112.33 4.24297 110.142 4.22891 106.788C4.21836 103.848 4.22891 100.908 4.22891 97.9685L4.22539 97.972Z" fill="#FCDDCD"/>
<path d="M39.4908 127.707C36.1615 127.707 32.8321 127.682 29.5028 127.725C28.6309 127.735 28.4059 127.454 28.3953 126.601C28.3426 122.421 28.5043 122.231 32.6845 122.231C38.292 122.231 43.8995 122.259 49.507 122.207C50.5688 122.196 50.8817 122.519 50.8008 123.538C50.7199 124.585 50.7375 125.645 50.8008 126.692C50.85 127.517 50.5336 127.732 49.7461 127.725C46.3288 127.689 42.9116 127.711 39.4943 127.711L39.4908 127.707Z" fill="#596B75"/>
<path d="M41.3088 73.3335C41.3405 73.4002 41.3791 73.4389 41.3756 73.4705C40.8096 76.8563 42.5007 79.1077 45.032 81.0219C46.2484 81.9421 47.2925 83.0977 48.4492 84.1022C48.9309 84.5202 48.9449 84.7485 48.4422 85.184C45.1726 88.0325 41.9346 90.9196 38.6861 93.7962C38.2256 93.5608 38.4435 93.1604 38.4435 92.8619C38.426 88.036 38.556 83.2066 38.3803 78.3877C38.2924 75.9747 38.992 74.3169 41.3124 73.337L41.3088 73.3335Z" fill="#FDFDFD"/>
<path d="M78.8137 45.9899C78.8137 43.9317 78.8453 41.877 78.7996 39.8188C78.7821 39.0285 79.0492 38.8705 79.7946 38.9477C82.4278 39.2112 84.7552 41.4274 84.9626 44.0652C85.0646 45.3682 85.0681 46.6959 84.9591 47.9989C84.7306 50.6613 82.2661 52.9267 79.6188 53.1164C78.7785 53.1761 78.8102 52.723 78.8137 52.161C78.8242 50.1028 78.8172 48.0481 78.8172 45.9899H78.8137Z" fill="#FCDDCD"/>
<path d="M29.5101 46.0955C29.5101 48.1537 29.4785 50.2154 29.5242 52.2736C29.5418 53.0744 29.264 53.2114 28.5257 53.106C25.8186 52.7197 23.7831 50.802 23.3682 48.0905C23.1432 46.6118 23.1397 45.1191 23.4104 43.6439C23.8674 41.1256 26.019 39.2114 28.5503 38.9269C29.3062 38.8426 29.5453 39.0112 29.5277 39.7874C29.482 41.8878 29.5101 43.9916 29.5101 46.0955Z" fill="#FCDDCD"/>
<path d="M7.01347 74.4115C7.01347 72.8766 7.01347 71.3417 7.01347 69.8033C7.01347 68.7461 7.53379 68.3141 8.5885 68.4054C11.0811 68.6197 13.0112 70.6041 13.1062 73.2138C13.173 75.0542 13.0921 76.8982 13.1413 78.7421C13.1624 79.4657 12.8847 79.6167 12.2308 79.6132C10.7436 79.5991 9.24593 79.5008 7.77638 79.8134C7.04511 79.9679 6.99941 79.5781 7.00644 79.0196C7.02753 77.4847 7.01347 75.9499 7.01347 74.415V74.4115Z" fill="#FCDDCD"/>
<path d="M50.7624 80.8636C49.0011 79.2479 47.4506 77.836 45.9108 76.4135C45.4783 76.0131 45.1303 73.3051 45.408 72.7994C45.5416 72.557 45.7315 72.5956 45.9565 72.6097C47.3522 72.701 48.7479 72.7923 50.1437 72.8345C50.6605 72.8485 50.8187 73.0452 50.8152 73.5404C50.7976 75.6865 50.8081 77.8325 50.8081 79.975C50.8081 80.1787 50.787 80.3789 50.7589 80.8636H50.7624Z" fill="#FCDDCD"/>
<path d="M112.382 43.226C108.113 43.1979 104.482 39.7699 104.215 35.5235C104.123 34.0835 104.868 33.0684 106.078 32.9806C107.224 32.8963 108.012 33.7041 108.187 35.1442C108.483 37.5571 110.153 39.1903 112.371 39.236C114.575 39.2782 116.302 37.6941 116.671 35.2847C116.92 33.6444 117.736 32.819 118.938 32.9911C120.211 33.1738 120.837 34.2626 120.612 35.9099C120.025 40.2054 116.593 43.2541 112.382 43.226Z" fill="#020202"/>
<path d="M93.0606 92.268C95.4232 92.268 97.7892 92.2188 100.152 92.2785C103.534 92.3664 106.399 94.9022 106.8 98.0703C107.222 101.418 105.218 104.547 102.033 105.46C101.491 105.615 100.918 105.734 100.359 105.741C95.3283 105.797 90.3008 105.871 85.2699 105.706C81.7753 105.59 78.7588 102.39 78.9522 98.6674C79.135 95.1095 82.0495 92.3593 85.8429 92.275C88.2477 92.2223 90.6559 92.2645 93.0642 92.2645L93.0606 92.268ZM92.8286 101.779C92.8286 101.779 92.8286 101.762 92.8286 101.755C95.1068 101.755 97.3849 101.772 99.6631 101.751C101.667 101.73 102.845 100.719 102.862 99.0538C102.876 97.3889 101.685 96.3072 99.7158 96.2931C95.2017 96.2615 90.6911 96.2545 86.1769 96.265C84.1554 96.2685 82.8792 97.396 82.9108 99.0643C82.939 100.701 84.1624 101.755 86.1277 101.772C88.3637 101.793 90.5961 101.776 92.8321 101.776L92.8286 101.779Z" fill="#020202"/>
<path d="M54.1787 63.7481C52.2591 63.8359 50.3501 63.7517 48.5712 62.8174C45.7094 61.3176 44.1273 58.9398 43.7301 55.7647C43.5297 54.1736 44.2082 53.148 45.4492 52.9865C46.5075 52.8495 47.6395 53.8224 47.6993 55.3221C47.8012 57.9072 49.8896 59.7406 52.4736 59.8038C53.6127 59.8319 54.7518 59.8354 55.8908 59.8038C58.3237 59.7371 60.1905 58.0898 60.6054 55.6734C60.6511 55.4134 60.6757 55.1535 60.7144 54.8901C60.9007 53.6468 61.7128 52.9022 62.7921 52.9829C63.9277 53.0672 64.7117 54.0015 64.6168 55.287C64.3425 58.9855 62.5109 61.6162 59.1077 63.1124C57.5397 63.8008 55.8733 63.8184 54.1787 63.7446V63.7481Z" fill="#020202"/>
<path d="M48.9434 44.1109C48.9575 41.3573 51.1864 39.0216 53.8654 38.9443C55.0185 38.9092 55.8377 39.3447 56.0662 40.5389C56.2842 41.6699 55.6654 42.548 54.4279 42.8114C53.6474 42.98 52.9197 43.1521 52.9056 44.1109C52.888 45.1576 53.6755 45.3192 54.4947 45.4877C55.6584 45.7266 56.1963 46.5028 56.0732 47.6865C55.9643 48.7437 55.1451 49.3548 53.9287 49.3407C51.2005 49.3091 48.9294 46.9243 48.9434 44.1074V44.1109Z" fill="#020202"/>
<path d="M92.828 101.779C90.592 101.779 88.3595 101.797 86.1236 101.776C84.1618 101.758 82.9348 100.705 82.9067 99.068C82.8786 97.3961 84.1548 96.2722 86.1728 96.2687C90.6869 96.2581 95.1975 96.2687 99.7117 96.2968C101.68 96.3108 102.872 97.3926 102.858 99.0574C102.844 100.719 101.666 101.734 99.659 101.755C97.3808 101.776 95.1026 101.758 92.8245 101.758C92.8245 101.765 92.8245 101.776 92.8245 101.783L92.828 101.779Z" fill="#26A5FC"/>
</g>
<defs>
<clipPath id="clip0_583_17715">
<rect width="134.693" height="131.683" fill="white" transform="translate(0.277344)"/>
</clipPath>
</defs>
</svg>
