<svg width="104" height="17" viewBox="0 0 104 17" fill="none" xmlns="http://www.w3.org/2000/svg">
<path d="M9.15864 7.03458H11.2509V11.7823C10.6382 12.2697 9.92483 12.6445 9.10783 12.9056C8.29184 13.1668 7.45193 13.2974 6.59109 13.2974C5.37756 13.2974 4.28358 13.0332 3.30817 12.5059C2.33276 11.9786 1.56758 11.25 1.01262 10.319C0.45667 9.38898 0.179688 8.33937 0.179688 7.17114C0.179688 6.00291 0.457666 4.95329 1.01262 4.02329C1.56758 3.09329 2.33675 2.36464 3.31714 1.83735C4.29753 1.31005 5.40047 1.0459 6.62497 1.0459C7.6223 1.0459 8.52996 1.21037 9.34596 1.53931C10.162 1.86825 10.8484 2.35069 11.4034 2.98564L10.0085 4.34725C9.10086 3.44018 8.00688 2.98564 6.7256 2.98564C5.88669 2.98564 5.14143 3.16207 4.48883 3.51294C3.83623 3.8648 3.32611 4.35821 2.95846 4.99316C2.58982 5.62811 2.4055 6.35477 2.4055 7.17114C2.4055 7.9875 2.58982 8.68027 2.95846 9.31522C3.32711 9.95017 3.83723 10.4496 4.48883 10.8124C5.14043 11.1752 5.88071 11.3566 6.70866 11.3566C7.63824 11.3566 8.45424 11.1523 9.15765 10.7436V7.03458H9.15864Z" fill="white"/>
<path d="M15.5544 12.6504C14.8171 12.2536 14.2422 11.7004 13.8277 10.9917C13.4133 10.283 13.207 9.48058 13.207 8.58447C13.207 7.68836 13.4143 6.88894 13.8277 6.18521C14.2412 5.48248 14.8171 4.93225 15.5544 4.53453C16.2917 4.13781 17.1186 3.93945 18.0373 3.93945C18.9559 3.93945 19.7998 4.13781 20.5371 4.53453C21.2743 4.93125 21.8492 5.48148 22.2637 6.18521C22.6772 6.88894 22.8844 7.68836 22.8844 8.58447C22.8844 9.48058 22.6772 10.283 22.2637 10.9917C21.8492 11.7004 21.2743 12.2536 20.5371 12.6504C19.7998 13.0471 18.9668 13.2454 18.0373 13.2454C17.1077 13.2454 16.2907 13.0471 15.5544 12.6504ZM19.9761 10.6428C20.4862 10.1215 20.7413 9.43472 20.7413 8.58447C20.7413 7.73421 20.4862 7.04743 19.9761 6.52611C19.466 6.00479 18.8194 5.74363 18.0373 5.74363C17.2551 5.74363 16.6115 6.00479 16.1074 6.52611C15.6022 7.04842 15.3501 7.73421 15.3501 8.58447C15.3501 9.43472 15.6022 10.1215 16.1074 10.6428C16.6115 11.1651 17.2551 11.4253 18.0373 11.4253C18.8194 11.4253 19.466 11.1641 19.9761 10.6428Z" fill="white"/>
<path d="M26.5231 12.6504C25.7859 12.2536 25.211 11.7004 24.7965 10.9917C24.382 10.283 24.1758 9.48058 24.1758 8.58447C24.1758 7.68836 24.382 6.88894 24.7965 6.18521C25.21 5.48248 25.7859 4.93225 26.5231 4.53453C27.2604 4.13781 28.0874 3.93945 29.006 3.93945C29.9246 3.93945 30.7685 4.13781 31.5058 4.53453C32.2431 4.93125 32.818 5.48148 33.2325 6.18521C33.6459 6.88894 33.8532 7.68836 33.8532 8.58447C33.8532 9.48058 33.6459 10.283 33.2325 10.9917C32.818 11.7004 32.2431 12.2536 31.5058 12.6504C30.7685 13.0471 29.9356 13.2454 29.006 13.2454C28.0764 13.2454 27.2594 13.0471 26.5231 12.6504ZM30.9449 10.6428C31.455 10.1215 31.7101 9.43472 31.7101 8.58447C31.7101 7.73421 31.455 7.04743 30.9449 6.52611C30.4347 6.00479 29.7881 5.74363 29.006 5.74363C28.2239 5.74363 27.5803 6.00479 27.0761 6.52611C26.571 7.04842 26.3189 7.73421 26.3189 8.58447C26.3189 9.43472 26.571 10.1215 27.0761 10.6428C27.5803 11.1651 28.2239 11.4253 29.006 11.4253C29.7881 11.4253 30.4347 11.1641 30.9449 10.6428Z" fill="white"/>
<path d="M44.9076 4.04015V11.7483C44.9076 14.947 43.2746 16.5468 40.0096 16.5468C39.1368 16.5468 38.3088 16.4362 37.5267 16.2149C36.7446 15.9936 36.098 15.6726 35.5879 15.254L36.5404 13.6541C36.9369 13.9831 37.4391 14.2472 38.0458 14.4456C38.6526 14.6439 39.2673 14.7436 39.891 14.7436C40.8884 14.7436 41.6197 14.5164 42.085 14.0628C42.5502 13.6093 42.7824 12.9175 42.7824 11.9865V11.51C42.4197 11.9068 41.9773 12.2078 41.4563 12.4121C40.9342 12.6165 40.3623 12.7181 39.7386 12.7181C38.8768 12.7181 38.0976 12.5337 37.4002 12.1649C36.7028 11.7961 36.1528 11.2778 35.7503 10.608C35.3477 9.93912 35.1465 9.17359 35.1465 8.31137C35.1465 7.44915 35.3477 6.68661 35.7503 6.02275C36.1528 5.35889 36.7028 4.84655 37.4002 4.48272C38.0976 4.11989 38.8768 3.93848 39.7386 3.93848C40.3962 3.93848 40.994 4.04613 41.533 4.26144C42.071 4.47674 42.5223 4.80568 42.885 5.24825V4.04015H44.9086H44.9076ZM42.0421 10.1913C42.5582 9.70886 42.8163 9.08288 42.8163 8.31137C42.8163 7.53986 42.5582 6.93282 42.0421 6.45635C41.526 5.97989 40.8654 5.74166 40.0604 5.74166C39.2554 5.74166 38.5779 5.97989 38.0618 6.45635C37.5457 6.93282 37.2876 7.55082 37.2876 8.31137C37.2876 9.07191 37.5457 9.70986 38.0618 10.1913C38.5779 10.6737 39.2434 10.914 40.0604 10.914C40.8774 10.914 41.526 10.6728 42.0421 10.1913Z" fill="white"/>
<path d="M47.6973 0.5H49.8234V13.1253H47.6973V0.5V0.5Z" fill="white"/>
<path d="M61.1162 9.26423H53.9904C54.115 9.93407 54.4408 10.4634 54.9688 10.8551C55.4959 11.2468 56.1505 11.4422 56.9336 11.4422C57.9309 11.4422 58.7529 11.1133 59.3995 10.4554L60.5393 11.7652C60.1308 12.2526 59.6147 12.6214 58.992 12.8716C58.3683 13.1208 57.6659 13.2464 56.8828 13.2464C55.8844 13.2464 55.0057 13.048 54.2465 12.6513C53.4863 12.2546 52.9004 11.7014 52.4859 10.9927C52.0715 10.2839 51.8652 9.48153 51.8652 8.58542C51.8652 7.68931 52.0665 6.90385 52.469 6.19514C52.8715 5.48642 53.4295 4.93321 54.1438 4.53649C54.8582 4.13977 55.6633 3.94141 56.559 3.94141C57.4547 3.94141 58.2338 4.13678 58.9312 4.52851C59.6287 4.92025 60.1727 5.47047 60.5642 6.17919C60.9558 6.8879 61.1511 7.70825 61.1511 8.63825C61.1511 8.78578 61.1401 8.9951 61.1172 9.26822L61.1162 9.26423ZM54.8323 6.24398C54.362 6.64668 54.0751 7.18295 53.9735 7.85179H59.1265C59.0358 7.19391 58.7579 6.66063 58.2936 6.25195C57.8283 5.84327 57.2504 5.63893 56.559 5.63893C55.8675 5.63893 55.3026 5.84028 54.8323 6.24298V6.24398Z" fill="white"/>
<path d="M75.6819 1.72715C76.4471 2.06705 77.034 2.55548 77.4425 3.19043C77.851 3.82538 78.0552 4.57995 78.0552 5.45313C78.0552 6.32631 77.851 7.06692 77.4425 7.70786C77.034 8.34879 76.4471 8.8392 75.6819 9.1801C74.9168 9.52001 74.0181 9.69046 72.9859 9.69046H70.2988V13.1274H68.0879V1.2168H72.9859C74.0171 1.2168 74.9158 1.38725 75.6819 1.72715ZM75.0782 7.20647C75.5773 6.79779 75.8264 6.21368 75.8264 5.45413C75.8264 4.69458 75.5773 4.10946 75.0782 3.70178C74.579 3.2931 73.8477 3.08876 72.8842 3.08876H70.2988V7.8185H72.8842C73.8477 7.8185 74.579 7.61416 75.0782 7.20547V7.20647Z" fill="white"/>
<path d="M80.2305 0.5H82.3566V13.1253H80.2305V0.5V0.5Z" fill="white"/>
<path d="M91.6865 4.8994C92.3949 5.54033 92.7496 6.50721 92.7496 7.80004V13.1259H90.743V12.0194C90.4819 12.4161 90.1103 12.7202 89.6291 12.9295C89.1469 13.1388 88.566 13.2445 87.8855 13.2445C87.205 13.2445 86.6102 13.1278 86.1001 12.8956C85.59 12.6633 85.1954 12.3404 84.9184 11.9257C84.6404 11.5121 84.502 11.0436 84.502 10.5223C84.502 9.70589 84.8048 9.05 85.4116 8.5566C86.0184 8.06319 86.9739 7.81599 88.2771 7.81599H90.6244V7.67943C90.6244 7.04448 90.4341 6.55605 90.0545 6.21615C89.6749 5.87625 89.111 5.7058 88.3627 5.7058C87.8526 5.7058 87.3505 5.78554 86.8573 5.94403C86.3641 6.10351 85.9476 6.3238 85.6069 6.60788L84.774 5.05988C85.2502 4.69705 85.8221 4.41895 86.4916 4.22657C87.1602 4.03419 87.8696 3.9375 88.6178 3.9375C89.9559 3.9375 90.9791 4.25846 91.6875 4.8984L91.6865 4.8994ZM89.7477 11.3306C90.1611 11.0864 90.4531 10.7376 90.6234 10.284V9.22943H88.4295C87.205 9.22943 86.5923 9.63213 86.5923 10.4375C86.5923 10.8233 86.7457 11.1293 87.0516 11.3566C87.3575 11.5838 87.7829 11.6965 88.3269 11.6965C88.8709 11.6965 89.3332 11.5749 89.7467 11.3306H89.7477Z" fill="white"/>
<path d="M103.804 4.04004L99.5524 13.8574C99.1558 14.8442 98.6736 15.5389 98.1067 15.9416C97.5398 16.3443 96.8533 16.5457 96.0492 16.5457C95.5959 16.5457 95.1476 16.4719 94.7052 16.3244C94.2628 16.1769 93.9001 15.9725 93.6172 15.7114L94.4681 14.1464C94.6723 14.3388 94.9124 14.4923 95.1904 14.6059C95.4684 14.7196 95.7483 14.7764 96.0323 14.7764C96.4069 14.7764 96.7158 14.6797 96.9589 14.4873C97.203 14.294 97.4262 13.971 97.6304 13.5175L97.7839 13.1606L93.8214 4.04004H96.0323L98.8898 10.7614L101.764 4.04004H103.805H103.804Z" fill="white"/>
</svg>
