<svg width="77" height="64" viewBox="0 0 77 64" fill="none" xmlns="http://www.w3.org/2000/svg">
<path d="M16.5808 63.6328C18.2609 63.6328 19.8722 62.9653 21.0603 61.7773C22.2483 60.5893 22.9157 58.978 22.9157 57.2979V38.2933C22.9157 36.6132 22.2483 35.0019 21.0603 33.8139C19.8722 32.6259 18.2609 31.9585 16.5808 31.9585V28.791C16.5808 22.9107 18.9168 17.2711 23.0749 13.1131C27.2329 8.95501 32.8725 6.61904 38.7528 6.61904C44.6332 6.61904 50.2728 8.95501 54.4308 13.1131C58.5889 17.2711 60.9248 22.9107 60.9248 28.791V31.9585C59.2447 31.9585 57.6334 32.6259 56.4454 33.8139C55.2574 35.0019 54.59 36.6132 54.59 38.2933V57.2979H45.0877C44.2476 57.2979 43.442 57.6316 42.848 58.2256C42.254 58.8196 41.9203 59.6253 41.9203 60.4653C41.9203 61.3054 42.254 62.111 42.848 62.705C43.442 63.2991 44.2476 63.6328 45.0877 63.6328H60.9248C64.5548 63.6219 68.0708 62.3644 70.8843 60.0708C73.6978 57.7772 75.638 54.5868 76.3801 51.0335C77.1223 47.4802 76.6212 43.7799 74.9609 40.5519C73.3006 37.3239 70.5818 34.7643 67.2597 33.3015V28.791C67.2597 21.2306 64.2563 13.9797 58.9102 8.63365C53.5642 3.28757 46.3133 0.28418 38.7528 0.28418C31.1924 0.28418 23.9415 3.28757 18.5954 8.63365C13.2494 13.9797 10.246 21.2306 10.246 28.791V33.3015C6.92385 34.7643 4.20506 37.3239 2.54476 40.5519C0.884457 43.7799 0.383428 47.4802 1.12555 51.0335C1.86766 54.5868 3.80788 57.7772 6.62139 60.0708C9.4349 62.3644 12.9509 63.6219 16.5808 63.6328Z" fill="white"/>
</svg>
