<svg width="102" height="83" viewBox="0 0 102 83" fill="none" xmlns="http://www.w3.org/2000/svg">
<g clip-path="url(#clip0_581_12273)">
<path d="M5.31034 26.663C4.47052 26.9916 3.85745 27.2312 3.11002 27.5264C2.37378 25.8413 1.64594 24.1757 0.878906 22.4209C3.34797 21.3123 5.72185 20.2399 8.09852 19.1787C22.1598 12.8894 36.2184 6.60005 50.2909 0.338573C50.6996 0.157525 51.3239 0.104603 51.7158 0.277295C67.9522 7.50251 84.1747 14.7584 100.4 22.0142C100.652 22.1256 100.893 22.2565 101.257 22.432C100.537 24.106 99.8316 25.7522 99.0758 27.5125C98.3675 27.2479 97.7041 27 96.8671 26.6853V82.2002H86.7557V26.131H15.4357V82.1974H5.31034V26.663Z" fill="#628CA5"/>
<path d="M40.957 66.8506H61.1994V82.1895H40.957V66.8506Z" fill="#628CA5"/>
<path d="M71.4399 64.5355H51.2199C51.1863 64.2431 51.1303 63.9785 51.1303 63.7138C51.1247 59.1681 51.1303 54.6197 51.1191 50.074C51.1191 49.4807 51.1639 49.1047 51.9394 49.1074C58.252 49.1353 64.5674 49.1269 70.88 49.1325C71.048 49.1325 71.2131 49.1771 71.4399 49.2077V64.5355Z" fill="#628CA5"/>
<path d="M48.2963 49.1884V64.5134C47.9464 64.5412 47.644 64.583 47.3417 64.583C41.2754 64.583 35.2063 64.5635 29.1401 64.5997C28.2247 64.6053 27.9559 64.3769 27.9671 63.4438C28.0175 59.004 27.9979 54.5613 27.9811 50.1215C27.9811 49.4753 28.0567 49.1076 28.8657 49.1104C35.142 49.1382 41.4182 49.1243 47.6944 49.1243C47.8624 49.1243 48.0331 49.1577 48.2963 49.1884Z" fill="#628CA5"/>
<path d="M38.0302 82.2087H17.8242V66.8809H38.033V82.2087H38.0302Z" fill="#628CA5"/>
<path d="M64.1504 66.8643H84.362V82.1726H64.1504V66.8643Z" fill="#628CA5"/>
<path d="M18.4531 38.5371H83.7124V41.4311H18.4531V38.5371Z" fill="#628CA5"/>
<path d="M18.418 31.3398V28.4932H83.7949C83.7949 28.9806 83.7949 29.4541 83.7949 29.9248C83.7949 30.3705 83.7949 30.8189 83.7949 31.3398H18.418Z" fill="#628CA5"/>
<path d="M18.4784 36.3763C18.1891 34.4173 18.973 33.4387 20.8299 33.4405C41.453 33.4405 62.0761 33.4461 82.6991 33.4238C83.5753 33.4238 83.8945 33.6745 83.8021 34.538C83.7405 35.1145 83.7909 35.705 83.7909 36.3763H18.4784Z" fill="#628CA5"/>
</g>
<defs>
<clipPath id="clip0_581_12273">
<rect width="100.375" height="82.0371" fill="white" transform="translate(0.878906 0.171875)"/>
</clipPath>
</defs>
</svg>
