<svg width="301" height="301" viewBox="0 0 301 301" fill="none" xmlns="http://www.w3.org/2000/svg">
<path d="M264.465 253.627C258.438 259.977 252.735 264.073 248.228 267.309C195.262 305.343 132.588 294.257 119.269 291.549C99.5994 287.55 61.5792 279.822 34.0912 247.471C-7.4965 198.527 -1.02156 121.415 31.2363 70.5139C37.1369 61.2023 68.3049 9.52556 131.654 1.23827C169.991 -3.77679 214.681 6.33806 247.044 33.4736C314.977 90.4336 310.141 205.502 264.465 253.627Z" fill="url(#paint0_linear_583_17035)"/>
<path d="M217.201 175.287C217.201 175.287 216.375 140.512 232.379 131.205C248.383 121.898 278.812 116.08 279.953 66.1467C280.621 36.9144 281.344 24.1333 281.828 18.5594C282.017 16.3855 280.087 14.6308 277.945 15.0341C262.787 17.8913 213.549 29.6535 203.226 63.2885C190.987 103.162 217.203 175.287 217.203 175.287H217.201Z" fill="#91B3FA"/>
<path opacity="0.5" d="M266.221 28.9273C249.583 43.7783 230.344 70.0602 220.09 96.3421C218.774 100.674 214.924 109.885 213.252 126.251C211.758 139.901 212.501 154.324 214.312 163.873C214.426 164.477 215.008 164.872 215.611 164.759C216.648 164.561 216.51 163.446 216.5 163.48C214.432 147.167 215.29 126.864 220.029 108.544C226.083 86.0492 239.586 64.2397 253.553 45.7432L254.99 43.9221C265.81 30.0148 268.089 29.9118 267.077 28.9434C266.838 28.7149 266.464 28.7128 266.221 28.9283V28.9273Z" fill="white"/>
<path d="M190.621 248.921C188.236 250.091 213.196 218.678 221.016 169.34C224.7 146.092 224.749 116.963 237.982 105.737C248.995 96.3947 286.472 102.294 298.735 104.535C300.267 104.815 300.783 106.752 299.59 107.755C293.71 112.697 281.13 124.356 277.852 136.106C273.533 151.593 258.82 161.443 245.649 164.109C232.479 166.775 225.152 169.362 218.736 190.441C212.32 211.521 197.397 245.596 190.621 248.921Z" fill="#BDD0FB"/>
<path opacity="0.5" d="M281.488 111.079C265.843 111.734 249.049 118.877 240.527 132.275L239.722 133.553C237.864 136.551 227.335 157.862 221.488 175.526C221.415 175.746 221.534 175.984 221.755 176.057C222.129 176.18 222.316 175.769 222.28 175.806C226.355 165.826 232.206 153.174 236.866 143.712C241.865 133.388 245.363 126.395 256.762 119.698C269.45 112.486 281.573 111.744 281.536 111.751C281.722 111.732 281.856 111.567 281.837 111.381C281.819 111.203 281.665 111.071 281.488 111.079Z" fill="white"/>
<path d="M201.321 253.053C199.905 253.8 209.292 237.632 210.012 223.387C210.732 209.142 213.943 184.829 226.218 170.285C238.492 155.74 251.934 154.414 268.871 167.635C282.985 178.653 291.789 184.214 296.952 185.247C298.231 185.504 298.883 186.947 298.261 188.095C294.949 194.198 285.586 208.218 269.865 207.23C249.812 205.971 225.51 192.925 218.103 203.808C210.696 214.691 211.647 220.781 211.419 225.938C211.192 231.096 210.684 248.11 201.32 253.052L201.321 253.053Z" fill="#91B3FA"/>
<path opacity="0.5" d="M263.182 185.099C257.04 179.204 247.035 173.413 238.29 174.493C226.913 176.327 219.335 183.93 215.201 195.248C213.585 200.054 212.921 202.619 211.965 208.51C211.889 208.981 212.582 209.121 212.697 208.661C213.392 205.894 214.08 202.997 215.111 200C221.107 180.668 233.908 178.064 234.406 177.669C235.374 177.764 241.24 173.369 255.161 180.866C257.761 182.281 260.291 183.898 262.667 185.681L262.68 185.691C262.851 185.82 263.096 185.785 263.224 185.613C263.343 185.454 263.323 185.232 263.182 185.098V185.099Z" fill="white"/>
<path d="M25.5946 236.551L33.0126 248.886C35.4978 253.017 40.3277 255.116 45.0408 254.112L56.2118 251.733C59.2328 251.089 62.3577 251.995 64.6168 254.103C70.3008 259.406 76.5186 263.975 83.1221 267.775C85.8034 269.318 87.592 272.043 87.8652 275.126L88.8748 286.523C89.3002 291.326 92.7241 295.331 97.4008 296.494L111.361 299.967C116.038 301.13 120.937 299.195 123.56 295.15L129.784 285.552C131.468 282.955 134.323 281.385 137.414 281.278C145.027 281.014 152.659 279.89 160.162 277.867C163.145 277.063 166.329 277.727 168.698 279.711L177.456 287.048C181.151 290.143 186.401 290.552 190.53 288.065L202.855 280.641C206.983 278.154 209.08 273.32 208.077 268.603L205.699 257.423C205.056 254.4 205.962 251.272 208.067 249.012C213.367 243.323 217.932 237.1 221.729 230.491C223.271 227.807 225.993 226.018 229.075 225.745L240.463 224.734C245.262 224.308 249.264 220.882 250.426 216.201L253.896 202.23C255.058 197.549 253.125 192.647 249.084 190.021L239.494 183.792C236.899 182.107 235.33 179.25 235.224 176.156C234.961 168.537 233.838 160.899 231.816 153.39C231.013 150.405 231.676 147.217 233.659 144.848L240.99 136.084C244.083 132.386 244.491 127.131 242.006 123L234.587 110.664C232.101 106.533 227.272 104.434 222.559 105.438L211.389 107.818C208.368 108.461 205.243 107.555 202.984 105.447C197.299 100.144 191.082 95.575 184.478 91.7751C181.797 90.2317 180.008 87.5075 179.735 84.4241L178.726 73.0276C178.3 68.2238 174.876 64.2201 170.199 63.0564L156.239 59.5837C151.562 58.42 146.664 60.3548 144.04 64.4003L137.816 73.9982C136.133 76.5947 133.278 78.1649 130.186 78.2711C122.573 78.5349 114.942 79.6589 107.438 81.6817C104.456 82.486 101.271 81.8222 98.9022 79.838L90.1447 72.501C86.4496 69.4057 81.1996 68.9971 77.0705 71.4842L64.7443 78.9081C60.6163 81.3953 58.518 86.2291 59.5221 90.946L61.9001 102.126C62.5431 105.149 61.6376 108.277 59.5318 110.538C54.2324 116.226 49.6672 122.449 45.8703 129.058C44.3282 131.741 41.6062 133.531 38.5252 133.805L27.1378 134.815C22.3378 135.241 18.3363 138.667 17.1735 143.348L13.7035 157.319C12.5408 161.999 14.474 166.901 18.5163 169.527L28.1065 175.756C30.7021 177.441 32.2699 180.298 32.3771 183.392C32.6407 191.011 33.7638 198.649 35.785 206.158C36.5887 209.143 35.9253 212.331 33.9428 214.701L26.6116 223.465C23.5188 227.163 23.1105 232.418 25.5957 236.55L25.5946 236.551ZM58.0882 215.525C38.3601 173.677 56.2643 123.749 98.0781 104.004C139.892 84.26 189.782 102.178 209.51 144.026C229.238 185.873 211.334 235.803 169.52 255.546C127.706 275.29 77.8163 257.372 58.0882 215.525Z" fill="url(#paint1_linear_583_17035)"/>
<path d="M181.075 157.817C172.149 155.899 141.705 150.267 109.828 154.835C99.1511 156.364 89.7001 162.572 83.9379 171.697C73.5557 188.137 58.8697 217.445 61.9754 248.011L78.2709 252.044C78.2709 252.044 89.533 215.779 102.207 201.019C102.207 201.019 117.218 235.262 116.459 254.066C116.438 254.598 116.404 255.118 116.356 255.623C114.634 274.021 188.415 259.056 188.415 259.056L183.818 161.061C183.744 159.481 182.619 158.149 181.075 157.817Z" fill="url(#paint2_linear_583_17035)"/>
<path d="M155.692 123.404L157.837 148.863C158.036 151.231 156.817 153.447 154.784 154.395C150.102 156.58 141.112 159.714 131.497 157.413C129.737 156.993 128.59 155.152 128.881 153.274L135.117 112.92L155.692 123.403V123.404Z" fill="url(#paint3_linear_583_17035)"/>
<path d="M127.065 92.5479C127.065 92.5479 122.222 111.36 123.183 120.673C124.143 129.987 123.111 136.296 134.074 136.449C145.036 136.602 153.173 129.849 156.572 119.874C156.572 119.874 161.937 104.485 159.3 98.9561C156.662 93.4262 127.066 92.5479 127.066 92.5479H127.065Z" fill="url(#paint4_linear_583_17035)"/>
<path d="M151.87 113.845L150.522 114.06C150.522 114.06 154.257 101.767 149.056 100.545C143.855 99.322 123.889 98.4672 118.621 92.267C113.542 86.291 115.764 77.1661 120.748 73.9153C121.063 73.7094 121.49 73.8059 121.716 74.1062L122.295 74.8774C122.691 75.405 123.528 75.182 123.61 74.5267C123.687 73.9046 124.466 73.6472 124.876 74.1202C126.482 75.9692 130.472 78.7556 140.02 78.9861C153.568 79.3122 163.119 83.2515 164.786 92.3196C164.892 92.8945 165.558 93.1133 166.002 92.7347C166.879 91.9871 168.39 91.4605 170.746 92.8762C174.845 95.3398 174.626 103.464 167.74 111.219C167.413 111.588 167.51 112.176 167.96 112.376C169.545 113.081 172.041 114.966 166.968 118.82C161.778 122.763 158.368 122.969 157.048 122.848C156.694 122.814 156.415 122.541 156.38 122.186L155.59 114.04C155.549 113.619 155.161 113.319 154.744 113.386L151.87 113.845Z" fill="url(#paint5_linear_583_17035)"/>
<path d="M151.809 115.586C151.809 115.586 152.934 103.884 158.47 106.229C164.006 108.575 157.868 119.236 153.889 120.303L151.809 115.586Z" fill="url(#paint6_linear_583_17035)"/>
<path d="M183.474 229.815C185.065 218.571 173.431 202.043 168.618 195.771C167.241 193.977 166.471 191.784 166.452 189.522C166.312 173.598 171.698 165.28 182.402 158.413C182.402 158.413 222.548 201.803 212.655 236.646C211.588 240.406 209.933 243.636 207.836 246.412C206.277 233.283 191.115 230.42 183.474 229.814V229.815Z" fill="url(#paint7_linear_583_17035)"/>
<path d="M182.748 225.466L184.228 225.296C182.973 214.27 173.305 200.657 169.207 195.317L168.025 196.226C172.048 201.468 181.535 214.81 182.748 225.466Z" fill="url(#paint8_linear_583_17035)"/>
<path d="M183.168 231.372C183.304 230.867 183.399 230.345 183.474 229.815C191.115 230.421 206.277 233.285 207.836 246.413C190.498 269.362 142.709 261.082 142.709 261.082V252.152C142.709 252.152 179.411 245.328 183.168 231.371V231.372Z" fill="url(#paint9_linear_583_17035)"/>
<path d="M147.303 258.617C147.303 258.617 140.247 241.953 127.814 247.864C115.381 253.775 116.358 257.642 116.358 257.642L147.303 258.616V258.617Z" fill="url(#paint10_linear_583_17035)"/>
<path d="M148.889 262.075C148.79 263.336 147.716 264.295 146.454 264.251L82.0261 262.002C81.0251 261.967 80.155 261.303 79.856 260.346L77.9859 254.357C77.5262 252.886 78.5753 251.376 80.1132 251.294L103.608 250.045C103.821 250.033 104.036 250.051 104.244 250.097L147.047 259.585C148.195 259.839 148.981 260.902 148.889 262.075Z" fill="#628CA5"/>
<path d="M105.701 259.722L103.929 251.454L79.7949 252.607L81.3831 259.467L105.701 259.722Z" fill="#628CA5"/>
<path d="M118.074 170.535C119.44 181.704 125.584 227.085 127.343 240.051C127.59 241.874 126.142 243.479 124.304 243.426L20.072 240.441C18.7078 240.403 17.545 239.441 17.2493 238.108L1.03513 165.028C0.606467 163.096 2.14322 161.29 4.11721 161.405L115.291 167.921C116.728 168.005 117.898 169.103 118.073 170.534L118.074 170.535Z" fill="url(#paint11_linear_583_17035)"/>
<path d="M76.177 216.564L91.582 260.323L55.7619 261.082L52.7795 216.826C52.6391 214.75 54.3602 213.025 56.436 213.163L73.1645 214.274C74.5362 214.366 75.7215 215.265 76.178 216.563L76.177 216.564Z" fill="url(#paint12_linear_583_17035)"/>
<path d="M106.103 260.945C106.498 262.15 105.602 263.388 104.335 263.388H48.2393C47.2116 263.388 46.3789 262.554 46.3789 261.526V259.118C46.3789 258.058 47.2609 257.212 48.3186 257.258L104.415 259.666C105.189 259.699 105.862 260.209 106.103 260.945Z" fill="url(#paint13_linear_583_17035)"/>
<path d="M134.086 127.222C146.646 130.517 156.458 118.693 156.555 118.573L155.788 117.946C155.695 118.061 146.276 129.395 134.337 126.264L134.086 127.221V127.222Z" fill="url(#paint14_linear_583_17035)"/>
<path d="M130.906 125.529L131.054 125.125C131.316 124.407 132.112 124.036 132.831 124.299L135.237 125.181C135.955 125.443 136.325 126.24 136.062 126.96L135.915 127.363C135.652 128.082 134.856 128.452 134.137 128.189L131.731 127.308C131.013 127.045 130.643 126.248 130.906 125.529Z" fill="url(#paint15_linear_583_17035)"/>
<path d="M135.621 127.536L134.965 129.094L135.042 129.122L135.621 127.536Z" fill="url(#paint16_linear_583_17035)"/>
<path d="M136.267 125.57L134.754 129.563L134.789 129.575L135.833 127.615L136.544 125.671L136.267 125.57Z" fill="url(#paint17_linear_583_17035)"/>
<path d="M136.232 125.558L134.719 129.551L134.753 129.564L136.266 125.571L136.232 125.558Z" fill="#628CA5"/>
<path d="M136.199 125.545L134.686 129.538L134.72 129.551L136.233 125.558L136.199 125.545Z" fill="#628CA5"/>
<path d="M136.164 125.532L134.65 129.525L134.686 129.538L136.199 125.545L136.164 125.532Z" fill="url(#paint18_linear_583_17035)"/>
<path d="M136.128 125.519L134.615 129.512L134.65 129.525L136.163 125.532L136.128 125.519Z" fill="#527190"/>
<path d="M136.092 125.506L134.58 129.499L134.614 129.512L136.128 125.519L136.092 125.506Z" fill="#527190"/>
<path d="M136.06 125.494L134.547 129.486L134.582 129.499L136.094 125.506L136.06 125.494Z" fill="#537391"/>
<path d="M136.025 125.481L134.512 129.474L134.546 129.486L136.059 125.494L136.025 125.481Z" fill="#537391"/>
<path d="M135.989 125.469L134.477 129.461L134.511 129.474L136.024 125.481L135.989 125.469Z" fill="#628CA5"/>
<path d="M135.957 125.456L134.443 129.449L134.479 129.462L135.991 125.469L135.957 125.456Z" fill="#628CA5"/>
<path d="M135.921 125.443L134.408 129.436L134.443 129.449L135.956 125.456L135.921 125.443Z" fill="#527190"/>
<path d="M135.884 125.43L134.371 129.423L134.406 129.436L135.92 125.443L135.884 125.43Z" fill="url(#paint19_linear_583_17035)"/>
<path d="M135.851 125.418L134.338 129.41L134.372 129.423L135.885 125.43L135.851 125.418Z" fill="#537391"/>
<path d="M135.816 125.406L134.303 129.398L134.337 129.41L135.85 125.418L135.816 125.406Z" fill="#537391"/>
<path d="M135.781 125.393L134.268 129.386L134.303 129.398L135.816 125.405L135.781 125.393Z" fill="url(#paint20_linear_583_17035)"/>
<path d="M135.746 125.38L134.232 129.373L134.267 129.385L135.78 125.393L135.746 125.38Z" fill="#628CA5"/>
<path d="M135.714 125.366L134.201 129.359L134.235 129.372L135.749 125.379L135.714 125.366Z" fill="#527190"/>
<path d="M135.677 125.354L134.164 129.346L134.199 129.359L135.713 125.366L135.677 125.354Z" fill="url(#paint21_linear_583_17035)"/>
<path d="M135.642 125.341L134.129 129.334L134.163 129.347L135.676 125.354L135.642 125.341Z" fill="#527190"/>
<path d="M135.608 125.329L134.096 129.321L134.13 129.334L135.643 125.341L135.608 125.329Z" fill="#537391"/>
<path d="M135.574 125.316L134.061 129.309L134.096 129.321L135.608 125.329L135.574 125.316Z" fill="#537391"/>
<path d="M135.539 125.304L134.025 129.297L134.06 129.31L135.573 125.317L135.539 125.304Z" fill="#628CA5"/>
<path d="M135.504 125.291L133.992 129.283L134.026 129.296L135.54 125.303L135.504 125.291Z" fill="#628CA5"/>
<path d="M135.47 125.278L133.957 129.271L133.992 129.284L135.504 125.291L135.47 125.278Z" fill="#527190"/>
<path d="M135.435 125.265L133.922 129.258L133.956 129.271L135.469 125.278L135.435 125.265Z" fill="#527190"/>
<path d="M135.398 125.253L133.885 129.245L133.92 129.258L135.433 125.265L135.398 125.253Z" fill="url(#paint22_linear_583_17035)"/>
<path d="M135.367 125.24L133.854 129.233L133.888 129.245L135.401 125.253L135.367 125.24Z" fill="#537391"/>
<path d="M135.332 125.227L133.818 129.22L133.853 129.233L135.366 125.24L135.332 125.227Z" fill="#628CA5"/>
<path d="M135.294 125.215L133.781 129.208L133.817 129.22L135.33 125.227L135.294 125.215Z" fill="url(#paint23_linear_583_17035)"/>
<path d="M135.261 125.201L133.748 129.194L133.782 129.207L135.296 125.214L135.261 125.201Z" fill="#527190"/>
<path d="M135.228 125.189L133.715 129.182L133.749 129.195L135.262 125.202L135.228 125.189Z" fill="#527190"/>
<path d="M135.191 125.177L133.678 129.168L133.713 129.181L135.226 125.188L135.191 125.177Z" fill="url(#paint24_linear_583_17035)"/>
<path d="M135.158 125.164L133.645 129.156L133.679 129.169L135.192 125.177L135.158 125.164Z" fill="#537391"/>
<path d="M135.123 125.151L133.611 129.144L133.646 129.156L135.159 125.164L135.123 125.151Z" fill="#537391"/>
<path d="M135.087 125.138L133.574 129.131L133.61 129.144L135.122 125.151L135.087 125.138Z" fill="#628CA5"/>
<path d="M135.052 125.125L133.539 129.118L133.573 129.131L135.087 125.138L135.052 125.125Z" fill="#628CA5"/>
<path d="M135.018 125.112L133.506 129.105L133.54 129.118L135.053 125.125L135.018 125.112Z" fill="#527190"/>
<path d="M134.984 125.1L133.471 129.093L133.506 129.105L135.018 125.112L134.984 125.1Z" fill="#527190"/>
<path d="M134.949 125.088L133.436 129.08L133.47 129.093L134.983 125.1L134.949 125.088Z" fill="#537391"/>
<path d="M134.916 125.075L133.402 129.068L133.438 129.08L134.951 125.088L134.916 125.075Z" fill="url(#paint25_linear_583_17035)"/>
<path d="M134.88 125.062L133.367 129.055L133.401 129.068L134.915 125.075L134.88 125.062Z" fill="#628CA5"/>
<path d="M134.845 125.05L133.332 129.043L133.366 129.055L134.88 125.062L134.845 125.05Z" fill="#628CA5"/>
<path d="M134.812 125.036L133.299 129.029L133.334 129.042L134.847 125.049L134.812 125.036Z" fill="url(#paint26_linear_583_17035)"/>
<path d="M134.777 125.023L133.264 129.016L133.298 129.029L134.811 125.036L134.777 125.023Z" fill="#527190"/>
<path d="M134.742 125.011L133.229 129.003L133.263 129.016L134.776 125.023L134.742 125.011Z" fill="#537391"/>
<path d="M134.705 124.999L133.191 128.991L133.227 129.003L134.74 125.011L134.705 124.999Z" fill="url(#paint27_linear_583_17035)"/>
<path d="M134.673 124.986L133.16 128.979L133.194 128.992L134.708 124.999L134.673 124.986Z" fill="#628CA5"/>
<path d="M134.637 124.973L133.125 128.966L133.159 128.979L134.672 124.986L134.637 124.973Z" fill="#628CA5"/>
<path d="M134.601 124.96L133.088 128.953L133.123 128.966L134.635 124.973L134.601 124.96Z" fill="#628CA5"/>
<path d="M134.568 124.948L133.055 128.94L133.089 128.953L134.602 124.96L134.568 124.948Z" fill="#527190"/>
<path d="M134.532 124.935L133.02 128.928L133.054 128.94L134.567 124.947L134.532 124.935Z" fill="#527190"/>
<path d="M134.498 124.923L132.984 128.916L133.02 128.928L134.532 124.935L134.498 124.923Z" fill="#537391"/>
<path d="M134.464 124.91L132.951 128.903L132.985 128.915L134.499 124.923L134.464 124.91Z" fill="#628CA5"/>
<path d="M134.429 124.897L132.916 128.89L132.951 128.903L134.465 124.91L134.429 124.897Z" fill="url(#paint28_linear_583_17035)"/>
<path d="M134.394 124.884L132.881 128.877L132.915 128.89L134.428 124.897L134.394 124.884Z" fill="#628CA5"/>
<path d="M134.359 124.871L132.846 128.864L132.88 128.877L134.393 124.884L134.359 124.871Z" fill="#527190"/>
<path d="M134.326 124.859L132.812 128.852L132.848 128.864L134.361 124.872L134.326 124.859Z" fill="url(#paint29_linear_583_17035)"/>
<path d="M134.291 124.846L132.777 128.838L132.812 128.851L134.325 124.858L134.291 124.846Z" fill="#537391"/>
<path d="M134.255 124.834L132.742 128.827L132.776 128.839L134.29 124.847L134.255 124.834Z" fill="#537391"/>
<path d="M134.222 124.821L132.709 128.814L132.744 128.826L134.258 124.833L134.222 124.821Z" fill="url(#paint30_linear_583_17035)"/>
<path d="M134.187 124.808L132.674 128.801L132.708 128.814L134.221 124.821L134.187 124.808Z" fill="#628CA5"/>
<path d="M134.151 124.795L132.639 128.788L132.673 128.801L134.186 124.808L134.151 124.795Z" fill="#527190"/>
<path d="M134.119 124.782L132.605 128.775L132.641 128.788L134.153 124.795L134.119 124.782Z" fill="#527190"/>
<path d="M134.083 124.77L132.57 128.762L132.605 128.775L134.118 124.782L134.083 124.77Z" fill="#537391"/>
<path d="M134.047 124.758L132.535 128.751L132.569 128.762L134.083 124.77L134.047 124.758Z" fill="#537391"/>
<path d="M134.011 124.744L132.498 128.737L132.533 128.75L134.046 124.757L134.011 124.744Z" fill="#628CA5"/>
<path d="M133.98 124.732L132.467 128.725L132.501 128.738L134.014 124.745L133.98 124.732Z" fill="#628CA5"/>
<path d="M133.943 124.719L132.43 128.712L132.465 128.725L133.978 124.732L133.943 124.719Z" fill="url(#paint31_linear_583_17035)"/>
<path d="M133.908 124.706L132.395 128.699L132.429 128.712L133.942 124.719L133.908 124.706Z" fill="#527190"/>
<path d="M133.876 124.693L132.363 128.686L132.398 128.699L133.911 124.706L133.876 124.693Z" fill="#527190"/>
<path d="M133.839 124.681L132.326 128.673L132.362 128.686L133.875 124.693L133.839 124.681Z" fill="url(#paint32_linear_583_17035)"/>
<path d="M133.804 124.668L132.291 128.661L132.325 128.673L133.838 124.681L133.804 124.668Z" fill="#537391"/>
<path d="M133.771 124.656L132.258 128.648L132.292 128.661L133.805 124.668L133.771 124.656Z" fill="#628CA5"/>
<path d="M133.736 124.643L132.223 128.636L132.258 128.649L133.771 124.656L133.736 124.643Z" fill="url(#paint33_linear_583_17035)"/>
<path d="M133.701 124.63L132.188 128.623L132.222 128.636L133.735 124.643L133.701 124.63Z" fill="#527190"/>
<path d="M133.664 124.617L132.152 128.61L132.187 128.623L133.7 124.63L133.664 124.617Z" fill="#527190"/>
<path d="M133.632 124.605L132.119 128.597L132.155 128.61L133.667 124.617L133.632 124.605Z" fill="#537391"/>
<path d="M133.597 124.593L132.084 128.585L132.118 128.597L133.631 124.605L133.597 124.593Z" fill="#537391"/>
<path d="M133.561 124.58L132.049 128.573L132.083 128.585L133.596 124.592L133.561 124.58Z" fill="#628CA5"/>
<path d="M133.529 124.567L132.016 128.56L132.051 128.573L133.563 124.58L133.529 124.567Z" fill="#628CA5"/>
<path d="M133.494 124.553L131.98 128.546L132.015 128.559L133.528 124.566L133.494 124.553Z" fill="#527190"/>
<path d="M133.457 124.541L131.945 128.534L131.98 128.547L133.493 124.554L133.457 124.541Z" fill="#527190"/>
<path d="M133.425 124.528L131.912 128.521L131.947 128.533L133.46 124.54L133.425 124.528Z" fill="#527190"/>
<path d="M133.39 124.516L131.877 128.509L131.911 128.521L133.424 124.528L133.39 124.516Z" fill="#537391"/>
<path d="M133.353 124.503L131.84 128.496L131.875 128.509L133.388 124.516L133.353 124.503Z" fill="url(#paint34_linear_583_17035)"/>
<path d="M133.318 124.49L131.805 128.483L131.839 128.496L133.352 124.503L133.318 124.49Z" fill="#628CA5"/>
<path d="M133.285 124.478L131.771 128.471L131.806 128.484L133.319 124.491L133.285 124.478Z" fill="#628CA5"/>
<path d="M133.25 124.465L131.736 128.458L131.772 128.471L133.285 124.478L133.25 124.465Z" fill="url(#paint35_linear_583_17035)"/>
<path d="M133.214 124.452L131.701 128.445L131.735 128.457L133.249 124.465L133.214 124.452Z" fill="#527190"/>
<path d="M133.182 124.44L131.67 128.432L131.704 128.444L133.217 124.451L133.182 124.44Z" fill="#537391"/>
<path d="M133.146 124.427L131.633 128.42L131.668 128.432L133.18 124.44L133.146 124.427Z" fill="#537391"/>
<path d="M133.111 124.415L131.598 128.408L131.632 128.42L133.145 124.427L133.111 124.415Z" fill="#628CA5"/>
<path d="M133.077 124.401L131.564 128.394L131.599 128.407L133.112 124.414L133.077 124.401Z" fill="#628CA5"/>
<path d="M133.042 124.388L131.529 128.381L131.565 128.394L133.077 124.401L133.042 124.388Z" fill="#527190"/>
<path d="M133.007 124.376L131.494 128.369L131.528 128.382L133.042 124.389L133.007 124.376Z" fill="#527190"/>
<path d="M132.972 124.364L131.459 128.356L131.494 128.369L133.008 124.376L132.972 124.364Z" fill="url(#paint36_linear_583_17035)"/>
<path d="M132.939 124.351L131.426 128.344L131.46 128.356L132.973 124.364L132.939 124.351Z" fill="#537391"/>
<path d="M132.904 124.338L131.391 128.331L131.425 128.344L132.938 124.351L132.904 124.338Z" fill="#628CA5"/>
<path d="M132.869 124.325L131.355 128.318L131.391 128.331L132.904 124.338L132.869 124.325Z" fill="url(#paint37_linear_583_17035)"/>
<path d="M132.835 124.312L131.322 128.305L131.357 128.318L132.87 124.325L132.835 124.312Z" fill="#628CA5"/>
<path d="M132.8 124.3L131.287 128.293L131.321 128.305L132.835 124.312L132.8 124.3Z" fill="#527190"/>
<path d="M132.763 124.287L131.25 128.28L131.285 128.292L132.799 124.299L132.763 124.287Z" fill="url(#paint38_linear_583_17035)"/>
<path d="M132.732 124.275L131.219 128.267L131.253 128.28L132.766 124.287L132.732 124.275Z" fill="#537391"/>
<path d="M132.697 124.262L131.184 128.255L131.218 128.266L132.731 124.275L132.697 124.262Z" fill="#537391"/>
<path d="M132.66 124.25L131.146 128.242L131.182 128.255L132.695 124.262L132.66 124.25Z" fill="url(#paint39_linear_583_17035)"/>
<path d="M132.626 124.236L131.113 128.229L131.148 128.242L132.661 124.249L132.626 124.236Z" fill="#628CA5"/>
<path d="M132.592 124.223L131.08 128.216L131.114 128.229L132.628 124.236L132.592 124.223Z" fill="#527190"/>
<path d="M132.556 124.21L131.043 128.203L131.078 128.216L132.59 124.223L132.556 124.21Z" fill="#527190"/>
<path d="M132.521 124.199L131.008 128.191L131.042 128.204L132.555 124.211L132.521 124.199Z" fill="#537391"/>
<path d="M132.488 124.186L130.975 128.179L131.01 128.191L132.523 124.199L132.488 124.186Z" fill="url(#paint40_linear_583_17035)"/>
<path d="M132.453 124.173L130.939 128.166L130.974 128.179L132.487 124.186L132.453 124.173Z" fill="#628CA5"/>
<path d="M132.417 124.16L130.904 128.153L130.939 128.166L132.452 124.173L132.417 124.16Z" fill="#628CA5"/>
<path d="M132.384 124.147L130.871 128.14L130.906 128.153L132.42 124.16L132.384 124.147Z" fill="url(#paint41_linear_583_17035)"/>
<path d="M132.349 124.135L130.836 128.127L130.87 128.14L132.383 124.147L132.349 124.135Z" fill="#527190"/>
<path d="M132.314 124.122L130.801 128.115L130.835 128.127L132.348 124.134L132.314 124.122Z" fill="#527190"/>
<path d="M132.279 124.11L130.766 128.102L130.801 128.114L132.314 124.121L132.279 124.11Z" fill="url(#paint42_linear_583_17035)"/>
<path d="M132.246 124.097L130.732 128.09L130.767 128.101L132.28 124.11L132.246 124.097Z" fill="#537391"/>
<path d="M132.209 124.083L130.697 128.076L130.732 128.089L132.245 124.096L132.209 124.083Z" fill="#628CA5"/>
<path d="M132.173 124.071L130.66 128.064L130.696 128.077L132.208 124.084L132.173 124.071Z" fill="#628CA5"/>
<path d="M132.142 124.058L130.629 128.051L130.663 128.064L132.176 124.071L132.142 124.058Z" fill="#527190"/>
<path d="M132.106 124.045L130.594 128.038L130.628 128.051L132.141 124.058L132.106 124.045Z" fill="#527190"/>
<path d="M132.07 124.033L130.557 128.025L130.592 128.038L132.104 124.045L132.07 124.033Z" fill="#537391"/>
<path d="M132.037 124.021L130.523 128.014L130.558 128.026L132.071 124.034L132.037 124.021Z" fill="#537391"/>
<path d="M132.002 124.008L130.49 128.001L130.525 128.014L132.038 124.021L132.002 124.008Z" fill="#628CA5"/>
<path d="M131.966 123.995L130.453 127.988L130.488 128.001L132.001 124.008L131.966 123.995Z" fill="#628CA5"/>
<path d="M131.933 123.983L130.42 127.976L130.454 127.988L131.967 123.996L131.933 123.983Z" fill="#527190"/>
<path d="M131.898 123.969L130.385 127.962L130.42 127.975L131.933 123.982L131.898 123.969Z" fill="url(#paint43_linear_583_17035)"/>
<path d="M131.863 123.957L130.35 127.949L130.384 127.962L131.897 123.969L131.863 123.957Z" fill="#537391"/>
<path d="M131.828 123.945L130.314 127.938L130.349 127.949L131.862 123.957L131.828 123.945Z" fill="#537391"/>
<path d="M131.794 123.932L130.281 127.925L130.317 127.937L131.83 123.945L131.794 123.932Z" fill="url(#paint44_linear_583_17035)"/>
<path d="M131.759 123.919L130.246 127.912L130.28 127.925L131.794 123.932L131.759 123.919Z" fill="#628CA5"/>
<path d="M131.724 123.906L130.211 127.899L130.245 127.912L131.758 123.919L131.724 123.906Z" fill="#527190"/>
<path d="M131.691 123.893L130.178 127.886L130.213 127.899L131.726 123.906L131.691 123.893Z" fill="url(#paint45_linear_583_17035)"/>
<path d="M131.656 123.88L130.143 127.873L130.177 127.886L131.69 123.893L131.656 123.88Z" fill="#527190"/>
<path d="M131.62 123.868L130.107 127.861L130.142 127.873L131.655 123.88L131.62 123.868Z" fill="#537391"/>
<path d="M131.585 123.855L130.072 127.848L130.108 127.861L131.62 123.868L131.585 123.855Z" fill="#628CA5"/>
<path d="M131.552 123.843L130.039 127.836L130.073 127.849L131.587 123.856L131.552 123.843Z" fill="#628CA5"/>
<path d="M131.517 123.83L130.004 127.823L130.039 127.836L131.552 123.843L131.517 123.83Z" fill="url(#paint46_linear_583_17035)"/>
<path d="M131.48 123.817L129.967 127.81L130.001 127.822L131.514 123.83L131.48 123.817Z" fill="#527190"/>
<path d="M131.449 123.804L129.936 127.797L129.97 127.81L131.483 123.817L131.449 123.804Z" fill="#527190"/>
<path d="M131.412 123.792L129.898 127.784L129.934 127.797L131.447 123.804L131.412 123.792Z" fill="url(#paint47_linear_583_17035)"/>
<path d="M131.376 123.78L129.863 127.772L129.898 127.784L131.411 123.792L131.376 123.78Z" fill="#537391"/>
<path d="M131.345 123.767L129.832 127.76L129.866 127.773L131.379 123.78L131.345 123.767Z" fill="#628CA5"/>
<path d="M131.308 123.753L129.795 127.746L129.83 127.759L131.343 123.766L131.308 123.753Z" fill="url(#paint48_linear_583_17035)"/>
<path d="M131.273 123.74L129.76 127.733L129.794 127.746L131.307 123.753L131.273 123.74Z" fill="#527190"/>
<path d="M131.24 123.728L129.727 127.721L129.761 127.734L131.274 123.741L131.24 123.728Z" fill="#527190"/>
<path d="M131.205 123.715L129.691 127.708L129.727 127.721L131.24 123.728L131.205 123.715Z" fill="url(#paint49_linear_583_17035)"/>
<path d="M131.169 123.703L129.656 127.696L129.691 127.708L131.204 123.715L131.169 123.703Z" fill="#537391"/>
<path d="M131.134 123.69L129.621 127.683L129.655 127.696L131.169 123.703L131.134 123.69Z" fill="#628CA5"/>
<path d="M131.101 123.677L129.588 127.67L129.623 127.683L131.136 123.69L131.101 123.677Z" fill="url(#paint50_linear_583_17035)"/>
<path d="M131.066 123.664L129.553 127.657L129.587 127.67L131.1 123.677L131.066 123.664Z" fill="#628CA5"/>
<path d="M131.031 123.652L130.889 125.603L130.068 127.846L129.553 127.657L131.066 123.664L131.031 123.652Z" fill="url(#paint51_linear_583_17035)"/>
<path d="M130.482 125.454L130.883 124.056L130.98 124.092L130.482 125.454Z" fill="url(#paint52_linear_583_17035)"/>
<path d="M158.509 103.946C158.509 103.946 157.629 82.7432 145.332 78.3298C145.332 78.3298 149.185 77.3689 152.607 79.9129C156.03 82.4569 163.79 94.2255 161.58 105.071C158.877 105.419 158.509 103.946 158.509 103.946Z" fill="#537492"/>
<path d="M160.891 103.11C167.632 105.814 165.152 114.518 165.152 114.518C164.481 121.041 162.022 123.885 159.342 124.964C157.511 125.701 155.426 125.419 153.853 124.226C152.28 123.033 151.446 121.102 151.657 119.138C151.848 117.364 152.005 115.674 151.982 115.059C151.93 113.571 154.149 100.407 160.891 103.11Z" fill="#547493"/>
<path d="M159.84 105.233C161.339 105.245 162.631 106.281 162.968 107.743C165.379 118.211 159.087 123.58 156.541 123.251C153.858 122.903 156.251 110.114 157.416 106.936C157.903 105.604 158.875 105.224 159.839 105.233H159.84Z" fill="#537392"/>
<path d="M119.603 216.908L120.433 216.803L115.312 176.384C114.992 173.854 112.914 171.908 110.372 171.755L14.3004 165.947L14.25 166.782L110.322 172.589C112.463 172.718 114.212 174.358 114.483 176.488L119.603 216.907V216.908Z" fill="#91B3FA"/>
<path d="M121.894 228.317L121.064 228.421L122.166 237.172L122.995 237.068L121.894 228.317Z" fill="#91B3FA"/>
<path d="M86.5057 123.81C86.5057 123.81 -7.11086 77.5186 23.5053 43.4353C54.1214 9.35198 111.199 22.975 114.09 58.8484C116.981 94.7217 47.5103 86.3057 86.5057 123.81Z" fill="#BDD0FB"/>
<path d="M30.4805 52.2386C30.4805 52.7609 30.9027 53.1835 31.4246 53.1835H72.7401C73.2609 53.1835 73.6842 52.7609 73.6842 52.2386C73.6842 51.7163 73.262 51.2937 72.7401 51.2937H31.4246C30.9038 51.2937 30.4805 51.7163 30.4805 52.2386Z" fill="white"/>
<path d="M85.0066 53.182H97.2664C97.7872 53.182 98.2105 52.7594 98.2105 52.2371C98.2105 51.7148 97.7883 51.2922 97.2664 51.2922H85.0066C84.4858 51.2922 84.0625 51.7148 84.0625 52.2371C84.0625 52.7594 84.4847 53.182 85.0066 53.182Z" fill="white"/>
<path d="M29.0879 60.608C29.0879 61.1303 29.5101 61.5528 30.032 61.5528H45.5453C46.0661 61.5528 46.4894 61.1303 46.4894 60.608C46.4894 60.0857 46.0672 59.6631 45.5453 59.6631H30.032C29.5112 59.6631 29.0879 60.0857 29.0879 60.608Z" fill="white"/>
<path d="M67.3652 60.608C67.3652 61.1303 67.7875 61.5528 68.3094 61.5528H95.8755C96.3964 61.5528 96.8197 61.1303 96.8197 60.608C96.8197 60.0857 96.3974 59.6631 95.8755 59.6631H68.3094C67.7885 59.6631 67.3652 60.0857 67.3652 60.608Z" fill="white"/>
<path d="M28.6394 69.9252H69.8789C70.3997 69.9252 70.823 69.5026 70.823 68.9803C70.823 68.458 70.4008 68.0354 69.8789 68.0354H28.6394C28.1186 68.0354 27.6953 68.458 27.6953 68.9803C27.6953 69.5026 28.1175 69.9252 28.6394 69.9252Z" fill="white"/>
<path d="M80.2058 69.9252H94.4824C95.0033 69.9252 95.4266 69.5026 95.4266 68.9803C95.4266 68.458 95.0043 68.0354 94.4824 68.0354H80.2058C79.685 68.0354 79.2617 68.458 79.2617 68.9803C79.2617 69.5026 79.684 69.9252 80.2058 69.9252Z" fill="white"/>
<path d="M224.613 92.8767C244.605 92.8767 260.811 76.6577 260.811 56.6505C260.811 36.6433 244.605 20.4243 224.613 20.4243C204.622 20.4243 188.416 36.6433 188.416 56.6505C188.416 76.6577 204.622 92.8767 224.613 92.8767Z" fill="url(#paint53_linear_583_17035)"/>
<path d="M224.814 89.1123C242.479 89.1123 256.8 74.7804 256.8 57.1011C256.8 39.4218 242.479 25.0898 224.814 25.0898C207.149 25.0898 192.828 39.4218 192.828 57.1011C192.828 74.7804 207.149 89.1123 224.814 89.1123Z" fill="white"/>
<path d="M210.906 66.5455H199.792V63.6659L203.477 58.4449C204.488 57.0077 205.183 55.9406 205.562 55.2456C205.94 54.5506 206.219 53.8835 206.398 53.2453C206.577 52.6072 206.667 51.9476 206.667 51.2666C206.667 50.4718 206.49 49.8766 206.135 49.4787C205.78 49.0819 205.32 48.8824 204.753 48.8824C204.251 48.8824 203.784 49.0154 203.349 49.2792C202.914 49.5441 202.384 50.0214 201.761 50.7121L199.605 48.4426C200.598 47.3176 201.519 46.5464 202.369 46.1303C203.22 45.7142 204.141 45.5061 205.133 45.5061C206.806 45.5061 208.112 45.9984 209.053 46.9819C209.993 47.9654 210.463 49.3328 210.463 51.0821C210.463 51.8768 210.379 52.6286 210.208 53.3376C210.038 54.0465 209.781 54.7587 209.436 55.4729C209.091 56.1872 208.658 56.9294 208.139 57.7006C207.619 58.4717 206.277 60.2381 204.113 62.9998V63.1135H210.903V66.5466L210.906 66.5455Z" fill="url(#paint54_linear_583_17035)"/>
<path d="M225.196 62.1898H223.098V66.5452H219.469V62.1898H212.707V59.0548L218.973 45.804H223.098V58.998H225.196V62.1898ZM219.469 58.998V54.6286L219.54 52.6991L219.64 50.8544H219.526C219.195 51.8851 218.836 52.8171 218.449 53.6494L215.954 58.998H219.47H219.469Z" fill="url(#paint55_linear_583_17035)"/>
<path d="M237.204 45.804L229.478 66.5452H225.85L233.575 45.804H237.204Z" fill="url(#paint56_linear_583_17035)"/>
<path d="M239.924 66.5454L245.735 49.2512H238.506V45.832H249.62V48.4425L243.907 66.5454H239.924Z" fill="url(#paint57_linear_583_17035)"/>
<defs>
<linearGradient id="paint0_linear_583_17035" x1="336.656" y1="382.252" x2="73.9899" y2="56.2977" gradientUnits="userSpaceOnUse">
<stop stop-color="#DAE3FE"/>
<stop offset="1" stop-color="#E9EFFD"/>
</linearGradient>
<linearGradient id="paint1_linear_583_17035" x1="241.323" y1="80.3828" x2="-58.3217" y2="356.925" gradientUnits="userSpaceOnUse">
<stop stop-color="#628CA5"/>
<stop offset="1" stop-color="#150E42"/>
</linearGradient>
<linearGradient id="paint2_linear_583_17035" x1="-1834.8" y1="2250.48" x2="-1744.53" y2="2157.4" gradientUnits="userSpaceOnUse">
<stop stop-color="#C9766A"/>
<stop offset="1" stop-color="#FE7062"/>
<stop offset="1" stop-color="#C76E61"/>
</linearGradient>
<linearGradient id="paint3_linear_583_17035" x1="154.439" y1="190.444" x2="139.365" y2="126.594" gradientUnits="userSpaceOnUse">
<stop stop-color="#FEBBBA"/>
<stop offset="1" stop-color="#FF928E"/>
</linearGradient>
<linearGradient id="paint4_linear_583_17035" x1="152.167" y1="118.58" x2="124.814" y2="111.425" gradientUnits="userSpaceOnUse">
<stop stop-color="#FEBBBA"/>
<stop offset="1" stop-color="#FF928E"/>
</linearGradient>
<linearGradient id="paint5_linear_583_17035" x1="177.885" y1="131.53" x2="126.304" y2="70.7952" gradientUnits="userSpaceOnUse">
<stop stop-color="#C76E61"/>
<stop offset="1" stop-color="#E9605A"/>
</linearGradient>
<linearGradient id="paint6_linear_583_17035" x1="153.733" y1="112.595" x2="126.379" y2="105.441" gradientUnits="userSpaceOnUse">
<stop stop-color="#FEBBBA"/>
<stop offset="1" stop-color="#FF928E"/>
</linearGradient>
<linearGradient id="paint7_linear_583_17035" x1="-1736.32" y1="2196.38" x2="-1649.43" y2="2106.77" gradientUnits="userSpaceOnUse">
<stop stop-color="#C76E61"/>
<stop offset="1" stop-color="#FE7062"/>
</linearGradient>
<linearGradient id="paint8_linear_583_17035" x1="310.597" y1="71.2965" x2="50.5436" y2="340.578" gradientUnits="userSpaceOnUse">
<stop stop-color="#C76E61"/>
<stop offset="1" stop-color="#E9605A"/>
</linearGradient>
<linearGradient id="paint9_linear_583_17035" x1="187.558" y1="216.926" x2="159.199" y2="291.495" gradientUnits="userSpaceOnUse">
<stop stop-color="#FEBBBA"/>
<stop offset="1" stop-color="#FF928E"/>
</linearGradient>
<linearGradient id="paint10_linear_583_17035" x1="152.421" y1="203.562" x2="124.061" y2="278.132" gradientUnits="userSpaceOnUse">
<stop stop-color="#FEBBBA"/>
<stop offset="1" stop-color="#FF928E"/>
</linearGradient>
<linearGradient id="paint11_linear_583_17035" x1="67.1166" y1="203.861" x2="-51.9668" y2="131.307" gradientUnits="userSpaceOnUse">
<stop stop-color="#628CA5"/>
<stop offset="1" stop-color="#4042E2"/>
</linearGradient>
<linearGradient id="paint12_linear_583_17035" x1="63.7758" y1="256.296" x2="85.5783" y2="209.095" gradientUnits="userSpaceOnUse">
<stop stop-color="#628CA5"/>
<stop offset="1" stop-color="#4042E2"/>
</linearGradient>
<linearGradient id="paint13_linear_583_17035" x1="77.8288" y1="251.189" x2="96.0023" y2="143.689" gradientUnits="userSpaceOnUse">
<stop stop-color="#628CA5"/>
<stop offset="1" stop-color="#4042E2"/>
</linearGradient>
<linearGradient id="paint14_linear_583_17035" x1="154.049" y1="135.008" x2="140.287" y2="115.917" gradientUnits="userSpaceOnUse">
<stop stop-color="#4F52FF"/>
<stop offset="1" stop-color="#4042E2"/>
</linearGradient>
<linearGradient id="paint15_linear_583_17035" x1="130.811" y1="126.256" x2="136.137" y2="126.256" gradientUnits="userSpaceOnUse">
<stop stop-color="#4F52FF"/>
<stop offset="1" stop-color="#4042E2"/>
</linearGradient>
<linearGradient id="paint16_linear_583_17035" x1="134.965" y1="128.329" x2="135.621" y2="128.329" gradientUnits="userSpaceOnUse">
<stop stop-color="#4F52FF"/>
<stop offset="1" stop-color="#4042E2"/>
</linearGradient>
<linearGradient id="paint17_linear_583_17035" x1="134.754" y1="127.573" x2="136.544" y2="127.573" gradientUnits="userSpaceOnUse">
<stop stop-color="#4F52FF"/>
<stop offset="1" stop-color="#4042E2"/>
</linearGradient>
<linearGradient id="paint18_linear_583_17035" x1="134.65" y1="127.535" x2="136.199" y2="127.535" gradientUnits="userSpaceOnUse">
<stop stop-color="#4F52FF"/>
<stop offset="1" stop-color="#4042E2"/>
</linearGradient>
<linearGradient id="paint19_linear_583_17035" x1="134.371" y1="127.433" x2="135.92" y2="127.433" gradientUnits="userSpaceOnUse">
<stop stop-color="#4F52FF"/>
<stop offset="1" stop-color="#4042E2"/>
</linearGradient>
<linearGradient id="paint20_linear_583_17035" x1="134.268" y1="127.395" x2="135.816" y2="127.395" gradientUnits="userSpaceOnUse">
<stop stop-color="#4F52FF"/>
<stop offset="1" stop-color="#4042E2"/>
</linearGradient>
<linearGradient id="paint21_linear_583_17035" x1="134.164" y1="127.357" x2="135.713" y2="127.357" gradientUnits="userSpaceOnUse">
<stop stop-color="#4F52FF"/>
<stop offset="1" stop-color="#4042E2"/>
</linearGradient>
<linearGradient id="paint22_linear_583_17035" x1="133.885" y1="127.255" x2="135.433" y2="127.255" gradientUnits="userSpaceOnUse">
<stop stop-color="#628CA5"/>
<stop offset="1" stop-color="#4042E2"/>
</linearGradient>
<linearGradient id="paint23_linear_583_17035" x1="133.781" y1="127.217" x2="135.33" y2="127.217" gradientUnits="userSpaceOnUse">
<stop stop-color="#4F52FF"/>
<stop offset="1" stop-color="#4042E2"/>
</linearGradient>
<linearGradient id="paint24_linear_583_17035" x1="133.678" y1="127.179" x2="135.226" y2="127.179" gradientUnits="userSpaceOnUse">
<stop stop-color="#628CA5"/>
<stop offset="1" stop-color="#4042E2"/>
</linearGradient>
<linearGradient id="paint25_linear_583_17035" x1="133.402" y1="127.078" x2="134.951" y2="127.078" gradientUnits="userSpaceOnUse">
<stop stop-color="#628CA5"/>
<stop offset="1" stop-color="#4042E2"/>
</linearGradient>
<linearGradient id="paint26_linear_583_17035" x1="133.299" y1="127.04" x2="134.847" y2="127.04" gradientUnits="userSpaceOnUse">
<stop stop-color="#4F52FF"/>
<stop offset="1" stop-color="#4042E2"/>
</linearGradient>
<linearGradient id="paint27_linear_583_17035" x1="133.191" y1="127.001" x2="134.74" y2="127.001" gradientUnits="userSpaceOnUse">
<stop stop-color="#628CA5"/>
<stop offset="1" stop-color="#4042E2"/>
</linearGradient>
<linearGradient id="paint28_linear_583_17035" x1="132.916" y1="126.899" x2="134.465" y2="126.899" gradientUnits="userSpaceOnUse">
<stop stop-color="#4F52FF"/>
<stop offset="1" stop-color="#4042E2"/>
</linearGradient>
<linearGradient id="paint29_linear_583_17035" x1="132.812" y1="126.862" x2="134.361" y2="126.862" gradientUnits="userSpaceOnUse">
<stop stop-color="#4F52FF"/>
<stop offset="1" stop-color="#4042E2"/>
</linearGradient>
<linearGradient id="paint30_linear_583_17035" x1="132.709" y1="126.823" x2="134.258" y2="126.823" gradientUnits="userSpaceOnUse">
<stop stop-color="#4F52FF"/>
<stop offset="1" stop-color="#4042E2"/>
</linearGradient>
<linearGradient id="paint31_linear_583_17035" x1="132.43" y1="126.722" x2="133.978" y2="126.722" gradientUnits="userSpaceOnUse">
<stop stop-color="#4F52FF"/>
<stop offset="1" stop-color="#4042E2"/>
</linearGradient>
<linearGradient id="paint32_linear_583_17035" x1="132.326" y1="126.684" x2="133.875" y2="126.684" gradientUnits="userSpaceOnUse">
<stop stop-color="#628CA5"/>
<stop offset="1" stop-color="#4042E2"/>
</linearGradient>
<linearGradient id="paint33_linear_583_17035" x1="132.223" y1="126.645" x2="133.771" y2="126.645" gradientUnits="userSpaceOnUse">
<stop stop-color="#4F52FF"/>
<stop offset="1" stop-color="#4042E2"/>
</linearGradient>
<linearGradient id="paint34_linear_583_17035" x1="131.84" y1="126.506" x2="133.388" y2="126.506" gradientUnits="userSpaceOnUse">
<stop stop-color="#4F52FF"/>
<stop offset="1" stop-color="#4042E2"/>
</linearGradient>
<linearGradient id="paint35_linear_583_17035" x1="131.736" y1="126.469" x2="133.285" y2="126.469" gradientUnits="userSpaceOnUse">
<stop stop-color="#4F52FF"/>
<stop offset="1" stop-color="#4042E2"/>
</linearGradient>
<linearGradient id="paint36_linear_583_17035" x1="131.459" y1="126.366" x2="133.008" y2="126.366" gradientUnits="userSpaceOnUse">
<stop stop-color="#628CA5"/>
<stop offset="1" stop-color="#4042E2"/>
</linearGradient>
<linearGradient id="paint37_linear_583_17035" x1="131.355" y1="126.328" x2="132.904" y2="126.328" gradientUnits="userSpaceOnUse">
<stop stop-color="#4F52FF"/>
<stop offset="1" stop-color="#4042E2"/>
</linearGradient>
<linearGradient id="paint38_linear_583_17035" x1="131.25" y1="126.29" x2="132.799" y2="126.29" gradientUnits="userSpaceOnUse">
<stop stop-color="#4F52FF"/>
<stop offset="1" stop-color="#4042E2"/>
</linearGradient>
<linearGradient id="paint39_linear_583_17035" x1="131.146" y1="126.252" x2="132.695" y2="126.252" gradientUnits="userSpaceOnUse">
<stop stop-color="#4F52FF"/>
<stop offset="1" stop-color="#4042E2"/>
</linearGradient>
<linearGradient id="paint40_linear_583_17035" x1="130.975" y1="126.188" x2="132.523" y2="126.188" gradientUnits="userSpaceOnUse">
<stop stop-color="#628CA5"/>
<stop offset="1" stop-color="#4042E2"/>
</linearGradient>
<linearGradient id="paint41_linear_583_17035" x1="130.871" y1="126.151" x2="132.42" y2="126.151" gradientUnits="userSpaceOnUse">
<stop stop-color="#4F52FF"/>
<stop offset="1" stop-color="#4042E2"/>
</linearGradient>
<linearGradient id="paint42_linear_583_17035" x1="130.766" y1="126.112" x2="132.314" y2="126.112" gradientUnits="userSpaceOnUse">
<stop stop-color="#628CA5"/>
<stop offset="1" stop-color="#4042E2"/>
</linearGradient>
<linearGradient id="paint43_linear_583_17035" x1="130.385" y1="125.973" x2="131.933" y2="125.973" gradientUnits="userSpaceOnUse">
<stop stop-color="#4F52FF"/>
<stop offset="1" stop-color="#4042E2"/>
</linearGradient>
<linearGradient id="paint44_linear_583_17035" x1="130.281" y1="125.934" x2="131.83" y2="125.934" gradientUnits="userSpaceOnUse">
<stop stop-color="#4F52FF"/>
<stop offset="1" stop-color="#4042E2"/>
</linearGradient>
<linearGradient id="paint45_linear_583_17035" x1="130.178" y1="125.897" x2="131.726" y2="125.897" gradientUnits="userSpaceOnUse">
<stop stop-color="#4F52FF"/>
<stop offset="1" stop-color="#4042E2"/>
</linearGradient>
<linearGradient id="paint46_linear_583_17035" x1="130.004" y1="125.832" x2="131.552" y2="125.832" gradientUnits="userSpaceOnUse">
<stop stop-color="#4F52FF"/>
<stop offset="1" stop-color="#4042E2"/>
</linearGradient>
<linearGradient id="paint47_linear_583_17035" x1="129.898" y1="125.795" x2="131.447" y2="125.795" gradientUnits="userSpaceOnUse">
<stop stop-color="#628CA5"/>
<stop offset="1" stop-color="#4042E2"/>
</linearGradient>
<linearGradient id="paint48_linear_583_17035" x1="129.795" y1="125.756" x2="131.343" y2="125.756" gradientUnits="userSpaceOnUse">
<stop stop-color="#4F52FF"/>
<stop offset="1" stop-color="#4042E2"/>
</linearGradient>
<linearGradient id="paint49_linear_583_17035" x1="129.691" y1="125.719" x2="131.24" y2="125.719" gradientUnits="userSpaceOnUse">
<stop stop-color="#4F52FF"/>
<stop offset="1" stop-color="#4042E2"/>
</linearGradient>
<linearGradient id="paint50_linear_583_17035" x1="129.588" y1="125.68" x2="131.136" y2="125.68" gradientUnits="userSpaceOnUse">
<stop stop-color="#4F52FF"/>
<stop offset="1" stop-color="#4042E2"/>
</linearGradient>
<linearGradient id="paint51_linear_583_17035" x1="129.553" y1="125.749" x2="131.066" y2="125.749" gradientUnits="userSpaceOnUse">
<stop stop-color="#4F52FF"/>
<stop offset="1" stop-color="#4042E2"/>
</linearGradient>
<linearGradient id="paint52_linear_583_17035" x1="130.482" y1="124.754" x2="130.98" y2="124.754" gradientUnits="userSpaceOnUse">
<stop stop-color="#4F52FF"/>
<stop offset="1" stop-color="#4042E2"/>
</linearGradient>
<linearGradient id="paint53_linear_583_17035" x1="188.416" y1="56.6505" x2="260.812" y2="56.6505" gradientUnits="userSpaceOnUse">
<stop stop-color="#C76E61"/>
<stop offset="1" stop-color="#FE7062"/>
</linearGradient>
<linearGradient id="paint54_linear_583_17035" x1="334.667" y1="-90.0067" x2="282.362" y2="-30.4851" gradientUnits="userSpaceOnUse">
<stop stop-color="#C76E61"/>
<stop offset="1" stop-color="#E9605A"/>
</linearGradient>
<linearGradient id="paint55_linear_583_17035" x1="342.923" y1="-82.7525" x2="290.618" y2="-23.231" gradientUnits="userSpaceOnUse">
<stop stop-color="#C76E61"/>
<stop offset="1" stop-color="#E9605A"/>
</linearGradient>
<linearGradient id="paint56_linear_583_17035" x1="348.848" y1="-77.5476" x2="296.542" y2="-18.0261" gradientUnits="userSpaceOnUse">
<stop stop-color="#E1473D"/>
<stop offset="1" stop-color="#E9605A"/>
</linearGradient>
<linearGradient id="paint57_linear_583_17035" x1="354.32" y1="-72.7372" x2="302.014" y2="-13.2157" gradientUnits="userSpaceOnUse">
<stop stop-color="#C76E61"/>
<stop offset="1" stop-color="#E9605A"/>
</linearGradient>
</defs>
</svg>
