<svg width="273" height="309" viewBox="0 0 273 309" fill="none" xmlns="http://www.w3.org/2000/svg">
<path d="M255.218 218.177C229.54 278.712 161.141 312.624 101.826 303.476C92.1737 301.988 65.713 297.554 42.2857 276.635C-2.81459 236.366 -12.4589 156.628 23.9214 100.434C50.3997 59.5358 97.8651 36.3514 142.966 37.5115C152.682 37.7609 189.912 39.3009 222.633 66.3145C227.439 70.282 238.038 79.7102 247.591 94.6684C270.023 129.791 271.951 178.726 255.218 218.178V218.177Z" fill="url(#paint0_linear_583_17356)"/>
<path d="M243.279 184.033C245.875 124.723 196.147 74.3683 132.207 71.5619C68.2664 68.7556 14.3277 114.561 11.731 173.871C9.13433 233.181 58.863 283.536 122.803 286.342C186.743 289.148 240.682 243.343 243.279 184.033Z" fill="#91B3FA"/>
<g opacity="0.24">
<path d="M121.243 257.217C171.464 257.217 212.177 218.71 212.177 171.208C212.177 123.706 171.464 85.1982 121.243 85.1982C71.0212 85.1982 30.3086 123.706 30.3086 171.208C30.3086 218.71 71.0212 257.217 121.243 257.217Z" fill="#BDD0FB"/>
</g>
<g opacity="0.68">
<g style="mix-blend-mode:soft-light">
<path d="M157.119 179.483C157.091 198.442 155.793 217.44 152.456 236.129C151.611 240.798 150.632 245.445 149.465 250.047C148.295 254.648 146.943 259.209 145.288 263.667C143.62 268.115 141.684 272.497 139.058 276.504C137.735 278.492 136.234 280.397 134.381 281.964C133.455 282.743 132.438 283.433 131.321 283.94C130.205 284.443 128.985 284.761 127.747 284.783C126.511 284.819 125.273 284.576 124.135 284.117C122.993 283.662 121.951 283.003 121.003 282.25C119.107 280.731 117.573 278.847 116.226 276.874C113.554 272.897 111.591 268.522 109.905 264.081C108.23 259.629 106.865 255.073 105.685 250.475C104.507 245.876 103.517 241.232 102.665 236.564C100.965 227.227 99.8057 217.801 99.0235 208.349C98.2472 198.896 97.857 189.412 97.8094 179.926C97.786 175.184 97.9154 170.442 98.0837 165.704C98.2608 160.966 98.5215 156.231 98.8698 151.502C99.5703 142.046 100.616 132.611 102.172 123.252C102.952 118.575 103.863 113.917 104.957 109.3C106.055 104.684 107.33 100.106 108.912 95.6262C109.707 93.3887 110.577 91.1746 111.568 89.0131C112.558 86.8515 113.666 84.7378 114.967 82.7389C116.272 80.7488 117.772 78.8494 119.64 77.3288C120.574 76.5749 121.602 75.9193 122.73 75.4751C123.853 75.0251 125.071 74.7971 126.283 74.8439C127.495 74.878 128.691 75.1809 129.793 75.667C130.897 76.156 131.912 76.8203 132.844 77.5733C134.707 79.089 136.25 80.9427 137.618 82.8899C140.338 86.8106 142.389 91.1337 144.166 95.5327C145.929 99.9434 147.385 104.469 148.654 109.04C149.917 113.615 150.988 118.24 151.914 122.892C155.579 141.518 157.067 160.517 157.122 179.479L157.119 179.483ZM155.717 179.483C155.734 170.036 155.375 160.588 154.591 151.173C153.818 141.759 152.647 132.373 150.902 123.09C150.03 118.449 149.017 113.835 147.809 109.271C146.598 104.711 145.199 100.196 143.496 95.7986C141.781 91.4132 139.793 87.1048 137.154 83.2123C135.828 81.2797 134.331 79.4445 132.536 77.9513C131.639 77.209 130.664 76.5573 129.609 76.0771C128.556 75.6027 127.421 75.292 126.267 75.2608C125.115 75.2238 123.963 75.4566 122.896 75.8959C121.826 76.3313 120.844 76.9713 119.948 77.7106C118.155 79.202 116.703 81.0771 115.441 83.0487C114.181 85.029 113.109 87.1301 112.153 89.28C111.194 91.4308 110.357 93.6351 109.591 95.8648C108.069 100.328 106.85 104.895 105.809 109.498C104.77 114.104 103.915 118.75 103.188 123.417C101.741 132.753 100.801 142.164 100.207 151.594C99.6053 161.024 99.3981 170.477 99.4146 179.924C99.3893 189.37 99.7046 198.82 100.406 208.24C101.112 217.66 102.195 227.055 103.816 236.357C104.627 241.008 105.576 245.635 106.712 250.214C107.851 254.791 109.171 259.326 110.796 263.747C112.431 268.156 114.342 272.493 116.925 276.4C118.225 278.338 119.703 280.175 121.495 281.631C122.391 282.354 123.365 282.979 124.42 283.407C125.471 283.837 126.597 284.075 127.727 284.036C128.855 284.007 129.968 283.709 131.001 283.235C132.035 282.757 132.989 282.1 133.865 281.352C135.618 279.845 137.066 277.984 138.343 276.03C140.88 272.093 142.764 267.745 144.38 263.329C145.983 258.9 147.29 254.362 148.415 249.781C149.539 245.199 150.476 240.57 151.279 235.918C152.889 226.614 153.958 217.216 154.669 207.798C155.389 198.378 155.722 188.929 155.718 179.48L155.717 179.483Z" fill="white"/>
</g>
<g style="mix-blend-mode:soft-light">
<path d="M204.886 179.483C204.821 191.692 203.253 203.907 199.989 215.68C196.668 227.427 191.661 238.727 184.864 248.874C181.464 253.941 177.614 258.711 173.312 263.038C169.01 267.364 164.254 271.247 159.091 274.5C153.923 277.741 148.341 280.336 142.498 282.096C136.659 283.86 130.563 284.781 124.461 284.787C118.359 284.787 112.262 283.872 106.418 282.113C100.572 280.357 94.986 277.767 89.8132 274.528C84.6442 271.278 79.8809 267.399 75.573 263.075C71.2631 258.749 67.4046 253.981 63.9975 248.914C57.1863 238.766 52.1691 227.461 48.8321 215.709C47.1898 209.821 45.9688 203.819 45.1604 197.762C44.3558 191.704 43.952 185.596 43.9238 179.484C43.955 173.373 44.3636 167.265 45.1711 161.208C45.9834 155.152 47.2083 149.151 48.8554 143.266C52.2002 131.519 57.2252 120.221 64.0413 110.084C67.4493 105.021 71.3088 100.257 75.6177 95.938C79.9257 91.6198 84.686 87.7449 89.854 84.505C95.0259 81.2759 100.611 78.7043 106.447 76.949C112.279 75.1869 118.367 74.2683 124.461 74.2615C130.554 74.2722 136.64 75.1966 142.47 76.9636C148.303 78.7228 153.883 81.2993 159.05 84.5323C164.212 87.7761 168.966 91.6549 173.267 95.974C177.569 100.296 181.421 105.06 184.821 110.123C191.622 120.258 196.638 131.551 199.967 143.293C203.239 155.062 204.814 167.274 204.888 179.483H204.886ZM203.28 179.483C203.262 167.413 201.76 155.329 198.58 143.677C195.381 132.044 190.565 120.812 183.935 110.712C180.621 105.667 176.858 100.912 172.643 96.5887C168.427 92.2725 163.769 88.3683 158.676 85.1226C153.576 81.8954 148.07 79.2975 142.295 77.5403C136.524 75.782 130.498 74.8576 124.461 74.8372C118.424 74.8625 112.4 75.7918 106.631 77.5549C100.859 79.317 95.3567 81.9198 90.2627 85.1499C85.1744 88.3995 80.524 92.3066 76.3153 96.6247C72.1075 100.95 68.3522 105.705 65.0463 110.751C58.4296 120.85 53.6245 132.077 50.4412 143.705C48.8554 149.525 47.7074 155.46 46.9301 161.44C46.1508 167.42 45.7655 173.451 45.7519 179.483C45.7694 185.516 46.1576 191.545 46.9408 197.524C47.723 203.502 48.8749 209.435 50.4646 215.254C53.6557 226.877 58.4695 238.096 65.0901 248.184C68.3969 253.224 72.1533 257.976 76.36 262.294C80.5697 266.605 85.2163 270.509 90.3035 273.748C95.3966 276.97 100.897 279.554 106.659 281.315C112.417 283.08 118.432 284.013 124.461 284.044C130.49 284.019 136.506 283.092 142.268 281.33C148.032 279.574 153.538 276.995 158.636 273.775C163.728 270.539 168.382 266.639 172.598 262.33C176.813 258.013 180.576 253.263 183.891 248.223C190.525 238.133 195.35 226.91 198.556 215.28C201.744 203.633 203.254 191.552 203.281 179.481L203.28 179.483Z" fill="white"/>
</g>
<g style="mix-blend-mode:soft-light">
<path d="M30.609 137.814L54.762 137.618L78.915 137.507L127.221 137.418L175.527 137.516L199.68 137.637L223.833 137.847C223.872 137.847 223.904 137.879 223.903 137.919C223.903 137.958 223.871 137.99 223.833 137.99L199.68 138.2L175.527 138.321L127.221 138.419L78.915 138.329L54.762 138.218L30.609 138.023C30.5506 138.023 30.5039 137.974 30.5039 137.916C30.5039 137.859 30.5516 137.812 30.609 137.811V137.814Z" fill="white"/>
</g>
<g style="mix-blend-mode:soft-light">
<path d="M58.6295 97.3103C64.3452 97.2197 70.061 97.1807 75.7777 97.1145L92.9259 97.0034C98.6416 96.9567 104.357 96.9616 110.074 96.9469L127.222 96.9138L161.518 97.0122L178.666 97.133C184.382 97.2051 190.097 97.247 195.814 97.3444C195.853 97.3444 195.884 97.3775 195.884 97.4164C195.884 97.4544 195.852 97.4856 195.814 97.4866C190.098 97.584 184.383 97.6259 178.666 97.698L161.518 97.8187L127.222 97.9171L110.074 97.884C104.358 97.8694 98.6426 97.8743 92.9259 97.8275L75.7777 97.7165C70.062 97.6502 64.3462 97.6122 58.6295 97.5207C58.5711 97.5207 58.5244 97.472 58.5254 97.4135C58.5254 97.3561 58.5731 97.3103 58.6295 97.3093V97.3103Z" fill="white"/>
</g>
<g style="mix-blend-mode:soft-light">
<path d="M22.2164 178.318L48.4679 178.123L74.7195 178.012L127.222 177.922L179.724 178.021L205.975 178.142L232.227 178.352C232.266 178.352 232.298 178.384 232.297 178.423C232.297 178.462 232.265 178.493 232.227 178.493L205.975 178.704L179.724 178.824L127.222 178.923L74.7195 178.833L48.4679 178.722L22.2164 178.527C22.158 178.527 22.1113 178.48 22.1113 178.421C22.1113 178.364 22.159 178.317 22.2164 178.316V178.318Z" fill="white"/>
</g>
<g style="mix-blend-mode:soft-light">
<path d="M30.609 218.822L54.762 218.626L78.915 218.515L127.221 218.426L175.527 218.524L199.68 218.645L223.833 218.856C223.872 218.856 223.904 218.888 223.903 218.928C223.903 218.967 223.871 218.998 223.833 218.998L199.68 219.21L175.527 219.33L127.221 219.429L78.915 219.339L54.762 219.228L30.609 219.032C30.5506 219.032 30.5039 218.985 30.5039 218.926C30.5039 218.869 30.5516 218.822 30.609 218.821V218.822Z" fill="white"/>
</g>
<g style="mix-blend-mode:soft-light">
<path d="M199.27 259.803H62.0875C61.8832 259.803 61.7168 259.637 61.7168 259.432C61.7168 259.226 61.8822 259.061 62.0875 259.061H199.27C199.474 259.061 199.641 259.226 199.641 259.432C199.641 259.637 199.475 259.803 199.27 259.803Z" fill="white"/>
</g>
</g>
<path d="M181.912 92.2118H156.837C154.92 92.2118 153.365 90.6552 153.365 88.7353V63.5618C153.365 61.7509 154.755 60.243 156.557 60.0969L183.273 57.9315C185.377 57.761 187.146 59.4949 187.019 61.6048L185.377 88.9428C185.267 90.7789 183.748 92.2108 181.911 92.2108L181.912 92.2118Z" fill="url(#paint1_linear_583_17356)"/>
<path opacity="0.73" d="M160.411 87.3124C159.738 87.3124 159.081 87.0532 158.589 86.5896C158.058 86.0889 157.754 85.3836 157.754 84.6541V68.5143C157.754 68.0594 158.123 67.6902 158.577 67.6902C159.031 67.6902 159.4 68.0594 159.4 68.5143V84.6541C159.4 84.9356 159.513 85.1966 159.717 85.3895C159.922 85.5824 160.189 85.6778 160.469 85.6632L179.572 84.5245C180.104 84.4924 180.522 84.0491 180.522 83.5153V67.6698C180.522 67.3805 180.404 67.1155 180.19 66.9216C179.976 66.7268 179.699 66.6343 179.412 66.6645L163.522 68.2406C162.997 68.2922 162.773 68.6711 162.701 68.8319C162.629 68.9926 162.495 69.4114 162.804 69.8391L168.864 78.2133C169.054 78.4764 169.35 78.6283 169.674 78.6312H169.683C170.003 78.6312 170.296 78.4841 170.489 78.227L177.165 69.3218C177.437 68.9585 177.954 68.8835 178.318 69.1572C178.682 69.4309 178.756 69.9472 178.482 70.3115L171.806 79.2167C171.295 79.8995 170.528 80.2989 169.66 80.2794C168.808 80.2726 168.032 79.8713 167.531 79.1806L161.471 70.8063C160.906 70.0261 160.805 69.0354 161.199 68.1558C161.594 67.2762 162.401 66.6947 163.36 66.6002L179.25 65.0241C179.996 64.952 180.74 65.1965 181.295 65.6992C181.85 66.2018 182.168 66.9207 182.168 67.6698V83.5153C182.168 84.92 181.07 86.086 179.67 86.1697L160.568 87.3085C160.516 87.3114 160.463 87.3133 160.412 87.3133L160.411 87.3124Z" fill="white"/>
<path d="M145.932 89.2702V111.026C145.932 113.611 143.904 115.739 141.325 115.86L114.153 117.138C111.397 117.268 109.092 115.065 109.092 112.303V89.2692C109.092 86.5963 111.256 84.429 113.926 84.429H141.098C143.768 84.429 145.932 86.5963 145.932 89.2692V89.2702Z" fill="url(#paint2_linear_583_17356)"/>
<path opacity="0.73" d="M113.694 100.909C112.776 95.5181 114.723 92.5228 116.518 90.9594C119.896 88.0157 125.92 87.3358 131.868 89.2245C137.695 91.0772 141.804 96.4396 141.026 101.18C140.718 103.059 139.123 107.167 131.133 107.82C132.808 108.626 135.083 109.62 137.169 110.207H137.17C137.56 110.318 137.805 110.689 137.754 111.091C137.702 111.49 137.373 111.786 136.972 111.794C136.737 111.799 136.44 111.803 136.09 111.803C131.12 111.803 115.412 110.995 113.695 100.91L113.694 100.909ZM128.295 106.451C134.884 106.59 139.001 104.565 139.594 100.945C140.248 96.9569 136.509 92.2238 131.428 90.6087C126.941 89.1836 120.887 89.0774 117.469 92.0552C115.266 93.9742 114.477 96.8721 115.122 100.666C116.395 108.14 126.831 109.886 132.999 110.258C130.29 109.123 128.061 107.886 127.928 107.812L125.397 106.399L128.294 106.451H128.295Z" fill="white"/>
<path d="M3.49941 128.122L122.317 127.602C123.453 127.592 124.378 128.514 124.371 129.652L124.118 171.293C124.111 172.438 123.166 173.353 122.023 173.319C111.546 173.006 4.16 171.626 2.1072 171.712C0.0777502 171.797 1.18101 138.914 1.48358 130.089C1.52055 128.998 2.40977 128.132 3.50038 128.122H3.49941Z" fill="url(#paint3_linear_583_17356)"/>
<path opacity="0.73" d="M122.086 171.709H122.073C115.377 171.508 51.2073 170.706 20.3686 170.321C11.3518 170.208 4.95118 170.128 3.24473 170.104L3.08517 170.102L3.05696 169.946C2.32826 165.829 2.34091 152.066 3.09296 130.145C3.10074 129.916 3.28656 129.736 3.51617 129.734L122.333 129.214C122.45 129.214 122.559 129.259 122.639 129.34C122.721 129.422 122.763 129.527 122.763 129.643L122.509 171.285C122.508 171.52 122.317 171.71 122.085 171.71L122.086 171.709ZM3.40915 169.721C5.32866 169.747 11.6174 169.826 20.3725 169.935C51.2122 170.321 115.384 171.122 122.083 171.322H122.095C122.107 171.322 122.124 171.303 122.124 171.281L122.378 129.64L122.334 129.405V129.598L3.51811 130.118C3.49671 130.118 3.47822 130.134 3.47822 130.157C2.73591 151.779 2.71256 165.443 3.41012 169.72L3.40915 169.721Z" fill="white"/>
<path opacity="0.64" d="M8.58398 138.876C8.58398 140.002 8.95952 140.914 9.42164 140.914H54.9345C55.3976 140.914 55.7721 140.002 55.7721 138.876C55.7721 137.75 55.3966 136.837 54.9345 136.837H9.42164C8.95855 136.837 8.58398 137.75 8.58398 138.876Z" fill="white"/>
<path opacity="0.64" d="M8.58398 145.826C8.58398 146.952 8.95952 147.865 9.42164 147.865H54.9345C55.3976 147.865 55.7721 146.952 55.7721 145.826C55.7721 144.7 55.3966 143.787 54.9345 143.787H9.42164C8.95855 143.787 8.58398 144.7 8.58398 145.826Z" fill="white"/>
<path opacity="0.64" d="M8.58398 152.777C8.58398 153.903 8.95952 154.816 9.42164 154.816H54.9345C55.3976 154.816 55.7721 153.903 55.7721 152.777C55.7721 151.651 55.3966 150.739 54.9345 150.739H9.42164C8.95855 150.739 8.58398 151.651 8.58398 152.777Z" fill="white"/>
<path opacity="0.64" d="M8.58398 159.727C8.58398 160.853 8.95952 161.766 9.42164 161.766H54.9345C55.3976 161.766 55.7721 160.853 55.7721 159.727C55.7721 158.601 55.3966 157.688 54.9345 157.688H9.42164C8.95855 157.688 8.58398 158.601 8.58398 159.727Z" fill="white"/>
<path d="M72.9008 145.917C75.9927 142.821 75.9927 137.802 72.9008 134.706C69.8089 131.611 64.7958 131.611 61.7039 134.706C58.612 137.802 58.612 142.821 61.7039 145.917C64.7958 149.013 69.8089 149.013 72.9008 145.917Z" fill="white"/>
<path d="M92.5746 145.918C95.6666 142.822 95.6666 137.803 92.5746 134.707C89.4827 131.611 84.4697 131.611 81.3777 134.707C78.2858 137.803 78.2858 142.822 81.3777 145.918C84.4697 149.013 89.4827 149.013 92.5746 145.918Z" fill="white"/>
<path d="M112.254 146.176C115.346 143.081 115.346 138.061 112.254 134.966C109.162 131.87 104.149 131.87 101.057 134.966C97.9655 138.061 97.9655 143.081 101.057 146.176C104.149 149.272 109.162 149.272 112.254 146.176Z" fill="white"/>
<path d="M72.007 138.636C72.2522 139.233 72.3884 139.886 72.3884 140.57C72.3884 143.383 70.1118 145.662 67.3031 145.662C64.4944 145.662 62.2178 143.383 62.2178 140.57C62.2178 137.758 64.4944 135.479 67.3031 135.479C67.3887 135.479 67.4743 135.481 67.5599 135.486V134.195C67.4753 134.192 67.3897 134.189 67.3031 134.189C63.7832 134.189 60.9297 137.046 60.9297 140.57C60.9297 144.095 63.7832 146.952 67.3031 146.952C70.823 146.952 73.6765 144.095 73.6765 140.57C73.6765 139.703 73.5033 138.876 73.1901 138.122L72.008 138.636H72.007Z" fill="url(#paint4_linear_583_17356)"/>
<path d="M89.6024 144.879C88.8183 145.375 87.8892 145.663 86.8929 145.663C84.0842 145.663 81.8076 143.384 81.8076 140.571C81.8076 137.759 84.0842 135.48 86.8929 135.48C86.9786 135.48 87.0642 135.482 87.1498 135.487V134.196C87.0651 134.193 86.9795 134.19 86.8929 134.19C83.373 134.19 80.5195 137.047 80.5195 140.571C80.5195 144.096 83.373 146.953 86.8929 146.953C88.1217 146.953 89.2687 146.604 90.2416 146.001L89.6024 144.879Z" fill="url(#paint5_linear_583_17356)"/>
<path d="M110.898 143.433C109.982 144.779 108.44 145.662 106.692 145.662C103.883 145.662 101.606 143.383 101.606 140.57C101.606 137.758 103.883 135.479 106.692 135.479C106.777 135.479 106.863 135.481 106.949 135.486V134.195C106.863 134.192 106.778 134.189 106.692 134.189C103.172 134.189 100.318 137.046 100.318 140.57C100.318 144.095 103.172 146.952 106.692 146.952C108.869 146.952 110.792 145.858 111.941 144.19L110.898 143.433Z" fill="url(#paint6_linear_583_17356)"/>
<g opacity="0.64">
<path d="M73.7524 151.597H60.8509C60.0415 151.597 59.3848 152.254 59.3848 153.065C59.3848 153.875 60.0415 154.533 60.8509 154.533H73.7524C74.5619 154.533 75.2186 153.875 75.2186 153.065C75.2186 152.254 74.5619 151.597 73.7524 151.597Z" fill="white"/>
<path d="M93.4282 151.597H80.5267C79.7172 151.597 79.0605 152.254 79.0605 153.065C79.0605 153.875 79.7172 154.533 80.5267 154.533H93.4282C94.2377 154.533 94.8944 153.875 94.8944 153.065C94.8944 152.254 94.2377 151.597 93.4282 151.597Z" fill="white"/>
<path d="M100.202 154.533H113.104C113.913 154.533 114.57 153.875 114.57 153.065C114.57 152.254 113.913 151.597 113.104 151.597H100.202C99.393 151.597 98.7363 152.254 98.7363 153.065C98.7363 153.875 99.393 154.533 100.202 154.533Z" fill="white"/>
<path d="M60.8509 156.164H73.7524C74.5619 156.164 75.2186 156.822 75.2186 157.632V166.277C75.2186 167.088 74.5619 167.745 73.7524 167.745H60.8509C60.0415 167.745 59.3848 167.088 59.3848 166.277V157.632C59.3848 156.822 60.0415 156.164 60.8509 156.164Z" fill="white"/>
<path d="M93.4282 156.164H80.5267C79.717 156.164 79.0605 156.822 79.0605 157.632V166.277C79.0605 167.088 79.717 167.745 80.5267 167.745H93.4282C94.2379 167.745 94.8944 167.088 94.8944 166.277V157.632C94.8944 156.822 94.2379 156.164 93.4282 156.164Z" fill="white"/>
<path d="M113.104 156.164H100.202C99.3927 156.164 98.7363 156.822 98.7363 157.632V166.277C98.7363 167.088 99.3927 167.745 100.202 167.745H113.104C113.914 167.745 114.57 167.088 114.57 166.277V157.632C114.57 156.822 113.914 156.164 113.104 156.164Z" fill="white"/>
</g>
<path d="M251.022 148.277C251.022 148.277 270.94 159.324 272.588 178.022C274.237 196.718 272.726 274.323 232.785 293.423C192.843 312.524 139.976 308.122 119.738 306.034C99.5013 303.946 88.2809 290.176 85.7748 280.695C83.2686 271.214 79.2194 235.895 100.508 224.502C121.797 213.109 144.156 195.656 166.498 178.661C188.841 161.666 227.131 133.922 251.021 148.277H251.022Z" fill="url(#paint7_linear_583_17356)"/>
<path d="M106.787 230.948C106.787 230.948 112.163 231.233 112.821 242.306C112.821 242.306 100.356 253.495 83.5169 256.158C82.2531 256.357 85.2837 247.518 85.74 246.32C87.9085 240.623 94.7373 236.954 106.787 230.948Z" fill="url(#paint8_linear_583_17356)"/>
<path d="M167.328 217.927H155.984C155.984 217.927 121.165 179.426 98.3285 175.542C98.3285 175.542 82.4324 195.858 99.1749 233.82C100.521 236.873 104.288 238.23 107.099 236.433C107.94 235.895 108.543 235.176 108.91 234.273L107.563 201.86C107.563 201.86 137.264 227.868 142.426 232.887C147.588 237.907 173.83 234.847 167.328 217.927Z" fill="url(#paint9_linear_583_17356)"/>
<path d="M57.654 298.764C62.4076 294.593 69.9825 289.913 80.9168 288.571L84.6148 290.836C84.6148 290.836 82.2565 294.318 77.9485 297.997C73.9889 300.3 67.8752 303.418 62.8074 304.094C57.8797 304.751 57.153 301.77 57.654 298.764Z" fill="url(#paint10_linear_583_17356)"/>
<path d="M85.7414 246.32C88.6698 247.269 89.9579 251.424 97.3899 248.677C104.58 246.018 109.925 242.591 112.674 240.614C112.735 241.15 112.787 241.709 112.823 242.306C112.823 242.306 99.6791 254.823 82.8403 257.486C81.5765 257.686 80.5744 256.423 81.0297 255.225C81.8469 253.077 83.3218 249.818 85.7414 246.32Z" fill="#7D97F4"/>
<path d="M54.0724 302.326C55.0093 301.259 56.2059 300.035 57.6536 298.764C57.1526 301.77 57.8793 304.751 62.807 304.095C67.8758 303.419 73.9894 300.301 77.9481 297.998C72.9854 302.235 65.4358 306.733 55.9063 306.469C53.7893 306.41 52.6734 303.918 54.0724 302.326Z" fill="#7D97F4"/>
<path d="M166.915 226.146L113.79 226.722C113.79 226.722 83.4523 251.853 77.9496 290.174C77.9496 290.174 77.0361 292.992 82.5203 293.474C82.5203 293.474 100.862 281.48 112.822 260.273C127.486 234.272 156.539 245.976 156.539 245.976C166.085 239.085 179.573 237.682 189.735 235.386L166.915 226.145V226.146Z" fill="url(#paint11_linear_583_17356)"/>
<path d="M165.659 183.298C165.659 183.298 159.941 211.994 131.919 223.347L121.952 222.171L119.6 225.927L142.98 226.673C142.98 226.673 162.965 218.748 173.554 197.151C173.904 196.438 179.735 184.383 165.659 183.299V183.298Z" fill="url(#paint12_linear_583_17356)"/>
<path d="M162.595 225.677C162.595 225.677 169.099 207.977 170.496 190.778C170.496 190.778 165.738 186.684 162.764 184.918C161.801 184.346 161.437 183.137 161.925 182.126C164.111 177.592 177.333 159.786 178.324 159.538C183.707 158.193 205.785 147.683 221.335 168.978C228.008 178.117 220.011 206.252 189.736 235.388L183.49 236.584L162.596 225.677H162.595Z" fill="url(#paint13_linear_583_17356)"/>
<path d="M187.654 194.657C187.654 194.657 169.586 216.078 146.485 219.209C146.485 219.209 140.515 213.759 136.076 215.705C131.636 217.651 125.549 226.239 125.549 226.239H155.21C155.21 226.239 183.256 225.25 197.27 208.221C196.143 202.263 192.766 198.704 187.654 194.657Z" fill="url(#paint14_linear_583_17356)"/>
<path d="M198.196 144.514L202.149 157.716C202.33 158.321 202.107 158.975 201.586 159.333C199.683 160.638 194.708 163.234 187.884 160.711C187.104 160.423 186.568 159.693 186.501 158.862L185.564 147.361L198.196 144.514H198.196Z" fill="url(#paint15_linear_583_17356)"/>
<path d="M175.043 133.822C175.043 133.822 176.987 147.507 182.238 151.716C187.488 155.925 197.718 152.756 201.173 142.439L194.289 124.799L175.043 133.823V133.822Z" fill="url(#paint16_linear_583_17356)"/>
<path d="M195.064 136.214C194.666 136.342 194.247 136.086 194.185 135.671C193.995 134.408 193.522 131.907 192.564 130.204C192.564 130.204 193.065 128.409 188.032 131.121C183 133.834 175.439 137.818 170.989 135.445C166.65 133.132 162.255 121.49 173.722 123.647C174.158 123.729 174.56 123.381 174.527 122.938C174.386 121.024 174.575 116.623 179.027 115.209C183.193 113.887 180.957 116.03 181.896 117.167C182.173 117.501 181.547 116.028 187.467 116.89C189.499 117.186 192.105 111.787 197.094 113.989C201.203 115.802 201.843 118.337 201.775 119.916C201.753 120.427 202.273 120.774 202.737 120.56C203.996 119.979 206.02 119.678 207.959 122.111C210.64 125.474 206.809 128.391 205.659 129.155C205.47 129.281 205.354 129.488 205.353 129.714C205.342 131.464 205.07 139.093 201.25 143.397C200.919 143.771 200.308 143.66 200.116 143.202L197.175 136.186C197.038 135.861 196.676 135.693 196.339 135.801L195.062 136.214H195.064Z" fill="url(#paint17_linear_583_17356)"/>
<path d="M195.002 137.639C195.002 137.639 196.798 130.315 199.526 132.693C202.254 135.071 198.815 140.304 195.69 141.301L195.002 137.639Z" fill="url(#paint18_linear_583_17356)"/>
<path d="M127.041 227.901L113.723 183.433C113.18 181.619 111.57 180.331 109.682 180.203L91.7014 178.97C89.8733 178.845 88.5142 180.633 89.1213 182.363L104.009 224.83C104.489 226.197 105.716 227.165 107.157 227.311L124.863 229.279L127.041 227.901Z" fill="url(#paint19_linear_583_17356)"/>
<path d="M102.479 198.504C103.473 200.513 105.19 201.69 106.314 201.133C107.438 200.576 107.543 198.494 106.549 196.486C105.554 194.476 103.837 193.299 102.713 193.857C101.59 194.414 101.485 196.494 102.479 198.504Z" fill="#91B3FA"/>
<path d="M124.864 229.279C124.893 229.279 124.921 229.279 124.951 229.277L162.679 227.368C163.612 227.322 164.33 226.526 164.283 225.593C164.236 224.658 163.438 223.924 162.508 223.987L124.779 225.896C123.846 225.943 123.128 226.739 123.176 227.672C123.222 228.577 123.969 229.28 124.863 229.28L124.864 229.279Z" fill="url(#paint20_linear_583_17356)"/>
<path d="M170.496 191.079C170.661 191.079 170.797 190.944 170.795 190.778C170.77 182.886 173.811 172.409 173.843 172.304C173.89 172.145 173.799 171.979 173.64 171.932C173.478 171.887 173.314 171.976 173.268 172.135C173.237 172.241 170.17 182.8 170.197 190.78C170.197 190.944 170.332 191.078 170.496 191.078V191.079Z" fill="url(#paint21_linear_583_17356)"/>
<path d="M187.655 194.956C187.744 194.956 187.831 194.917 187.89 194.842C187.973 194.737 196.225 184.235 199.062 177.037C199.123 176.883 199.048 176.709 198.894 176.648C198.74 176.587 198.566 176.662 198.506 176.817C195.7 183.933 187.503 194.367 187.42 194.471C187.317 194.601 187.34 194.79 187.469 194.892C187.524 194.936 187.59 194.956 187.655 194.956Z" fill="url(#paint22_linear_583_17356)"/>
<path d="M199.266 211.014L199.489 210.919C211.427 205.801 218.801 191.53 218.874 191.387C218.949 191.239 218.89 191.059 218.742 190.984C218.598 190.91 218.417 190.966 218.34 191.114C218.268 191.256 211.083 205.16 199.475 210.271L198.245 208.531C198.148 208.395 197.961 208.365 197.828 208.459C197.693 208.555 197.661 208.742 197.756 208.877L199.267 211.014H199.266Z" fill="url(#paint23_linear_583_17356)"/>
<path d="M260.302 297.339C260.302 297.339 282.031 247.078 265.58 194.127C265.473 193.782 264.861 193.848 264.816 194.211C260.85 226.236 259.668 260.92 260.302 297.339Z" fill="#91B3FA"/>
<path d="M260.389 296.282C260.364 296.282 260.338 296.279 260.313 296.271C260.164 296.229 260.079 296.074 260.12 295.926C263.96 282.268 265.421 259.016 265.971 241.915C266.568 223.376 266.251 207.875 266.248 207.72C266.245 207.565 266.367 207.437 266.521 207.435H266.527C266.679 207.435 266.802 207.555 266.806 207.708C266.809 207.863 267.127 223.38 266.53 241.932C265.979 259.064 264.513 282.365 260.658 296.078C260.623 296.202 260.511 296.282 260.389 296.282Z" fill="#BDD0FB"/>
<path d="M255.326 289.148C255.326 289.148 268.75 227.48 243.38 165.073C243.215 164.666 242.612 164.785 242.627 165.223C243.995 203.873 248.603 245.529 255.325 289.147L255.326 289.148Z" fill="#91B3FA"/>
<path d="M255.19 287.819C255.181 287.819 255.172 287.819 255.164 287.818C255.01 287.803 254.898 287.667 254.913 287.513C257.927 255.672 246.443 182.082 246.326 181.343C246.301 181.19 246.406 181.046 246.558 181.023C246.71 180.997 246.853 181.103 246.877 181.256C246.994 181.996 258.489 255.655 255.468 287.566C255.454 287.71 255.333 287.819 255.191 287.819H255.19Z" fill="#BDD0FB"/>
<path d="M253.196 305.871C253.196 305.871 259.627 252.072 227.679 203.659C227.471 203.342 226.889 203.536 226.952 203.901C232.578 236.105 241.734 270.329 253.196 305.871Z" fill="#91B3FA"/>
<path d="M252.884 304.821C252.732 304.821 252.607 304.7 252.605 304.548C252.319 290.363 246.84 267.28 242.293 250.412C237.363 232.127 232.437 217.006 232.389 216.856C232.341 216.709 232.421 216.551 232.567 216.503C232.714 216.456 232.871 216.536 232.919 216.682C232.969 216.833 237.898 231.965 242.831 250.264C247.386 267.162 252.877 290.295 253.163 304.537C253.166 304.691 253.043 304.818 252.89 304.821H252.884Z" fill="#BDD0FB"/>
<path d="M239.973 276.227H269.507C271.443 276.227 272.875 278.03 272.439 279.919C270.55 288.116 268.285 296.433 263.651 304.874C262.795 306.434 261.165 307.411 259.389 307.411H249.751C248.001 307.411 246.395 306.448 245.566 304.904C241.853 297.997 238.282 289.763 236.518 280.419C236.107 278.243 237.761 276.226 239.972 276.226L239.973 276.227Z" fill="#7D97F4"/>
<path d="M32.1456 86.9935C37.8679 81.2642 37.8679 71.9751 32.1456 66.2458C26.4234 60.5165 17.1458 60.5165 11.4235 66.2458C5.70129 71.9751 5.70129 81.2642 11.4235 86.9935C17.1458 92.7228 26.4234 92.7228 32.1456 86.9935Z" fill="url(#paint24_linear_583_17356)"/>
<path d="M21.7844 90.8026C29.6077 90.8026 35.9497 84.4528 35.9497 76.6198C35.9497 68.7869 29.6077 62.437 21.7844 62.437C13.9612 62.437 7.61914 68.7869 7.61914 76.6198C7.61914 84.4528 13.9612 90.8026 21.7844 90.8026Z" fill="url(#paint25_linear_583_17356)"/>
<path opacity="0.7" d="M10.1025 71.3237C10.012 71.3237 9.92057 71.3032 9.83496 71.2594C9.54114 71.1113 9.42342 70.7529 9.57228 70.4597C11.9131 65.8162 16.5927 62.9309 21.784 62.9309C22.6129 62.9309 23.4428 63.0049 24.2493 63.153C24.5723 63.2114 24.7873 63.5222 24.728 63.8456C24.6686 64.169 24.3593 64.3862 24.0363 64.3248C23.2988 64.1904 22.5419 64.1222 21.784 64.1222C17.0441 64.1222 12.7721 66.7562 10.6337 70.9954C10.5296 71.2029 10.3195 71.3227 10.1025 71.3227V71.3237Z" fill="white"/>
<path opacity="0.78" d="M30.5712 85.4168C35.2535 80.7287 35.2535 73.1277 30.5712 68.4396C25.8888 63.7515 18.2972 63.7515 13.6149 68.4396C8.93252 73.1277 8.93252 80.7287 13.6149 85.4168C18.2972 90.105 25.8888 90.105 30.5712 85.4168Z" fill="white"/>
<path d="M20.9148 85.8521V84.5458C19.5547 84.4913 18.2102 84.1698 17.2548 83.751C16.9133 83.6019 16.7401 83.2181 16.8374 82.8587L17.1692 81.6421C17.2908 81.1959 17.7753 80.9651 18.2014 81.1433C19.149 81.5407 20.3194 81.8554 21.5803 81.8554C22.8411 81.8554 23.8666 81.4112 23.8666 80.4994C23.8666 79.6773 23.1116 79.1883 21.2913 78.6993C18.6937 77.9882 16.8296 76.8544 16.8296 74.5653C16.8296 72.4982 18.3396 70.9202 20.9586 70.4974V69.1912C20.9586 68.7714 21.2991 68.4304 21.7184 68.4304H22.4851C22.9044 68.4304 23.2449 68.7714 23.2449 69.1912V70.364C24.5028 70.4146 25.4193 70.6299 26.146 70.8851C26.5187 71.0157 26.722 71.418 26.6189 71.7988L26.3144 72.9239C26.1966 73.3574 25.7335 73.5951 25.3142 73.4363C24.6449 73.183 23.6992 72.919 22.4685 72.919C20.9148 72.919 20.4712 73.5639 20.4712 74.1415C20.4712 74.8526 21.4032 75.3416 23.4239 75.9641C26.3095 76.831 27.5081 78.0311 27.5081 80.1868C27.5081 82.1651 26.0429 83.9429 23.2011 84.388V85.8492C23.2011 86.269 22.8606 86.6099 22.4413 86.6099H21.6746C21.2553 86.6099 20.9148 86.269 20.9148 85.8492V85.8521Z" fill="url(#paint26_linear_583_17356)"/>
<path d="M71.8123 54.178C81.7739 44.2041 81.7739 28.0332 71.8123 18.0593C61.8507 8.08542 45.6998 8.08542 35.7382 18.0593C25.7766 28.0332 25.7766 44.2041 35.7382 54.178C45.6998 64.1519 61.8507 64.1519 71.8123 54.178Z" fill="url(#paint27_linear_583_17356)"/>
<path d="M71.2139 53.5774C80.8441 43.9352 80.8441 28.3021 71.2139 18.6599C61.5836 9.01775 45.9698 9.01775 36.3395 18.6599C26.7092 28.3021 26.7092 43.9352 36.3395 53.5774C45.9698 63.2196 61.5836 63.2195 71.2139 53.5774Z" fill="url(#paint28_linear_583_17356)"/>
<path opacity="0.7" d="M33.4404 26.4576C33.3499 26.4576 33.2585 26.4372 33.1728 26.3934C32.879 26.2453 32.7613 25.8868 32.9102 25.5936C36.9097 17.6596 44.9049 12.7307 53.7758 12.7307C55.1913 12.7307 56.6088 12.8583 57.9894 13.1106C58.3124 13.1691 58.5274 13.4798 58.468 13.8032C58.4097 14.1266 58.1003 14.3467 57.7763 14.2824C56.4668 14.0438 55.1203 13.922 53.7758 13.922C45.3573 13.922 37.7688 18.5996 33.9726 26.1294C33.8675 26.3369 33.6583 26.4567 33.4414 26.4567L33.4404 26.4576Z" fill="white"/>
<path opacity="0.78" d="M54.3109 57.5537C65.8379 57.5537 75.1823 48.1977 75.1823 36.6565C75.1823 25.1153 65.8379 15.7593 54.3109 15.7593C42.7839 15.7593 33.4395 25.1153 33.4395 36.6565C33.4395 48.1977 42.7839 57.5537 54.3109 57.5537Z" fill="white"/>
<path d="M52.2635 52.1924V49.9189C49.8964 49.8244 47.5547 49.2643 45.892 48.5357C45.2986 48.2756 44.996 47.6083 45.1662 46.982L45.7432 44.8643C45.9543 44.087 46.7988 43.6857 47.5401 43.9974C49.1901 44.69 51.2264 45.2374 53.4232 45.2374C55.62 45.2374 57.4033 44.463 57.4033 42.8772C57.4033 41.4453 56.0899 40.5949 52.9202 39.7435C48.3992 38.5054 45.1526 36.5319 45.1526 32.5469C45.1526 28.9486 47.7804 26.2017 52.3403 25.4662V23.1927C52.3403 22.4611 52.9328 21.8679 53.6635 21.8679H54.9973C55.728 21.8679 56.3204 22.4611 56.3204 23.1927V25.2344C58.5104 25.3221 60.105 25.6971 61.3707 26.1422C62.0187 26.3702 62.3728 27.0696 62.1938 27.7339L61.6636 29.6928C61.4593 30.4477 60.6527 30.8617 59.9221 30.5851C58.7575 30.1438 57.1104 29.685 54.9691 29.685C52.2635 29.685 51.491 30.8072 51.491 31.8134C51.491 33.0515 53.1138 33.9028 56.6308 34.986C61.6548 36.4949 63.7417 38.5843 63.7417 42.3375C63.7417 45.7809 61.1907 48.8766 56.2446 49.65V52.1944C56.2446 52.9259 55.6521 53.5191 54.9214 53.5191H53.5876C52.8569 53.5191 52.2645 52.9259 52.2645 52.1944L52.2635 52.1924Z" fill="url(#paint29_linear_583_17356)"/>
<path d="M89.9257 111.745C100.176 101.482 100.176 84.8423 89.9258 74.5793C79.6754 64.3163 63.0563 64.3163 52.806 74.5793C42.5556 84.8423 42.5556 101.482 52.806 111.745C63.0563 122.008 79.6754 122.008 89.9257 111.745Z" fill="url(#paint30_linear_583_17356)"/>
<path d="M89.3089 111.127C99.2184 101.205 99.2184 85.1189 89.3089 75.1971C79.3993 65.2754 63.3328 65.2754 53.4233 75.1971C43.5137 85.1189 43.5137 101.205 53.4233 111.127C63.3328 121.049 79.3993 121.049 89.3089 111.127Z" fill="url(#paint31_linear_583_17356)"/>
<path opacity="0.7" d="M50.4423 83.2043C50.3519 83.2043 50.2604 83.1838 50.1748 83.14C49.881 82.9919 49.7633 82.6335 49.9121 82.3403C54.0245 74.1822 62.2455 69.114 71.3663 69.114C72.8188 69.114 74.2772 69.2455 75.6986 69.5046C76.0216 69.5631 76.2366 69.8738 76.1773 70.1972C76.1189 70.5206 75.8085 70.7398 75.4855 70.6765C74.1342 70.43 72.7478 70.3063 71.3663 70.3063C62.6969 70.3063 54.8836 75.1232 50.9735 82.878C50.8685 83.0854 50.6593 83.2053 50.4423 83.2053V83.2043Z" fill="white"/>
<path opacity="0.78" d="M87.1036 108.921C95.4908 100.524 95.4908 86.9088 87.1036 78.5113C78.7165 70.1138 65.1183 70.1138 56.7312 78.5113C48.344 86.9088 48.344 100.524 56.7312 108.921C65.1183 117.319 78.7165 117.319 87.1036 108.921Z" fill="white"/>
<path d="M69.8109 109.702V107.362C67.3748 107.264 64.9659 106.689 63.2546 105.939C62.6436 105.671 62.3323 104.984 62.5074 104.34L63.1009 102.161C63.3188 101.361 64.1866 100.948 64.9503 101.269C66.648 101.981 68.7437 102.545 71.0037 102.545C73.2637 102.545 75.0996 101.748 75.0996 100.117C75.0996 98.6438 73.7472 97.7681 70.4871 96.8923C65.8347 95.6182 62.4948 93.5882 62.4948 89.4873C62.4948 85.7848 65.1984 82.9579 69.8907 82.2011V79.8613C69.8907 79.1083 70.5007 78.4985 71.2518 78.4985H72.6245C73.3766 78.4985 73.9856 79.1093 73.9856 79.8613V81.9614C76.2398 82.052 77.8801 82.4378 79.1818 82.8956C79.8492 83.1304 80.2131 83.8502 80.0282 84.533L79.4824 86.5484C79.2723 87.3258 78.4424 87.7515 77.6904 87.466C76.4918 87.0121 74.797 86.5397 72.5934 86.5397C69.8099 86.5397 69.0151 87.694 69.0151 88.7294C69.0151 90.0036 70.6855 90.8793 74.3037 91.9946C79.4727 93.5473 81.6199 95.6971 81.6199 99.5594C81.6199 103.103 78.996 106.287 73.9058 107.084V109.703C73.9058 110.456 73.2958 111.065 72.5447 111.065H71.172C70.4199 111.065 69.8109 110.455 69.8109 109.703V109.702Z" fill="url(#paint32_linear_583_17356)"/>
<path d="M118.635 70.9805C126.145 63.461 126.146 51.2695 118.635 43.75C111.125 36.2304 98.9485 36.2304 91.4383 43.75C83.9281 51.2695 83.9281 63.461 91.4383 70.9805C98.9486 78.5 111.125 78.5 118.635 70.9805Z" fill="url(#paint33_linear_583_17356)"/>
<path d="M118.182 70.528C125.442 63.2584 125.442 51.4721 118.182 44.2025C110.921 36.9329 99.1493 36.9329 91.8887 44.2025C84.6281 51.4721 84.6281 63.2584 91.8887 70.528C99.1493 77.7976 110.921 77.7976 118.182 70.528Z" fill="url(#paint34_linear_583_17356)"/>
<path opacity="0.7" d="M89.706 50.2274C89.6155 50.2274 89.5241 50.207 89.4385 50.1631C89.1447 50.0151 89.0269 49.6566 89.1758 49.3634C92.217 43.3318 98.2947 39.5845 105.038 39.5845C106.113 39.5845 107.19 39.6819 108.241 39.8738C108.564 39.9322 108.779 40.243 108.719 40.5664C108.66 40.8907 108.351 41.107 108.028 41.0456C107.047 40.8674 106.041 40.7758 105.038 40.7758C98.7461 40.7758 93.0761 44.2718 90.2382 49.8992C90.1331 50.1066 89.9239 50.2264 89.706 50.2264V50.2274Z" fill="white"/>
<path opacity="0.78" d="M116.568 68.91C122.713 62.7573 122.713 52.7818 116.568 46.6291C110.423 40.4764 100.459 40.4764 94.3142 46.6291C88.1691 52.7818 88.1691 62.7573 94.3142 68.91C100.459 75.0627 110.423 75.0627 116.568 68.91Z" fill="white"/>
<path d="M103.899 69.4826V67.7682C102.115 67.6971 100.349 67.2753 99.0949 66.7259C98.6474 66.5301 98.4188 66.0265 98.5472 65.5541L98.9821 63.9575C99.1416 63.3721 99.7779 63.0692 100.337 63.3039C101.581 63.826 103.117 64.239 104.773 64.239C106.429 64.239 107.773 63.6556 107.773 62.4594C107.773 61.3801 106.783 60.7381 104.393 60.0972C100.984 59.164 98.5375 57.6756 98.5375 54.6715C98.5375 51.9586 100.518 49.8877 103.956 49.3335V47.6191C103.956 47.0677 104.403 46.6206 104.954 46.6206H105.96C106.51 46.6206 106.957 47.0677 106.957 47.6191V49.1581C108.608 49.2244 109.81 49.5068 110.765 49.8429C111.253 50.0153 111.521 50.5423 111.385 51.043L110.986 52.5197C110.831 53.0896 110.224 53.4013 109.672 53.1918C108.794 52.8597 107.552 52.5129 105.938 52.5129C103.899 52.5129 103.316 53.3584 103.316 54.1172C103.316 55.0504 104.54 55.6923 107.191 56.5096C110.979 57.6473 112.552 59.2225 112.552 62.0522C112.552 64.6482 110.63 66.9821 106.899 67.5656V69.4836C106.899 70.0349 106.453 70.482 105.902 70.482H104.896C104.346 70.482 103.899 70.0349 103.899 69.4836V69.4826Z" fill="url(#paint35_linear_583_17356)"/>
<defs>
<linearGradient id="paint0_linear_583_17356" x1="288.983" y1="308.574" x2="90.0891" y2="134.757" gradientUnits="userSpaceOnUse">
<stop stop-color="#DAE3FE"/>
<stop offset="1" stop-color="#E9EFFD"/>
</linearGradient>
<linearGradient id="paint1_linear_583_17356" x1="190.245" y1="34.9244" x2="113.791" y2="185.568" gradientUnits="userSpaceOnUse">
<stop stop-color="#FF928E"/>
<stop offset="1" stop-color="#FE7062"/>
</linearGradient>
<linearGradient id="paint2_linear_583_17356" x1="147.63" y1="70.4332" x2="81.0427" y2="168.544" gradientUnits="userSpaceOnUse">
<stop stop-color="#FF928E"/>
<stop offset="1" stop-color="#FE7062"/>
</linearGradient>
<linearGradient id="paint3_linear_583_17356" x1="121.624" y1="111.826" x2="-15.3596" y2="202.176" gradientUnits="userSpaceOnUse">
<stop stop-color="#FF928E"/>
<stop offset="1" stop-color="#FE7062"/>
</linearGradient>
<linearGradient id="paint4_linear_583_17356" x1="76.4619" y1="90.7524" x2="68.3257" y2="134.901" gradientUnits="userSpaceOnUse">
<stop stop-color="#FF928E"/>
<stop offset="1" stop-color="#FE7062"/>
</linearGradient>
<linearGradient id="paint5_linear_583_17356" x1="94.3774" y1="94.0546" x2="86.2411" y2="138.203" gradientUnits="userSpaceOnUse">
<stop stop-color="#FF928E"/>
<stop offset="1" stop-color="#FE7062"/>
</linearGradient>
<linearGradient id="paint6_linear_583_17356" x1="114.286" y1="97.724" x2="106.149" y2="141.872" gradientUnits="userSpaceOnUse">
<stop stop-color="#FF928E"/>
<stop offset="1" stop-color="#FE7062"/>
</linearGradient>
<linearGradient id="paint7_linear_583_17356" x1="241.531" y1="290.188" x2="148.618" y2="195.909" gradientUnits="userSpaceOnUse">
<stop stop-color="#4F52FF"/>
<stop offset="1" stop-color="#4042E2"/>
</linearGradient>
<linearGradient id="paint8_linear_583_17356" x1="101.355" y1="241.473" x2="81.8418" y2="261.829" gradientUnits="userSpaceOnUse">
<stop stop-color="#09005D"/>
<stop offset="1" stop-color="#1A0F91"/>
</linearGradient>
<linearGradient id="paint9_linear_583_17356" x1="131.433" y1="221.258" x2="111.095" y2="144.744" gradientUnits="userSpaceOnUse">
<stop stop-color="#09005D"/>
<stop offset="1" stop-color="#1A0F91"/>
</linearGradient>
<linearGradient id="paint10_linear_583_17356" x1="75.5017" y1="292.627" x2="38.607" y2="319.673" gradientUnits="userSpaceOnUse">
<stop stop-color="#09005D"/>
<stop offset="1" stop-color="#1A0F91"/>
</linearGradient>
<linearGradient id="paint11_linear_583_17356" x1="74.9726" y1="241.247" x2="152.105" y2="270.305" gradientUnits="userSpaceOnUse">
<stop stop-color="#09005D"/>
<stop offset="1" stop-color="#1A0F91"/>
</linearGradient>
<linearGradient id="paint12_linear_583_17356" x1="135.058" y1="192.511" x2="160.121" y2="222.279" gradientUnits="userSpaceOnUse">
<stop stop-color="#FEBBBA"/>
<stop offset="1" stop-color="#FF928E"/>
</linearGradient>
<linearGradient id="paint13_linear_583_17356" x1="122.876" y1="263.961" x2="194.052" y2="186.949" gradientUnits="userSpaceOnUse">
<stop stop-color="#FF928E"/>
<stop offset="1" stop-color="#FE7062"/>
</linearGradient>
<linearGradient id="paint14_linear_583_17356" x1="164.24" y1="219.624" x2="114.136" y2="151.163" gradientUnits="userSpaceOnUse">
<stop stop-color="#FEBBBA"/>
<stop offset="1" stop-color="#FF928E"/>
</linearGradient>
<linearGradient id="paint15_linear_583_17356" x1="208.634" y1="194.749" x2="188.846" y2="142.706" gradientUnits="userSpaceOnUse">
<stop stop-color="#FEBBBA"/>
<stop offset="1" stop-color="#FF928E"/>
</linearGradient>
<linearGradient id="paint16_linear_583_17356" x1="185.011" y1="148.359" x2="193.151" y2="121.543" gradientUnits="userSpaceOnUse">
<stop stop-color="#FEBBBA"/>
<stop offset="1" stop-color="#FF928E"/>
</linearGradient>
<linearGradient id="paint17_linear_583_17356" x1="192.325" y1="99.2058" x2="184.773" y2="142.227" gradientUnits="userSpaceOnUse">
<stop stop-color="#09005D"/>
<stop offset="1" stop-color="#1A0F91"/>
</linearGradient>
<linearGradient id="paint18_linear_583_17356" x1="193.424" y1="150.912" x2="201.564" y2="124.098" gradientUnits="userSpaceOnUse">
<stop stop-color="#FEBBBA"/>
<stop offset="1" stop-color="#FF928E"/>
</linearGradient>
<linearGradient id="paint19_linear_583_17356" x1="188.787" y1="80.7009" x2="154.175" y2="133.541" gradientUnits="userSpaceOnUse">
<stop stop-color="#4042E2"/>
<stop offset="1" stop-color="#4F52FF"/>
</linearGradient>
<linearGradient id="paint20_linear_583_17356" x1="142.925" y1="134.803" x2="143.419" y2="191.142" gradientUnits="userSpaceOnUse">
<stop stop-color="#4042E2"/>
<stop offset="1" stop-color="#4F52FF"/>
</linearGradient>
<linearGradient id="paint21_linear_583_17356" x1="170.196" y1="181.499" x2="173.855" y2="181.499" gradientUnits="userSpaceOnUse">
<stop stop-color="#E1473D"/>
<stop offset="1" stop-color="#E9605A"/>
</linearGradient>
<linearGradient id="paint22_linear_583_17356" x1="187.355" y1="185.792" x2="199.084" y2="185.792" gradientUnits="userSpaceOnUse">
<stop stop-color="#E1473D"/>
<stop offset="1" stop-color="#E9605A"/>
</linearGradient>
<linearGradient id="paint23_linear_583_17356" x1="197.701" y1="200.983" x2="218.907" y2="200.983" gradientUnits="userSpaceOnUse">
<stop stop-color="#E1473D"/>
<stop offset="1" stop-color="#E9605A"/>
</linearGradient>
<linearGradient id="paint24_linear_583_17356" x1="1.73308" y1="99.9215" x2="21.4153" y2="77.104" gradientUnits="userSpaceOnUse">
<stop stop-color="#FF928E"/>
<stop offset="1" stop-color="#FE7062"/>
</linearGradient>
<linearGradient id="paint25_linear_583_17356" x1="32.4931" y1="60.4216" x2="-25.7244" y2="148.264" gradientUnits="userSpaceOnUse">
<stop stop-color="#FF928E"/>
<stop offset="1" stop-color="#FE7062"/>
</linearGradient>
<linearGradient id="paint26_linear_583_17356" x1="22.1591" y1="39.7385" x2="22.1591" y2="102.598" gradientUnits="userSpaceOnUse">
<stop stop-color="#FF928E"/>
<stop offset="1" stop-color="#FE7062"/>
</linearGradient>
<linearGradient id="paint27_linear_583_17356" x1="18.8698" y1="76.6833" x2="53.1329" y2="36.9626" gradientUnits="userSpaceOnUse">
<stop stop-color="#FF928E"/>
<stop offset="1" stop-color="#FE7062"/>
</linearGradient>
<linearGradient id="paint28_linear_583_17356" x1="50.5991" y1="-7.71412" x2="55.0591" y2="53.6598" gradientUnits="userSpaceOnUse">
<stop stop-color="#FF928E"/>
<stop offset="1" stop-color="#FE7062"/>
</linearGradient>
<linearGradient id="paint29_linear_583_17356" x1="52.8599" y1="-0.836256" x2="53.8508" y2="27.8702" gradientUnits="userSpaceOnUse">
<stop stop-color="#FF928E"/>
<stop offset="1" stop-color="#FE7062"/>
</linearGradient>
<linearGradient id="paint30_linear_583_17356" x1="35.4491" y1="134.903" x2="70.7051" y2="94.0312" gradientUnits="userSpaceOnUse">
<stop stop-color="#FF928E"/>
<stop offset="1" stop-color="#FE7062"/>
</linearGradient>
<linearGradient id="paint31_linear_583_17356" x1="71.3666" y1="62.5054" x2="71.3666" y2="121.9" gradientUnits="userSpaceOnUse">
<stop stop-color="#FF928E"/>
<stop offset="1" stop-color="#FE7062"/>
</linearGradient>
<linearGradient id="paint32_linear_583_17356" x1="78.0902" y1="41.256" x2="67.1877" y2="137.273" gradientUnits="userSpaceOnUse">
<stop stop-color="#FF928E"/>
<stop offset="1" stop-color="#FE7062"/>
</linearGradient>
<linearGradient id="paint33_linear_583_17356" x1="78.7201" y1="87.9477" x2="104.552" y2="58.0015" gradientUnits="userSpaceOnUse">
<stop stop-color="#FF928E"/>
<stop offset="1" stop-color="#FE7062"/>
</linearGradient>
<linearGradient id="paint34_linear_583_17356" x1="103.69" y1="21.6927" x2="105.672" y2="74.1572" gradientUnits="userSpaceOnUse">
<stop stop-color="#FF928E"/>
<stop offset="1" stop-color="#FE7062"/>
</linearGradient>
<linearGradient id="paint35_linear_583_17356" x1="103.041" y1="21.865" x2="106.015" y2="71.855" gradientUnits="userSpaceOnUse">
<stop stop-color="#FF928E"/>
<stop offset="1" stop-color="#FE7062"/>
</linearGradient>
</defs>
</svg>
