<svg width="75" height="75" viewBox="0 0 75 75" fill="none" xmlns="http://www.w3.org/2000/svg">
<path d="M59.3798 38.1019L56.5917 35.3254L17.5507 74.2043H0.822266V57.5414L45.4354 13.1094L67.744 35.3254C68.4833 36.0618 68.8986 37.0605 68.8986 38.1019C68.8986 39.1432 68.4833 40.1419 67.744 40.8784L39.8632 68.6474L34.2831 63.0944L59.3798 38.1019ZM62.1679 2.00334L73.3241 13.1094C74.0634 13.8458 74.4787 14.8445 74.4787 15.8859C74.4787 16.9272 74.0634 17.9259 73.3241 18.6624L67.744 24.2193L51.0155 7.55636L56.5917 2.00334C57.3312 1.26711 58.3341 0.853516 59.3798 0.853516C60.4255 0.853516 61.4283 1.26711 62.1679 2.00334Z" fill="#628CA5"/>
</svg>
