<svg width="70" height="69" viewBox="0 0 70 69" fill="none" xmlns="http://www.w3.org/2000/svg">
<path d="M60.5475 0.00488281H8.88402C6.60035 0.00488281 4.41021 0.912066 2.79542 2.52686C1.18062 4.14166 0.273438 6.33179 0.273438 8.61546L0.273438 68.8895H11.7542V48.7982C11.7542 46.5145 12.6614 44.3244 14.2762 42.7096C15.891 41.0948 18.0811 40.1876 20.3648 40.1876H49.0667C51.3504 40.1876 53.5405 41.0948 55.1553 42.7096C56.7701 44.3244 57.6773 46.5145 57.6773 48.7982V68.8895H69.1581V8.61546C69.1581 6.33179 68.2509 4.14166 66.6361 2.52686C65.0213 0.912066 62.8312 0.00488281 60.5475 0.00488281V0.00488281ZM34.7158 34.4472C31.8774 34.4472 29.1028 33.6055 26.7428 32.0286C24.3828 30.4517 22.5434 28.2104 21.4572 25.5881C20.371 22.9658 20.0868 20.0803 20.6405 17.2965C21.1943 14.5127 22.5611 11.9556 24.5681 9.94857C26.5751 7.94155 29.1322 6.57475 31.916 6.02102C34.6998 5.46728 37.5853 5.75148 40.2076 6.83767C42.8299 7.92386 45.0712 9.76326 46.6481 12.1233C48.225 14.4833 49.0667 17.2579 49.0667 20.0962C49.0622 23.9009 47.5487 27.5485 44.8584 30.2389C42.168 32.9292 38.5205 34.4426 34.7158 34.4472Z" fill="white"/>
</svg>
