<svg width="66" height="66" viewBox="0 0 66 66" fill="none" xmlns="http://www.w3.org/2000/svg">
<path d="M0.00506592 37.0999C0.00506592 37.9993 0.182236 38.89 0.526459 39.7211C0.870682 40.5521 1.37521 41.3072 2.01125 41.9432C2.64729 42.5792 3.40237 43.0838 4.23339 43.428C5.06441 43.7722 5.9551 43.9494 6.8546 43.9494H17.9125L29.4909 61.7225C30.2035 62.9866 31.2408 64.0374 32.4956 64.7661C33.7504 65.4949 35.1771 65.8753 36.6281 65.8679C37.7924 65.8682 38.9394 65.5863 39.9708 65.0463C41.0023 64.5064 41.8875 63.7244 42.5506 62.7674C43.2137 61.8105 43.635 60.707 43.7783 59.5516C43.9216 58.3962 43.7828 57.2233 43.3736 56.1333L38.3104 43.9494H49.3217C51.2536 43.9495 53.1512 43.439 54.8223 42.4694C56.4933 41.4999 57.8783 40.1059 58.8371 38.4287L65.2126 27.9489C65.485 27.4965 65.6641 26.9941 65.7391 26.4714C65.8142 25.9487 65.7838 25.4163 65.6497 24.9055C65.5157 24.3948 65.2806 23.916 64.9585 23.4976C64.6364 23.0792 64.2337 22.7295 63.7742 22.4693C63.0451 22.087 62.213 21.9472 61.3989 22.0704C60.5849 22.1936 59.8314 22.5733 59.248 23.1542L55.3657 27.0393C53.3109 29.0947 50.5239 30.2497 47.6175 30.2503H6.8546C5.9551 30.2503 5.06441 30.4275 4.23339 30.7717C3.40237 31.1159 2.64729 31.6205 2.01125 32.2565C1.37521 32.8925 0.870682 33.6476 0.526459 34.4786C0.182236 35.3097 0.00506592 36.2004 0.00506592 37.0999ZM17.1809 24.7707L29.5101 4.25772C30.2218 2.99469 31.2578 1.94457 32.511 1.21583C33.7643 0.487091 35.1894 0.106157 36.6391 0.11238C37.8031 0.112697 38.9498 0.395011 39.9809 0.935166C41.012 1.47532 41.8969 2.25724 42.5599 3.21401C43.2229 4.17079 43.6442 5.27394 43.7878 6.42907C43.9314 7.58421 43.793 8.75694 43.3845 9.84693L37.5816 24.7707H17.1809Z" fill="white"/>
</svg>
