<svg width="116" height="72" viewBox="0 0 116 72" fill="none" xmlns="http://www.w3.org/2000/svg">
<path d="M10.1253 48.5241L1.09248 33.0515C0.156633 31.4373 0.951333 29.3922 2.71462 28.8381L8.99811 26.8762C10.8643 26.2838 12.8993 26.7019 14.4111 27.9432L21.5527 33.8254L44.871 28.2752L25.1902 9.2499C23.81 7.91204 24.0871 5.62136 25.7443 4.66854L32.0135 1.06402C33.8271 0.0213101 36.0476 0.0401552 37.8564 1.11066L72.506 21.6851L92.1459 17.0171C95.0587 16.3244 98.0969 16.2075 101.049 16.6621L108.935 17.8954C114.432 18.7471 116.971 25.2485 113.459 29.5455C108.435 35.6938 101.627 40.1305 93.9585 42.2202L40.2716 56.8725C38.2727 57.4157 36.1667 57.4146 34.1553 56.8576L13.608 51.2233C12.1404 50.8133 10.882 49.8652 10.1097 48.5331L10.1253 48.5241ZM58.3675 62.8088C59.9757 65.5827 59.0393 69.1092 56.2721 70.7002C53.5049 72.2913 49.9699 71.3356 48.3617 68.5616C46.7535 65.7877 47.6899 62.2612 50.4571 60.6702C53.2243 59.0792 56.7593 60.0348 58.3675 62.8088ZM72.7345 64.5785C69.9673 66.1695 66.4323 65.2138 64.8241 62.4399C63.2159 59.6659 64.1523 56.1394 66.9195 54.5484C69.6867 52.9574 73.2217 53.9131 74.8299 56.687C76.4381 59.4609 75.5017 62.9874 72.7345 64.5785Z" fill="#628CA5"/>
</svg>
