<svg width="63" height="63" viewBox="0 0 63 63" fill="none" xmlns="http://www.w3.org/2000/svg">
<path d="M61.5466 55.7574L49.5922 43.7979C58.5371 31.8444 56.0981 14.9028 44.1446 5.95796C32.1911 -2.98694 15.2495 -0.547957 6.30464 11.4055C-2.64026 23.359 -0.201277 40.3006 11.7522 49.2455C21.3543 56.4308 34.5424 56.4308 44.1446 49.2455L56.1041 61.205C57.607 62.7079 60.0437 62.7079 61.5465 61.205C63.0494 59.7021 63.0494 57.2654 61.5465 55.7626L61.5466 55.7574ZM28.0481 46.9372C17.4244 46.9372 8.81226 38.3251 8.81226 27.7014C8.81226 17.0777 17.4244 8.46558 28.0481 8.46558C38.6718 8.46558 47.2839 17.0777 47.2839 27.7014C47.2726 38.3203 38.6671 46.9259 28.0481 46.9372Z" fill="white"/>
</svg>
